<svg width="1173" height="885" viewBox="0 0 1173 885" fill="none" xmlns="http://www.w3.org/2000/svg">
<rect width="200" height="108.153" rx="30" transform="matrix(0.866041 0.499972 -0.866041 0.499972 790.66 220.02)" fill="#D9D9D9"/>
<rect width="200" height="108.153" rx="30" transform="matrix(0.866041 0.499972 -0.866041 0.499972 902.66 150.02)" fill="#D9D9D9"/>
<rect width="200" height="108.153" rx="30" transform="matrix(0.866041 0.499972 -0.866041 0.499972 1014.66 80.0195)" fill="#D9D9D9"/>
<rect width="200" height="108.153" rx="30" transform="matrix(0.866041 0.499972 -0.866041 0.499972 632.664 373.023)" fill="#D9D9D9"/>
<rect width="154.574" height="108.153" rx="30" transform="matrix(0.866041 0.499972 -0.866041 0.499972 713.66 287.023)" fill="#D9D9D9"/>
<rect width="154.574" height="108.153" rx="30" transform="matrix(0.866041 0.499972 -0.866041 0.499972 599.664 353.023)" fill="#D9D9D9"/>
<path d="M976.701 116.242L969.18 116.253C968.437 116.253 967.972 117.056 968.34 117.7L971.299 122.886C971.738 123.655 971.437 124.637 970.641 125.031L965.277 127.667C964.871 127.868 964.923 128.463 965.355 128.589L977.891 132.251" fill="#338862"/>
<path d="M976.701 116.242L969.18 116.253C968.437 116.253 967.972 117.056 968.34 117.7L971.299 122.886C971.738 123.655 971.437 124.637 970.641 125.031L965.277 127.667C964.871 127.868 964.923 128.463 965.355 128.589L977.891 132.251" stroke="#22211D" stroke-width="3.34599" stroke-miterlimit="10"/>
<path d="M968.355 116.417L975.746 116.424C976.516 116.424 977.122 115.778 977.074 115.012L976.687 109.193C976.639 108.409 977.579 107.97 978.144 108.517L986.915 117.276" fill="#338862"/>
<path d="M968.355 116.417L975.746 116.424C976.516 116.424 977.122 115.778 977.074 115.012L976.687 109.193C976.639 108.409 977.579 107.97 978.144 108.517L986.915 117.276" stroke="#22211D" stroke-width="3.34599" stroke-miterlimit="10"/>
<path d="M985.334 118.042L984.434 117.146L978.174 116.867C978.174 116.867 978.036 117.057 977.932 117.161C977.683 117.406 977.519 117.522 977.519 117.522C977.519 117.522 977.334 117.655 977.144 117.756C976.969 117.845 976.906 117.864 976.824 117.897L977.761 130.467L978.274 130.619L985.334 118.042Z" fill="#338862"/>
<path d="M1118.61 124.344V177.999H1008.22V122.15" fill="white"/>
<path d="M1118.61 124.344V177.999H1008.22V122.15" stroke="#22211D" stroke-width="3.34599" stroke-miterlimit="10"/>
<path d="M1119.03 154.5L1118.57 127.706L1139.44 117.783L1151.5 141.105L1119.7 155.184C1119.48 154.957 1119.26 154.73 1119.03 154.5Z" fill="white" stroke="#22211D" stroke-width="3.34599" stroke-miterlimit="10"/>
<path d="M1122.75 51.0009C1120.03 56.6667 1114.27 60.5741 1107.59 60.5741C1098.3 60.5741 1090.76 52.9936 1090.76 43.6397C1090.76 42.2381 1090.93 40.8774 1091.25 39.5724C1086.24 38.5686 1081.01 37.8437 1075.61 37.4198C1067.91 36.9849 1064.53 36.9849 1054.96 37.3083C1049.71 37.6615 1044.62 38.3047 1039.72 39.2044C1040.28 40.8811 1040.58 42.6768 1040.58 44.5431C1040.58 53.897 1033.04 61.4775 1023.75 61.4775C1016.4 61.4775 1010.15 56.7411 1007.86 50.1272C991.654 59.0275 981.523 71.6977 981.523 85.7583C981.523 99.7966 991.617 112.448 1007.78 121.352C1008.03 121.49 1008.29 121.627 1008.54 121.765C1013.49 124.423 1018.98 126.732 1024.92 128.628C1036.69 132.394 1050.18 134.528 1064.53 134.528C1076.79 134.528 1088.43 132.966 1098.9 130.167C1105.23 128.472 1111.13 126.327 1116.49 123.795C1116.87 123.616 1117.25 123.438 1117.62 123.256C1135.91 114.303 1147.55 100.83 1147.55 85.7546C1147.54 72.1512 1138.06 59.8454 1122.75 51.0009ZM1009.67 76.9472C1002.64 76.9472 996.945 75.0399 996.945 72.6829C996.945 70.3258 1002.64 68.4186 1009.67 68.4186C1016.7 68.4186 1022.39 70.3258 1022.39 72.6829C1022.39 75.0399 1016.7 76.9472 1009.67 76.9472ZM1120.32 76.9472C1113.29 76.9472 1107.59 75.0399 1107.59 72.6829C1107.59 70.3258 1113.29 68.4186 1120.32 68.4186C1127.35 68.4186 1133.04 70.3258 1133.04 72.6829C1133.04 75.0399 1127.35 76.9472 1120.32 76.9472Z" fill="#338862" stroke="#22211D" stroke-width="4.08955" stroke-miterlimit="10"/>
<path d="M1022.52 73.1547C1022.52 75.4931 1016.84 77.3855 1009.85 77.3855C1002.85 77.3855 997.172 75.4931 997.172 73.1547C997.172 70.8162 1002.85 68.9238 1009.85 68.9238C1016.84 68.9201 1022.52 70.8162 1022.52 73.1547Z" fill="white" stroke="#22211D" stroke-width="5.57665" stroke-miterlimit="10"/>
<path d="M1120.01 77.3855C1127.01 77.3855 1132.69 75.4913 1132.69 73.1547C1132.69 70.818 1127.01 68.9238 1120.01 68.9238C1113.01 68.9238 1107.34 70.818 1107.34 73.1547C1107.34 75.4913 1113.01 77.3855 1120.01 77.3855Z" fill="white" stroke="#22211D" stroke-width="5.57665" stroke-miterlimit="10"/>
<path d="M1124.1 44.3387C1124.1 46.956 1123.5 49.432 1122.44 51.6404C1119.73 57.2654 1113.99 61.143 1107.34 61.143C1098.09 61.143 1090.59 53.6219 1090.59 44.3387C1090.59 42.9482 1090.76 41.595 1091.07 40.3049C1092.87 32.9735 1099.48 27.5381 1107.34 27.5381C1116.6 27.5381 1124.1 35.0591 1124.1 44.3387Z" fill="white" stroke="#22211D" stroke-width="4.08955" stroke-miterlimit="10"/>
<path d="M1039.77 39.9362C1037.56 33.2516 1031.27 28.4297 1023.87 28.4297C1014.61 28.4297 1007.11 35.9507 1007.11 45.2303C1007.11 47.171 1007.44 49.0373 1008.04 50.7735C1010.33 57.3353 1016.55 62.0346 1023.87 62.0346C1033.12 62.0346 1040.62 54.5135 1040.62 45.2303C1040.62 43.3826 1040.32 41.6017 1039.77 39.9362Z" fill="white" stroke="#22211D" stroke-width="4.08955" stroke-miterlimit="10"/>
<path d="M1031.04 38.4336C1035.34 38.4336 1038.83 41.6829 1038.83 45.7093C1038.83 49.7319 1035.33 52.9849 1031.04 52.9849C1026.73 52.9849 1023.23 49.7356 1023.23 45.7093C1023.23 41.6829 1026.73 38.4336 1031.04 38.4336Z" fill="#22211D" stroke="#22211D" stroke-width="3.34599" stroke-miterlimit="10"/>
<path d="M1114.35 37.5381C1118.65 37.5381 1122.14 40.7874 1122.14 44.8138C1122.14 48.8364 1118.64 52.0894 1114.35 52.0894C1110.04 52.0894 1106.54 48.8401 1106.54 44.8138C1106.54 40.7874 1110.04 37.5381 1114.35 37.5381Z" fill="#22211D" stroke="#22211D" stroke-width="3.34599" stroke-miterlimit="10"/>
<path d="M1120.01 77.3855C1127.01 77.3855 1132.69 75.4913 1132.69 73.1547C1132.69 70.818 1127.01 68.9238 1120.01 68.9238C1113.01 68.9238 1107.34 70.818 1107.34 73.1547C1107.34 75.4913 1113.01 77.3855 1120.01 77.3855Z" fill="#E15D34"/>
<path d="M1022.52 73.1547C1022.52 75.4931 1016.84 77.3855 1009.85 77.3855C1002.85 77.3855 997.172 75.4931 997.172 73.1547C997.172 70.8162 1002.85 68.9238 1009.85 68.9238C1016.84 68.9201 1022.52 70.8162 1022.52 73.1547Z" fill="#E15D34"/>
<path d="M1108.68 12.6446L1068.02 0.234727C1067.49 0.0711453 1066.87 -0.00692962 1066.25 0.000505915C1065.64 -0.00692962 1065.02 0.0674276 1064.48 0.234727L1023.82 12.6446C1021.9 13.2283 1021.91 14.563 1023.82 15.1467L1047.19 22.2774V39.3568C1047.19 40.7026 1048.76 41.7696 1051.26 42.5727C1058.47 44.8814 1073.45 44.9297 1080.9 42.6916C1083.6 41.8812 1085.31 40.7733 1085.31 39.3568V22.2774L1108.68 15.1467C1110.6 14.563 1110.6 13.2283 1108.68 12.6446Z" fill="#020203"/>
<path d="M1073.63 73.2959C1073.63 77.0992 1070.32 80.1812 1066.25 80.1812C1062.17 80.1812 1058.87 77.0992 1058.87 73.2959" fill="white"/>
<path d="M1073.63 73.2959C1073.63 77.0992 1070.32 80.1812 1066.25 80.1812C1062.17 80.1812 1058.87 77.0992 1058.87 73.2959" stroke="#22211D" stroke-width="3.34599" stroke-miterlimit="10" stroke-linecap="round"/>
<path d="M1058.87 72.5488H1073.63" stroke="#22211D" stroke-width="3.34599" stroke-miterlimit="10" stroke-linecap="round"/>
<path d="M1081.67 142.576L1097.19 154.079L1071.01 158.704" fill="white"/>
<path d="M1081.67 142.576L1097.19 154.079L1071.01 158.704" stroke="#22211D" stroke-width="3.34599" stroke-miterlimit="10"/>
<path d="M1106.69 128.619L1107.87 140.65L1086.26 147.435" fill="white"/>
<path d="M1106.69 128.619L1107.87 140.65L1086.26 147.435" stroke="#22211D" stroke-width="3.34599" stroke-miterlimit="10"/>
<path d="M1064.53 155.567L1091.96 132.179" stroke="#22211D" stroke-width="3.34599" stroke-miterlimit="10"/>
<path d="M1061.68 171.814C1063.47 171.814 1064.92 170.362 1064.92 168.572C1064.92 166.782 1063.47 165.33 1061.68 165.33C1059.89 165.33 1058.44 166.782 1058.44 168.572C1058.44 170.362 1059.89 171.814 1061.68 171.814Z" stroke="#22211D" stroke-width="3.34599" stroke-miterlimit="10"/>
<path d="M1049.2 142.576L1033.68 154.079L1071.65 160.79" fill="white"/>
<path d="M1049.2 142.576L1033.68 154.079L1071.65 160.79" stroke="#22211D" stroke-width="3.34599" stroke-miterlimit="10"/>
<path d="M1042.12 134.789C1042.12 134.789 1050.51 136.384 1063.39 136.525C1076.5 136.667 1086.2 134.934 1086.2 134.934L1064.81 153.396L1042.12 134.789Z" fill="#F0AC06"/>
<path d="M1022.3 128.621L1021.12 140.652L1042.73 147.437" fill="white"/>
<path d="M1022.3 128.621L1021.12 140.652L1042.73 147.437" stroke="#22211D" stroke-width="3.34599" stroke-miterlimit="10"/>
<path d="M1071.65 178V160.787C1071.65 160.787 1034.88 130.948 1034.5 130.893" stroke="#22211D" stroke-width="3.34599" stroke-miterlimit="10"/>
<path d="M1150.35 117.156L1157.87 117.357C1158.61 117.376 1159.06 118.19 1158.67 118.826L1155.58 123.937C1155.13 124.696 1155.4 125.685 1156.19 126.097L1161.48 128.871C1161.89 129.079 1161.82 129.674 1161.38 129.789L1148.75 133.135" fill="#338862"/>
<path d="M1150.35 117.156L1157.87 117.357C1158.61 117.376 1159.06 118.19 1158.67 118.826L1155.58 123.937C1155.13 124.696 1155.4 125.685 1156.19 126.097L1161.48 128.871C1161.89 129.079 1161.82 129.674 1161.38 129.789L1148.75 133.135" stroke="#22211D" stroke-width="3.34599" stroke-miterlimit="10"/>
<path d="M1158.69 117.542L1151.3 117.36C1150.53 117.342 1149.94 116.676 1150.01 115.914L1150.54 110.107C1150.61 109.322 1149.68 108.865 1149.1 109.393L1140.11 117.929" fill="#338862"/>
<path d="M1158.69 117.542L1151.3 117.36C1150.53 117.342 1149.94 116.676 1150.01 115.914L1150.54 110.107C1150.61 109.322 1149.68 108.865 1149.1 109.393L1140.11 117.929" stroke="#22211D" stroke-width="3.34599" stroke-miterlimit="10"/>
<path d="M1141.68 118.74L1142.6 117.87L1148.87 117.747C1148.87 117.747 1149 117.937 1149.1 118.044C1149.34 118.297 1149.5 118.416 1149.5 118.416C1149.5 118.416 1149.68 118.558 1149.87 118.658C1150.04 118.751 1150.11 118.769 1150.19 118.81L1148.93 131.35L1148.42 131.488L1141.68 118.74Z" fill="#338862"/>
<path d="M1007.75 153.456L1008.22 126.662L987.345 116.743L975.281 140.065L1007.08 154.144C1007.31 153.913 1007.53 153.687 1007.75 153.456Z" fill="white" stroke="#22211D" stroke-width="3.34599" stroke-miterlimit="10"/>
<path d="M864.701 186.242L857.18 186.253C856.437 186.253 855.972 187.056 856.34 187.7L859.299 192.886C859.738 193.655 859.437 194.637 858.641 195.031L853.277 197.667C852.871 197.868 852.923 198.463 853.355 198.589L865.891 202.251" fill="#338862"/>
<path d="M864.701 186.242L857.18 186.253C856.437 186.253 855.972 187.056 856.34 187.7L859.299 192.886C859.738 193.655 859.437 194.637 858.641 195.031L853.277 197.667C852.871 197.868 852.923 198.463 853.355 198.589L865.891 202.251" stroke="#22211D" stroke-width="3.34599" stroke-miterlimit="10"/>
<path d="M856.355 186.417L863.746 186.424C864.516 186.424 865.122 185.778 865.074 185.012L864.687 179.193C864.639 178.409 865.579 177.97 866.144 178.517L874.915 187.276" fill="#338862"/>
<path d="M856.355 186.417L863.746 186.424C864.516 186.424 865.122 185.778 865.074 185.012L864.687 179.193C864.639 178.409 865.579 177.97 866.144 178.517L874.915 187.276" stroke="#22211D" stroke-width="3.34599" stroke-miterlimit="10"/>
<path d="M873.334 188.042L872.434 187.146L866.174 186.867C866.174 186.867 866.036 187.057 865.932 187.161C865.683 187.406 865.519 187.522 865.519 187.522C865.519 187.522 865.334 187.655 865.144 187.756C864.969 187.845 864.906 187.864 864.824 187.897L865.761 200.467L866.274 200.619L873.334 188.042Z" fill="#338862"/>
<path d="M1006.61 194.344V247.999H896.223V192.15" fill="white"/>
<path d="M1006.61 194.344V247.999H896.223V192.15" stroke="#22211D" stroke-width="3.34599" stroke-miterlimit="10"/>
<path d="M1007.03 224.5L1006.57 197.706L1027.44 187.783L1039.5 211.105L1007.7 225.184C1007.48 224.957 1007.26 224.73 1007.03 224.5Z" fill="white" stroke="#22211D" stroke-width="3.34599" stroke-miterlimit="10"/>
<path d="M1010.75 121.001C1008.03 126.667 1002.27 130.574 995.589 130.574C986.299 130.574 978.763 122.994 978.763 113.64C978.763 112.238 978.934 110.877 979.253 109.572C974.242 108.569 969.007 107.844 963.613 107.42C955.91 106.985 952.534 106.985 942.961 107.308C937.715 107.661 932.621 108.305 927.721 109.204C928.279 110.881 928.576 112.677 928.576 114.543C928.576 123.897 921.041 131.478 911.75 131.478C904.4 131.478 898.154 126.741 895.86 120.127C879.654 129.028 869.523 141.698 869.523 155.758C869.523 169.797 879.617 182.448 895.778 191.352C896.031 191.49 896.288 191.627 896.54 191.765C901.489 194.423 906.98 196.732 912.917 198.628C924.688 202.394 938.183 204.528 952.534 204.528C964.791 204.528 976.432 202.966 986.905 200.167C993.232 198.472 999.132 196.327 1004.49 193.795C1004.87 193.616 1005.25 193.438 1005.62 193.256C1023.91 184.303 1035.55 170.83 1035.55 155.755C1035.54 142.151 1026.06 129.845 1010.75 121.001ZM897.671 146.947C890.64 146.947 884.945 145.04 884.945 142.683C884.945 140.326 890.64 138.419 897.671 138.419C904.697 138.419 910.393 140.326 910.393 142.683C910.393 145.04 904.701 146.947 897.671 146.947ZM1008.32 146.947C1001.29 146.947 995.593 145.04 995.593 142.683C995.593 140.326 1001.29 138.419 1008.32 138.419C1015.35 138.419 1021.04 140.326 1021.04 142.683C1021.04 145.04 1015.35 146.947 1008.32 146.947Z" fill="#338862" stroke="#22211D" stroke-width="4.08955" stroke-miterlimit="10"/>
<path d="M910.516 143.155C910.516 145.493 904.843 147.385 897.846 147.385C890.845 147.385 885.172 145.493 885.172 143.155C885.172 140.816 890.845 138.924 897.846 138.924C904.843 138.92 910.516 140.816 910.516 143.155Z" fill="white" stroke="#22211D" stroke-width="5.57665" stroke-miterlimit="10"/>
<path d="M1008.01 147.385C1015.01 147.385 1020.69 145.491 1020.69 143.155C1020.69 140.818 1015.01 138.924 1008.01 138.924C1001.01 138.924 995.34 140.818 995.34 143.155C995.34 145.491 1001.01 147.385 1008.01 147.385Z" fill="white" stroke="#22211D" stroke-width="5.57665" stroke-miterlimit="10"/>
<path d="M1012.1 114.339C1012.1 116.956 1011.5 119.432 1010.44 121.64C1007.73 127.265 1001.99 131.143 995.342 131.143C986.088 131.143 978.586 123.622 978.586 114.339C978.586 112.948 978.757 111.595 979.073 110.305C980.872 102.973 987.475 97.5381 995.338 97.5381C1004.6 97.5381 1012.1 105.059 1012.1 114.339Z" fill="white" stroke="#22211D" stroke-width="4.08955" stroke-miterlimit="10"/>
<path d="M927.77 109.936C925.558 103.252 919.271 98.4297 911.865 98.4297C902.612 98.4297 895.109 105.951 895.109 115.23C895.109 117.171 895.44 119.037 896.043 120.773C898.325 127.335 904.545 132.035 911.865 132.035C921.115 132.035 928.621 124.514 928.621 115.23C928.621 113.383 928.324 111.602 927.77 109.936Z" fill="white" stroke="#22211D" stroke-width="4.08955" stroke-miterlimit="10"/>
<path d="M918.038 108.434C922.336 108.434 925.827 111.683 925.827 115.709C925.827 119.732 922.332 122.985 918.038 122.985C913.725 122.985 910.23 119.736 910.23 115.709C910.23 111.683 913.725 108.434 918.038 108.434Z" fill="#22211D" stroke="#22211D" stroke-width="3.34599" stroke-miterlimit="10"/>
<path d="M1003.35 107.538C1007.65 107.538 1011.14 110.787 1011.14 114.814C1011.14 118.836 1007.64 122.089 1003.35 122.089C999.038 122.089 995.543 118.84 995.543 114.814C995.543 110.787 999.038 107.538 1003.35 107.538Z" fill="#22211D" stroke="#22211D" stroke-width="3.34599" stroke-miterlimit="10"/>
<path d="M1008.01 147.385C1015.01 147.385 1020.69 145.491 1020.69 143.155C1020.69 140.818 1015.01 138.924 1008.01 138.924C1001.01 138.924 995.34 140.818 995.34 143.155C995.34 145.491 1001.01 147.385 1008.01 147.385Z" fill="#E15D34"/>
<path d="M910.516 143.155C910.516 145.493 904.843 147.385 897.846 147.385C890.845 147.385 885.172 145.493 885.172 143.155C885.172 140.816 890.845 138.924 897.846 138.924C904.843 138.92 910.516 140.816 910.516 143.155Z" fill="#E15D34"/>
<path d="M996.682 82.6446L956.024 70.2347C955.485 70.0711 954.868 69.9931 954.251 70.0005C953.638 69.9931 953.017 70.0674 952.478 70.2347L911.82 82.6446C909.902 83.2283 909.906 84.563 911.82 85.1467L935.186 92.2774V109.357C935.186 110.703 936.759 111.77 939.257 112.573C946.474 114.881 961.452 114.93 968.903 112.692C971.602 111.881 973.312 110.773 973.312 109.357V92.2774L996.678 85.1467C998.597 84.563 998.6 83.2283 996.682 82.6446Z" fill="#020203"/>
<path d="M961.627 143.296C961.627 147.099 958.322 150.181 954.247 150.181C950.172 150.181 946.867 147.099 946.867 143.296" fill="white"/>
<path d="M961.627 143.296C961.627 147.099 958.322 150.181 954.247 150.181C950.172 150.181 946.867 147.099 946.867 143.296" stroke="#22211D" stroke-width="3.34599" stroke-miterlimit="10" stroke-linecap="round"/>
<path d="M946.867 142.549H961.627" stroke="#22211D" stroke-width="3.34599" stroke-miterlimit="10" stroke-linecap="round"/>
<path d="M969.67 212.576L985.188 224.079L959.008 228.704" fill="white"/>
<path d="M969.67 212.576L985.188 224.079L959.008 228.704" stroke="#22211D" stroke-width="3.34599" stroke-miterlimit="10"/>
<path d="M994.695 198.619L995.873 210.65L974.262 217.435" fill="white"/>
<path d="M994.695 198.619L995.873 210.65L974.262 217.435" stroke="#22211D" stroke-width="3.34599" stroke-miterlimit="10"/>
<path d="M952.531 225.567L979.965 202.179" stroke="#22211D" stroke-width="3.34599" stroke-miterlimit="10"/>
<path d="M949.679 241.814C951.47 241.814 952.921 240.362 952.921 238.572C952.921 236.782 951.47 235.33 949.679 235.33C947.889 235.33 946.438 236.782 946.438 238.572C946.438 240.362 947.889 241.814 949.679 241.814Z" stroke="#22211D" stroke-width="3.34599" stroke-miterlimit="10"/>
<path d="M937.201 212.576L921.68 224.079L959.649 230.79" fill="white"/>
<path d="M937.201 212.576L921.68 224.079L959.649 230.79" stroke="#22211D" stroke-width="3.34599" stroke-miterlimit="10"/>
<path d="M930.121 204.789C930.121 204.789 938.512 206.384 951.387 206.525C964.496 206.667 974.199 204.934 974.199 204.934L952.811 223.396L930.121 204.789Z" fill="#F0AC06"/>
<path d="M910.296 198.621L909.121 210.652L930.729 217.437" fill="white"/>
<path d="M910.296 198.621L909.121 210.652L930.729 217.437" stroke="#22211D" stroke-width="3.34599" stroke-miterlimit="10"/>
<path d="M959.648 248V230.787C959.648 230.787 922.875 200.948 922.496 200.893" stroke="#22211D" stroke-width="3.34599" stroke-miterlimit="10"/>
<path d="M1038.35 187.156L1045.87 187.357C1046.61 187.376 1047.06 188.19 1046.67 188.826L1043.58 193.937C1043.13 194.696 1043.4 195.685 1044.19 196.097L1049.48 198.871C1049.89 199.079 1049.82 199.674 1049.38 199.789L1036.75 203.135" fill="#338862"/>
<path d="M1038.35 187.156L1045.87 187.357C1046.61 187.376 1047.06 188.19 1046.67 188.826L1043.58 193.937C1043.13 194.696 1043.4 195.685 1044.19 196.097L1049.48 198.871C1049.89 199.079 1049.82 199.674 1049.38 199.789L1036.75 203.135" stroke="#22211D" stroke-width="3.34599" stroke-miterlimit="10"/>
<path d="M1046.69 187.542L1039.3 187.36C1038.53 187.342 1037.94 186.676 1038.01 185.914L1038.54 180.107C1038.61 179.322 1037.68 178.865 1037.1 179.393L1028.11 187.929" fill="#338862"/>
<path d="M1046.69 187.542L1039.3 187.36C1038.53 187.342 1037.94 186.676 1038.01 185.914L1038.54 180.107C1038.61 179.322 1037.68 178.865 1037.1 179.393L1028.11 187.929" stroke="#22211D" stroke-width="3.34599" stroke-miterlimit="10"/>
<path d="M1029.68 188.74L1030.6 187.87L1036.87 187.747C1036.87 187.747 1037 187.937 1037.1 188.044C1037.34 188.297 1037.5 188.416 1037.5 188.416C1037.5 188.416 1037.68 188.558 1037.87 188.658C1038.04 188.751 1038.11 188.769 1038.19 188.81L1036.93 201.35L1036.42 201.488L1029.68 188.74Z" fill="#338862"/>
<path d="M895.749 223.456L896.217 196.662L875.345 186.743L863.281 210.065L895.083 224.144C895.306 223.913 895.529 223.687 895.749 223.456Z" fill="white" stroke="#22211D" stroke-width="3.34599" stroke-miterlimit="10"/>
<path d="M752.697 256.242L745.176 256.253C744.433 256.253 743.968 257.056 744.336 257.7L747.295 262.886C747.734 263.655 747.433 264.637 746.637 265.031L741.273 267.667C740.867 267.868 740.919 268.463 741.351 268.589L753.887 272.251" fill="#338862"/>
<path d="M752.697 256.242L745.176 256.253C744.433 256.253 743.968 257.056 744.336 257.7L747.295 262.886C747.734 263.655 747.433 264.637 746.637 265.031L741.273 267.667C740.867 267.868 740.919 268.463 741.351 268.589L753.887 272.251" stroke="#22211D" stroke-width="3.34599" stroke-miterlimit="10"/>
<path d="M744.352 256.417L751.742 256.424C752.512 256.424 753.118 255.778 753.07 255.012L752.683 249.193C752.635 248.409 753.575 247.97 754.14 248.517L762.911 257.276" fill="#338862"/>
<path d="M744.352 256.417L751.742 256.424C752.512 256.424 753.118 255.778 753.07 255.012L752.683 249.193C752.635 248.409 753.575 247.97 754.14 248.517L762.911 257.276" stroke="#22211D" stroke-width="3.34599" stroke-miterlimit="10"/>
<path d="M761.33 258.042L760.431 257.146L754.17 256.867C754.17 256.867 754.032 257.057 753.928 257.161C753.679 257.406 753.516 257.522 753.516 257.522C753.516 257.522 753.33 257.655 753.14 257.756C752.965 257.845 752.902 257.864 752.82 257.897L753.757 270.467L754.27 270.619L761.33 258.042Z" fill="#338862"/>
<path d="M894.607 264.344V317.999H784.215V262.15" fill="white"/>
<path d="M894.607 264.344V317.999H784.215V262.15" stroke="#22211D" stroke-width="3.34599" stroke-miterlimit="10"/>
<path d="M895.027 294.5L894.559 267.706L915.43 257.783L927.494 281.105L895.693 295.184C895.473 294.957 895.25 294.73 895.027 294.5Z" fill="white" stroke="#22211D" stroke-width="3.34599" stroke-miterlimit="10"/>
<path d="M898.746 191.001C896.025 196.667 890.259 200.574 883.581 200.574C874.291 200.574 866.755 192.994 866.755 183.64C866.755 182.238 866.926 180.877 867.246 179.572C862.234 178.569 856.999 177.844 851.605 177.42C843.902 176.985 840.526 176.985 830.953 177.308C825.707 177.661 820.614 178.305 815.714 179.204C816.271 180.881 816.569 182.677 816.569 184.543C816.569 193.897 809.033 201.478 799.742 201.478C792.392 201.478 786.146 196.741 783.852 190.127C767.647 199.028 757.516 211.698 757.516 225.758C757.516 239.797 767.609 252.448 783.771 261.352C784.023 261.49 784.28 261.627 784.533 261.765C789.481 264.423 794.972 266.732 800.909 268.628C812.68 272.394 826.175 274.528 840.526 274.528C852.783 274.528 864.424 272.966 874.897 270.167C881.224 268.472 887.124 266.327 892.482 263.795C892.865 263.616 893.24 263.438 893.616 263.256C911.903 254.303 923.54 240.83 923.54 225.755C923.536 212.151 914.049 199.845 898.746 191.001ZM785.663 216.947C778.633 216.947 772.937 215.04 772.937 212.683C772.937 210.326 778.633 208.419 785.663 208.419C792.689 208.419 798.385 210.326 798.385 212.683C798.385 215.04 792.693 216.947 785.663 216.947ZM896.311 216.947C889.281 216.947 883.585 215.04 883.585 212.683C883.585 210.326 889.281 208.419 896.311 208.419C903.338 208.419 909.037 210.326 909.037 212.683C909.037 215.04 903.338 216.947 896.311 216.947Z" fill="#338862" stroke="#22211D" stroke-width="4.08955" stroke-miterlimit="10"/>
<path d="M798.508 213.155C798.508 215.493 792.835 217.385 785.838 217.385C778.837 217.385 773.164 215.493 773.164 213.155C773.164 210.816 778.837 208.924 785.838 208.924C792.835 208.92 798.508 210.816 798.508 213.155Z" fill="white" stroke="#22211D" stroke-width="5.57665" stroke-miterlimit="10"/>
<path d="M896.006 217.385C903.005 217.385 908.68 215.491 908.68 213.155C908.68 210.818 903.005 208.924 896.006 208.924C889.006 208.924 883.332 210.818 883.332 213.155C883.332 215.491 889.006 217.385 896.006 217.385Z" fill="white" stroke="#22211D" stroke-width="5.57665" stroke-miterlimit="10"/>
<path d="M900.09 184.339C900.09 186.956 899.492 189.432 898.432 191.64C895.722 197.265 889.981 201.143 883.334 201.143C874.081 201.143 866.578 193.622 866.578 184.339C866.578 182.948 866.749 181.595 867.065 180.305C868.865 172.973 875.467 167.538 883.33 167.538C892.591 167.538 900.09 175.059 900.09 184.339Z" fill="white" stroke="#22211D" stroke-width="4.08955" stroke-miterlimit="10"/>
<path d="M815.762 179.936C813.55 173.252 807.263 168.43 799.858 168.43C790.604 168.43 783.102 175.951 783.102 185.23C783.102 187.171 783.432 189.037 784.035 190.773C786.317 197.335 792.537 202.035 799.858 202.035C809.107 202.035 816.614 194.514 816.614 185.23C816.614 183.383 816.316 181.602 815.762 179.936Z" fill="white" stroke="#22211D" stroke-width="4.08955" stroke-miterlimit="10"/>
<path d="M799.03 168.434C803.328 168.434 806.819 171.683 806.819 175.709C806.819 179.732 803.324 182.985 799.03 182.985C794.717 182.985 791.223 179.736 791.223 175.709C791.223 171.683 794.717 168.434 799.03 168.434Z" fill="#22211D" stroke="#22211D" stroke-width="3.34599" stroke-miterlimit="10"/>
<path d="M890.342 177.538C894.64 177.538 898.131 180.787 898.131 184.814C898.131 188.836 894.636 192.089 890.342 192.089C886.03 192.089 882.535 188.84 882.535 184.814C882.535 180.787 886.03 177.538 890.342 177.538Z" fill="#22211D" stroke="#22211D" stroke-width="3.34599" stroke-miterlimit="10"/>
<path d="M896.006 217.385C903.005 217.385 908.68 215.491 908.68 213.155C908.68 210.818 903.005 208.924 896.006 208.924C889.006 208.924 883.332 210.818 883.332 213.155C883.332 215.491 889.006 217.385 896.006 217.385Z" fill="#E15D34"/>
<path d="M798.508 213.155C798.508 215.493 792.835 217.385 785.838 217.385C778.837 217.385 773.164 215.493 773.164 213.155C773.164 210.816 778.837 208.924 785.838 208.924C792.835 208.92 798.508 210.816 798.508 213.155Z" fill="#E15D34"/>
<path d="M884.674 152.645L844.017 140.235C843.478 140.071 842.86 139.993 842.243 140.001C841.63 139.993 841.009 140.067 840.47 140.235L799.812 152.645C797.894 153.228 797.898 154.563 799.812 155.147L823.179 162.277V179.357C823.179 180.703 824.751 181.77 827.25 182.573C834.466 184.881 849.445 184.93 856.895 182.692C859.594 181.881 861.304 180.773 861.304 179.357V162.277L884.67 155.147C886.589 154.563 886.593 153.228 884.674 152.645Z" fill="#020203"/>
<path d="M849.619 213.296C849.619 217.099 846.314 220.181 842.239 220.181C838.164 220.181 834.859 217.099 834.859 213.296" fill="white"/>
<path d="M849.619 213.296C849.619 217.099 846.314 220.181 842.239 220.181C838.164 220.181 834.859 217.099 834.859 213.296" stroke="#22211D" stroke-width="3.34599" stroke-miterlimit="10" stroke-linecap="round"/>
<path d="M834.859 212.549H849.619" stroke="#22211D" stroke-width="3.34599" stroke-miterlimit="10" stroke-linecap="round"/>
<path d="M857.663 282.576L873.181 294.079L847 298.704" fill="white"/>
<path d="M857.663 282.576L873.181 294.079L847 298.704" stroke="#22211D" stroke-width="3.34599" stroke-miterlimit="10"/>
<path d="M882.687 268.619L883.865 280.65L862.254 287.435" fill="white"/>
<path d="M882.687 268.619L883.865 280.65L862.254 287.435" stroke="#22211D" stroke-width="3.34599" stroke-miterlimit="10"/>
<path d="M840.523 295.567L867.957 272.179" stroke="#22211D" stroke-width="3.34599" stroke-miterlimit="10"/>
<path d="M837.672 311.814C839.462 311.814 840.913 310.362 840.913 308.572C840.913 306.782 839.462 305.33 837.672 305.33C835.881 305.33 834.43 306.782 834.43 308.572C834.43 310.362 835.881 311.814 837.672 311.814Z" stroke="#22211D" stroke-width="3.34599" stroke-miterlimit="10"/>
<path d="M825.194 282.576L809.672 294.079L847.641 300.79" fill="white"/>
<path d="M825.194 282.576L809.672 294.079L847.641 300.79" stroke="#22211D" stroke-width="3.34599" stroke-miterlimit="10"/>
<path d="M818.113 274.789C818.113 274.789 826.504 276.384 839.379 276.525C852.488 276.667 862.191 274.934 862.191 274.934L840.803 293.396L818.113 274.789Z" fill="#F0AC06"/>
<path d="M798.288 268.621L797.113 280.652L818.721 287.437" fill="white"/>
<path d="M798.288 268.621L797.113 280.652L818.721 287.437" stroke="#22211D" stroke-width="3.34599" stroke-miterlimit="10"/>
<path d="M847.64 318V300.787C847.64 300.787 810.867 270.948 810.488 270.893" stroke="#22211D" stroke-width="3.34599" stroke-miterlimit="10"/>
<path d="M926.345 257.156L933.862 257.357C934.602 257.376 935.048 258.19 934.665 258.826L931.576 263.937C931.118 264.696 931.393 265.685 932.178 266.097L937.476 268.871C937.877 269.079 937.81 269.674 937.372 269.789L924.746 273.135" fill="#338862"/>
<path d="M926.345 257.156L933.862 257.357C934.602 257.376 935.048 258.19 934.665 258.826L931.576 263.937C931.118 264.696 931.393 265.685 932.178 266.097L937.476 268.871C937.877 269.079 937.81 269.674 937.372 269.789L924.746 273.135" stroke="#22211D" stroke-width="3.34599" stroke-miterlimit="10"/>
<path d="M934.683 257.542L927.292 257.36C926.522 257.342 925.931 256.676 925.998 255.914L926.53 250.107C926.6 249.322 925.671 248.865 925.087 249.393L916.098 257.929" fill="#338862"/>
<path d="M934.683 257.542L927.292 257.36C926.522 257.342 925.931 256.676 925.998 255.914L926.53 250.107C926.6 249.322 925.671 248.865 925.087 249.393L916.098 257.929" stroke="#22211D" stroke-width="3.34599" stroke-miterlimit="10"/>
<path d="M917.672 258.74L918.594 257.87L924.858 257.747C924.858 257.747 924.988 257.937 925.093 258.044C925.334 258.297 925.494 258.416 925.494 258.416C925.494 258.416 925.676 258.558 925.866 258.658C926.037 258.751 926.104 258.769 926.182 258.81L924.925 271.35L924.408 271.488L917.672 258.74Z" fill="#338862"/>
<path d="M783.741 293.456L784.209 266.662L763.338 256.743L751.273 280.065L783.075 294.144C783.298 293.913 783.521 293.687 783.741 293.456Z" fill="white" stroke="#22211D" stroke-width="3.34599" stroke-miterlimit="10"/>
<path fill-rule="evenodd" clip-rule="evenodd" d="M342 147.094H843V635.354C843 640.756 840.161 645.703 835.462 648.367C805.949 665.097 695.76 727.559 612.217 774.917C599.981 781.853 585.019 781.853 572.783 774.917C475.469 719.753 342 644.094 342 644.094V147.094Z" fill="url(#paint0_linear_79_624)"/>
<path fill-rule="evenodd" clip-rule="evenodd" d="M342 147.094H843V635.354C843 640.756 840.161 645.703 835.462 648.367C805.949 665.097 695.76 727.559 612.217 774.917C599.981 781.853 585.019 781.853 572.783 774.917C475.469 719.753 342 644.094 342 644.094V147.094Z" fill="url(#paint1_linear_79_624)"/>
<rect width="306.971" height="306.971" rx="30" transform="matrix(0.866041 -0.499972 0.866041 0.499972 326.652 154.477)" fill="url(#paint2_linear_79_624)"/>
<path d="M733.507 97.5733C720.438 90.0286 704.578 84.2427 686.834 80.546C669.089 76.8493 649.807 75.3142 630.088 76.0284C610.369 76.7425 590.599 79.6918 571.908 84.7081C553.216 89.7243 535.969 96.7091 521.151 105.264C506.333 113.818 494.234 123.775 485.545 134.566C476.856 145.357 471.747 156.77 470.51 168.154C469.273 179.538 471.932 190.67 478.335 200.914C484.739 211.158 494.761 220.314 507.83 227.858L620.668 162.716L733.507 97.5733Z" fill="#2B7454"/>
<ellipse cx="46.1451" cy="46.1451" rx="46.1451" ry="46.1451" transform="matrix(0.866041 -0.499972 0.866041 0.499972 387.938 138.74)" fill="#2B7454"/>
<circle cx="36.1923" cy="36.1923" r="36.1923" transform="matrix(0.866041 -0.499972 0.866041 0.499972 406.746 138.74)" fill="white"/>
<circle cx="25.3346" cy="25.3346" r="25.3346" transform="matrix(0.866041 -0.499972 0.866041 0.499972 425.551 138.74)" fill="#2B7454"/>
<path d="M471.002 177.644C471.002 173.301 463.688 171.612 460.031 171.311L466.3 168.596L478.838 170.406L478.054 175.382L471.002 177.644Z" fill="#2B7454"/>
<path d="M644.177 75.8597C636.655 75.8597 633.729 71.6375 633.207 69.5264L628.505 73.1454L631.64 80.3835L640.259 79.9311L644.177 75.8597Z" fill="#2B7454"/>
<ellipse cx="46.1451" cy="46.1451" rx="46.1451" ry="46.1451" transform="matrix(0.866041 -0.499972 0.866041 0.499972 497.641 75.4062)" fill="#2B7454"/>
<circle cx="36.1923" cy="36.1923" r="36.1923" transform="matrix(0.866041 -0.499972 0.866041 0.499972 516.449 75.4062)" fill="white"/>
<circle cx="25.3346" cy="25.3346" r="25.3346" transform="matrix(0.866041 -0.499972 0.866041 0.499972 535.254 75.4062)" fill="#2B7454"/>
<path d="M610.64 130.248C612.003 132.535 612.517 135.031 612.153 137.593C611.789 140.156 610.555 142.734 608.52 145.182C606.485 147.63 603.69 149.899 600.294 151.859C596.898 153.82 592.968 155.433 588.728 156.608C584.488 157.783 580.022 158.495 575.583 158.705C571.144 158.915 566.821 158.619 562.859 157.832" stroke="white" stroke-width="9.04893" stroke-linecap="round" stroke-linejoin="round"/>
<path d="M566.507 227.853C572.023 226.314 578.183 227.11 583.102 230.056C592.158 235.443 590.917 242.901 578.873 249.854C568.07 256.09 557.175 256.594 546.602 251.711C538.557 248.023 525.318 239.902 516.998 234.143C519.986 227.376 536.489 218.114 545.683 217.052C557.865 215.646 567.15 221.219 566.599 226.845C566.599 227.11 566.553 227.402 566.507 227.853ZM563.105 242.874C564.806 242.582 566.369 241.733 567.012 240.724C567.794 239.636 567.104 238.654 565.495 237.885C564.162 237.221 562.462 237.248 561.036 237.752C559.933 238.177 558.232 239.053 558.232 240.008C559.749 240.99 561.45 241.919 563.105 242.874ZM546.556 233.692C548.809 233.347 551.107 231.701 548.119 230.029C545.499 228.623 542.327 230.454 542.557 231.383C543.062 232.099 544.671 233.134 546.556 233.692ZM580.086 205.312C586.43 208.018 608.403 221.022 615.069 226.091C615.391 230.735 603.806 235.672 591.441 230.868C586.568 228.957 560.687 214.6 556.55 210.513C557.055 205.869 567.353 199.924 580.086 205.312ZM625.187 204.274C630.197 201.434 637.231 196.79 645.229 193.181C655.71 195.038 658.147 202.443 652.263 206.37C646.333 210.272 636.403 215.685 636.403 215.685C631.76 218.366 622.153 223.382 612.637 218.578C603.949 214.146 604.225 206.609 604.776 197.427C598.387 201.169 592.686 204.99 591.032 205.627C584.412 205.15 574.574 198.727 582.619 193.499C587.906 190.023 606.018 179.885 611.166 176.913C615.487 177.072 622.199 179.354 624.084 184.211C625.738 188.51 625.784 199.258 625.187 204.274ZM693.186 182.533C687.118 186.514 678.935 190.76 678.935 190.76C674.2 193.493 665.696 197.288 655.353 192.856C647.906 189.672 631.403 180.888 621.841 173.298C622.255 168.653 632.966 162.364 645.469 168.149C651.445 170.962 660.823 176.376 666.385 179.8C670.247 177.199 678.705 172.422 685.968 169.131C696.633 170.989 699.208 178.579 693.186 182.533ZM691.635 167.717C684.188 161.348 673.064 149.246 670.259 144.231C674.489 139.401 685.291 129.82 703.311 134.173C711.862 136.243 733.1 142.824 744.5 147.389C748.867 150.653 740.547 162.038 724.319 156.863C721.285 158.455 718.251 160.419 715.218 162.065C716.367 163.63 717.93 165.382 719.677 167.133C712.505 176.05 700.094 174.883 691.635 167.717ZM703.587 153.44C705.564 152.298 707.357 151.263 709.241 150.175C704.645 148.53 700.094 146.964 695.543 145.345C695.451 145.451 695.313 145.531 695.175 145.611C697.979 148.185 700.691 150.759 703.587 153.44ZM757.747 117.449C763.263 115.91 769.423 116.706 774.342 119.652C783.398 125.039 782.157 132.496 770.113 139.449C759.31 145.686 748.415 146.19 737.842 141.307C729.797 137.618 716.558 129.497 708.238 123.739C711.226 116.971 727.729 107.709 736.923 106.648C749.105 105.241 758.39 110.814 757.839 116.441C757.839 116.706 757.793 116.998 757.747 117.449ZM754.345 132.47C756.046 132.178 757.609 131.329 758.252 130.32C759.034 129.232 758.344 128.25 756.735 127.481C755.402 126.817 753.701 126.844 752.276 127.348C751.173 127.772 749.472 128.648 749.472 129.604C750.989 130.586 752.69 131.514 754.345 132.47ZM737.796 123.287C740.049 122.942 742.347 121.297 739.359 119.625C736.739 118.219 733.567 120.05 733.797 120.979C734.302 121.695 735.911 122.73 737.796 123.287Z" fill="#2B7454"/>
<rect width="199.765" height="183.867" rx="30" transform="matrix(0.866009 0.500028 3.18609e-05 1 368 313.023)" fill="url(#paint3_radial_79_624)"/>
<g clip-path="url(#clip0_79_624)">
<rect width="200" height="108.153" rx="30" transform="matrix(0.866041 0.499972 -0.866041 0.499972 454.664 430.023)" fill="#D9D9D9"/>
<rect width="200" height="108.153" rx="30" transform="matrix(0.866041 0.499972 -0.866041 0.499972 566.66 360.02)" fill="#D9D9D9"/>
</g>
<g clip-path="url(#clip1_79_624)">
<path d="M423.852 494.591L440.013 511.818" stroke="#22211D" stroke-width="3.16414" stroke-miterlimit="10"/>
<path d="M551.97 476.045V526.784H447.578V473.971C452.363 476.681 457.675 479.04 463.416 480.974C474.8 484.817 487.851 486.996 501.727 486.996C513.582 486.996 524.84 485.404 534.965 482.546C541.086 480.816 546.792 478.626 551.97 476.045Z" fill="white" stroke="#22211D" stroke-width="3.16414" stroke-miterlimit="10"/>
<path d="M481.484 487.345C481.484 487.345 488.674 488.684 499.777 488.804C511.08 488.927 519.229 487.77 519.229 487.77L501.004 503.348L481.484 487.345Z" fill="#F0AC06"/>
<path d="M515.556 493.287L530.23 504.165L505.473 508.538" fill="white"/>
<path d="M515.556 493.287L530.23 504.165L505.473 508.538" stroke="#22211D" stroke-width="3.16414" stroke-miterlimit="10"/>
<path d="M447.583 473.971V504.891L440.013 511.821L423.852 494.594L446.844 473.549C447.09 473.689 447.337 473.83 447.583 473.971Z" fill="white" stroke="#22211D" stroke-width="3.16414" stroke-miterlimit="10"/>
<path d="M500.836 505.518L524.813 485.074" stroke="#22211D" stroke-width="3.16414" stroke-miterlimit="10"/>
<path d="M486.339 493.287L471.664 504.165L507.57 510.507" fill="white"/>
<path d="M486.339 493.287L471.664 504.165L507.57 510.507" stroke="#22211D" stroke-width="3.16414" stroke-miterlimit="10"/>
<path d="M460.896 480.088L459.781 491.465L480.218 497.881" fill="white"/>
<path d="M460.896 480.088L459.781 491.465L480.218 497.881" stroke="#22211D" stroke-width="3.16414" stroke-miterlimit="10"/>
<path d="M507.57 526.784V510.506C507.57 510.506 475.366 484.304 475.008 484.251" stroke="#22211D" stroke-width="3.16414" stroke-miterlimit="10"/>
<path d="M540.705 480.088L541.816 491.465L521.383 497.881" fill="white"/>
<path d="M540.705 480.088L541.816 491.465L521.383 497.881" stroke="#22211D" stroke-width="3.16414" stroke-miterlimit="10"/>
<path d="M498.144 520.934C499.837 520.934 501.21 519.562 501.21 517.868C501.21 516.175 499.837 514.803 498.144 514.803C496.451 514.803 495.078 516.175 495.078 517.868C495.078 519.562 496.451 520.934 498.144 520.934Z" stroke="#22211D" stroke-width="3.16414" stroke-miterlimit="10"/>
<path d="M556.324 402.107C553.691 407.89 548.115 411.877 541.66 411.877C532.674 411.877 525.386 404.142 525.386 394.597C525.386 393.166 525.551 391.777 525.861 390.448C521.012 389.425 515.953 388.684 510.736 388.251C503.286 387.808 500.02 387.808 490.763 388.139C485.69 388.501 480.764 389.155 476.025 390.072C476.563 391.784 476.851 393.616 476.851 395.518C476.851 405.063 469.563 412.798 460.577 412.798C453.468 412.798 447.428 407.964 445.21 401.217C429.537 410.298 419.742 423.229 419.742 437.577C419.742 451.903 429.505 464.813 445.133 473.898C445.379 474.038 445.625 474.179 445.871 474.319C450.656 477.03 455.968 479.389 461.709 481.323C473.093 485.165 486.144 487.345 500.02 487.345C511.875 487.345 523.132 485.753 533.258 482.894C539.378 481.165 545.085 478.974 550.263 476.394C550.632 476.211 550.998 476.028 551.36 475.842C569.044 466.708 580.298 452.958 580.298 437.577C580.298 423.69 571.122 411.131 556.324 402.107ZM446.964 428.583C440.165 428.583 434.656 426.636 434.656 424.231C434.656 421.826 440.165 419.879 446.964 419.879C453.76 419.879 459.269 421.826 459.269 424.231C459.269 426.636 453.76 428.583 446.964 428.583ZM553.969 428.583C547.169 428.583 541.66 426.636 541.66 424.231C541.66 421.826 547.169 419.879 553.969 419.879C560.765 419.879 566.277 421.826 566.277 424.231C566.277 426.636 560.765 428.583 553.969 428.583Z" fill="#338862" stroke="#22211D" stroke-width="3.86729" stroke-miterlimit="10"/>
<path d="M459.27 424.227C459.27 426.632 453.761 428.58 446.965 428.58C440.165 428.58 434.656 426.632 434.656 424.227C434.656 421.823 440.165 419.875 446.965 419.875C453.761 419.875 459.27 421.823 459.27 424.227Z" fill="white" stroke="#22211D" stroke-width="5.27357" stroke-miterlimit="10"/>
<path d="M553.969 428.58C560.766 428.58 566.277 426.631 566.277 424.227C566.277 421.824 560.766 419.875 553.969 419.875C547.171 419.875 541.66 421.824 541.66 424.227C541.66 426.631 547.171 428.58 553.969 428.58Z" fill="white" stroke="#22211D" stroke-width="5.27357" stroke-miterlimit="10"/>
<path d="M557.931 394.597C557.931 397.286 557.351 399.835 556.321 402.106C553.688 407.889 548.112 411.876 541.657 411.876C532.671 411.876 525.383 404.142 525.383 394.597C525.383 393.166 525.548 391.777 525.857 390.448C527.605 382.91 534.017 377.32 541.657 377.32C550.647 377.32 557.931 385.055 557.931 394.597Z" fill="white" stroke="#22211D" stroke-width="3.86729" stroke-miterlimit="10"/>
<path d="M476.027 390.072C473.879 383.198 467.772 378.241 460.579 378.241C451.589 378.241 444.305 385.976 444.305 395.517C444.305 397.514 444.625 399.434 445.212 401.216C447.43 407.963 453.47 412.797 460.579 412.797C469.565 412.797 476.853 405.063 476.853 395.517C476.853 393.615 476.565 391.784 476.027 390.072Z" fill="white" stroke="#22211D" stroke-width="3.86729" stroke-miterlimit="10"/>
<path d="M460.583 392.004C464.757 392.004 468.149 395.347 468.149 399.485C468.149 403.623 464.757 406.967 460.583 406.967C456.393 406.967 453 403.623 453 399.485C453 395.344 456.393 392.004 460.583 392.004Z" fill="#22211D" stroke="#22211D" stroke-width="3.16414" stroke-miterlimit="10"/>
<path d="M541.583 392.004C545.757 392.004 549.149 395.347 549.149 399.485C549.149 403.623 545.757 406.967 541.583 406.967C537.393 406.967 534 403.623 534 399.485C534 395.347 537.393 392.004 541.583 392.004Z" fill="#22211D" stroke="#22211D" stroke-width="3.16414" stroke-miterlimit="10"/>
<path d="M508.607 426.955C508.607 423.046 505.397 419.874 501.438 419.874C497.479 419.874 494.27 423.046 494.27 426.955" stroke="#22211D" stroke-width="3.16414" stroke-miterlimit="10" stroke-linecap="round"/>
<path d="M459.27 424.227C459.27 426.632 453.761 428.58 446.965 428.58C440.165 428.58 434.656 426.632 434.656 424.227C434.656 421.823 440.165 419.875 446.965 419.875C453.761 419.875 459.27 421.823 459.27 424.227Z" fill="#E15D34"/>
<path d="M430.444 515.491L423.536 517.182C422.854 517.348 422.246 516.718 422.439 516.043L423.982 510.612C424.211 509.803 423.712 508.97 422.892 508.79L417.369 507.581C416.951 507.49 416.863 506.931 417.236 506.716L427.92 500.521" fill="#338862"/>
<path d="M430.444 515.491L423.536 517.182C422.854 517.348 422.246 516.718 422.439 516.043L423.982 510.612C424.211 509.803 423.712 508.97 422.892 508.79L417.369 507.581C416.951 507.49 416.863 506.931 417.236 506.716L427.92 500.521" stroke="#22211D" stroke-width="3.16414" stroke-miterlimit="10"/>
<path d="M422.738 517.219L429.524 515.541C430.23 515.366 430.933 515.826 431.063 516.54L432.023 521.972C432.153 522.703 433.117 522.893 433.514 522.264L439.589 512.24" fill="#338862"/>
<path d="M422.738 517.219L429.524 515.541C430.23 515.366 430.933 515.826 431.063 516.54L432.023 521.972C432.153 522.703 433.117 522.893 433.514 522.264L439.589 512.24" stroke="#22211D" stroke-width="3.16414" stroke-miterlimit="10"/>
<path d="M437.966 511.888L437.34 512.911L431.656 514.584C431.656 514.584 431.487 514.443 431.367 514.37C431.082 514.201 430.907 514.131 430.907 514.131C430.907 514.131 430.706 514.05 430.509 514.001C430.33 513.958 430.267 513.955 430.182 513.941L428.203 502.188L428.639 501.935L437.966 511.888Z" fill="#338862"/>
</g>
<g clip-path="url(#clip2_79_624)">
<path d="M551.97 476.022V526.76H447.578V473.947C452.363 476.658 457.675 479.017 463.416 480.951C474.8 484.793 487.851 486.973 501.727 486.973C513.582 486.973 524.84 485.38 534.965 482.522C541.086 480.792 546.792 478.602 551.97 476.022Z" fill="white" stroke="#22211D" stroke-width="3.16414" stroke-miterlimit="10"/>
<path d="M556.324 402.084C553.691 407.867 548.115 411.854 541.66 411.854C532.674 411.854 525.386 404.119 525.386 394.574C525.386 393.143 525.551 391.755 525.861 390.426C521.012 389.402 514.717 396.933 509.5 396.501L491 386.501C485.927 386.863 480.764 389.132 476.025 390.049C476.563 391.762 476.851 393.593 476.851 395.495C476.851 405.04 469.563 412.775 460.577 412.775C453.468 412.775 447.428 407.941 445.21 401.194C429.537 410.275 419.742 423.206 419.742 437.554C419.742 451.88 429.505 464.79 445.133 473.875C445.379 474.015 445.625 474.156 445.871 474.296C450.656 477.007 455.968 479.366 461.709 481.3C473.093 485.142 486.144 487.322 500.02 487.322C511.875 487.322 523.132 485.73 533.258 482.871C539.379 481.142 545.085 478.951 550.263 476.371C550.632 476.188 550.998 476.005 551.36 475.819C569.044 466.685 580.298 452.935 580.298 437.554C580.298 423.667 571.122 411.109 556.324 402.084ZM446.964 428.561C440.165 428.561 434.656 426.613 434.656 424.208C434.656 421.803 440.165 419.856 446.964 419.856C453.76 419.856 459.269 421.803 459.269 424.208C459.269 426.613 453.76 428.561 446.964 428.561ZM553.969 428.561C547.169 428.561 541.66 426.613 541.66 424.208C541.66 421.803 547.169 419.856 553.969 419.856C560.765 419.856 566.277 421.803 566.277 424.208C566.277 426.613 560.765 428.561 553.969 428.561Z" fill="#338862" stroke="#338862" stroke-width="3.86729" stroke-miterlimit="10"/>
<path d="M508.607 426.932C508.607 423.022 505.397 419.851 501.438 419.851C497.479 419.851 494.27 423.022 494.27 426.932" stroke="#22211D" stroke-width="3.16414" stroke-miterlimit="10" stroke-linecap="round"/>
</g>
<g clip-path="url(#clip3_79_624)">
<path d="M423.852 494.567L440.013 511.794" stroke="#22211D" stroke-width="3.16414" stroke-miterlimit="10"/>
<path d="M551.97 476.022V526.76H447.578V473.947C452.363 476.658 457.675 479.017 463.416 480.951C474.8 484.793 487.851 486.973 501.727 486.973C513.582 486.973 524.84 485.38 534.965 482.522C541.086 480.792 546.792 478.602 551.97 476.022Z" fill="white" stroke="#22211D" stroke-width="3.16414" stroke-miterlimit="10"/>
<path d="M481.484 487.321C481.484 487.321 488.674 488.661 499.777 488.78C511.08 488.903 519.229 487.747 519.229 487.747L501.004 503.325L481.484 487.321Z" fill="#F0AC06"/>
<path d="M447.583 473.947V504.868L440.013 511.797L423.852 494.57L446.844 473.525C447.09 473.666 447.337 473.807 447.583 473.947Z" fill="white" stroke="#22211D" stroke-width="3.16414" stroke-miterlimit="10"/>
<path d="M486.339 493.264L471.664 504.141L507.57 510.484" fill="white"/>
<path d="M486.339 493.264L471.664 504.141L507.57 510.484" stroke="#22211D" stroke-width="3.16414" stroke-miterlimit="10"/>
<path d="M460.896 480.064L459.781 491.441L480.218 497.857" fill="white"/>
<path d="M460.896 480.064L459.781 491.441L480.218 497.857" stroke="#22211D" stroke-width="3.16414" stroke-miterlimit="10"/>
<path d="M507.57 526.761V510.483C507.57 510.483 475.366 484.28 475.008 484.228" stroke="#22211D" stroke-width="3.16414" stroke-miterlimit="10"/>
<path d="M498.144 520.911C499.837 520.911 501.21 519.538 501.21 517.845C501.21 516.152 499.837 514.779 498.144 514.779C496.451 514.779 495.078 516.152 495.078 517.845C495.078 519.538 496.451 520.911 498.144 520.911Z" stroke="#22211D" stroke-width="3.16414" stroke-miterlimit="10"/>
<path d="M556.324 402.083C553.691 407.867 548.115 411.853 541.66 411.853C532.674 411.853 525.386 404.119 525.386 394.574C525.386 393.143 525.551 391.754 525.861 390.425C521.012 389.402 515.953 388.66 510.736 388.228C503.286 387.785 500.02 387.785 490.763 388.115C485.69 388.477 480.764 389.131 476.025 390.049C476.563 391.761 476.851 393.593 476.851 395.495C476.851 405.04 469.563 412.774 460.577 412.774C453.468 412.774 447.428 407.94 445.21 401.194C429.537 410.275 419.742 423.206 419.742 437.553C419.742 451.88 429.505 464.789 445.133 473.874C445.379 474.015 445.625 474.155 445.871 474.296C450.656 477.007 455.968 479.366 461.709 481.299C473.093 485.142 486.144 487.322 500.02 487.322C511.875 487.322 523.132 485.729 533.258 482.871C539.378 481.141 545.085 478.951 550.263 476.37C550.632 476.187 550.998 476.005 551.36 475.818C569.044 466.684 580.298 452.934 580.298 437.553C580.298 423.666 571.122 411.108 556.324 402.083ZM446.964 428.56C440.165 428.56 434.656 426.612 434.656 424.208C434.656 421.803 440.165 419.855 446.964 419.855C453.76 419.855 459.269 421.803 459.269 424.208C459.269 426.612 453.76 428.56 446.964 428.56ZM553.969 428.56C547.169 428.56 541.66 426.612 541.66 424.208C541.66 421.803 547.169 419.855 553.969 419.855C560.765 419.855 566.277 421.803 566.277 424.208C566.277 426.612 560.765 428.56 553.969 428.56Z" fill="#338862" stroke="#22211D" stroke-width="3.86729" stroke-miterlimit="10"/>
<path d="M459.27 424.204C459.27 426.609 453.761 428.556 446.965 428.556C440.165 428.556 434.656 426.609 434.656 424.204C434.656 421.799 440.165 419.852 446.965 419.852C453.761 419.852 459.27 421.799 459.27 424.204Z" fill="white" stroke="#22211D" stroke-width="5.27357" stroke-miterlimit="10"/>
<path d="M476.027 390.048C473.879 383.175 467.772 378.218 460.579 378.218C451.589 378.218 444.305 385.952 444.305 395.494C444.305 397.491 444.625 399.411 445.212 401.193C447.43 407.94 453.47 412.774 460.579 412.774C469.565 412.774 476.853 405.039 476.853 395.494C476.853 393.592 476.565 391.76 476.027 390.048Z" fill="white" stroke="#22211D" stroke-width="3.86729" stroke-miterlimit="10"/>
<path d="M460.583 391.981C464.757 391.981 468.149 395.325 468.149 399.463C468.149 403.601 464.757 406.944 460.583 406.944C456.393 406.944 453 403.601 453 399.463C453 395.321 456.393 391.981 460.583 391.981Z" fill="#22211D" stroke="#22211D" stroke-width="3.16414" stroke-miterlimit="10"/>
<path d="M508.607 426.932C508.607 423.022 505.397 419.851 501.438 419.851C497.479 419.851 494.27 423.022 494.27 426.932" stroke="#22211D" stroke-width="3.16414" stroke-miterlimit="10" stroke-linecap="round"/>
<path d="M459.27 424.204C459.27 426.609 453.761 428.556 446.965 428.556C440.165 428.556 434.656 426.609 434.656 424.204C434.656 421.799 440.165 419.852 446.965 419.852C453.761 419.852 459.27 421.799 459.27 424.204Z" fill="#E15D34"/>
<path d="M430.444 515.468L423.536 517.159C422.854 517.324 422.246 516.695 422.439 516.02L423.982 510.588C424.211 509.78 423.712 508.946 422.892 508.767L417.369 507.558C416.951 507.466 416.863 506.907 417.236 506.693L427.92 500.498" fill="#338862"/>
<path d="M430.444 515.468L423.536 517.159C422.854 517.324 422.246 516.695 422.439 516.02L423.982 510.588C424.211 509.78 423.712 508.946 422.892 508.767L417.369 507.558C416.951 507.466 416.863 506.907 417.236 506.693L427.92 500.498" stroke="#22211D" stroke-width="3.16414" stroke-miterlimit="10"/>
<path d="M422.738 517.195L429.524 515.518C430.23 515.342 430.933 515.803 431.063 516.517L432.023 521.948C432.153 522.68 433.117 522.869 433.514 522.24L439.589 512.217" fill="#338862"/>
<path d="M422.738 517.195L429.524 515.518C430.23 515.342 430.933 515.803 431.063 516.517L432.023 521.948C432.153 522.68 433.117 522.869 433.514 522.24L439.589 512.217" stroke="#22211D" stroke-width="3.16414" stroke-miterlimit="10"/>
<path d="M437.966 511.864L437.34 512.887L431.656 514.561C431.656 514.561 431.487 514.42 431.367 514.346C431.082 514.177 430.907 514.107 430.907 514.107C430.907 514.107 430.706 514.026 430.509 513.977C430.33 513.935 430.267 513.931 430.182 513.917L428.203 502.164L428.639 501.911L437.966 511.864Z" fill="#338862"/>
</g>
<rect width="200" height="108.153" rx="30" transform="matrix(0.866041 0.499972 -0.866041 0.499972 342.664 500.023)" fill="#D9D9D9"/>
<rect width="200" height="108.153" rx="30" transform="matrix(0.866041 0.499972 -0.866041 0.499972 230.66 570.02)" fill="#D9D9D9"/>
<rect width="200" height="108.153" rx="30" transform="matrix(0.866041 0.499972 -0.866041 0.499972 118.66 640.02)" fill="#D9D9D9"/>
<path d="M311.848 564.586L328.009 581.813" stroke="#22211D" stroke-width="3.16414" stroke-miterlimit="10"/>
<path d="M463.05 565.725L447.844 581.936L439.973 574.733V546.16C440.342 545.978 440.707 545.795 441.07 545.608L463.05 565.725Z" fill="white" stroke="#22211D" stroke-width="3.16414" stroke-miterlimit="10"/>
<path d="M439.97 546.041V596.78H335.578V543.967C340.363 546.677 345.675 549.036 351.416 550.97C362.8 554.813 375.851 556.993 389.727 556.993C401.582 556.993 412.84 555.4 422.965 552.542C429.086 550.812 434.792 548.622 439.97 546.041Z" fill="white" stroke="#22211D" stroke-width="3.16414" stroke-miterlimit="10"/>
<path d="M369.484 557.34C369.484 557.34 376.674 558.679 387.777 558.799C399.08 558.922 407.229 557.765 407.229 557.765L389.004 573.343L369.484 557.34Z" fill="#F0AC06"/>
<path d="M403.556 563.281L418.23 574.159L393.473 578.532" fill="white"/>
<path d="M403.556 563.281L418.23 574.159L393.473 578.532" stroke="#22211D" stroke-width="3.16414" stroke-miterlimit="10"/>
<path d="M335.579 543.966V574.887L328.009 581.816L311.848 564.589L334.84 543.544C335.087 543.685 335.333 543.825 335.579 543.966Z" fill="white" stroke="#22211D" stroke-width="3.16414" stroke-miterlimit="10"/>
<path d="M388.836 575.513L412.813 555.069" stroke="#22211D" stroke-width="3.16414" stroke-miterlimit="10"/>
<path d="M374.335 563.281L359.66 574.159L395.566 580.501" fill="white"/>
<path d="M374.335 563.281L359.66 574.159L395.566 580.501" stroke="#22211D" stroke-width="3.16414" stroke-miterlimit="10"/>
<path d="M348.896 550.083L347.781 561.46L368.218 567.876" fill="white"/>
<path d="M348.896 550.083L347.781 561.46L368.218 567.876" stroke="#22211D" stroke-width="3.16414" stroke-miterlimit="10"/>
<path d="M395.566 596.779V580.501C395.566 580.501 363.363 554.299 363.004 554.246" stroke="#22211D" stroke-width="3.16414" stroke-miterlimit="10"/>
<path d="M428.705 550.083L429.816 561.46L409.383 567.876" fill="white"/>
<path d="M428.705 550.083L429.816 561.46L409.383 567.876" stroke="#22211D" stroke-width="3.16414" stroke-miterlimit="10"/>
<path d="M386.144 590.929C387.837 590.929 389.21 589.557 389.21 587.864C389.21 586.17 387.837 584.798 386.144 584.798C384.451 584.798 383.078 586.17 383.078 587.864C383.078 589.557 384.451 590.929 386.144 590.929Z" stroke="#22211D" stroke-width="3.16414" stroke-miterlimit="10"/>
<path d="M444.324 472.102C441.691 477.885 436.115 481.872 429.66 481.872C420.674 481.872 413.386 474.137 413.386 464.592C413.386 463.161 413.551 461.773 413.861 460.444C409.012 459.421 403.953 458.679 398.736 458.246C391.286 457.803 388.02 457.803 378.763 458.134C373.69 458.496 368.764 459.15 364.025 460.067C364.563 461.78 364.851 463.611 364.851 465.513C364.851 475.058 357.563 482.793 348.577 482.793C341.468 482.793 335.428 477.959 333.21 471.212C317.537 480.293 307.742 493.224 307.742 507.572C307.742 521.898 317.505 534.808 333.133 543.893C333.379 544.033 333.625 544.174 333.871 544.315C338.656 547.025 343.968 549.384 349.709 551.318C361.093 555.16 374.144 557.34 388.02 557.34C399.875 557.34 411.132 555.748 421.258 552.889C427.378 551.16 433.085 548.969 438.263 546.389C438.632 546.206 438.998 546.023 439.36 545.837C457.044 536.703 468.298 522.953 468.298 507.572C468.298 493.685 459.122 481.127 444.324 472.102ZM334.964 498.579C328.165 498.579 322.656 496.631 322.656 494.226C322.656 491.821 328.165 489.874 334.964 489.874C341.76 489.874 347.269 491.821 347.269 494.226C347.269 496.631 341.76 498.579 334.964 498.579ZM441.969 498.579C435.169 498.579 429.66 496.631 429.66 494.226C429.66 491.821 435.169 489.874 441.969 489.874C448.765 489.874 454.277 491.821 454.277 494.226C454.277 496.631 448.765 498.579 441.969 498.579Z" fill="#338862" stroke="#22211D" stroke-width="3.86729" stroke-miterlimit="10"/>
<path d="M347.27 494.222C347.27 496.626 341.761 498.574 334.965 498.574C328.165 498.574 322.656 496.626 322.656 494.222C322.656 491.817 328.165 489.869 334.965 489.869C341.761 489.869 347.27 491.817 347.27 494.222Z" fill="white" stroke="#22211D" stroke-width="5.27357" stroke-miterlimit="10"/>
<path d="M441.969 498.574C448.766 498.574 454.277 496.625 454.277 494.222C454.277 491.818 448.766 489.869 441.969 489.869C435.171 489.869 429.66 491.818 429.66 494.222C429.66 496.625 435.171 498.574 441.969 498.574Z" fill="white" stroke="#22211D" stroke-width="5.27357" stroke-miterlimit="10"/>
<path d="M445.935 464.592C445.935 467.281 445.355 469.83 444.325 472.101C441.692 477.885 436.116 481.871 429.661 481.871C420.675 481.871 413.387 474.137 413.387 464.592C413.387 463.161 413.552 461.772 413.861 460.443C415.609 452.905 422.021 447.315 429.661 447.315C438.651 447.315 445.935 455.05 445.935 464.592Z" fill="white" stroke="#22211D" stroke-width="3.86729" stroke-miterlimit="10"/>
<path d="M364.027 460.067C361.879 453.193 355.772 448.236 348.579 448.236C339.589 448.236 332.305 455.971 332.305 465.513C332.305 467.509 332.625 469.429 333.212 471.212C335.43 477.958 341.47 482.792 348.579 482.792C357.565 482.792 364.853 475.058 364.853 465.513C364.853 463.611 364.565 461.779 364.027 460.067Z" fill="white" stroke="#22211D" stroke-width="3.86729" stroke-miterlimit="10"/>
<path d="M348.583 462C352.757 462 356.149 465.343 356.149 469.481C356.149 473.619 352.757 476.963 348.583 476.963C344.393 476.963 341 473.619 341 469.481C341 465.34 344.393 462 348.583 462Z" fill="#22211D" stroke="#22211D" stroke-width="3.16414" stroke-miterlimit="10"/>
<path d="M429.583 462C433.757 462 437.149 465.343 437.149 469.481C437.149 473.619 433.757 476.963 429.583 476.963C425.393 476.963 422 473.619 422 469.481C422 465.343 425.393 462 429.583 462Z" fill="#22211D" stroke="#22211D" stroke-width="3.16414" stroke-miterlimit="10"/>
<path d="M396.607 496.95C396.607 493.041 393.397 489.87 389.438 489.87C385.479 489.87 382.27 493.041 382.27 496.95" stroke="#22211D" stroke-width="3.16414" stroke-miterlimit="10" stroke-linecap="round"/>
<path d="M441.969 498.574C448.766 498.574 454.277 496.625 454.277 494.222C454.277 491.818 448.766 489.869 441.969 489.869C435.171 489.869 429.66 491.818 429.66 494.222C429.66 496.625 435.171 498.574 441.969 498.574Z" fill="#E15D34"/>
<path d="M347.27 494.222C347.27 496.626 341.761 498.574 334.965 498.574C328.165 498.574 322.656 496.626 322.656 494.222C322.656 491.817 328.165 489.869 334.965 489.869C341.761 489.869 347.27 491.817 347.27 494.222Z" fill="#E15D34"/>
<path d="M464.091 564.614L447.93 581.841" stroke="#22211D" stroke-width="3.16414" stroke-miterlimit="10"/>
<path d="M457.598 585.342L464.506 587.033C465.188 587.198 465.796 586.569 465.603 585.894L464.06 580.462C463.831 579.654 464.33 578.82 465.149 578.641L470.673 577.432C471.091 577.34 471.179 576.781 470.806 576.567L460.122 570.372" fill="#338862"/>
<path d="M457.598 585.342L464.506 587.033C465.188 587.198 465.796 586.569 465.603 585.894L464.06 580.462C463.831 579.654 464.33 578.82 465.149 578.641L470.673 577.432C471.091 577.34 471.179 576.781 470.806 576.567L460.122 570.372" stroke="#22211D" stroke-width="3.16414" stroke-miterlimit="10"/>
<path d="M465.304 587.065L458.519 585.388C457.812 585.212 457.109 585.673 456.979 586.387L456.019 591.818C455.889 592.55 454.926 592.74 454.528 592.11L448.453 582.087" fill="#338862"/>
<path d="M465.304 587.065L458.519 585.388C457.812 585.212 457.109 585.673 456.979 586.387L456.019 591.818C455.889 592.55 454.926 592.74 454.528 592.11L448.453 582.087" stroke="#22211D" stroke-width="3.16414" stroke-miterlimit="10"/>
<path d="M450.078 581.738L450.704 582.761L456.389 584.435C456.389 584.435 456.558 584.294 456.677 584.22C456.962 584.051 457.138 583.981 457.138 583.981C457.138 583.981 457.338 583.9 457.535 583.851C457.714 583.809 457.778 583.805 457.862 583.791L459.841 572.038L459.405 571.785L450.078 581.738Z" fill="#338862"/>
<path d="M318.444 585.487L311.536 587.178C310.854 587.343 310.246 586.713 310.439 586.038L311.982 580.607C312.211 579.798 311.712 578.965 310.892 578.786L305.369 577.576C304.951 577.485 304.863 576.926 305.236 576.711L315.92 570.517" fill="#338862"/>
<path d="M318.444 585.487L311.536 587.178C310.854 587.343 310.246 586.713 310.439 586.038L311.982 580.607C312.211 579.798 311.712 578.965 310.892 578.786L305.369 577.576C304.951 577.485 304.863 576.926 305.236 576.711L315.92 570.517" stroke="#22211D" stroke-width="3.16414" stroke-miterlimit="10"/>
<path d="M310.738 587.213L317.524 585.536C318.23 585.36 318.933 585.82 319.063 586.534L320.023 591.966C320.153 592.697 321.117 592.887 321.514 592.258L327.589 582.234" fill="#338862"/>
<path d="M310.738 587.213L317.524 585.536C318.23 585.36 318.933 585.82 319.063 586.534L320.023 591.966C320.153 592.697 321.117 592.887 321.514 592.258L327.589 582.234" stroke="#22211D" stroke-width="3.16414" stroke-miterlimit="10"/>
<path d="M325.962 581.883L325.337 582.906L319.652 584.579C319.652 584.579 319.483 584.439 319.363 584.365C319.079 584.196 318.903 584.126 318.903 584.126C318.903 584.126 318.702 584.045 318.506 583.996C318.326 583.953 318.263 583.95 318.179 583.936L316.199 572.183L316.635 571.93L325.962 581.883Z" fill="#338862"/>
<path d="M199.852 634.59L216.013 651.817" stroke="#22211D" stroke-width="3.16414" stroke-miterlimit="10"/>
<path d="M351.05 635.728L335.844 651.939L327.973 644.736V616.163C328.342 615.98 328.707 615.798 329.07 615.611L351.05 635.728Z" fill="white" stroke="#22211D" stroke-width="3.16414" stroke-miterlimit="10"/>
<path d="M327.97 616.045V666.784H223.578V613.971C228.363 616.681 233.675 619.04 239.416 620.974C250.8 624.817 263.851 626.996 277.727 626.996C289.582 626.996 300.84 625.404 310.965 622.546C317.086 620.816 322.792 618.626 327.97 616.045Z" fill="white" stroke="#22211D" stroke-width="3.16414" stroke-miterlimit="10"/>
<path d="M257.484 627.344C257.484 627.344 264.674 628.683 275.777 628.803C287.08 628.926 295.229 627.769 295.229 627.769L277.004 643.347L257.484 627.344Z" fill="#F0AC06"/>
<path d="M291.556 633.285L306.23 644.163L281.473 648.536" fill="white"/>
<path d="M291.556 633.285L306.23 644.163L281.473 648.536" stroke="#22211D" stroke-width="3.16414" stroke-miterlimit="10"/>
<path d="M223.583 613.971V644.891L216.013 651.821L199.852 634.594L222.844 613.549C223.09 613.689 223.337 613.83 223.583 613.971Z" fill="white" stroke="#22211D" stroke-width="3.16414" stroke-miterlimit="10"/>
<path d="M276.836 645.516L300.813 625.072" stroke="#22211D" stroke-width="3.16414" stroke-miterlimit="10"/>
<path d="M262.339 633.286L247.664 644.164L283.57 650.506" fill="white"/>
<path d="M262.339 633.286L247.664 644.164L283.57 650.506" stroke="#22211D" stroke-width="3.16414" stroke-miterlimit="10"/>
<path d="M236.896 620.088L235.781 631.465L256.218 637.881" fill="white"/>
<path d="M236.896 620.088L235.781 631.465L256.218 637.881" stroke="#22211D" stroke-width="3.16414" stroke-miterlimit="10"/>
<path d="M283.57 666.783V650.505C283.57 650.505 251.366 624.303 251.008 624.25" stroke="#22211D" stroke-width="3.16414" stroke-miterlimit="10"/>
<path d="M316.705 620.088L317.816 631.465L297.383 637.881" fill="white"/>
<path d="M316.705 620.088L317.816 631.465L297.383 637.881" stroke="#22211D" stroke-width="3.16414" stroke-miterlimit="10"/>
<path d="M274.144 660.933C275.837 660.933 277.21 659.561 277.21 657.867C277.21 656.174 275.837 654.802 274.144 654.802C272.451 654.802 271.078 656.174 271.078 657.867C271.078 659.561 272.451 660.933 274.144 660.933Z" stroke="#22211D" stroke-width="3.16414" stroke-miterlimit="10"/>
<path d="M332.324 542.106C329.691 547.889 324.115 551.876 317.66 551.876C308.674 551.876 301.386 544.141 301.386 534.596C301.386 533.165 301.551 531.776 301.861 530.447C297.012 529.424 291.953 528.683 286.736 528.25C279.286 527.807 276.02 527.807 266.763 528.138C261.69 528.5 256.764 529.154 252.025 530.071C252.563 531.783 252.851 533.615 252.851 535.517C252.851 545.062 245.563 552.797 236.577 552.797C229.468 552.797 223.428 547.963 221.21 541.216C205.537 550.297 195.742 563.228 195.742 577.576C195.742 591.902 205.505 604.812 221.133 613.897C221.379 614.037 221.625 614.178 221.871 614.318C226.656 617.029 231.968 619.388 237.709 621.322C249.093 625.164 262.144 627.344 276.02 627.344C287.875 627.344 299.132 625.752 309.258 622.893C315.378 621.164 321.085 618.973 326.263 616.393C326.632 616.21 326.998 616.027 327.36 615.841C345.044 606.707 356.298 592.957 356.298 577.576C356.298 563.689 347.122 551.13 332.324 542.106ZM222.964 568.582C216.165 568.582 210.656 566.635 210.656 564.23C210.656 561.825 216.165 559.878 222.964 559.878C229.76 559.878 235.269 561.825 235.269 564.23C235.269 566.635 229.76 568.582 222.964 568.582ZM329.969 568.582C323.169 568.582 317.66 566.635 317.66 564.23C317.66 561.825 323.169 559.878 329.969 559.878C336.765 559.878 342.277 561.825 342.277 564.23C342.277 566.635 336.765 568.582 329.969 568.582Z" fill="#338862" stroke="#22211D" stroke-width="3.86729" stroke-miterlimit="10"/>
<path d="M235.27 564.226C235.27 566.63 229.761 568.578 222.965 568.578C216.165 568.578 210.656 566.63 210.656 564.226C210.656 561.821 216.165 559.873 222.965 559.873C229.761 559.873 235.27 561.821 235.27 564.226Z" fill="white" stroke="#22211D" stroke-width="5.27357" stroke-miterlimit="10"/>
<path d="M329.969 568.578C336.766 568.578 342.277 566.629 342.277 564.226C342.277 561.822 336.766 559.873 329.969 559.873C323.171 559.873 317.66 561.822 317.66 564.226C317.66 566.629 323.171 568.578 329.969 568.578Z" fill="white" stroke="#22211D" stroke-width="5.27357" stroke-miterlimit="10"/>
<path d="M333.931 534.596C333.931 537.285 333.351 539.834 332.321 542.105C329.688 547.888 324.112 551.875 317.657 551.875C308.671 551.875 301.383 544.141 301.383 534.596C301.383 533.165 301.548 531.776 301.857 530.447C303.605 522.909 310.017 517.319 317.657 517.319C326.647 517.319 333.931 525.054 333.931 534.596Z" fill="white" stroke="#22211D" stroke-width="3.86729" stroke-miterlimit="10"/>
<path d="M252.027 530.071C249.879 523.197 243.772 518.24 236.579 518.24C227.589 518.24 220.305 525.975 220.305 535.516C220.305 537.513 220.625 539.433 221.212 541.215C223.43 547.962 229.47 552.796 236.579 552.796C245.565 552.796 252.853 545.062 252.853 535.516C252.853 533.614 252.565 531.783 252.027 530.071Z" fill="white" stroke="#22211D" stroke-width="3.86729" stroke-miterlimit="10"/>
<path d="M236.583 532.004C240.757 532.004 244.149 535.347 244.149 539.485C244.149 543.623 240.757 546.967 236.583 546.967C232.393 546.967 229 543.623 229 539.485C229 535.344 232.393 532.004 236.583 532.004Z" fill="#22211D" stroke="#22211D" stroke-width="3.16414" stroke-miterlimit="10"/>
<path d="M317.583 532.004C321.757 532.004 325.149 535.347 325.149 539.485C325.149 543.623 321.757 546.967 317.583 546.967C313.393 546.967 310 543.623 310 539.485C310 535.347 313.393 532.004 317.583 532.004Z" fill="#22211D" stroke="#22211D" stroke-width="3.16414" stroke-miterlimit="10"/>
<path d="M284.607 566.954C284.607 563.045 281.397 559.873 277.438 559.873C273.479 559.873 270.27 563.045 270.27 566.954" stroke="#22211D" stroke-width="3.16414" stroke-miterlimit="10" stroke-linecap="round"/>
<path d="M329.969 568.578C336.766 568.578 342.277 566.629 342.277 564.226C342.277 561.822 336.766 559.873 329.969 559.873C323.171 559.873 317.66 561.822 317.66 564.226C317.66 566.629 323.171 568.578 329.969 568.578Z" fill="#E15D34"/>
<path d="M235.27 564.226C235.27 566.63 229.761 568.578 222.965 568.578C216.165 568.578 210.656 566.63 210.656 564.226C210.656 561.821 216.165 559.873 222.965 559.873C229.761 559.873 235.27 561.821 235.27 564.226Z" fill="#E15D34"/>
<path d="M352.091 634.617L335.93 651.844" stroke="#22211D" stroke-width="3.16414" stroke-miterlimit="10"/>
<path d="M345.598 655.346L352.506 657.037C353.188 657.202 353.796 656.573 353.603 655.898L352.06 650.466C351.831 649.657 352.33 648.824 353.149 648.645L358.673 647.436C359.091 647.344 359.179 646.785 358.806 646.571L348.122 640.376" fill="#338862"/>
<path d="M345.598 655.346L352.506 657.037C353.188 657.202 353.796 656.573 353.603 655.898L352.06 650.466C351.831 649.657 352.33 648.824 353.149 648.645L358.673 647.436C359.091 647.344 359.179 646.785 358.806 646.571L348.122 640.376" stroke="#22211D" stroke-width="3.16414" stroke-miterlimit="10"/>
<path d="M353.304 657.069L346.519 655.392C345.812 655.216 345.109 655.677 344.979 656.391L344.019 661.822C343.889 662.554 342.926 662.743 342.528 662.114L336.453 652.091" fill="#338862"/>
<path d="M353.304 657.069L346.519 655.392C345.812 655.216 345.109 655.677 344.979 656.391L344.019 661.822C343.889 662.554 342.926 662.743 342.528 662.114L336.453 652.091" stroke="#22211D" stroke-width="3.16414" stroke-miterlimit="10"/>
<path d="M338.078 651.743L338.704 652.766L344.389 654.44C344.389 654.44 344.558 654.299 344.677 654.225C344.962 654.056 345.138 653.986 345.138 653.986C345.138 653.986 345.338 653.905 345.535 653.856C345.714 653.814 345.778 653.81 345.862 653.796L347.841 642.043L347.405 641.79L338.078 651.743Z" fill="#338862"/>
<path d="M206.444 655.49L199.536 657.181C198.854 657.347 198.246 656.717 198.439 656.042L199.982 650.611C200.211 649.802 199.712 648.969 198.892 648.789L193.369 647.58C192.951 647.489 192.863 646.93 193.236 646.715L203.92 640.521" fill="#338862"/>
<path d="M206.444 655.49L199.536 657.181C198.854 657.347 198.246 656.717 198.439 656.042L199.982 650.611C200.211 649.802 199.712 648.969 198.892 648.789L193.369 647.58C192.951 647.489 192.863 646.93 193.236 646.715L203.92 640.521" stroke="#22211D" stroke-width="3.16414" stroke-miterlimit="10"/>
<path d="M198.738 657.218L205.524 655.541C206.23 655.365 206.933 655.825 207.063 656.539L208.023 661.971C208.153 662.702 209.117 662.892 209.514 662.263L215.589 652.239" fill="#338862"/>
<path d="M198.738 657.218L205.524 655.541C206.23 655.365 206.933 655.825 207.063 656.539L208.023 661.971C208.153 662.702 209.117 662.892 209.514 662.263L215.589 652.239" stroke="#22211D" stroke-width="3.16414" stroke-miterlimit="10"/>
<path d="M213.966 651.887L213.34 652.91L207.656 654.583C207.656 654.583 207.487 654.443 207.367 654.369C207.082 654.2 206.907 654.13 206.907 654.13C206.907 654.13 206.706 654.049 206.509 654C206.33 653.957 206.267 653.954 206.182 653.94L204.203 642.187L204.639 641.934L213.966 651.887Z" fill="#338862"/>
<path d="M87.8516 704.59L104.013 721.817" stroke="#22211D" stroke-width="3.16414" stroke-miterlimit="10"/>
<path d="M239.05 705.728L223.844 721.939L215.973 714.736V686.163C216.342 685.98 216.707 685.798 217.07 685.611L239.05 705.728Z" fill="white" stroke="#22211D" stroke-width="3.16414" stroke-miterlimit="10"/>
<path d="M215.97 686.045V736.784H111.578V683.971C116.363 686.681 121.675 689.04 127.416 690.974C138.8 694.817 151.851 696.996 165.727 696.996C177.582 696.996 188.84 695.404 198.965 692.546C205.086 690.816 210.792 688.626 215.97 686.045Z" fill="white" stroke="#22211D" stroke-width="3.16414" stroke-miterlimit="10"/>
<path d="M145.484 697.344C145.484 697.344 152.674 698.683 163.777 698.803C175.08 698.926 183.229 697.769 183.229 697.769L165.004 713.347L145.484 697.344Z" fill="#F0AC06"/>
<path d="M179.556 703.285L194.23 714.163L169.473 718.536" fill="white"/>
<path d="M179.556 703.285L194.23 714.163L169.473 718.536" stroke="#22211D" stroke-width="3.16414" stroke-miterlimit="10"/>
<path d="M111.583 683.971V714.891L104.013 721.821L87.8516 704.594L110.844 683.549C111.09 683.689 111.337 683.83 111.583 683.971Z" fill="white" stroke="#22211D" stroke-width="3.16414" stroke-miterlimit="10"/>
<path d="M164.836 715.516L188.813 695.072" stroke="#22211D" stroke-width="3.16414" stroke-miterlimit="10"/>
<path d="M150.339 703.286L135.664 714.164L171.57 720.506" fill="white"/>
<path d="M150.339 703.286L135.664 714.164L171.57 720.506" stroke="#22211D" stroke-width="3.16414" stroke-miterlimit="10"/>
<path d="M124.896 690.088L123.781 701.465L144.218 707.881" fill="white"/>
<path d="M124.896 690.088L123.781 701.465L144.218 707.881" stroke="#22211D" stroke-width="3.16414" stroke-miterlimit="10"/>
<path d="M171.57 736.783V720.505C171.57 720.505 139.366 694.303 139.008 694.25" stroke="#22211D" stroke-width="3.16414" stroke-miterlimit="10"/>
<path d="M204.705 690.088L205.816 701.465L185.383 707.881" fill="white"/>
<path d="M204.705 690.088L205.816 701.465L185.383 707.881" stroke="#22211D" stroke-width="3.16414" stroke-miterlimit="10"/>
<path d="M162.144 730.933C163.837 730.933 165.21 729.561 165.21 727.867C165.21 726.174 163.837 724.802 162.144 724.802C160.451 724.802 159.078 726.174 159.078 727.867C159.078 729.561 160.451 730.933 162.144 730.933Z" stroke="#22211D" stroke-width="3.16414" stroke-miterlimit="10"/>
<path d="M220.324 612.106C217.691 617.889 212.115 621.876 205.66 621.876C196.674 621.876 189.386 614.141 189.386 604.596C189.386 603.165 189.551 601.776 189.861 600.447C185.012 599.424 179.953 598.683 174.736 598.25C167.286 597.807 164.02 597.807 154.763 598.138C149.69 598.5 144.764 599.154 140.025 600.071C140.563 601.783 140.851 603.615 140.851 605.517C140.851 615.062 133.563 622.797 124.577 622.797C117.468 622.797 111.428 617.963 109.21 611.216C93.537 620.297 83.7422 633.228 83.7422 647.576C83.7422 661.902 93.5053 674.812 109.133 683.897C109.379 684.037 109.625 684.178 109.871 684.318C114.656 687.029 119.968 689.388 125.709 691.322C137.093 695.164 150.144 697.344 164.02 697.344C175.875 697.344 187.132 695.752 197.258 692.893C203.378 691.164 209.085 688.973 214.263 686.393C214.632 686.21 214.998 686.027 215.36 685.841C233.044 676.707 244.298 662.957 244.298 647.576C244.298 633.689 235.122 621.13 220.324 612.106ZM110.964 638.582C104.165 638.582 98.6559 636.635 98.6559 634.23C98.6559 631.825 104.165 629.878 110.964 629.878C117.76 629.878 123.269 631.825 123.269 634.23C123.269 636.635 117.76 638.582 110.964 638.582ZM217.969 638.582C211.169 638.582 205.66 636.635 205.66 634.23C205.66 631.825 211.169 629.878 217.969 629.878C224.765 629.878 230.277 631.825 230.277 634.23C230.277 636.635 224.765 638.582 217.969 638.582Z" fill="#338862" stroke="#22211D" stroke-width="3.86729" stroke-miterlimit="10"/>
<path d="M123.27 634.226C123.27 636.63 117.761 638.578 110.965 638.578C104.165 638.578 98.6562 636.63 98.6562 634.226C98.6562 631.821 104.165 629.873 110.965 629.873C117.761 629.873 123.27 631.821 123.27 634.226Z" fill="white" stroke="#22211D" stroke-width="5.27357" stroke-miterlimit="10"/>
<path d="M217.969 638.578C224.766 638.578 230.277 636.629 230.277 634.226C230.277 631.822 224.766 629.873 217.969 629.873C211.171 629.873 205.66 631.822 205.66 634.226C205.66 636.629 211.171 638.578 217.969 638.578Z" fill="white" stroke="#22211D" stroke-width="5.27357" stroke-miterlimit="10"/>
<path d="M221.931 604.596C221.931 607.285 221.351 609.834 220.321 612.105C217.688 617.888 212.112 621.875 205.657 621.875C196.671 621.875 189.383 614.141 189.383 604.596C189.383 603.165 189.548 601.776 189.857 600.447C191.605 592.909 198.017 587.319 205.657 587.319C214.647 587.319 221.931 595.054 221.931 604.596Z" fill="white" stroke="#22211D" stroke-width="3.86729" stroke-miterlimit="10"/>
<path d="M140.027 600.071C137.879 593.197 131.772 588.24 124.579 588.24C115.589 588.24 108.305 595.975 108.305 605.516C108.305 607.513 108.625 609.433 109.212 611.215C111.43 617.962 117.47 622.796 124.579 622.796C133.565 622.796 140.853 615.062 140.853 605.516C140.853 603.614 140.565 601.783 140.027 600.071Z" fill="white" stroke="#22211D" stroke-width="3.86729" stroke-miterlimit="10"/>
<path d="M124.583 602.004C128.757 602.004 132.149 605.347 132.149 609.485C132.149 613.623 128.757 616.967 124.583 616.967C120.393 616.967 117 613.623 117 609.485C117 605.344 120.393 602.004 124.583 602.004Z" fill="#22211D" stroke="#22211D" stroke-width="3.16414" stroke-miterlimit="10"/>
<path d="M205.583 602.004C209.757 602.004 213.149 605.347 213.149 609.485C213.149 613.623 209.757 616.967 205.583 616.967C201.393 616.967 198 613.623 198 609.485C198 605.347 201.393 602.004 205.583 602.004Z" fill="#22211D" stroke="#22211D" stroke-width="3.16414" stroke-miterlimit="10"/>
<path d="M172.607 636.954C172.607 633.045 169.397 629.873 165.438 629.873C161.479 629.873 158.27 633.045 158.27 636.954" stroke="#22211D" stroke-width="3.16414" stroke-miterlimit="10" stroke-linecap="round"/>
<path d="M217.969 638.578C224.766 638.578 230.277 636.629 230.277 634.226C230.277 631.822 224.766 629.873 217.969 629.873C211.171 629.873 205.66 631.822 205.66 634.226C205.66 636.629 211.171 638.578 217.969 638.578Z" fill="#E15D34"/>
<path d="M123.27 634.226C123.27 636.63 117.761 638.578 110.965 638.578C104.165 638.578 98.6562 636.63 98.6562 634.226C98.6562 631.821 104.165 629.873 110.965 629.873C117.761 629.873 123.27 631.821 123.27 634.226Z" fill="#E15D34"/>
<path d="M240.091 704.617L223.93 721.844" stroke="#22211D" stroke-width="3.16414" stroke-miterlimit="10"/>
<path d="M233.598 725.346L240.506 727.037C241.188 727.202 241.796 726.573 241.603 725.898L240.06 720.466C239.831 719.657 240.33 718.824 241.149 718.645L246.673 717.436C247.091 717.344 247.179 716.785 246.806 716.571L236.122 710.376" fill="#338862"/>
<path d="M233.598 725.346L240.506 727.037C241.188 727.202 241.796 726.573 241.603 725.898L240.06 720.466C239.831 719.657 240.33 718.824 241.149 718.645L246.673 717.436C247.091 717.344 247.179 716.785 246.806 716.571L236.122 710.376" stroke="#22211D" stroke-width="3.16414" stroke-miterlimit="10"/>
<path d="M241.304 727.069L234.519 725.392C233.812 725.216 233.109 725.677 232.979 726.391L232.019 731.822C231.889 732.554 230.926 732.743 230.528 732.114L224.453 722.091" fill="#338862"/>
<path d="M241.304 727.069L234.519 725.392C233.812 725.216 233.109 725.677 232.979 726.391L232.019 731.822C231.889 732.554 230.926 732.743 230.528 732.114L224.453 722.091" stroke="#22211D" stroke-width="3.16414" stroke-miterlimit="10"/>
<path d="M226.078 721.743L226.704 722.766L232.389 724.44C232.389 724.44 232.558 724.299 232.677 724.225C232.962 724.056 233.138 723.986 233.138 723.986C233.138 723.986 233.338 723.905 233.535 723.856C233.714 723.814 233.778 723.81 233.862 723.796L235.841 712.043L235.405 711.79L226.078 721.743Z" fill="#338862"/>
<path d="M94.4442 725.49L87.5358 727.181C86.8537 727.347 86.2455 726.717 86.4389 726.042L87.9823 720.611C88.2108 719.802 87.7116 718.969 86.8924 718.789L81.3692 717.58C80.9508 717.489 80.8629 716.93 81.2356 716.715L91.9199 710.521" fill="#338862"/>
<path d="M94.4442 725.49L87.5358 727.181C86.8537 727.347 86.2455 726.717 86.4389 726.042L87.9823 720.611C88.2108 719.802 87.7116 718.969 86.8924 718.789L81.3692 717.58C80.9508 717.489 80.8629 716.93 81.2356 716.715L91.9199 710.521" stroke="#22211D" stroke-width="3.16414" stroke-miterlimit="10"/>
<path d="M86.7383 727.218L93.5236 725.541C94.2303 725.365 94.9334 725.825 95.0635 726.539L96.0233 731.971C96.1534 732.702 97.1167 732.892 97.514 732.263L103.589 722.239" fill="#338862"/>
<path d="M86.7383 727.218L93.5236 725.541C94.2303 725.365 94.9334 725.825 95.0635 726.539L96.0233 731.971C96.1534 732.702 97.1167 732.892 97.514 732.263L103.589 722.239" stroke="#22211D" stroke-width="3.16414" stroke-miterlimit="10"/>
<path d="M101.966 721.887L101.34 722.91L95.6556 724.583C95.6556 724.583 95.4868 724.443 95.3673 724.369C95.0825 724.2 94.9067 724.13 94.9067 724.13C94.9067 724.13 94.7063 724.049 94.5094 724C94.3301 723.957 94.2668 723.954 94.1825 723.94L92.2031 712.187L92.6391 711.934L101.966 721.887Z" fill="#338862"/>
<defs>
<linearGradient id="paint0_linear_79_624" x1="625.5" y1="333.746" x2="564" y2="333.746" gradientUnits="userSpaceOnUse">
<stop stop-color="#898989"/>
<stop offset="1" stop-color="#EEEEEE"/>
</linearGradient>
<linearGradient id="paint1_linear_79_624" x1="562.5" y1="382.094" x2="625.486" y2="382.239" gradientUnits="userSpaceOnUse">
<stop stop-color="#56E6F6"/>
<stop offset="1" stop-color="#3C93A7"/>
</linearGradient>
<linearGradient id="paint2_linear_79_624" x1="9.53279" y1="8.76616" x2="181.513" y2="352.746" gradientUnits="userSpaceOnUse">
<stop stop-color="#56E6F7"/>
<stop offset="1" stop-color="#43A1B6"/>
</linearGradient>
<radialGradient id="paint3_radial_79_624" cx="0" cy="0" r="1" gradientUnits="userSpaceOnUse" gradientTransform="translate(99.8827 91.9335) rotate(89.8185) scale(179.339 195.464)">
<stop stop-color="#A7A7A7"/>
<stop offset="1" stop-color="#4E4E4E"/>
</radialGradient>
<clipPath id="clip0_79_624">
<path d="M368 389.023H486C516.376 389.023 541 413.648 541 444.023V580.023H368V389.023Z" fill="white"/>
</clipPath>
<clipPath id="clip1_79_624">
<path d="M368 389.023H486C516.376 389.023 541 413.648 541 444.023V580.023H368V389.023Z" fill="white"/>
</clipPath>
<clipPath id="clip2_79_624">
<rect width="14" height="94" fill="white" transform="translate(494 386)"/>
</clipPath>
<clipPath id="clip3_79_624">
<rect width="176" height="217" fill="white" transform="translate(318 363)"/>
</clipPath>
</defs>
</svg>
