<svg width="260" height="59" viewBox="0 0 260 59" fill="none" xmlns="http://www.w3.org/2000/svg">
<path d="M94.0629 58.11C94.0629 52.6629 92.8464 47.2691 90.4828 42.2366C88.1193 37.2041 84.655 32.6315 80.2877 28.7798C75.9204 24.9281 70.7357 21.8728 65.0296 19.7883C59.3235 17.7037 53.2077 16.6309 47.0314 16.6309C40.8552 16.6309 34.7394 17.7037 29.0333 19.7883C23.3272 21.8728 18.1425 24.9281 13.7752 28.7798C9.40792 32.6315 5.94361 37.2041 3.58005 42.2366C1.2165 47.2691 -5.39945e-07 52.6629 0 58.11L47.0314 58.11H94.0629Z" fill="#328862"/>
<circle cx="23.8406" cy="17.6101" r="16.657" fill="#328862"/>
<circle cx="24.1659" cy="17.9364" r="13.0643" fill="#E4FFF3"/>
<circle cx="24.1684" cy="17.936" r="9.145" fill="#328862"/>
<path d="M10.4492 32.3069C12.0169 30.7392 11.1024 28.6053 10.4492 27.7344L12.7355 28.061L14.6951 31.3271L12.7355 32.9601L10.4492 32.3069Z" fill="#328862"/>
<path d="M83.2852 31.6545C81.7174 30.0868 82.6319 27.953 83.2852 27.082L80.9989 27.4086L79.0393 30.6747L80.9989 32.3077L83.2852 31.6545Z" fill="#328862"/>
<circle cx="69.5671" cy="17.6101" r="16.657" fill="#328862"/>
<circle cx="69.8924" cy="17.9364" r="13.0643" fill="#E4FFF3"/>
<circle cx="69.895" cy="17.936" r="9.145" fill="#328862"/>
<path d="M56.6613 44.2988C56.1197 45.4084 55.3258 46.4165 54.3249 47.2657C53.3241 48.1149 52.1359 48.7885 50.8283 49.2481C49.5206 49.7076 48.1191 49.9442 46.7037 49.9442C45.2883 49.9442 43.8868 49.7076 42.5791 49.2481C41.2715 48.7885 40.0833 48.1149 39.0825 47.2657C38.0816 46.4165 37.2877 45.4084 36.7461 44.2988" stroke="#E4FFF3" stroke-width="3.26607" stroke-linecap="round" stroke-linejoin="round"/>
<path d="M123.068 23.0823C125.875 24.06 127.515 26.6462 127.452 30.0839C127.358 36.3916 122.501 40.397 114.237 40.397C106.826 40.397 102.789 36.9593 102.064 30.4308C101.496 25.4793 101.78 16.1123 102.347 9.83617C107.394 6.84001 118.558 6.99771 122.343 9.52079C127.358 12.8639 127.231 19.3608 123.699 22.5146C123.541 22.6723 123.352 22.83 123.068 23.0823ZM112.976 30.8408C113.733 31.2508 114.774 31.2823 115.594 30.9039C116.508 30.5254 116.855 29.7054 116.761 28.6962C116.697 27.8447 116.098 27.277 115.31 27.0877C114.679 26.9616 113.575 26.8985 113.007 27.4662C112.944 28.57 112.976 29.7054 112.976 30.8408ZM112.755 19.7077C113.733 20.2754 115.499 20.0862 115.467 18.0677C115.404 16.3331 113.228 16.3331 112.755 16.9639C112.503 17.5631 112.44 18.73 112.755 19.7077ZM141.121 14.3462C141.689 18.1308 141.499 33.3954 140.774 38.6939C138.125 41.5639 131.218 40.5231 129.83 33.427C129.294 30.62 128.947 13.2108 129.956 9.36309C132.889 6.77694 139.954 6.77694 141.121 14.3462ZM157.209 29.2008C160.615 29.2323 165.787 28.8854 170.676 29.4847C173.167 34.1839 169.603 39.4193 165.251 39.7347C160.899 40.0185 154.276 39.8293 154.276 39.8293C151.09 39.8293 144.814 39.5139 144.404 33.3954C144.057 27.7816 148.63 23.3977 154.276 18.1308C149.86 18.1623 145.634 18.4777 144.688 18.2885C142.701 15.7339 143.143 8.54309 149.009 8.19617C152.888 7.94386 165.125 8.1331 168.657 8.1331C170.045 9.71002 170.991 13.3685 168.752 16.9008C166.765 20.0231 160.394 26.4254 157.209 29.2008ZM193.453 39.6085C189.006 39.8924 183.676 39.6085 183.676 39.6085C180.428 39.6085 175.256 38.9462 174.341 32.7647C173.679 28.3177 173.237 17.4369 174.467 9.64694C177.369 7.02925 184.78 6.96617 185.632 14.6931C186.01 18.4146 186.01 24.8485 185.884 28.7908C188.754 28.57 194.494 28.6331 198.941 29.1693C201.496 33.9316 197.869 39.3247 193.453 39.6085ZM201.725 30.2731C202.955 23.9339 206.33 12.9269 208.348 8.98463C212.669 7.5654 222.067 5.57848 225.663 14.3462C227.366 18.5093 230.74 29.7054 231.939 36.3285C231.497 39.7662 221.878 43.677 219.387 35.0354C217.4 34.9408 215.192 35.067 213.173 35.0039C212.637 36.3285 212.133 37.9054 211.691 39.5454C203.933 42.3839 200.369 37.4324 201.725 30.2731ZM214.309 25.8893C215.665 25.8893 216.895 25.8893 218.188 25.8893C217.589 23.3346 216.958 20.8431 216.359 18.32C216.264 18.3516 216.17 18.3516 216.075 18.3516C215.507 20.8431 214.908 23.3031 214.309 25.8893ZM254.273 23.0823C257.08 24.06 258.72 26.6462 258.657 30.0839C258.563 36.3916 253.706 40.397 245.443 40.397C238.031 40.397 233.994 36.9593 233.269 30.4308C232.701 25.4793 232.985 16.1123 233.553 9.83617C238.599 6.84001 249.763 6.99771 253.548 9.52079C258.563 12.8639 258.436 19.3608 254.904 22.5146C254.746 22.6723 254.557 22.83 254.273 23.0823ZM244.181 30.8408C244.938 31.2508 245.979 31.2823 246.799 30.9039C247.713 30.5254 248.06 29.7054 247.966 28.6962C247.903 27.8447 247.303 27.277 246.515 27.0877C245.884 26.9616 244.78 26.8985 244.213 27.4662C244.149 28.57 244.181 29.7054 244.181 30.8408ZM243.96 19.7077C244.938 20.2754 246.704 20.0862 246.673 18.0677C246.609 16.3331 244.433 16.3331 243.96 16.9639C243.708 17.5631 243.645 18.73 243.96 19.7077Z" fill="#328862"/>
<path d="M106.283 57.665H102.774V48.4639H108.768V50.0018H104.456V51.6712H106.283C107.821 51.6712 109.543 52.5518 109.543 54.6812C109.543 56.8106 107.821 57.665 106.283 57.665ZM104.456 53.1828V56.1534H106.112C107.414 56.1534 107.847 55.4831 107.847 54.6812C107.847 53.8663 107.414 53.1828 106.112 53.1828H104.456ZM112.856 57.665H111.226V48.4639H112.908V54.7995H112.921L117.601 48.4639H119.218V57.665H117.535V51.3162H117.522L112.856 57.665ZM120.629 56.3506L121.667 55.1939C122.43 56.0088 123.31 56.3374 124.309 56.3374C125.624 56.3374 126.228 55.7722 126.228 55.023C126.228 54.2475 125.611 53.7217 124.546 53.7217H122.364V52.3152H124.507C125.65 52.3152 125.979 51.7106 125.979 51.1585C125.979 50.291 125.295 49.7915 124.283 49.7915C123.429 49.7915 122.627 50.1201 121.851 50.9088L120.826 49.7783C121.667 48.8451 122.955 48.293 124.375 48.293C126.071 48.293 127.687 49.1343 127.687 50.9482C127.687 52.0918 127.057 52.6438 126.439 52.9593V52.9725C127.096 53.2485 127.924 53.7874 127.924 55.0756C127.924 56.8764 126.36 57.8359 124.257 57.8359C122.719 57.8359 121.523 57.2707 120.629 56.3506ZM131.264 57.665H129.582V48.4639H131.264V52.2758H135.576V48.4639H137.258V57.665H135.576V53.7874H131.264V57.665ZM146.038 57.665H139.466V48.4639H145.972V49.9755H141.148V52.2758H145.736V53.7874H141.148V56.1534H146.038V57.665ZM154.59 55.0624L155.681 56.2717C154.826 57.2576 153.367 57.8359 152.079 57.8359C149.424 57.8359 147.36 55.7459 147.36 53.0645C147.36 50.383 149.424 48.293 152.079 48.293C153.38 48.293 154.747 48.8451 155.694 49.8441L154.563 51.0928C153.827 50.2384 153.052 49.8309 152.079 49.8309C150.239 49.8309 149.056 51.3425 149.056 53.0645C149.056 54.7864 150.239 56.298 152.079 56.298C153.052 56.298 153.854 55.8905 154.59 55.0624ZM159.075 57.5993V56.1271C159.469 56.2717 159.68 56.298 159.982 56.298C160.56 56.298 160.744 55.8248 160.744 54.7601V48.4639H166.843V57.665H165.161V50.0018H162.427V54.7733C162.427 56.7055 161.743 57.8359 160.271 57.8359C159.929 57.8359 159.443 57.7439 159.075 57.5993ZM169.869 57.665H167.963L172.051 48.4639H173.642L177.716 57.665H175.81L174.982 55.7591H170.71L169.869 57.665ZM172.827 50.7905L171.302 54.2606H174.391L172.853 50.7905H172.827ZM182.673 57.665H179.163V48.4639H185.157V50.0018H180.846V51.6712H182.673C184.211 51.6712 185.933 52.5518 185.933 54.6812C185.933 56.8106 184.211 57.665 182.673 57.665ZM180.846 53.1828V56.1534H182.502C183.803 56.1534 184.237 55.4831 184.237 54.6812C184.237 53.8663 183.803 53.1828 182.502 53.1828H180.846ZM191.846 57.8359C189.191 57.8359 187.127 55.7459 187.127 53.0645C187.127 50.383 189.191 48.293 191.846 48.293C194.501 48.293 196.565 50.383 196.565 53.0645C196.565 55.7459 194.501 57.8359 191.846 57.8359ZM191.846 56.298C193.7 56.298 194.87 54.7864 194.87 53.0645C194.87 51.3425 193.7 49.8309 191.846 49.8309C190.006 49.8309 188.836 51.3425 188.836 53.0645C188.836 54.7864 190.006 56.298 191.846 56.298ZM199.901 57.665H198.218V48.4639H201.728C203.266 48.4639 204.988 49.3183 204.988 51.4477C204.988 53.5771 203.266 54.4578 201.728 54.4578H199.901V57.665ZM199.901 49.9755V52.9462H201.57C202.858 52.9462 203.292 52.2627 203.292 51.4477C203.292 50.6459 202.858 49.9755 201.57 49.9755H199.901ZM206.581 57.665H204.675L208.763 48.4639H210.354L214.429 57.665H212.523L211.694 55.7591H207.422L206.581 57.665ZM209.539 50.7905L208.014 54.2606H211.103L209.565 50.7905H209.539ZM218.303 57.665H216.62V50.0018H213.755V48.4639H221.155V50.0018H218.303V57.665ZM226.62 57.8359C223.965 57.8359 221.901 55.7459 221.901 53.0645C221.901 50.383 223.965 48.293 226.62 48.293C229.275 48.293 231.339 50.383 231.339 53.0645C231.339 55.7459 229.275 57.8359 226.62 57.8359ZM226.62 56.298C228.474 56.298 229.643 54.7864 229.643 53.0645C229.643 51.3425 228.474 49.8309 226.62 49.8309C224.78 49.8309 223.61 51.3425 223.61 53.0645C223.61 54.7864 224.78 56.298 226.62 56.298ZM234.675 57.665H232.992V48.4639H236.502C238.04 48.4639 239.761 49.3183 239.761 51.4477C239.761 53.5771 238.04 54.4578 236.502 54.4578H234.675V57.665ZM234.675 49.9755V52.9462H236.344C237.632 52.9462 238.066 52.2627 238.066 51.4477C238.066 50.6459 237.632 49.9755 236.344 49.9755H234.675ZM242.94 57.665H241.31V48.4639H242.993V54.7995H243.006L247.685 48.4639H249.302V57.665H247.619V51.3162H247.606L242.94 57.665ZM258.153 57.665H256.47V53.7874H255.642L252.777 57.665H250.831L253.684 53.7611C252.369 53.6165 251.068 52.9067 251.068 51.1454C251.068 49.1211 252.724 48.4639 254.196 48.4639H258.153V57.665ZM254.354 52.3284H256.47V49.9755H254.354C253.132 49.9755 252.764 50.4356 252.764 51.1454C252.764 51.8157 253.132 52.3284 254.354 52.3284Z" fill="#328862"/>
</svg>
