<svg width="200" height="465" viewBox="0 0 200 465" fill="none" xmlns="http://www.w3.org/2000/svg">
<mask id="path-1-inside-1_104_665" fill="white">
<path d="M-40.8796 2.07378C-42.2498 1.30879 -43.7136 0.561742 -44.1261 0.411099C-45.0239 0.0995856 -57.8101 -0.14642 -61.9325 0.0752069L-64.7596 0.230006L-68.8433 1.88275C-72.2527 3.27334 -80.1058 6.80869 -92.2987 12.4568C-95.6885 14.0129 -95.6109 13.9618 -101.539 18.3009C-106.788 22.123 -108.54 23.4741 -111.423 25.8759C-112.815 27.0371 -131.263 42.7202 -131.748 43.1637C-131.901 43.2896 -134.646 45.6409 -137.882 48.3884C-141.095 51.1314 -144.397 54.0246 -145.189 54.8049C-145.981 55.5853 -147.578 57.1363 -148.724 58.2624C-152.479 61.9677 -157.998 67.3404 -158.205 67.513C-158.783 67.9744 -160.113 69.4622 -164.698 74.7407C-166.465 76.7716 -168.15 78.69 -168.433 79.0223C-168.73 79.3451 -170.139 80.9689 -171.589 82.6489C-173.042 84.3054 -175.86 87.553 -177.848 89.8318C-181.542 94.0572 -182.99 95.7609 -184.012 97.0205C-185.105 98.3784 -188.381 102.306 -188.96 102.961C-189.264 103.321 -190.029 104.229 -190.634 104.974C-191.239 105.718 -192.421 107.142 -193.247 108.134C-194.074 109.126 -195.235 110.521 -195.809 111.224C-196.383 111.926 -197.117 112.792 -197.431 113.166C-198.168 114.009 -201.146 117.614 -202.503 119.276C-203.432 120.409 -206.468 124.037 -208.889 126.906C-209.739 127.903 -218.616 138.005 -219.632 139.118C-219.915 139.45 -220.484 140.091 -220.894 140.569C-221.303 141.046 -222.937 142.894 -224.526 144.71C-232.186 153.394 -241.944 164.535 -242.842 165.626C-247.208 170.935 -249.235 173.402 -250.359 174.802C-251.077 175.702 -252.28 177.153 -253.024 178.033C-253.768 178.913 -255.238 180.73 -256.288 182.055C-257.971 184.191 -258.204 184.538 -258.234 184.991C-258.334 186.061 -258.282 186.1 -252.049 190.853C-248.843 193.285 -246.029 195.429 -245.77 195.597C-245.521 195.779 -242.724 197.891 -239.567 200.308C-236.4 202.711 -231.459 206.455 -228.57 208.633C-223.695 212.329 -221.803 213.756 -213.072 220.424C-211.269 221.807 -207.356 224.756 -204.401 226.982C-201.446 229.209 -198.069 231.765 -196.909 232.679C-195.748 233.593 -192.554 236.015 -189.809 238.088C-187.064 240.161 -183.527 242.856 -181.924 244.072C-178.659 246.59 -167.882 254.474 -164.049 257.148C-162.654 258.126 -158.291 261.231 -154.332 264.062C-150.362 266.88 -145.908 270.052 -144.397 271.092C-142.887 272.133 -137.778 275.784 -133.022 279.176C-128.277 282.582 -120.152 288.375 -114.993 292.041C-109.832 295.73 -103.767 300.08 -101.505 301.714C-99.2392 303.371 -97.3329 304.723 -97.2731 304.723C-97.0804 304.735 -71.6003 323.05 -61.8052 330.216C-53.2149 336.5 -38.7719 347.259 -15.1679 364.979C-11.8858 367.445 -5.2615 372.377 -0.473376 375.945C4.32783 379.522 10.8866 384.406 14.0902 386.814C17.3069 389.232 23.5645 393.896 27.9991 397.205C32.4337 400.513 39.1365 405.503 42.8901 408.314C51.8537 415.022 66.828 426.127 86.7493 440.829C95.6493 447.405 106.493 455.445 110.859 458.682C119.411 465.046 119.087 464.83 120.323 464.569C120.788 464.456 121.387 463.966 123.71 461.781C125.245 460.314 132.393 453.565 139.585 446.784C146.764 439.993 155.118 432.119 158.14 429.28L163.636 424.129L166.312 420.691C167.784 418.789 172.372 412.627 176.509 406.999L184.042 396.756L185.899 393.366C186.934 391.512 188.571 388.587 189.536 386.855C190.515 385.132 191.462 383.343 191.635 382.887C191.828 382.402 192.127 380.592 192.351 378.555C192.553 376.63 193.43 368.726 194.304 360.991C195.177 353.257 196.103 344.654 196.36 341.885C196.627 339.102 197.055 334.559 197.311 331.79C197.578 329.007 197.878 325.795 197.99 324.625C198.089 323.446 198.4 320.134 198.679 317.252C198.958 314.37 199.151 311.468 199.122 310.821C199.036 309.097 197.266 300.14 196.54 297.753C195.655 294.84 192.044 283.371 191.335 281.234C191.014 280.244 190.029 277.689 189.164 275.545C183.442 261.411 184.262 263.176 179.839 255.537C177.421 251.395 176.023 249.293 174.383 247.359C174.091 247.016 172.743 245.836 171.393 244.741C162.367 237.404 162.789 237.734 161.799 237.355C160.447 236.841 145.748 234.592 144.605 234.726C143.921 234.809 143.078 235.164 141.258 236.141C136.977 238.448 136.447 238.816 133.103 241.765C127.735 246.493 126.612 247.505 122.881 251.013C120.891 252.881 118.111 255.444 116.707 256.704C115.289 257.955 113.952 259.178 113.738 259.389C113.514 259.613 112.295 260.729 111.02 261.868C109.745 263.007 106.559 265.877 103.947 268.239C88.2513 282.44 85.8707 284.54 81.2909 288.355C80.3119 289.171 79.3227 290.001 79.1217 290.221C78.2755 291.048 68.079 299.711 67.3599 300.199L66.5866 300.734L68.403 297.509C69.3995 295.735 70.5961 293.632 71.0654 292.853C72.2013 290.943 73.2801 289.056 74.4739 286.929C75.017 285.967 75.7574 284.652 76.1136 284.028C76.4698 283.404 77.4616 281.691 78.2918 280.226C80.6186 276.166 82.5509 272.81 84.1345 270.041C85.4826 267.703 87.7711 263.723 89.2855 261.076C89.6417 260.451 90.6541 258.71 91.5151 257.203C92.3892 255.706 93.1502 254.364 93.1932 254.222C93.2493 254.091 93.7382 253.175 94.2813 252.213C94.8113 251.241 95.6592 249.725 96.1276 248.837C96.5959 247.949 97.2643 246.733 97.5999 246.137C98.23 245.001 103.413 235.498 105.01 232.545C105.894 230.925 108.95 224.851 110.575 221.53C111.296 220.05 111.384 219.683 111.908 216.246C112.215 214.205 112.475 212.172 112.469 211.714C112.475 211.266 112.081 208.452 111.594 205.463C109.743 193.923 109.989 194.988 108.208 190.361C107.323 188.052 106.472 185.919 106.326 185.596C106.183 185.297 104.786 183.002 103.211 180.511C101.648 178.03 99.2756 174.266 97.9714 172.147C95.4324 168.088 95.7589 168.521 86.2284 156.845C83.2714 153.192 82.7644 152.649 81.0788 151.243C77.3616 148.135 69.1499 141.718 68.4129 141.352C67.5375 140.927 60.8173 137.802 58.667 136.812C57.3529 136.218 56.7142 136.074 53.7962 135.666C49.1771 135.028 49.0807 135.022 43.0011 135.474C35.2128 136.035 32.2764 136.779 26.3899 139.66C22.7654 141.454 21.8172 141.926 5.08637 150.233L-4.97069 155.242L-8.72775 157.932C-10.7989 159.417 -12.828 160.954 -13.259 161.351C-13.6769 161.757 -14.338 162.331 -14.7307 162.648C-15.2861 163.105 -22.1034 169.017 -22.9141 169.74C-23.0328 169.848 -23.7116 170.473 -24.4241 171.117C-25.1338 171.785 -26.4223 172.915 -27.2797 173.647C-28.7982 174.953 -32.9356 178.768 -33.8098 179.661C-34.0445 179.899 -34.6252 180.446 -35.1001 180.875C-35.5751 181.305 -37.2376 182.808 -38.7654 184.237C-40.3063 185.656 -41.6331 186.865 -41.7079 186.94C-41.7855 186.991 -42.1156 187.332 -42.4559 187.688C-42.786 188.029 -43.1731 188.393 -43.2946 188.477C-43.4293 188.551 -43.5555 188.696 -43.5835 188.762C-43.6219 188.842 -44.0192 189.22 -44.4737 189.622C-44.9281 190.023 -45.5115 190.546 -45.7593 190.775C-46.167 191.167 -48.1642 192.771 -48.7178 193.143C-48.8393 193.226 -48.7543 192.835 -48.5048 192.219C-48.2655 191.617 -47.3205 189.309 -46.4035 187.066C-45.4866 184.823 -44.1827 181.612 -43.5004 179.91C-42.805 178.217 -41.7226 175.556 -41.0805 174.018C-40.4411 172.457 -39.412 169.951 -38.8035 168.433C-38.1848 166.9 -36.9416 164.184 -36.0208 162.375C-33.1641 156.739 -27.8508 145.518 -26.4824 142.246C-25.4608 139.778 -25.3104 139.133 -24.1588 132.227C-23.7563 129.781 -23.0194 125.421 -22.5403 122.513C-22.0481 119.614 -21.6073 116.785 -21.5419 116.229C-21.4869 115.686 -21.4037 111.56 -21.3757 107.07C-21.3477 102.58 -21.3132 97.6417 -21.3033 96.1167C-21.2639 92.6278 -21.3015 91.6075 -21.749 85.4315C-21.9582 82.6672 -22.3156 77.5498 -22.5521 74.0532C-22.8016 70.5471 -23.0727 66.9605 -23.1533 66.0815C-23.2948 64.791 -25.6827 51.0448 -28.7428 33.9581C-29.0405 32.3591 -29.7876 29.0934 -30.4044 26.7214C-34.0782 12.6172 -35.7087 6.54699 -35.9876 5.91137C-36.4077 4.89185 -37.7939 3.79146 -40.8796 2.07378Z"/>
</mask>
<path d="M-40.8796 2.07378C-42.2498 1.30879 -43.7136 0.561742 -44.1261 0.411099C-45.0239 0.0995856 -57.8101 -0.14642 -61.9325 0.0752069L-64.7596 0.230006L-68.8433 1.88275C-72.2527 3.27334 -80.1058 6.80869 -92.2987 12.4568C-95.6885 14.0129 -95.6109 13.9618 -101.539 18.3009C-106.788 22.123 -108.54 23.4741 -111.423 25.8759C-112.815 27.0371 -131.263 42.7202 -131.748 43.1637C-131.901 43.2896 -134.646 45.6409 -137.882 48.3884C-141.095 51.1314 -144.397 54.0246 -145.189 54.8049C-145.981 55.5853 -147.578 57.1363 -148.724 58.2624C-152.479 61.9677 -157.998 67.3404 -158.205 67.513C-158.783 67.9744 -160.113 69.4622 -164.698 74.7407C-166.465 76.7716 -168.15 78.69 -168.433 79.0223C-168.73 79.3451 -170.139 80.9689 -171.589 82.6489C-173.042 84.3054 -175.86 87.553 -177.848 89.8318C-181.542 94.0572 -182.99 95.7609 -184.012 97.0205C-185.105 98.3784 -188.381 102.306 -188.96 102.961C-189.264 103.321 -190.029 104.229 -190.634 104.974C-191.239 105.718 -192.421 107.142 -193.247 108.134C-194.074 109.126 -195.235 110.521 -195.809 111.224C-196.383 111.926 -197.117 112.792 -197.431 113.166C-198.168 114.009 -201.146 117.614 -202.503 119.276C-203.432 120.409 -206.468 124.037 -208.889 126.906C-209.739 127.903 -218.616 138.005 -219.632 139.118C-219.915 139.45 -220.484 140.091 -220.894 140.569C-221.303 141.046 -222.937 142.894 -224.526 144.71C-232.186 153.394 -241.944 164.535 -242.842 165.626C-247.208 170.935 -249.235 173.402 -250.359 174.802C-251.077 175.702 -252.28 177.153 -253.024 178.033C-253.768 178.913 -255.238 180.73 -256.288 182.055C-257.971 184.191 -258.204 184.538 -258.234 184.991C-258.334 186.061 -258.282 186.1 -252.049 190.853C-248.843 193.285 -246.029 195.429 -245.77 195.597C-245.521 195.779 -242.724 197.891 -239.567 200.308C-236.4 202.711 -231.459 206.455 -228.57 208.633C-223.695 212.329 -221.803 213.756 -213.072 220.424C-211.269 221.807 -207.356 224.756 -204.401 226.982C-201.446 229.209 -198.069 231.765 -196.909 232.679C-195.748 233.593 -192.554 236.015 -189.809 238.088C-187.064 240.161 -183.527 242.856 -181.924 244.072C-178.659 246.59 -167.882 254.474 -164.049 257.148C-162.654 258.126 -158.291 261.231 -154.332 264.062C-150.362 266.88 -145.908 270.052 -144.397 271.092C-142.887 272.133 -137.778 275.784 -133.022 279.176C-128.277 282.582 -120.152 288.375 -114.993 292.041C-109.832 295.73 -103.767 300.08 -101.505 301.714C-99.2392 303.371 -97.3329 304.723 -97.2731 304.723C-97.0804 304.735 -71.6003 323.05 -61.8052 330.216C-53.2149 336.5 -38.7719 347.259 -15.1679 364.979C-11.8858 367.445 -5.2615 372.377 -0.473376 375.945C4.32783 379.522 10.8866 384.406 14.0902 386.814C17.3069 389.232 23.5645 393.896 27.9991 397.205C32.4337 400.513 39.1365 405.503 42.8901 408.314C51.8537 415.022 66.828 426.127 86.7493 440.829C95.6493 447.405 106.493 455.445 110.859 458.682C119.411 465.046 119.087 464.83 120.323 464.569C120.788 464.456 121.387 463.966 123.71 461.781C125.245 460.314 132.393 453.565 139.585 446.784C146.764 439.993 155.118 432.119 158.14 429.28L163.636 424.129L166.312 420.691C167.784 418.789 172.372 412.627 176.509 406.999L184.042 396.756L185.899 393.366C186.934 391.512 188.571 388.587 189.536 386.855C190.515 385.132 191.462 383.343 191.635 382.887C191.828 382.402 192.127 380.592 192.351 378.555C192.553 376.63 193.43 368.726 194.304 360.991C195.177 353.257 196.103 344.654 196.36 341.885C196.627 339.102 197.055 334.559 197.311 331.79C197.578 329.007 197.878 325.795 197.99 324.625C198.089 323.446 198.4 320.134 198.679 317.252C198.958 314.37 199.151 311.468 199.122 310.821C199.036 309.097 197.266 300.14 196.54 297.753C195.655 294.84 192.044 283.371 191.335 281.234C191.014 280.244 190.029 277.689 189.164 275.545C183.442 261.411 184.262 263.176 179.839 255.537C177.421 251.395 176.023 249.293 174.383 247.359C174.091 247.016 172.743 245.836 171.393 244.741C162.367 237.404 162.789 237.734 161.799 237.355C160.447 236.841 145.748 234.592 144.605 234.726C143.921 234.809 143.078 235.164 141.258 236.141C136.977 238.448 136.447 238.816 133.103 241.765C127.735 246.493 126.612 247.505 122.881 251.013C120.891 252.881 118.111 255.444 116.707 256.704C115.289 257.955 113.952 259.178 113.738 259.389C113.514 259.613 112.295 260.729 111.02 261.868C109.745 263.007 106.559 265.877 103.947 268.239C88.2513 282.44 85.8707 284.54 81.2909 288.355C80.3119 289.171 79.3227 290.001 79.1217 290.221C78.2755 291.048 68.079 299.711 67.3599 300.199L66.5866 300.734L68.403 297.509C69.3995 295.735 70.5961 293.632 71.0654 292.853C72.2013 290.943 73.2801 289.056 74.4739 286.929C75.017 285.967 75.7574 284.652 76.1136 284.028C76.4698 283.404 77.4616 281.691 78.2918 280.226C80.6186 276.166 82.5509 272.81 84.1345 270.041C85.4826 267.703 87.7711 263.723 89.2855 261.076C89.6417 260.451 90.6541 258.71 91.5151 257.203C92.3892 255.706 93.1502 254.364 93.1932 254.222C93.2493 254.091 93.7382 253.175 94.2813 252.213C94.8113 251.241 95.6592 249.725 96.1276 248.837C96.5959 247.949 97.2643 246.733 97.5999 246.137C98.23 245.001 103.413 235.498 105.01 232.545C105.894 230.925 108.95 224.851 110.575 221.53C111.296 220.05 111.384 219.683 111.908 216.246C112.215 214.205 112.475 212.172 112.469 211.714C112.475 211.266 112.081 208.452 111.594 205.463C109.743 193.923 109.989 194.988 108.208 190.361C107.323 188.052 106.472 185.919 106.326 185.596C106.183 185.297 104.786 183.002 103.211 180.511C101.648 178.03 99.2756 174.266 97.9714 172.147C95.4324 168.088 95.7589 168.521 86.2284 156.845C83.2714 153.192 82.7644 152.649 81.0788 151.243C77.3616 148.135 69.1499 141.718 68.4129 141.352C67.5375 140.927 60.8173 137.802 58.667 136.812C57.3529 136.218 56.7142 136.074 53.7962 135.666C49.1771 135.028 49.0807 135.022 43.0011 135.474C35.2128 136.035 32.2764 136.779 26.3899 139.66C22.7654 141.454 21.8172 141.926 5.08637 150.233L-4.97069 155.242L-8.72775 157.932C-10.7989 159.417 -12.828 160.954 -13.259 161.351C-13.6769 161.757 -14.338 162.331 -14.7307 162.648C-15.2861 163.105 -22.1034 169.017 -22.9141 169.74C-23.0328 169.848 -23.7116 170.473 -24.4241 171.117C-25.1338 171.785 -26.4223 172.915 -27.2797 173.647C-28.7982 174.953 -32.9356 178.768 -33.8098 179.661C-34.0445 179.899 -34.6252 180.446 -35.1001 180.875C-35.5751 181.305 -37.2376 182.808 -38.7654 184.237C-40.3063 185.656 -41.6331 186.865 -41.7079 186.94C-41.7855 186.991 -42.1156 187.332 -42.4559 187.688C-42.786 188.029 -43.1731 188.393 -43.2946 188.477C-43.4293 188.551 -43.5555 188.696 -43.5835 188.762C-43.6219 188.842 -44.0192 189.22 -44.4737 189.622C-44.9281 190.023 -45.5115 190.546 -45.7593 190.775C-46.167 191.167 -48.1642 192.771 -48.7178 193.143C-48.8393 193.226 -48.7543 192.835 -48.5048 192.219C-48.2655 191.617 -47.3205 189.309 -46.4035 187.066C-45.4866 184.823 -44.1827 181.612 -43.5004 179.91C-42.805 178.217 -41.7226 175.556 -41.0805 174.018C-40.4411 172.457 -39.412 169.951 -38.8035 168.433C-38.1848 166.9 -36.9416 164.184 -36.0208 162.375C-33.1641 156.739 -27.8508 145.518 -26.4824 142.246C-25.4608 139.778 -25.3104 139.133 -24.1588 132.227C-23.7563 129.781 -23.0194 125.421 -22.5403 122.513C-22.0481 119.614 -21.6073 116.785 -21.5419 116.229C-21.4869 115.686 -21.4037 111.56 -21.3757 107.07C-21.3477 102.58 -21.3132 97.6417 -21.3033 96.1167C-21.2639 92.6278 -21.3015 91.6075 -21.749 85.4315C-21.9582 82.6672 -22.3156 77.5498 -22.5521 74.0532C-22.8016 70.5471 -23.0727 66.9605 -23.1533 66.0815C-23.2948 64.791 -25.6827 51.0448 -28.7428 33.9581C-29.0405 32.3591 -29.7876 29.0934 -30.4044 26.7214C-34.0782 12.6172 -35.7087 6.54699 -35.9876 5.91137C-36.4077 4.89185 -37.7939 3.79146 -40.8796 2.07378Z" fill="#3840A9" stroke="white" stroke-width="22" mask="url(#path-1-inside-1_104_665)"/>
</svg>
