<svg width="300" height="421" viewBox="0 0 300 421" fill="none" xmlns="http://www.w3.org/2000/svg">
<mask id="path-1-inside-1_104_664" fill="white">
<path d="M127.487 398.65C127.692 398.386 128.54 397.329 129.353 396.312C132.446 392.454 133.021 391.484 135.64 385.802C137.68 381.367 138.097 380.352 139.068 377.528C140.496 373.42 141.091 370.734 141.347 367.397C141.595 364.146 141.941 356.716 142.024 352.664C142.123 347.923 142.138 347.491 142.7 335.587C142.953 330.161 143.138 324.956 143.101 324.009C143.071 323.069 143.071 321.873 143.112 321.347C143.142 320.834 143.184 319.558 143.196 318.538C143.239 316.654 143.321 314.359 143.681 304.455C143.791 301.553 143.902 297.853 143.92 296.252C143.95 294.638 143.994 292.402 144.029 291.261C144.052 290.133 144.078 288.14 144.073 286.822C144.04 280.699 144.282 277.631 144.874 276.466C145.228 275.793 146.333 274.541 146.882 274.206C147.42 273.883 148.711 273.522 149.19 273.569C149.441 273.604 151.162 275.005 155.511 278.725C160.819 283.291 161.654 283.957 163.11 284.796C163.998 285.322 165.23 286.128 165.839 286.571C166.444 287.034 167.612 287.784 168.429 288.247C169.242 288.73 170.131 289.303 170.4 289.541C171.247 290.288 175.188 292.429 177.718 293.536C179.825 294.434 183.778 295.812 185.161 296.095C188.09 296.733 191.334 297.158 192.369 297.039C194.128 296.833 198.906 295.774 201.678 294.962C204.298 294.18 207.525 292.597 211.293 290.225C215.895 287.323 218.853 285.104 221.373 282.663C222.165 281.909 223.52 280.596 224.402 279.757C226.2 278.038 229.925 273.847 231.728 271.5C233.71 268.935 236.346 264.91 237.446 262.785C238.707 260.335 241.712 253.657 242.329 251.904C243.983 247.269 245.063 241.049 245.46 233.992C245.502 233.162 245.594 231.861 245.665 231.126C245.84 229.077 245.916 227.761 245.976 225.188C246.056 221.602 246.423 211.355 246.588 208.406C246.738 205.444 246.859 202.386 246.889 200.374C246.941 197.936 247.529 185.89 247.672 184.563C247.848 182.96 248.076 182.27 248.715 181.545C249.588 180.557 250.023 180.238 250.985 179.914C251.802 179.627 252.014 179.626 252.734 179.863C255.331 180.702 256.397 181.01 258.23 181.454C260.758 182.068 261.65 182.175 265.248 182.326C270.122 182.547 274.976 182.025 278.369 180.94C281.129 180.046 286.067 177.769 289.233 175.921C290.16 175.38 291.299 174.744 291.779 174.487C293.663 173.501 295.773 171.987 299.066 169.244C300.447 168.094 303.627 165.016 306.234 162.301C309.09 159.335 313.759 153.516 315.639 150.604C318.021 146.915 319.63 144.069 321.685 139.857C323.056 137.059 324.37 133.718 326.082 128.665C326.44 127.621 327.85 122.607 328.207 121.117C330.523 111.487 332.835 99.7206 333.513 94.0367C333.64 93.047 333.883 91.1753 334.077 89.8699C334.268 88.5847 334.475 86.9621 334.515 86.2942C334.75 83.2668 334.813 82.6199 335.096 80.4318C335.279 79.1396 335.525 76.7545 335.661 75.1163C335.796 73.4781 336.047 71.2148 336.228 70.0847C336.412 68.9344 336.609 67.5615 336.662 67.0224C336.944 64.341 337.274 58.7957 337.286 56.5796C337.3 55.2082 337.318 53.2084 337.33 52.1411C337.363 50.3647 337.331 48.4852 337.197 43.5145C337.175 42.5813 337.132 40.3635 337.11 38.5856C337.087 36.8077 336.991 34.7303 336.893 33.9639C336.806 33.1843 336.683 31.9035 336.636 31.1115C336.58 30.3125 336.471 29.3025 336.408 28.8479C336.344 28.3933 336.239 27.3631 336.188 26.544C336.128 25.7178 336.009 24.5115 335.901 23.8529C335.811 23.1881 335.697 22.009 335.669 21.2108C335.629 20.4257 335.519 19.2738 335.415 18.6423C335.298 18.024 335.191 17.1086 335.162 16.6145C335.107 15.5114 334.598 12.1787 334.369 11.3207C334.275 10.9801 334.102 10.5223 333.978 10.2957C333.85 10.0893 333.542 9.4655 333.293 8.91772C332.338 6.85616 331.303 5.47484 329.526 3.9302L327.903 2.49813L325.231 1.617C323.755 1.13524 322.491 0.700138 322.405 0.670614C322.33 0.627908 322.172 0.582829 322.074 0.566485C321.964 0.563321 321.394 0.459059 320.801 0.333839C318.167 -0.208298 314.733 -0.0504276 310.839 0.756444C310.283 0.875589 309.7 0.993945 309.567 1.01714C309.422 1.05352 308.596 1.23922 307.731 1.43732C306.867 1.63541 305.963 1.8459 305.716 1.88609C304.373 2.13124 299.534 4.12052 297.561 5.23952C294.579 6.94438 288.468 11.046 287.816 11.7841C287.7 11.9159 287.552 12.0197 287.466 12.0375C287.384 12.0351 287.244 12.146 287.127 12.2778C287.023 12.3964 286.133 13.229 285.154 14.0996C282.162 16.757 281.89 17.033 278.188 21.1972C274.54 25.3156 273.522 26.5973 271.162 30.1176C268.548 34.0226 266.519 37.7417 265.443 40.5895C265.302 40.9571 265.168 41.237 265.136 41.2091C265.096 41.1741 265.066 41.2408 265.067 41.3355C265.068 41.4301 264.695 42.5547 264.226 43.8521C263.643 45.4707 263.306 46.6503 263.167 47.6059C262.929 49.2006 262.735 56.1081 262.807 60.3675C262.919 66.9594 262.981 68.7723 263.095 69.9514C263.283 71.8287 263.301 79.1342 263.124 80.1968C262.914 81.5356 262.699 81.9551 261.706 83.0009C260.895 83.8561 260.872 83.8824 259.805 84.2301C259.218 84.416 258.534 84.5855 258.306 84.5722C257.439 84.581 254.607 84.1683 254.594 84.0395C254.597 83.972 254.531 83.9836 254.461 84.0627C254.391 84.1418 254.325 84.1534 254.32 84.0789C254.327 83.9913 254.268 83.9625 254.194 84.0145C254.139 84.0602 253.692 84.0405 253.197 83.979C252.722 83.9112 252.027 83.8372 251.654 83.8129C251.301 83.7825 250.869 83.7295 250.727 83.6984C250.578 83.6603 249.577 83.5976 248.525 83.5606C247.454 83.5297 246.528 83.4625 246.48 83.4206C246.425 83.3717 246.331 83.3825 246.273 83.4484C246.214 83.5143 246.171 83.4996 246.159 83.4181C246.154 83.3436 246.103 83.3219 246.044 83.3878C245.94 83.5064 244.833 83.4678 244.828 83.346C244.836 83.3057 244.761 83.3103 244.679 83.3552C244.457 83.4637 241.957 83.3917 242.062 83.2731C242.12 83.2072 242.065 83.2056 241.964 83.2567C241.851 83.321 240.925 83.3011 239.908 83.2246C236.721 82.9908 235.064 83.2405 230.784 84.6444C229.256 85.1477 227.712 85.6844 227.345 85.8293C226.974 85.9943 226.29 86.2584 225.826 86.4343C225.349 86.6233 224.244 87.078 223.373 87.4584C222.491 87.8519 221.733 88.168 221.675 88.1866C221.424 88.2469 218.351 89.9424 215.622 91.5194C208.441 95.6848 207.221 96.4133 206.412 97.1063C206.334 97.1784 205.829 97.576 205.284 97.9861C202.79 99.9348 199.999 102.348 197.84 104.428C196.365 105.845 191.873 111 190.213 113.169C188.104 115.926 185.396 120.335 183.525 124.052C181.934 127.196 179.425 133.678 178.412 137.285C177.474 140.583 176.411 145.857 175.981 149.392C175.728 151.419 175.425 156.918 175.33 160.983C175.17 167.851 174.721 175.846 174.347 178.025C174.044 179.82 173.899 180.161 172.934 181.255C171.992 182.322 171.629 182.542 170.206 182.974C169.107 183.293 168.092 183.311 165.038 183.102C160.01 182.768 158.194 182.783 154.637 183.16C151.06 183.544 148.787 183.742 148.7 183.665C148.652 183.623 148.586 183.635 148.527 183.701C148.481 183.753 148.183 183.819 147.854 183.857C145.947 184.072 141.953 184.768 137.252 185.707C133.056 186.553 126.594 188.914 122.252 191.202C121.265 191.714 120.411 192.156 120.352 192.174C120.293 192.193 119.861 192.444 119.385 192.727C118.902 193.004 117.299 193.911 115.813 194.733C112.557 196.524 107.807 199.483 105.607 201.082C101.302 204.222 95.7665 209.347 92.1198 213.56C91.1123 214.734 89.6871 216.477 88.956 217.449C86.6505 220.525 82.0465 227.339 80.1767 230.448C78.7849 232.759 75.7835 240.167 74.3611 244.796C73.3177 248.165 72.4684 254.33 72.1916 260.485C72.1262 261.74 71.9659 264.412 71.8182 266.415C70.8804 279.112 70.5964 284.956 70.3678 295.35C70.2091 302.663 69.5919 316.769 69.2757 320.288C69.0756 322.525 69.0481 323.275 69.1474 327.136C69.1981 329.361 69.1204 330.183 68.7159 331.631C68.4586 332.529 68.4432 332.563 67.478 333.657C66.8617 334.355 66.3337 334.874 66.0648 335.035C65.3594 335.467 63.2901 336.009 62.1688 336.051C60.9614 336.111 59.1215 336.457 57.2562 336.991C56.5562 337.194 55.3238 337.489 54.5214 337.649C53.7074 337.821 52.0174 338.252 50.7543 338.615C49.4912 338.977 48.1653 339.331 47.7897 339.421C47.4257 339.499 46.1985 339.916 45.0695 340.35C42.1236 341.454 42.2916 341.392 39.5195 342.602C38.6879 342.97 37.8875 343.319 37.739 343.376C36.9814 343.692 34.5129 345.053 33.418 345.752C30.5117 347.641 23.5562 353.131 20.7207 355.786C18.697 357.68 18.53 357.838 16.8438 359.749C14.925 361.924 13.486 363.842 11.397 366.992C8.88719 370.778 7.84431 372.694 5.6628 377.497C4.13299 380.859 3.46719 382.826 2.18879 387.723C1.45321 390.519 1.34187 391.124 1.06181 393.596C0.498957 398.655 1.20715 402.608 3.51518 407.27C4.28838 408.82 6.53433 412.418 6.97772 412.81C7.31026 413.103 9.68729 414.239 11.3891 414.944C13.6422 415.853 19.354 417.072 21.6177 417.124C22.6693 417.161 30.8514 416.059 32.6004 415.656C41.4513 413.62 40.4609 413.801 46.8088 413.214C47.3339 413.161 48.6759 413.22 49.795 413.34C50.9258 413.447 52.2646 413.574 52.7748 413.602C56.9471 413.884 61.5211 414.685 65.2978 415.767C65.9431 415.961 67.3435 416.353 68.4171 416.62C69.487 416.908 70.7458 417.268 71.2221 417.431C72.5291 417.881 77.7149 419.057 79.4788 419.324C80.3274 419.464 82.0169 419.735 83.231 419.939C86.689 420.552 92.7571 420.585 95.3715 420.032C100.134 419.007 109.36 414.231 117.307 408.656C120.582 406.364 120.959 406.017 124.239 402.348C125.824 400.582 127.282 398.915 127.487 398.65Z"/>
</mask>
<path d="M127.487 398.65C127.692 398.386 128.54 397.329 129.353 396.312C132.446 392.454 133.021 391.484 135.64 385.802C137.68 381.367 138.097 380.352 139.068 377.528C140.496 373.42 141.091 370.734 141.347 367.397C141.595 364.146 141.941 356.716 142.024 352.664C142.123 347.923 142.138 347.491 142.7 335.587C142.953 330.161 143.138 324.956 143.101 324.009C143.071 323.069 143.071 321.873 143.112 321.347C143.142 320.834 143.184 319.558 143.196 318.538C143.239 316.654 143.321 314.359 143.681 304.455C143.791 301.553 143.902 297.853 143.92 296.252C143.95 294.638 143.994 292.402 144.029 291.261C144.052 290.133 144.078 288.14 144.073 286.822C144.04 280.699 144.282 277.631 144.874 276.466C145.228 275.793 146.333 274.541 146.882 274.206C147.42 273.883 148.711 273.522 149.19 273.569C149.441 273.604 151.162 275.005 155.511 278.725C160.819 283.291 161.654 283.957 163.11 284.796C163.998 285.322 165.23 286.128 165.839 286.571C166.444 287.034 167.612 287.784 168.429 288.247C169.242 288.73 170.131 289.303 170.4 289.541C171.247 290.288 175.188 292.429 177.718 293.536C179.825 294.434 183.778 295.812 185.161 296.095C188.09 296.733 191.334 297.158 192.369 297.039C194.128 296.833 198.906 295.774 201.678 294.962C204.298 294.18 207.525 292.597 211.293 290.225C215.895 287.323 218.853 285.104 221.373 282.663C222.165 281.909 223.52 280.596 224.402 279.757C226.2 278.038 229.925 273.847 231.728 271.5C233.71 268.935 236.346 264.91 237.446 262.785C238.707 260.335 241.712 253.657 242.329 251.904C243.983 247.269 245.063 241.049 245.46 233.992C245.502 233.162 245.594 231.861 245.665 231.126C245.84 229.077 245.916 227.761 245.976 225.188C246.056 221.602 246.423 211.355 246.588 208.406C246.738 205.444 246.859 202.386 246.889 200.374C246.941 197.936 247.529 185.89 247.672 184.563C247.848 182.96 248.076 182.27 248.715 181.545C249.588 180.557 250.023 180.238 250.985 179.914C251.802 179.627 252.014 179.626 252.734 179.863C255.331 180.702 256.397 181.01 258.23 181.454C260.758 182.068 261.65 182.175 265.248 182.326C270.122 182.547 274.976 182.025 278.369 180.94C281.129 180.046 286.067 177.769 289.233 175.921C290.16 175.38 291.299 174.744 291.779 174.487C293.663 173.501 295.773 171.987 299.066 169.244C300.447 168.094 303.627 165.016 306.234 162.301C309.09 159.335 313.759 153.516 315.639 150.604C318.021 146.915 319.63 144.069 321.685 139.857C323.056 137.059 324.37 133.718 326.082 128.665C326.44 127.621 327.85 122.607 328.207 121.117C330.523 111.487 332.835 99.7206 333.513 94.0367C333.64 93.047 333.883 91.1753 334.077 89.8699C334.268 88.5847 334.475 86.9621 334.515 86.2942C334.75 83.2668 334.813 82.6199 335.096 80.4318C335.279 79.1396 335.525 76.7545 335.661 75.1163C335.796 73.4781 336.047 71.2148 336.228 70.0847C336.412 68.9344 336.609 67.5615 336.662 67.0224C336.944 64.341 337.274 58.7957 337.286 56.5796C337.3 55.2082 337.318 53.2084 337.33 52.1411C337.363 50.3647 337.331 48.4852 337.197 43.5145C337.175 42.5813 337.132 40.3635 337.11 38.5856C337.087 36.8077 336.991 34.7303 336.893 33.9639C336.806 33.1843 336.683 31.9035 336.636 31.1115C336.58 30.3125 336.471 29.3025 336.408 28.8479C336.344 28.3933 336.239 27.3631 336.188 26.544C336.128 25.7178 336.009 24.5115 335.901 23.8529C335.811 23.1881 335.697 22.009 335.669 21.2108C335.629 20.4257 335.519 19.2738 335.415 18.6423C335.298 18.024 335.191 17.1086 335.162 16.6145C335.107 15.5114 334.598 12.1787 334.369 11.3207C334.275 10.9801 334.102 10.5223 333.978 10.2957C333.85 10.0893 333.542 9.4655 333.293 8.91772C332.338 6.85616 331.303 5.47484 329.526 3.9302L327.903 2.49813L325.231 1.617C323.755 1.13524 322.491 0.700138 322.405 0.670614C322.33 0.627908 322.172 0.582829 322.074 0.566485C321.964 0.563321 321.394 0.459059 320.801 0.333839C318.167 -0.208298 314.733 -0.0504276 310.839 0.756444C310.283 0.875589 309.7 0.993945 309.567 1.01714C309.422 1.05352 308.596 1.23922 307.731 1.43732C306.867 1.63541 305.963 1.8459 305.716 1.88609C304.373 2.13124 299.534 4.12052 297.561 5.23952C294.579 6.94438 288.468 11.046 287.816 11.7841C287.7 11.9159 287.552 12.0197 287.466 12.0375C287.384 12.0351 287.244 12.146 287.127 12.2778C287.023 12.3964 286.133 13.229 285.154 14.0996C282.162 16.757 281.89 17.033 278.188 21.1972C274.54 25.3156 273.522 26.5973 271.162 30.1176C268.548 34.0226 266.519 37.7417 265.443 40.5895C265.302 40.9571 265.168 41.237 265.136 41.2091C265.096 41.1741 265.066 41.2408 265.067 41.3355C265.068 41.4301 264.695 42.5547 264.226 43.8521C263.643 45.4707 263.306 46.6503 263.167 47.6059C262.929 49.2006 262.735 56.1081 262.807 60.3675C262.919 66.9594 262.981 68.7723 263.095 69.9514C263.283 71.8287 263.301 79.1342 263.124 80.1968C262.914 81.5356 262.699 81.9551 261.706 83.0009C260.895 83.8561 260.872 83.8824 259.805 84.2301C259.218 84.416 258.534 84.5855 258.306 84.5722C257.439 84.581 254.607 84.1683 254.594 84.0395C254.597 83.972 254.531 83.9836 254.461 84.0627C254.391 84.1418 254.325 84.1534 254.32 84.0789C254.327 83.9913 254.268 83.9625 254.194 84.0145C254.139 84.0602 253.692 84.0405 253.197 83.979C252.722 83.9112 252.027 83.8372 251.654 83.8129C251.301 83.7825 250.869 83.7295 250.727 83.6984C250.578 83.6603 249.577 83.5976 248.525 83.5606C247.454 83.5297 246.528 83.4625 246.48 83.4206C246.425 83.3717 246.331 83.3825 246.273 83.4484C246.214 83.5143 246.171 83.4996 246.159 83.4181C246.154 83.3436 246.103 83.3219 246.044 83.3878C245.94 83.5064 244.833 83.4678 244.828 83.346C244.836 83.3057 244.761 83.3103 244.679 83.3552C244.457 83.4637 241.957 83.3917 242.062 83.2731C242.12 83.2072 242.065 83.2056 241.964 83.2567C241.851 83.321 240.925 83.3011 239.908 83.2246C236.721 82.9908 235.064 83.2405 230.784 84.6444C229.256 85.1477 227.712 85.6844 227.345 85.8293C226.974 85.9943 226.29 86.2584 225.826 86.4343C225.349 86.6233 224.244 87.078 223.373 87.4584C222.491 87.8519 221.733 88.168 221.675 88.1866C221.424 88.2469 218.351 89.9424 215.622 91.5194C208.441 95.6848 207.221 96.4133 206.412 97.1063C206.334 97.1784 205.829 97.576 205.284 97.9861C202.79 99.9348 199.999 102.348 197.84 104.428C196.365 105.845 191.873 111 190.213 113.169C188.104 115.926 185.396 120.335 183.525 124.052C181.934 127.196 179.425 133.678 178.412 137.285C177.474 140.583 176.411 145.857 175.981 149.392C175.728 151.419 175.425 156.918 175.33 160.983C175.17 167.851 174.721 175.846 174.347 178.025C174.044 179.82 173.899 180.161 172.934 181.255C171.992 182.322 171.629 182.542 170.206 182.974C169.107 183.293 168.092 183.311 165.038 183.102C160.01 182.768 158.194 182.783 154.637 183.16C151.06 183.544 148.787 183.742 148.7 183.665C148.652 183.623 148.586 183.635 148.527 183.701C148.481 183.753 148.183 183.819 147.854 183.857C145.947 184.072 141.953 184.768 137.252 185.707C133.056 186.553 126.594 188.914 122.252 191.202C121.265 191.714 120.411 192.156 120.352 192.174C120.293 192.193 119.861 192.444 119.385 192.727C118.902 193.004 117.299 193.911 115.813 194.733C112.557 196.524 107.807 199.483 105.607 201.082C101.302 204.222 95.7665 209.347 92.1198 213.56C91.1123 214.734 89.6871 216.477 88.956 217.449C86.6505 220.525 82.0465 227.339 80.1767 230.448C78.7849 232.759 75.7835 240.167 74.3611 244.796C73.3177 248.165 72.4684 254.33 72.1916 260.485C72.1262 261.74 71.9659 264.412 71.8182 266.415C70.8804 279.112 70.5964 284.956 70.3678 295.35C70.2091 302.663 69.5919 316.769 69.2757 320.288C69.0756 322.525 69.0481 323.275 69.1474 327.136C69.1981 329.361 69.1204 330.183 68.7159 331.631C68.4586 332.529 68.4432 332.563 67.478 333.657C66.8617 334.355 66.3337 334.874 66.0648 335.035C65.3594 335.467 63.2901 336.009 62.1688 336.051C60.9614 336.111 59.1215 336.457 57.2562 336.991C56.5562 337.194 55.3238 337.489 54.5214 337.649C53.7074 337.821 52.0174 338.252 50.7543 338.615C49.4912 338.977 48.1653 339.331 47.7897 339.421C47.4257 339.499 46.1985 339.916 45.0695 340.35C42.1236 341.454 42.2916 341.392 39.5195 342.602C38.6879 342.97 37.8875 343.319 37.739 343.376C36.9814 343.692 34.5129 345.053 33.418 345.752C30.5117 347.641 23.5562 353.131 20.7207 355.786C18.697 357.68 18.53 357.838 16.8438 359.749C14.925 361.924 13.486 363.842 11.397 366.992C8.88719 370.778 7.84431 372.694 5.6628 377.497C4.13299 380.859 3.46719 382.826 2.18879 387.723C1.45321 390.519 1.34187 391.124 1.06181 393.596C0.498957 398.655 1.20715 402.608 3.51518 407.27C4.28838 408.82 6.53433 412.418 6.97772 412.81C7.31026 413.103 9.68729 414.239 11.3891 414.944C13.6422 415.853 19.354 417.072 21.6177 417.124C22.6693 417.161 30.8514 416.059 32.6004 415.656C41.4513 413.62 40.4609 413.801 46.8088 413.214C47.3339 413.161 48.6759 413.22 49.795 413.34C50.9258 413.447 52.2646 413.574 52.7748 413.602C56.9471 413.884 61.5211 414.685 65.2978 415.767C65.9431 415.961 67.3435 416.353 68.4171 416.62C69.487 416.908 70.7458 417.268 71.2221 417.431C72.5291 417.881 77.7149 419.057 79.4788 419.324C80.3274 419.464 82.0169 419.735 83.231 419.939C86.689 420.552 92.7571 420.585 95.3715 420.032C100.134 419.007 109.36 414.231 117.307 408.656C120.582 406.364 120.959 406.017 124.239 402.348C125.824 400.582 127.282 398.915 127.487 398.65Z" fill="#328862" stroke="white" stroke-width="22" mask="url(#path-1-inside-1_104_664)"/>
</svg>
