<svg width="476" height="434" viewBox="0 0 476 434" fill="none" xmlns="http://www.w3.org/2000/svg">
<path d="M289.094 127.65V178.389H184.699V125.575C189.484 128.286 194.797 130.645 200.538 132.579C211.922 136.421 224.973 138.601 238.849 138.601C250.705 138.601 261.962 137.009 272.088 134.15C278.209 132.42 283.915 130.23 289.094 127.65Z" fill="white" stroke="#22211D" stroke-width="3.16421" stroke-miterlimit="10"/>
<path d="M218.602 138.949C218.602 138.949 225.791 140.289 236.894 140.408C248.197 140.531 256.347 139.375 256.347 139.375L238.121 154.953L218.602 138.949Z" fill="#F0AC06"/>
<path d="M252.673 144.892L267.348 155.769L242.59 160.143" fill="white"/>
<path d="M252.673 144.892L267.348 155.769L242.59 160.143" stroke="#22211D" stroke-width="3.16421" stroke-miterlimit="10"/>
<path d="M237.953 157.123L261.931 136.679" stroke="#22211D" stroke-width="3.16421" stroke-miterlimit="10"/>
<path d="M223.456 144.892L208.781 155.769L244.688 162.115" fill="white"/>
<path d="M223.456 144.892L208.781 155.769L244.688 162.115" stroke="#22211D" stroke-width="3.16421" stroke-miterlimit="10"/>
<path d="M198.017 131.693L196.902 143.074L217.34 149.487" fill="white"/>
<path d="M198.017 131.693L196.902 143.074L217.34 149.487" stroke="#22211D" stroke-width="3.16421" stroke-miterlimit="10"/>
<path d="M244.688 178.389V162.111C244.688 162.111 212.484 135.908 212.125 135.855" stroke="#22211D" stroke-width="3.16421" stroke-miterlimit="10"/>
<path d="M277.823 131.693L278.934 143.074L258.5 149.487" fill="white"/>
<path d="M277.823 131.693L278.934 143.074L258.5 149.487" stroke="#22211D" stroke-width="3.16421" stroke-miterlimit="10"/>
<path d="M235.261 172.539C236.954 172.539 238.327 171.166 238.327 169.473C238.327 167.78 236.954 166.407 235.261 166.407C233.568 166.407 232.195 167.78 232.195 169.473C232.195 171.166 233.568 172.539 235.261 172.539Z" stroke="#22211D" stroke-width="3.16421" stroke-miterlimit="10"/>
<path d="M293.444 53.7094C290.811 59.4929 285.235 63.4798 278.78 63.4798C269.794 63.4798 262.505 55.745 262.505 46.1997C262.505 44.7688 262.671 43.38 262.98 42.0511C258.132 41.028 253.072 40.2861 247.855 39.8537C240.405 39.4107 237.139 39.4107 227.882 39.7412C222.809 40.1033 217.883 40.7573 213.144 41.6749C213.682 43.3871 213.97 45.2188 213.97 47.1208C213.97 56.6662 206.682 64.4009 197.695 64.4009C190.586 64.4009 184.546 59.5667 182.328 52.8199C166.654 61.9012 156.859 74.8322 156.859 89.1801C156.859 103.507 166.623 116.417 182.25 125.502C182.497 125.642 182.743 125.783 182.989 125.924C187.774 128.634 193.086 130.993 198.827 132.927C210.211 136.77 223.262 138.95 237.139 138.95C248.994 138.95 260.252 137.357 270.377 134.499C276.498 132.769 282.204 130.578 287.383 127.998C287.752 127.815 288.118 127.632 288.48 127.446C306.164 118.312 317.418 104.562 317.418 89.1801C317.418 75.2928 308.242 62.7344 293.444 53.7094ZM184.082 80.1868C177.283 80.1868 171.773 78.239 171.773 75.8342C171.773 73.4294 177.283 71.4817 184.082 71.4817C190.878 71.4817 196.387 73.4294 196.387 75.8342C196.387 78.239 190.878 80.1868 184.082 80.1868ZM291.089 80.1868C284.289 80.1868 278.78 78.239 278.78 75.8342C278.78 73.4294 284.289 71.4817 291.089 71.4817C297.885 71.4817 303.397 73.4294 303.397 75.8342C303.397 78.239 297.885 80.1868 291.089 80.1868Z" fill="#338862" stroke="#22211D" stroke-width="3.86737" stroke-miterlimit="10"/>
<path d="M196.387 75.834C196.387 78.2388 190.878 80.1865 184.082 80.1865C177.283 80.1865 171.773 78.2388 171.773 75.834C171.773 73.4292 177.283 71.4814 184.082 71.4814C190.878 71.4814 196.387 73.4292 196.387 75.834Z" fill="white" stroke="#22211D" stroke-width="5.27368" stroke-miterlimit="10"/>
<path d="M291.09 80.1865C297.888 80.1865 303.399 78.2378 303.399 75.834C303.399 73.4301 297.888 71.4814 291.09 71.4814C284.292 71.4814 278.781 73.4301 278.781 75.834C278.781 78.2378 284.292 80.1865 291.09 80.1865Z" fill="white" stroke="#22211D" stroke-width="5.27368" stroke-miterlimit="10"/>
<path d="M295.053 46.1994C295.053 48.889 294.473 51.4379 293.443 53.7091C290.81 59.4926 285.233 63.4795 278.778 63.4795C269.792 63.4795 262.504 55.7448 262.504 46.1994C262.504 44.7685 262.669 43.3798 262.979 42.0508C264.726 34.5129 271.139 28.9229 278.778 28.9229C287.768 28.9229 295.053 36.6576 295.053 46.1994Z" fill="white" stroke="#22211D" stroke-width="3.86737" stroke-miterlimit="10"/>
<path d="M213.145 41.6744C210.997 34.801 204.89 29.8438 197.696 29.8438C188.707 29.8438 181.422 37.5785 181.422 47.1203C181.422 49.1173 181.742 51.0369 182.329 52.8194C184.547 59.5662 190.588 64.4004 197.696 64.4004C206.683 64.4004 213.971 56.6657 213.971 47.1203C213.971 45.2183 213.683 43.3865 213.145 41.6744Z" fill="white" stroke="#22211D" stroke-width="3.86737" stroke-miterlimit="10"/>
<path d="M197.701 38.7217C201.874 38.7217 205.267 42.0652 205.267 46.2033C205.267 50.3413 201.874 53.6849 197.701 53.6849C193.51 53.6849 190.117 50.3413 190.117 46.2033C190.117 42.0652 193.51 38.7217 197.701 38.7217Z" fill="#22211D" stroke="#22211D" stroke-width="3.16421" stroke-miterlimit="10"/>
<path d="M278.787 38.1309C282.96 38.1309 286.353 41.4744 286.353 45.6125C286.353 49.7505 282.96 53.094 278.787 53.094C274.596 53.094 271.203 49.7505 271.203 45.6125C271.203 41.4744 274.596 38.1309 278.787 38.1309Z" fill="#22211D" stroke="#22211D" stroke-width="3.16421" stroke-miterlimit="10"/>
<path d="M245.724 71.4775C245.724 75.3871 242.514 78.5583 238.555 78.5583C234.597 78.5583 231.387 75.3871 231.387 71.4775" stroke="#22211D" stroke-width="3.16421" stroke-miterlimit="10" stroke-linecap="round"/>
<path d="M291.09 80.1865C297.888 80.1865 303.399 78.2378 303.399 75.834C303.399 73.4301 297.888 71.4814 291.09 71.4814C284.292 71.4814 278.781 73.4301 278.781 75.834C278.781 78.2378 284.292 80.1865 291.09 80.1865Z" fill="#E15D34"/>
<path d="M196.387 75.834C196.387 78.2388 190.878 80.1865 184.082 80.1865C177.283 80.1865 171.773 78.2388 171.773 75.834C171.773 73.4292 177.283 71.4814 184.082 71.4814C190.878 71.4814 196.387 73.4292 196.387 75.834Z" fill="#E15D34"/>
<path d="M280.077 13.6083L240.585 0.845958C240.061 0.6772 239.459 0.599853 238.862 0.606884C238.264 0.599853 237.663 0.6772 237.139 0.845958L197.646 13.6083C195.783 14.2095 195.786 15.5841 197.646 16.1818L220.344 23.5157V41.0771C220.344 42.4588 221.87 43.5592 224.299 44.3854C231.31 46.7586 245.858 46.8078 253.097 44.505C255.717 43.6717 257.379 42.5291 257.379 41.0771V23.5157L280.077 16.1818C281.937 15.5841 281.937 14.2095 280.077 13.6083Z" fill="#020203"/>
<rect x="0.5" y="158.606" width="475" height="275" rx="50" fill="#F0AC02"/>
<path d="M160.352 148.255L176.514 165.482" stroke="#22211D" stroke-width="3.16421" stroke-miterlimit="10"/>
<path d="M184.079 127.635V158.556L176.51 165.486L160.348 148.258L183.341 127.213C183.587 127.354 183.833 127.494 184.079 127.635Z" fill="white" stroke="#22211D" stroke-width="3.16421" stroke-miterlimit="10"/>
<path d="M166.944 169.16L160.036 170.851C159.354 171.016 158.746 170.387 158.939 169.712L160.482 164.28C160.711 163.471 160.212 162.638 159.393 162.459L153.869 161.249C153.451 161.158 153.363 160.599 153.736 160.384L164.42 154.189" fill="#338862"/>
<path d="M166.944 169.16L160.036 170.851C159.354 171.016 158.746 170.387 158.939 169.712L160.482 164.28C160.711 163.471 160.212 162.638 159.393 162.459L153.869 161.249C153.451 161.158 153.363 160.599 153.736 160.384L164.42 154.189" stroke="#22211D" stroke-width="3.16421" stroke-miterlimit="10"/>
<path d="M159.238 170.883L166.024 169.206C166.73 169.03 167.434 169.49 167.564 170.204L168.523 175.636C168.654 176.367 169.617 176.557 170.014 175.928L176.089 165.904" fill="#338862"/>
<path d="M159.238 170.883L166.024 169.206C166.73 169.03 167.434 169.49 167.564 170.204L168.523 175.636C168.654 176.367 169.617 176.557 170.014 175.928L176.089 165.904" stroke="#22211D" stroke-width="3.16421" stroke-miterlimit="10"/>
<path d="M174.463 165.553L173.837 166.576L168.152 168.249C168.152 168.249 167.983 168.109 167.863 168.035C167.579 167.866 167.403 167.796 167.403 167.796C167.403 167.796 167.202 167.715 167.006 167.666C166.826 167.624 166.763 167.62 166.679 167.606L164.699 155.853L165.135 155.6L174.463 165.553Z" fill="#338862"/>
<path d="M312.578 148.33L297.372 164.541L289.5 157.338V128.765C289.869 128.582 290.235 128.399 290.597 128.213L312.578 148.33Z" fill="white" stroke="#22211D" stroke-width="3.16421" stroke-miterlimit="10"/>
<path d="M313.615 147.223L297.453 164.45" stroke="#22211D" stroke-width="3.16421" stroke-miterlimit="10"/>
<path d="M307.121 167.948L314.03 169.639C314.712 169.804 315.32 169.175 315.127 168.5L313.583 163.068C313.355 162.259 313.854 161.426 314.673 161.247L320.196 160.037C320.615 159.946 320.703 159.387 320.33 159.172L309.645 152.978" fill="#338862"/>
<path d="M307.121 167.948L314.03 169.639C314.712 169.804 315.32 169.175 315.127 168.5L313.583 163.068C313.355 162.259 313.854 161.426 314.673 161.247L320.196 160.037C320.615 159.946 320.703 159.387 320.33 159.172L309.645 152.978" stroke="#22211D" stroke-width="3.16421" stroke-miterlimit="10"/>
<path d="M314.828 169.674L308.042 167.997C307.336 167.821 306.632 168.281 306.502 168.995L305.543 174.427C305.412 175.158 304.449 175.348 304.052 174.719L297.977 164.695" fill="#338862"/>
<path d="M314.828 169.674L308.042 167.997C307.336 167.821 306.632 168.281 306.502 168.995L305.543 174.427C305.412 175.158 304.449 175.348 304.052 174.719L297.977 164.695" stroke="#22211D" stroke-width="3.16421" stroke-miterlimit="10"/>
<path d="M299.605 164.344L300.231 165.367L305.916 167.04C305.916 167.04 306.085 166.9 306.205 166.826C306.489 166.657 306.665 166.587 306.665 166.587C306.665 166.587 306.866 166.506 307.062 166.457C307.242 166.415 307.305 166.411 307.389 166.397L309.369 154.644L308.933 154.391L299.605 164.344Z" fill="#338862"/>
</svg>
