<svg width="30" height="31" viewBox="0 0 30 31" fill="none" xmlns="http://www.w3.org/2000/svg">
<path fill-rule="evenodd" clip-rule="evenodd" d="M15 30.5C23.2843 30.5 30 23.7843 30 15.5C30 7.21574 23.2843 0.5 15 0.5C6.71574 0.5 0 7.21574 0 15.5C0 23.7843 6.71574 30.5 15 30.5ZM7.5 12.3175C7.5 9.93674 9.43698 8 11.8175 8H18.1825C20.5633 8 22.5 9.93698 22.5 12.3175V18.7408C22.5 21.1214 20.5633 23.0584 18.1825 23.0584H11.8175C9.43674 23.0584 7.5 21.1214 7.5 18.7408V12.3175ZM11.0965 15.5016C11.0965 13.3654 12.8531 11.6277 15.0119 11.6277C17.1707 11.6277 18.9273 13.3654 18.9273 15.5016C18.9273 17.6376 17.1707 19.3753 15.0119 19.3753C12.8529 19.3753 11.0965 17.6376 11.0965 15.5016ZM12.5227 15.5016C12.5227 16.851 13.6392 17.9491 15.0119 17.9491C16.3846 17.9491 17.5012 16.8512 17.5012 15.5016C17.5012 14.152 16.3843 13.0541 15.0119 13.0541C13.6392 13.0541 12.5227 14.152 12.5227 15.5016ZM18.9974 12.3907C19.5062 12.3907 19.9187 11.9782 19.9187 11.4694C19.9187 10.9606 19.5062 10.5481 18.9974 10.5481C18.4886 10.5481 18.0762 10.9606 18.0762 11.4694C18.0762 11.9782 18.4886 12.3907 18.9974 12.3907Z" fill="#22211D"/>
</svg>
