<svg width="30" height="31" viewBox="0 0 30 31" fill="none" xmlns="http://www.w3.org/2000/svg">
<path fill-rule="evenodd" clip-rule="evenodd" d="M15 30.5C23.2843 30.5 30 23.7843 30 15.5C30 7.21574 23.2843 0.5 15 0.5C6.71574 0.5 0 7.21574 0 15.5C0 23.7843 6.71574 30.5 15 30.5ZM15.0027 9.2H15.4854C16.9475 9.20183 18.349 9.78383 19.3822 10.8181C20.4154 11.8525 20.9957 13.2545 20.9957 14.7164V15.199C20.9801 15.371 20.9007 15.5308 20.773 15.647C20.6453 15.7632 20.4787 15.8272 20.306 15.8265H20.2509C20.069 15.8107 19.9008 15.7235 19.7831 15.5839C19.6655 15.4443 19.608 15.2637 19.6233 15.0818V14.7164C19.6233 13.6191 19.1873 12.5668 18.4113 11.7909C17.6353 11.015 16.5828 10.5791 15.4854 10.5791H15.1199C14.937 10.5946 14.7554 10.5369 14.6151 10.4186C14.4748 10.3003 14.3872 10.1311 14.3716 9.94817C14.3561 9.76529 14.4138 9.5837 14.5322 9.44342C14.6505 9.30311 14.8198 9.21554 15.0027 9.2ZM17.0667 15.204C16.9374 15.0746 16.8647 14.8993 16.8647 14.7164C16.8647 14.3506 16.7194 13.9998 16.4607 13.7412C16.202 13.4826 15.8512 13.3373 15.4854 13.3373C15.3025 13.3373 15.1271 13.2646 14.9978 13.1353C14.8684 13.006 14.7958 12.8306 14.7958 12.6477C14.7958 12.4648 14.8684 12.2895 14.9978 12.1602C15.1271 12.0308 15.3025 11.9582 15.4854 11.9582C16.217 11.9582 16.9187 12.2488 17.436 12.766C17.9534 13.2833 18.244 13.9849 18.244 14.7164C18.244 14.8993 18.1713 15.0746 18.042 15.204C17.9127 15.3333 17.7373 15.4059 17.5543 15.4059C17.3714 15.4059 17.196 15.3333 17.0667 15.204ZM19.9203 21.2199L19.9203 21.2254C19.92 21.3718 19.889 21.5164 19.8294 21.6501C19.7699 21.7835 19.6833 21.903 19.575 22.001C19.4602 22.1055 19.3237 22.1831 19.1753 22.2284C19.0355 22.2711 18.8884 22.284 18.7435 22.2664C17.4743 22.259 16.0231 21.6603 14.7541 20.9528C13.4661 20.2348 12.3133 19.3745 11.6406 18.7971L11.6304 18.7884L11.621 18.779C9.69909 16.8559 8.46525 14.3521 8.11086 11.6558C8.08869 11.503 8.10054 11.3471 8.14557 11.1994C8.19081 11.0509 8.26845 10.9143 8.37282 10.7994C8.47191 10.6897 8.59308 10.6023 8.72832 10.5427C8.86341 10.4833 9.00948 10.453 9.15702 10.4539H11.249C11.4897 10.4491 11.7248 10.5273 11.9147 10.6755C12.1058 10.8247 12.2394 11.0355 12.2926 11.2721L12.3011 11.3101V11.3489C12.3011 11.447 12.3236 11.5385 12.3554 11.668C12.3683 11.7204 12.3827 11.779 12.3977 11.8466L12.3978 11.8471C12.4749 12.1969 12.5775 12.5405 12.7047 12.8753L12.8197 13.1777L11.547 13.778L11.5454 13.7788C11.4612 13.8174 11.3958 13.8879 11.3635 13.9747L11.3615 13.9802L11.3593 13.9856C11.3243 14.0708 11.3243 14.1664 11.3593 14.2516L11.3743 14.2882L11.3808 14.3274C11.4241 14.5894 11.5681 14.9294 11.8219 15.3251C12.0729 15.7165 12.4189 16.1431 12.8424 16.5762C13.6862 17.439 14.8194 18.3088 16.0739 18.9616C16.156 18.9918 16.2466 18.9903 16.3277 18.9569L16.3331 18.9547L16.3386 18.9527C16.425 18.9205 16.4953 18.8554 16.534 18.7717L16.5344 18.7707L17.107 17.4977L17.4119 17.609C17.758 17.7353 18.1121 17.8384 18.4719 17.9178L18.4736 17.9182L18.4752 17.9185C18.6456 17.9579 18.8318 17.9913 19.0141 18.0183L19.0269 18.0202L19.0396 18.023C19.2761 18.0763 19.4868 18.21 19.6359 18.4012C19.7829 18.5897 19.861 18.8227 19.8575 19.0616L19.9203 21.2199Z" fill="#22211D"/>
</svg>
