<svg width="30" height="31" viewBox="0 0 30 31" fill="none" xmlns="http://www.w3.org/2000/svg">
<path fill-rule="evenodd" clip-rule="evenodd" d="M15 30.5C23.2842 30.5 30 23.7842 30 15.5C30 7.2158 23.2842 0.5 15 0.5C6.7158 0.5 0 7.2158 0 15.5C0 23.7842 6.7158 30.5 15 30.5ZM7.5 10.7C7.6218 16.5464 10.545 20.06 15.6699 20.06H15.9603V16.715C17.8437 16.9025 19.2675 18.2798 19.8393 20.06H22.5C21.7692 17.399 19.8486 15.9281 18.6492 15.3659C19.8486 14.6726 21.5349 12.986 21.9378 10.7H19.5204C18.9957 12.5552 17.4408 14.2415 15.9603 14.4008V10.7H13.5432V17.1833C12.0441 16.8086 10.1514 14.9912 10.0668 10.7H7.5Z" fill="#3840A9"/>
</svg>
