<svg width="170" height="193" viewBox="0 0 170 193" fill="none" xmlns="http://www.w3.org/2000/svg">
<path d="M51.7507 169.91L52.1316 147.725L35.1609 139.512L25.3516 158.822L51.2096 170.48C51.3879 170.289 51.5693 170.101 51.7507 169.91Z" fill="white" stroke="#22211D" stroke-width="2.77052" stroke-miterlimit="10"/>
<path d="M32.5385 139.471L33.264 140.185L27.862 150.993L27.4358 150.882L26.4141 140.314L27.587 139.228L32.5385 139.471Z" fill="#338862"/>
<path d="M26.2906 138.99L22.9351 139.083C21.1032 139.132 20.0059 141.176 20.9521 142.777L22.0373 144.605C22.4091 145.233 22.1854 146.052 21.5476 146.394L17.24 148.69C16.9135 148.863 16.9679 149.355 17.3246 149.45L27.5904 152.221" fill="#338862"/>
<path d="M26.2906 138.99L22.9351 139.083C21.1032 139.132 20.0059 141.176 20.9521 142.777L22.0373 144.605C22.4091 145.233 22.1854 146.052 21.5476 146.394L17.24 148.69C16.9135 148.863 16.9679 149.355 17.3246 149.45L27.5904 152.221" stroke="#22211D" stroke-width="2.77052" stroke-miterlimit="10"/>
<path d="M34.6172 139.631L27.3078 132.563C26.8362 132.123 26.0804 132.505 26.1349 133.154L26.5671 137.963C26.6215 138.597 26.1409 139.145 25.5152 139.16L22.9336 139.08" fill="#338862"/>
<path d="M34.6172 139.631L27.3078 132.563C26.8362 132.123 26.0804 132.505 26.1349 133.154L26.5671 137.963C26.6215 138.597 26.1409 139.145 25.5152 139.16L22.9336 139.08" stroke="#22211D" stroke-width="2.77052" stroke-miterlimit="10"/>
<path d="M22.1992 145.478L28.2783 144.561" stroke="#22211D" stroke-width="2.77052" stroke-miterlimit="10" stroke-linecap="round"/>
<path d="M26.5117 138.03L28.138 144.067" stroke="#22211D" stroke-width="2.77052" stroke-miterlimit="10" stroke-linecap="round"/>
<path d="M23 147.072L28.7224 190.545L32.1655 190.028L25.7357 145.758L23 147.072Z" fill="#22211D" stroke="#22211D" stroke-width="2.77052" stroke-miterlimit="10" stroke-linecap="round"/>
<path d="M21.1676 138.234L1.76953 0.290039L24.8132 137.686L21.1676 138.234Z" fill="#22211D" stroke="#22211D" stroke-width="2.77052" stroke-miterlimit="10" stroke-linecap="round"/>
<path d="M141.328 146.139V173.213L147.836 179.28L161.733 164.197L141.963 145.77C141.751 145.893 141.54 146.016 141.328 146.139Z" fill="white" stroke="#22211D" stroke-width="2.77052" stroke-miterlimit="10"/>
<path d="M61.6126 99.2299C61.6126 101.336 56.8757 103.041 51.0324 103.041C45.1861 103.041 40.4492 101.336 40.4492 99.2299C40.4492 97.1244 45.1861 95.4189 51.0324 95.4189C56.8757 95.4189 61.6126 97.1244 61.6126 99.2299Z" fill="white" stroke="#22211D" stroke-width="4.61753" stroke-miterlimit="10"/>
<path d="M143.044 103.041C148.889 103.041 153.627 101.335 153.627 99.2299C153.627 97.1252 148.889 95.4189 143.044 95.4189C137.199 95.4189 132.461 97.1252 132.461 99.2299C132.461 101.335 137.199 103.041 143.044 103.041Z" fill="white" stroke="#22211D" stroke-width="4.61753" stroke-miterlimit="10"/>
<path d="M146.455 73.2833C146.455 75.6382 145.956 77.87 145.07 79.8586C142.806 84.9225 138.012 88.4134 132.462 88.4134C124.735 88.4134 118.469 81.641 118.469 73.2833C118.469 72.0304 118.611 70.8144 118.877 69.6508C120.379 63.0508 125.893 58.1562 132.462 58.1562C140.191 58.1562 146.455 64.9286 146.455 73.2833Z" fill="white" stroke="#22211D" stroke-width="3.38619" stroke-miterlimit="10"/>
<path d="M141.537 145.819V190.246H51.7773V144.003C55.8915 146.376 60.4592 148.442 65.3956 150.135C75.1838 153.5 86.4048 155.408 98.3363 155.408C108.53 155.408 118.209 154.014 126.915 151.511C132.178 149.996 137.084 148.079 141.537 145.819Z" fill="white" stroke="#22211D" stroke-width="2.77052" stroke-miterlimit="10"/>
<path d="M131.851 151.214L132.807 159.99L115.234 164.934" fill="white"/>
<path d="M131.851 151.214L132.807 159.99L115.234 164.934" stroke="#22211D" stroke-width="2.77052" stroke-miterlimit="10"/>
<path d="M145.07 79.8582C142.806 84.9221 138.012 88.413 132.461 88.413C124.735 88.413 118.468 81.6406 118.468 73.2829C118.468 72.03 118.61 70.814 118.876 69.6504C114.708 68.7546 110.358 68.1051 105.872 67.7264C99.4663 67.3386 96.6581 67.3386 88.6987 67.6279C84.3367 67.945 80.1015 68.5176 76.0267 69.321C76.4892 70.8202 76.737 72.424 76.737 74.0894C76.737 82.4471 70.4705 89.2195 62.744 89.2195C56.6316 89.2195 51.4383 84.9868 49.5308 79.0794C36.0547 87.0308 27.6328 98.353 27.6328 110.916C27.6328 123.46 36.0275 134.764 49.4643 142.718C49.6759 142.841 49.8875 142.964 50.0991 143.088C54.2133 145.461 58.7809 147.527 63.7174 149.22C73.5056 152.584 84.7266 154.493 96.6581 154.493C106.851 154.493 116.531 153.098 125.237 150.596C130.5 149.081 135.406 147.163 139.859 144.904C140.176 144.744 140.49 144.584 140.802 144.42C156.007 136.423 165.683 124.383 165.683 110.916C165.683 98.7562 157.793 87.7604 145.07 79.8582ZM51.0392 103.041C45.1929 103.041 40.456 101.336 40.456 99.2303C40.456 97.1247 45.1929 95.4193 51.0392 95.4193C56.8825 95.4193 61.6194 97.1247 61.6194 99.2303C61.6194 101.336 56.8825 103.041 51.0392 103.041ZM143.045 103.041C137.198 103.041 132.461 101.336 132.461 99.2303C132.461 97.1247 137.198 95.4193 143.045 95.4193C148.888 95.4193 153.628 97.1247 153.628 99.2303C153.628 101.336 148.888 103.041 143.045 103.041Z" fill="#338862" stroke="#22211D" stroke-width="3.38619" stroke-miterlimit="10"/>
<path d="M76.0219 69.3215C74.1749 63.3034 68.9241 58.9629 62.7392 58.9629C55.0096 58.9629 48.7461 65.7353 48.7461 74.0899C48.7461 75.8384 49.0212 77.5192 49.526 79.0799C51.4335 84.9873 56.6268 89.22 62.7392 89.22C70.4657 89.22 76.7322 82.4476 76.7322 74.0899C76.7322 72.4245 76.4844 70.8207 76.0219 69.3215Z" fill="white" stroke="#22211D" stroke-width="3.38619" stroke-miterlimit="10"/>
<path d="M62.7548 67.4219C66.343 67.4219 69.2601 70.3494 69.2601 73.9726C69.2601 77.5958 66.343 80.5233 62.7548 80.5233C59.1515 80.5233 56.2344 77.5958 56.2344 73.9726C56.2314 70.3494 59.1515 67.4219 62.7548 67.4219Z" fill="#22211D" stroke="#22211D" stroke-width="2.77052" stroke-miterlimit="10"/>
<path d="M132.47 66.7354C136.058 66.7354 138.975 69.6629 138.975 73.2861C138.975 76.9093 136.058 79.8368 132.47 79.8368C128.866 79.8368 125.949 76.9093 125.949 73.2861C125.949 69.6629 128.866 66.7354 132.47 66.7354Z" fill="#22211D" stroke="#22211D" stroke-width="2.77052" stroke-miterlimit="10"/>
<path d="M104.042 95.416C104.042 98.8391 101.282 101.616 97.8786 101.616C94.4748 101.616 91.7148 98.8391 91.7148 95.416" stroke="#22211D" stroke-width="2.77052" stroke-miterlimit="10" stroke-linecap="round"/>
<path d="M143.044 103.041C148.889 103.041 153.627 101.335 153.627 99.2299C153.627 97.1252 148.889 95.4189 143.044 95.4189C137.199 95.4189 132.461 97.1252 132.461 99.2299C132.461 101.335 137.199 103.041 143.044 103.041Z" fill="#E15D34"/>
<path d="M61.6126 99.2299C61.6126 101.336 56.8757 103.041 51.0324 103.041C45.1861 103.041 40.4492 101.336 40.4492 99.2299C40.4492 97.1244 45.1861 95.4189 51.0324 95.4189C56.8757 95.4189 61.6126 97.1244 61.6126 99.2299Z" fill="#E15D34"/>
<path d="M133.576 44.7464L99.6193 33.572C99.1689 33.4243 98.652 33.3565 98.1381 33.3627C97.6242 33.3565 97.1073 33.4243 96.6569 33.572L62.7005 44.7464C61.0983 45.2728 61.1014 46.4765 62.7005 46.9998L82.2164 53.4212V68.7976C82.2164 70.0074 83.5284 70.9709 85.6172 71.6943C91.6449 73.7722 104.154 73.8153 110.378 71.799C112.63 71.0694 114.06 70.069 114.06 68.7976V53.4212L133.576 46.9998C135.175 46.4765 135.178 45.2728 133.576 44.7464Z" fill="#020203"/>
<path d="M156.246 182.302L162.186 183.783C162.773 183.927 163.296 183.376 163.129 182.785L161.802 178.029C161.606 177.321 162.035 176.592 162.739 176.435L167.488 175.376C167.848 175.296 167.924 174.806 167.603 174.618L158.417 169.194" fill="#338862"/>
<path d="M156.246 182.302L162.186 183.783C162.773 183.927 163.296 183.376 163.129 182.785L161.802 178.029C161.606 177.321 162.035 176.592 162.739 176.435L167.488 175.376C167.848 175.296 167.924 174.806 167.603 174.618L158.417 169.194" stroke="#22211D" stroke-width="2.77052" stroke-miterlimit="10"/>
<path d="M162.876 183.812L157.041 182.344C156.434 182.19 155.829 182.593 155.717 183.218L154.892 187.974C154.78 188.614 153.952 188.781 153.61 188.23L148.387 179.453" fill="#338862"/>
<path d="M162.876 183.812L157.041 182.344C156.434 182.19 155.829 182.593 155.717 183.218L154.892 187.974C154.78 188.614 153.952 188.781 153.61 188.23L148.387 179.453" stroke="#22211D" stroke-width="2.77052" stroke-miterlimit="10"/>
<path d="M149.785 179.146L150.323 180.042L155.211 181.508C155.211 181.508 155.356 181.384 155.459 181.32C155.704 181.172 155.855 181.11 155.855 181.11C155.855 181.11 156.027 181.04 156.197 180.997C156.351 180.96 156.405 180.957 156.478 180.944L158.18 170.653L157.805 170.432L149.785 179.146Z" fill="#338862"/>
<path d="M80.4688 155.325C80.4688 155.325 87.1131 156.624 96.6595 156.729C106.378 156.837 113.827 155.707 113.827 155.707L97.7145 169.726L80.4688 155.325Z" fill="#F0AC06"/>
<path d="M110.228 160.916L122.846 170.44L101.559 174.27" fill="white"/>
<path d="M110.228 160.916L122.846 170.44L101.559 174.27" stroke="#22211D" stroke-width="2.77052" stroke-miterlimit="10"/>
<path d="M97.5703 171.624L118.19 153.724" stroke="#22211D" stroke-width="2.77052" stroke-miterlimit="10"/>
<path d="M85.105 160.916L72.4844 170.44L103.357 175.994" fill="white"/>
<path d="M85.105 160.916L72.4844 170.44L103.357 175.994" stroke="#22211D" stroke-width="2.77052" stroke-miterlimit="10"/>
<path d="M63.9394 150.568L63.0234 159.757L79.8399 164.935" fill="white"/>
<path d="M63.9394 150.568L63.0234 159.757L79.8399 164.935" stroke="#22211D" stroke-width="2.77052" stroke-miterlimit="10"/>
<path d="M103.358 190.245V175.992C103.358 175.992 75.6677 153.049 75.3594 153.003" stroke="#22211D" stroke-width="2.77052" stroke-miterlimit="10"/>
<path d="M95.2532 185.12C96.709 185.12 97.8892 183.918 97.8892 182.435C97.8892 180.953 96.709 179.751 95.2532 179.751C93.7974 179.751 92.6172 180.953 92.6172 182.435C92.6172 183.918 93.7974 185.12 95.2532 185.12Z" stroke="#22211D" stroke-width="2.77052" stroke-miterlimit="10"/>
</svg>
