<svg width="364" height="390" viewBox="0 0 364 390" fill="none" xmlns="http://www.w3.org/2000/svg">
<path d="M237.603 1.01053C237.38 1.13933 236.888 1.51507 236.509 1.84852C236.144 2.18559 235.689 2.58576 235.503 2.73895C235.317 2.89215 233.235 4.71262 230.853 6.78632C226.841 10.2939 219.437 16.7791 218.8 17.3189C218.652 17.4387 217.455 18.4959 216.142 19.6666C212.902 22.5108 211.871 23.3805 211.474 23.5642C211.41 23.5903 210.624 24.2499 209.728 25.0538C208.821 25.8406 207.611 26.8941 207.033 27.3772C206.468 27.8638 205.282 28.8803 204.397 29.6437C203.524 30.4106 202.567 31.2271 202.257 31.4632C201.961 31.7029 201.451 32.1463 201.119 32.4636C200.792 32.7673 200.016 33.4441 199.4 33.9605C198.783 34.4768 197.281 35.7565 196.071 36.81C194.858 37.8771 193.689 38.8838 193.486 39.0469C192.494 39.8832 187.207 44.4703 186.489 45.1481C185.838 45.742 183.846 47.6591 183.587 47.9232C183.362 48.1675 180.943 50.4343 178.994 52.2468C178.363 52.8173 177.851 53.3184 177.841 53.359C177.833 53.386 177.343 53.8638 176.736 54.3973C175.491 55.5284 174.798 56.1692 174.338 56.6406C173.806 57.1652 172.401 58.5145 171.736 59.1048C171.408 59.4085 171.056 59.7492 170.973 59.8429C170.904 59.9403 170.551 60.281 170.207 60.5947C169.875 60.9119 169.064 61.6663 168.419 62.2909C167.79 62.9056 167.214 63.4329 167.163 63.4626C167.111 63.4923 166.636 63.9159 166.125 64.417C164.398 66.1007 159.899 70.2899 157.206 72.7152C156.747 73.1288 156.354 73.5164 156.335 73.5841C156.317 73.6517 156.152 73.7815 155.967 73.8769C155.782 73.9724 155.613 74.1157 155.595 74.1833C155.573 74.2645 155.359 74.4682 155.122 74.6511C154.898 74.8376 154.543 75.1342 154.36 75.3316C154.18 75.5154 153.746 75.8921 153.399 76.1616C153.051 76.431 152.541 76.8744 152.247 77.1583C151.954 77.4422 151.651 77.709 151.561 77.7721C151.145 78.0811 149.711 79.3789 149.682 79.4871C149.663 79.5548 149.498 79.6846 149.313 79.78C149.128 79.8755 148.963 80.0053 148.945 80.0729C148.916 80.1812 148.302 80.7417 147.21 81.6817C145.863 82.8145 145.67 82.937 145.117 82.9481C144.807 82.9668 144.535 83.0098 144.521 83.0639C144.506 83.118 144.088 83.1654 143.592 83.1776C143.086 83.1725 142.389 83.2323 142.041 83.2842C141.694 83.3362 141.337 83.371 141.256 83.3493C141.175 83.3276 140.587 83.3585 139.961 83.4229C138.709 83.5515 137.458 83.6224 135.878 83.6777C135.325 83.6888 134.791 83.7343 134.695 83.7667C134.613 83.8027 134.035 83.8508 133.441 83.8511C132.843 83.8649 132.211 83.8986 132.044 83.9264C131.707 83.9955 130.17 84.1058 128.423 84.1888C127.822 84.2162 126.095 84.3335 124.589 84.4375C123.083 84.5416 120.339 84.7201 118.466 84.8418C116.607 84.9671 114.937 85.0854 114.771 85.1132C114.607 85.1275 113.441 85.2066 112.191 85.2775C110.94 85.3484 109.774 85.4275 109.607 85.4553C109.44 85.4831 108.314 85.5731 107.091 85.6513C105.884 85.7195 104.215 85.8378 103.402 85.8956C102.586 85.9669 101.468 86.0299 100.901 86.0374C100.343 86.0621 99.8095 86.1076 99.7139 86.14C99.6318 86.176 99.0537 86.2241 98.4559 86.2379C97.858 86.2518 97.2934 86.3035 97.1978 86.3359C97.1121 86.3854 96.6395 86.4183 96.1607 86.4205C95.6783 86.4363 95.0903 86.4673 94.8314 86.5139C94.2903 86.5864 92.529 86.7236 91.2106 86.7764C90.684 86.7948 90.0617 86.8456 89.8029 86.8922C89.5611 86.929 88.956 86.9699 88.4772 86.9721C87.9948 86.9878 87.5357 87.0244 87.4401 87.0567C87.3544 87.1063 86.7799 87.1409 86.1821 87.1547C85.5806 87.1821 85.0196 87.2203 84.924 87.2527C84.8419 87.2887 84.3351 87.3414 83.8084 87.3598C83.2782 87.3917 82.187 87.4619 81.3708 87.5333C80.5546 87.6046 79.4905 87.682 79.0044 87.7113C78.5183 87.7406 77.9231 87.7986 77.6679 87.8317C77.4226 87.882 76.8174 87.9229 76.3386 87.9251C75.8562 87.9409 75.3971 87.9774 75.3015 88.0098C75.2158 88.0593 74.6413 88.0939 74.0435 88.1077C73.442 88.1351 72.881 88.1733 72.7854 88.2057C72.6997 88.2552 72.1965 88.2944 71.6662 88.3263C71.1396 88.3448 70.0448 88.4284 69.2286 88.4998C68.4124 88.5712 67.2906 88.6476 66.7161 88.6822C66.1588 88.7069 65.523 88.7541 65.312 88.7845C65.1009 88.815 63.4524 88.9098 61.6344 88.9883C59.8164 89.0667 58.0931 89.1705 57.8108 89.1964C57.5249 89.2358 56.8964 89.2559 56.4176 89.2581C55.9387 89.2604 55.4392 89.286 55.303 89.3075C55.1767 89.3462 54.5445 89.3799 53.9061 89.3828C53.2812 89.3894 52.6896 89.4339 52.5939 89.4663C52.5118 89.5023 51.8833 89.5224 51.2007 89.528C50.5217 89.5201 49.9031 89.5574 49.8074 89.5897C49.7253 89.6257 49.2221 89.6649 48.7027 89.6563C48.1797 89.6611 47.5917 89.6921 47.3771 89.7361C47.166 89.7666 46.5474 89.8039 45.9838 89.7979C45.4337 89.7955 44.8936 89.8103 44.8079 89.8598C44.7122 89.8922 44.1784 89.9376 43.6283 89.9353C42.0998 89.9608 39.7344 90.0811 39.1897 90.1671C38.9308 90.2138 38.6657 90.2298 38.5981 90.2117C38.4629 90.1754 34.9152 90.327 34.1568 90.3993C33.8709 90.4387 32.6544 90.4898 31.4379 90.5409C30.2349 90.5956 29.0012 90.6566 28.719 90.6825C28.4331 90.7219 27.9605 90.7548 27.6683 90.7635C26.9821 90.7827 26.3025 91.2096 26.0239 91.8166C25.7599 92.3694 25.8057 92.4687 27.7386 95.4229C28.2713 96.2472 28.8733 97.1916 29.1018 97.5284C29.3169 97.8616 29.6111 98.332 29.7767 98.5794C29.9288 98.8231 30.4615 99.6474 30.9645 100.42C31.4675 101.193 32.1855 102.299 32.5526 102.876C33.4623 104.295 34.3226 105.627 35.2161 106.998C35.64 107.633 36.1097 108.368 36.2914 108.664C36.4632 108.942 37.0121 109.814 37.5151 110.587C38.0316 111.363 38.7164 112.431 39.0502 112.97C39.3876 113.496 40.0724 114.564 40.579 115.323C41.0856 116.082 41.5824 116.825 41.6714 116.979C42.2266 117.882 42.9608 119.036 43.8184 120.324C44.3547 121.135 44.8514 121.877 44.9108 121.98C44.9702 122.083 45.4696 122.869 46.032 123.745C46.9578 125.211 47.352 125.796 48.9923 128.381C49.3297 128.907 50.0676 130.047 50.6164 130.919C51.1689 131.778 51.7376 132.684 51.8896 132.928C52.3854 133.728 54.185 136.531 54.6484 137.235C54.8968 137.606 55.1847 138.046 55.2774 138.186C55.3701 138.327 55.6122 138.668 55.8147 138.94C57.5896 141.402 58.365 142.726 58.7323 143.898C58.8256 144.198 58.9892 144.561 59.0819 144.702C59.1782 144.829 59.233 145.004 59.2149 145.071C59.1967 145.139 59.2766 145.436 59.3907 145.713C59.5012 146.004 59.6629 146.482 59.7427 146.779C59.8226 147.076 60.0262 147.884 60.2047 148.57C60.6702 150.348 60.637 150.905 60.0558 151.938C59.7901 152.389 59.5217 152.796 59.4459 152.863C59.3736 152.916 59.0674 153.356 58.7502 153.836C58.4502 154.307 58.0707 154.858 57.9144 155.063C57.7617 155.254 57.4898 155.674 57.3045 155.987C57.1327 156.303 56.8788 156.656 56.7443 156.779C56.6098 156.903 56.3496 157.225 56.1752 157.497C56.0008 157.769 55.6395 158.253 55.3757 158.588C54.7967 159.288 53.2501 161.383 53.2175 161.505C53.2066 161.545 53.0503 161.75 52.8805 161.951C52.7071 162.165 52.3006 162.709 51.9699 163.186C51.6293 163.646 51.1107 164.392 50.7909 164.828C50.4846 165.268 50.144 165.728 50.023 165.855C49.9155 165.986 49.5542 166.469 49.2235 166.946C48.8829 167.406 48.3508 168.148 48.0309 168.584C47.7111 169.02 47.1582 169.786 46.7932 170.283C46.4418 170.783 45.8229 171.632 45.4336 172.166C45.0442 172.7 44.4497 173.512 44.119 173.989C43.8055 174.456 43.4722 174.889 43.3828 174.952C43.3106 175.005 43.1055 175.284 42.9311 175.556C42.7567 175.828 42.4369 176.265 42.2219 176.526C42.007 176.788 41.6248 177.294 41.3746 177.633C40.4432 178.892 39.9499 179.543 39.6654 179.902C39.062 180.639 37.5652 182.602 37.5471 182.67C37.5398 182.697 37.2968 183.009 37.0294 183.357C36.7485 183.703 36.127 184.508 35.6681 185.139C35.1956 185.766 34.5949 186.548 34.3176 186.88C34.0575 187.202 33.6925 187.698 33.5181 187.971C33.3437 188.243 33.1386 188.522 33.0664 188.575C32.977 188.638 32.6961 188.983 32.4251 189.346C32.1676 189.712 31.7512 190.238 31.5326 190.513C31.2968 190.798 31.0954 191.063 31.0809 191.117C31.0519 191.225 29.6661 193.044 29.0565 193.751C28.8379 194.026 28.6365 194.291 28.622 194.345C28.6075 194.399 28.312 194.798 27.9553 195.21C27.6157 195.612 27.3031 196.022 27.285 196.089C27.2633 196.171 27.0582 196.449 26.8224 196.734C26.2227 197.458 25.1043 198.928 24.565 199.697C24.321 200.066 24.0401 200.412 23.9507 200.475C23.8614 200.538 23.7087 200.729 23.6039 200.904C23.3978 201.24 22.201 202.732 20.7522 204.461C20.2428 205.064 19.8129 205.587 19.8056 205.614C19.7948 205.655 19.1742 206.402 18.4156 207.287C17.6569 208.171 17.0364 208.918 17.0291 208.945C17.0183 208.986 16.6127 209.472 16.1412 210.042C15.1017 211.271 13.9961 212.585 13.1851 213.557C12.8626 213.949 12.2457 214.683 11.823 215.178C11.3967 215.688 11.0499 216.117 11.039 216.157C11.0317 216.185 10.5151 216.815 9.88466 217.545C9.26415 218.292 8.38712 219.348 7.93279 219.908C6.41614 221.836 5.80552 222.601 5.31326 223.194C5.0396 223.512 4.40097 224.327 3.89058 224.988C3.36667 225.645 2.89157 226.228 2.81573 226.295C2.74352 226.348 2.45173 226.734 2.15632 227.134C1.8609 227.533 1.55922 227.902 1.48338 227.968C1.28027 228.131 0.0284544 230.261 -0.758146 231.791C-1.1442 232.528 -1.86025 233.903 -2.35839 234.842C-2.85654 235.782 -3.53369 237.065 -3.86369 237.702L-4.46041 238.847L-4.31257 239.54C-4.03208 240.818 -4.3556 240.674 3.57729 243.031C7.44233 244.183 11.7021 245.484 13.0595 245.935C14.4169 246.385 19.2175 247.831 23.7144 249.167C28.2285 250.492 33.1778 251.978 34.7146 252.462C39.9226 254.119 48.4764 256.701 53.2104 258.071C55.8091 258.811 58.5493 259.617 59.3263 259.854C60.1068 260.078 61.1272 260.381 61.6238 260.528L62.4991 260.777L62.6443 261.425C62.733 261.797 62.9115 262.483 63.0597 262.958C63.2078 263.432 63.3837 264.074 63.45 264.367C63.5298 264.664 63.7021 265.319 63.8294 265.818C63.9703 266.319 64.1264 266.927 64.1838 267.145C64.6672 269.073 64.8556 269.776 64.9572 269.992C65.0228 270.125 65.2954 271.272 65.5623 272.547C65.8329 273.808 66.0857 274.92 66.118 275.016C66.154 275.098 66.2256 275.48 66.2702 275.854C66.3283 276.233 66.4108 276.574 66.454 276.629C66.4972 276.684 66.6021 277.103 66.6826 277.56C66.8678 278.654 68.9117 288.062 69.6664 291.411C70.4534 294.856 71.8723 301.081 72.3732 303.376C73.247 307.308 73.8027 309.777 74.3944 312.328C74.9098 314.569 75.5704 317.458 75.7747 318.426C75.8875 318.979 76.1617 320.227 76.3931 321.202C76.6108 322.174 76.8349 323.177 76.895 323.44C76.9451 323.685 77.2553 325.015 77.5853 326.38C77.9017 327.741 78.1832 328.962 78.2083 329.085C78.2333 329.207 78.4449 330.149 78.6923 331.172C78.9398 332.196 79.2186 333.372 79.2929 333.798C79.3843 334.214 79.5546 334.985 79.6783 335.497C79.802 336.009 80.0746 337.155 80.27 338.048C80.4788 338.945 80.8078 340.368 81.0005 341.217C81.2067 342.07 81.473 343.185 81.5832 343.693C81.707 344.205 81.966 345.348 82.1614 346.241C82.3432 347.131 82.562 348.045 82.623 348.25C82.6939 348.472 82.8903 349.308 83.0668 350.109C83.2434 350.91 83.5149 352.114 83.67 352.779C84.0851 354.529 84.4715 356.17 84.8507 357.838C85.0272 358.639 85.2648 359.646 85.3661 360.079C85.471 360.499 85.731 361.583 85.9264 362.477C86.1217 363.37 86.4606 364.81 86.6731 365.693C86.8892 366.563 87.0496 367.317 87.0387 367.357C87.0279 367.398 87.2968 368.558 87.6367 369.939C87.9765 371.321 88.4355 373.286 88.6559 374.302C88.8764 375.318 89.1202 376.355 89.1938 376.621C89.271 376.874 89.47 377.754 89.6465 378.556C89.8231 379.357 90.1395 380.718 90.3322 381.567C91.071 384.651 91.14 384.988 91.2466 385.51C91.5815 387.181 92.0517 388.887 92.2803 389.224C92.588 389.698 93.1856 389.902 93.7287 389.714C94.1076 389.598 94.765 388.875 97.9695 385.136C98.6035 384.392 99.9962 382.764 101.063 381.542C102.133 380.306 103.377 378.856 103.845 378.299C104.312 377.743 105.549 376.32 106.581 375.117C110.834 370.224 111.438 369.486 112.014 368.524C112.269 368.114 112.534 367.721 112.606 367.668C112.682 367.601 112.943 367.221 113.184 366.808C113.439 366.397 113.837 365.779 114.07 365.45C114.525 364.832 115.167 363.844 116.053 362.428C116.333 361.981 116.691 361.453 116.857 361.266C117.014 361.061 117.282 360.655 117.467 360.342C117.639 360.025 117.984 359.494 118.217 359.165C118.631 358.594 118.9 358.188 120.291 356.023C121.895 353.552 122.188 353.109 122.378 352.884C122.472 352.75 124.713 349.362 127.348 345.37C129.973 341.36 132.224 337.989 132.332 337.859C132.439 337.728 132.784 337.197 133.095 336.686C133.393 336.171 133.71 335.69 133.782 335.637C133.871 335.574 134.091 335.241 134.283 334.901C134.48 334.548 134.821 334.03 135.033 333.725C135.259 333.423 135.96 332.377 136.588 331.386C137.229 330.397 137.836 329.487 137.943 329.356C138.05 329.225 138.396 328.694 138.707 328.183C139.004 327.668 139.321 327.187 139.393 327.134C139.469 327.068 139.803 326.577 140.139 326.029C140.474 325.481 140.819 324.95 140.902 324.856C140.985 324.762 141.358 324.238 141.706 323.694C143.077 321.552 143.597 320.749 144.211 319.753C144.564 319.195 144.992 318.57 145.166 318.356C145.335 318.155 145.499 317.923 145.517 317.855C145.553 317.72 146.767 315.841 150.257 310.497C151.058 309.29 151.718 308.234 151.74 308.153C151.758 308.085 151.908 307.85 152.078 307.649C152.424 307.22 154.66 303.744 154.707 303.568C154.725 303.5 154.872 303.279 155.042 303.078C155.416 302.598 157.366 299.596 157.42 299.393C157.442 299.312 157.592 299.077 157.762 298.876C157.935 298.661 158.597 297.649 159.246 296.634C159.899 295.605 160.565 294.58 160.728 294.348C160.892 294.117 161.561 293.078 162.21 292.063C162.863 291.034 163.521 290.036 163.695 289.821C163.864 289.62 164.011 289.398 164.033 289.317C164.065 289.195 165.747 286.543 166.29 285.76C166.753 285.115 168.04 283.068 168.68 281.977C169.026 281.389 169.673 280.329 170.113 279.606C170.553 278.883 171.217 277.755 171.595 277.103C171.959 276.446 172.364 275.801 172.472 275.67C172.579 275.539 172.971 274.89 173.348 274.237C174.847 271.564 175.472 270.528 175.617 270.422C175.706 270.359 175.884 270.073 176.022 269.776C176.393 268.933 176.393 268.933 177.701 269.458C178.342 269.716 179.168 270.039 179.526 270.164C179.894 270.306 180.386 270.525 180.621 270.675C180.86 270.812 181.79 271.235 182.694 271.593C184.225 272.206 184.916 272.493 185.691 272.846C185.873 272.923 187.165 273.458 188.564 274.022C189.96 274.599 191.336 275.199 191.615 275.347C191.891 275.507 193.014 275.968 194.09 276.387C195.183 276.796 196.41 277.299 196.838 277.486C197.263 277.686 198.936 278.367 200.561 279.005C207.75 281.816 209.443 282.473 209.74 282.61C209.922 282.688 211.484 283.295 213.218 283.963C214.952 284.63 216.692 285.329 217.076 285.519C217.46 285.709 219.018 286.329 220.547 286.898C222.062 287.464 223.333 287.964 223.366 288.002C223.4 288.04 224.617 288.526 226.065 289.073C227.495 289.63 229.357 290.361 230.18 290.698C230.999 291.048 232.766 291.753 234.106 292.272C235.441 292.803 237.003 293.411 237.58 293.638C239.111 294.251 243.16 295.8 246.844 297.193C248.622 297.858 250.444 298.578 250.912 298.776C251.377 298.988 253.057 299.641 254.653 300.228C256.249 300.815 257.639 301.362 257.74 301.418C257.837 301.487 259.44 302.105 261.286 302.788C263.141 303.489 264.73 304.103 264.828 304.172C264.925 304.242 266.409 304.814 268.114 305.43C269.818 306.046 271.471 306.692 271.791 306.85C272.111 307.009 273.406 307.53 274.675 307.986C275.94 308.455 277.428 309.013 277.964 309.23C278.5 309.446 280.444 310.198 282.286 310.895C284.128 311.592 285.994 312.309 286.418 312.51C286.86 312.701 288.249 313.247 289.518 313.703C290.784 314.173 292.413 314.798 293.128 315.105C295.221 316 299.562 317.54 299.983 317.537C300.414 317.551 301.099 316.995 301.226 316.521C301.291 316.278 300.67 314.27 298.965 309.274C298.788 308.747 298.474 307.808 298.26 307.2C298.064 306.581 297.824 305.908 297.74 305.682C297.568 305.187 296.858 303.024 296.748 302.676C296.681 302.44 293.084 291.688 292.737 290.71C291.375 286.763 290.534 284.116 290.325 283.219C290.085 282.111 290.065 281.917 289.906 280.453C289.791 279.479 289.384 278.022 288.418 275.138C288.305 274.803 288.179 274.407 288.134 274.25C288.103 274.096 287.942 273.56 287.798 273.072C287.367 271.651 287.107 270.726 286.71 269.344C286.525 268.627 286.284 267.852 286.203 267.612C286.108 267.37 286.055 267.138 286.062 267.111C286.073 267.07 285.964 266.664 285.839 266.21C285.701 265.752 285.534 265.186 285.48 264.954C285.212 263.954 284.954 262.971 284.706 262.165C284.558 261.69 284.402 261.083 284.325 260.83C284.223 260.397 283.596 258.14 282.702 254.986C282.504 254.266 282.283 253.467 282.213 253.187C281.769 251.546 281.238 249.634 281.09 249.159C280.848 248.384 280.634 247.616 280.417 246.804C280.318 246.415 280.185 245.886 280.107 245.633C280.034 245.367 279.894 244.807 279.775 244.384C279.661 243.947 279.487 243.35 279.394 243.049C279.301 242.749 278.98 241.619 278.69 240.54C278.385 239.458 278.015 238.083 277.842 237.485C277.223 235.304 276.808 233.771 276.626 233.099C276.524 232.723 276.245 231.706 275.999 230.842C275.317 228.412 275.067 227.504 274.93 226.989C274.87 226.726 274.61 225.859 274.375 225.056C274.141 224.254 273.963 223.568 273.973 223.527C273.984 223.487 273.927 223.268 273.833 223.026C273.709 222.674 273.228 221.007 272.458 218.205C272.403 218.031 272.139 217.177 271.865 216.306C271.143 214.024 271.05 213.724 270.725 212.665C270.574 212.146 270.364 211.524 270.283 211.285C270.189 211.042 270.135 210.81 270.146 210.77C270.157 210.729 269.929 209.957 269.645 209.069C269.348 208.178 269.032 207.194 268.938 206.893C268.845 206.593 268.642 205.944 268.494 205.469C268.346 204.994 268.124 204.253 268.002 203.844C267.88 203.434 267.59 202.515 267.367 201.832C267.131 201.145 266.948 200.53 266.963 200.476C266.977 200.422 266.903 200.156 266.789 199.879C266.675 199.601 266.533 199.157 266.483 198.912C266.253 197.879 265.918 196.585 265.855 196.496C265.812 196.441 265.624 195.738 265.42 194.929C265.216 194.12 264.902 192.861 264.69 192.138C264.492 191.417 264.343 190.783 264.361 190.715C264.375 190.661 264.33 190.504 264.261 190.384C264.103 190.11 263.811 188.712 263.906 188.679C263.971 188.653 266.629 187.335 267.081 187.108C267.554 186.858 268.639 186.322 269.725 185.786C270.307 185.507 270.992 185.169 271.245 185.033C272.067 184.616 272.636 184.333 274.601 183.38C275.669 182.854 276.686 182.358 276.875 182.249C277.06 182.154 277.543 181.921 277.923 181.747C278.316 181.577 278.785 181.34 278.987 181.235C279.67 180.852 283.011 179.253 283.743 178.956C284.149 178.789 284.659 178.563 284.896 178.438C285.128 178.327 286.142 177.844 287.138 177.371C288.148 176.902 289.13 176.426 289.319 176.317C289.507 176.208 289.99 175.975 290.37 175.801C290.75 175.627 291.233 175.394 291.438 175.275C291.641 175.17 293.157 174.431 294.801 173.653C296.447 172.861 297.913 172.152 298.063 172.076C298.218 171.987 298.7 171.754 299.145 171.554C300.535 170.911 302.435 169.985 302.713 169.813C303.029 169.607 312.067 165.3 312.932 164.937C313.26 164.793 314.293 164.345 315.214 163.939C316.124 163.516 317.062 163.1 317.287 163.015C317.516 162.917 318.622 162.416 319.754 161.922C320.89 161.414 322.07 160.904 322.381 160.769C322.689 160.649 323.363 160.351 323.859 160.121C324.356 159.892 325.03 159.594 325.337 159.473C325.809 159.281 327.865 158.367 330.514 157.191C330.794 157.063 331.862 156.595 332.895 156.147C333.931 155.685 335.016 155.207 335.297 155.079C335.875 154.814 335.991 154.758 337.578 154.081C338.214 153.816 338.759 153.571 338.81 153.541C338.861 153.511 339.553 153.203 340.339 152.863C341.143 152.513 342.293 152.009 342.902 151.737C343.511 151.465 344.267 151.131 344.578 150.997C347.65 149.645 349.475 148.785 351.983 147.485C352.373 147.271 353.394 146.761 354.26 146.34C356.551 145.2 358.952 143.972 359.162 143.84C359.268 143.767 359.94 143.425 360.672 143.07C363.59 141.647 363.768 141.521 363.917 140.966C364.109 140.249 363.674 139.654 362.676 139.271C362.254 139.114 361.178 138.695 360.274 138.337C359.37 137.979 357.474 137.268 356.056 136.772C354.638 136.276 353.073 135.682 352.564 135.473C352.072 135.255 349.966 134.458 347.894 133.7C338.269 130.193 336.936 129.705 336.026 129.317C335.494 129.087 333.86 128.475 332.402 127.968C330.947 127.448 329.075 126.758 328.252 126.421C327.429 126.085 324.499 125.068 321.753 124.172C319.008 123.277 316.668 122.491 316.571 122.421C316.47 122.365 313.86 121.506 310.78 120.507C307.696 119.521 304.647 118.516 303.993 118.253C302.59 117.703 298.949 116.525 293.524 114.868C291.352 114.214 288.802 113.4 287.85 113.058C286.912 112.719 282.99 111.509 279.152 110.365C268.355 107.123 264.619 105.977 260.066 104.525C257.756 103.79 253.867 102.618 251.414 101.932C241.201 99.0501 239.872 98.5489 238.873 97.1936C238.348 96.5019 238.183 95.6021 238.262 93.9555C238.473 89.1683 238.576 86.0781 238.602 83.5472C238.598 82.589 238.625 81.1896 238.638 80.4389C238.703 76.6278 238.717 75.9791 238.694 75.3059C238.688 74.8981 238.701 74.0897 238.742 73.5059C238.782 72.9222 238.783 72.2699 238.766 72.0623C238.736 71.8512 238.734 70.9949 238.751 70.173C238.862 66.2437 238.903 63.0063 238.884 62.16C238.877 61.7521 238.89 60.1894 238.929 58.6917C238.972 57.1804 238.987 55.6619 238.983 55.2983C238.979 54.9346 238.984 54.0514 239 53.3449C239.049 51.0523 239.071 49.3469 239.084 47.5668C239.103 45.2804 239.154 42.8723 239.21 40.9298C239.242 40.0537 239.236 39.211 239.209 39.044C239.181 38.8771 239.175 38.194 239.197 37.5183C239.219 36.8425 239.247 35.3853 239.256 34.271C239.251 33.1531 239.272 31.723 239.296 31.0914C239.307 30.4563 239.298 29.7868 239.277 29.5927C239.243 29.3951 239.256 28.6444 239.289 27.928C239.325 27.1981 239.317 26.4709 239.289 26.304C239.261 26.137 239.241 25.3484 239.264 24.5571C239.275 23.7623 239.296 22.4918 239.295 21.7375C239.295 20.9832 239.308 19.5802 239.318 18.6256C239.334 16.4547 239.345 14.1955 239.345 12.0345C239.333 10.5088 239.345 9.43865 239.367 5.73213C239.403 1.59434 239.409 1.68274 238.836 1.2247C238.283 0.800975 238.09 0.763814 237.603 1.01053Z" fill="#F0AC02"/>
</svg>
