<svg width="550" height="733" viewBox="0 0 550 733" fill="none" xmlns="http://www.w3.org/2000/svg">
<path d="M339.979 306.74C338.535 305.299 336.088 303.198 334.542 302.027C333.038 300.862 331.184 299.388 330.456 298.787C324.774 294.107 308.038 285.487 295.447 280.793C292.098 279.533 285.182 277.485 283.089 277.115C273.951 275.489 255.135 273.302 246.575 272.891C241.577 272.654 239.852 272.312 235.871 270.879C230.328 268.863 229.123 268.242 225.673 265.634C221.909 262.765 220.303 260.908 218.396 257.087C214.453 249.274 214.8 250.742 213.087 235.228C211.999 225.242 211.908 223.502 212.134 215.749C212.269 211.066 212.329 205.17 212.276 202.671C212.223 200.171 212.11 195.061 212.055 191.293C211.832 178.647 211.789 177.679 211.116 171.225C210.744 167.699 210.388 163.89 210.296 162.806C210.203 161.722 209.615 158.013 208.992 154.562C207.619 146.987 206.301 143.179 201.921 134.236C198.088 126.416 193.726 119.269 187.671 110.909C183.328 104.901 183.124 104.633 179.875 101.68C174.091 96.4612 169.965 93.5215 163.604 90.1274C160.442 88.4548 156.856 86.528 155.656 85.8633C146.391 80.6782 130.036 73.2688 124.903 71.9425C123.552 71.5854 119.372 70.8031 115.586 70.1831C111.842 69.569 108.357 68.9896 107.866 68.9015C107.393 68.8378 105.086 68.4392 102.76 68.0162C100.434 67.5932 98.126 67.1945 97.635 67.1065C97.1626 67.0427 95.7755 66.7901 94.5173 66.5548C93.302 66.3254 89.8592 65.7518 86.9319 65.2477C83.9616 64.7378 80.7335 64.1931 79.7086 64.0112C78.1068 63.7296 74.4824 62.563 68.5222 60.4036C65.8739 59.4561 57.7983 55.3279 56.1105 54.0726C54.2811 52.7327 51.701 49.0394 49.7376 44.992C48.1531 41.6953 47.9637 40.8389 47.148 33.1855C46.7757 29.6587 46.2034 25.5147 45.8684 23.9608L45.2923 21.1281L39.5121 13.6361C33.0827 5.29124 31.5706 3.70983 28.4693 1.91412C26.8079 0.946663 25.9909 0.683432 24.7649 0.693021C22.7483 0.727182 14.7649 2.33998 13.702 2.91819C13.2745 3.16665 12.0398 3.72168 10.9759 4.1467C8.63429 5.12097 5.21331 7.91752 4.20712 9.68408C3.5464 10.8413 2.6369 13.3424 2.49644 14.373C2.45547 14.6736 2.27008 15.392 2.05929 15.9758C1.64943 17.0575 1.06209 20.0831 0.94801 21.4015C0.932432 21.8367 0.929904 26.1875 0.961587 31.0895L1.02487 39.9315L3.44728 47.6704C4.77419 51.8944 5.80919 55.5324 5.73698 55.7413C5.68917 55.9316 5.71456 56.0662 5.81216 55.9919C5.90977 55.9176 6.24561 56.6626 6.57074 57.6466C6.87733 58.6063 8.64732 62.1466 10.4837 65.521C12.32 68.8953 13.9582 71.9587 14.1203 72.3741C14.3068 72.7709 16.5023 75.7564 19.0307 79.0273L23.5994 84.9784L29.7883 89.3114C36.4818 93.953 49.4373 101.91 51.2246 102.435C51.8142 102.602 52.7415 102.858 53.294 102.976C53.8465 103.095 56.4557 103.687 59.1263 104.31C61.797 104.932 64.4062 105.525 64.9587 105.643C65.5112 105.761 69.7104 106.721 74.3333 107.782C78.9562 108.842 83.2658 109.795 83.9042 109.925C85.3713 110.232 90.7859 111.421 93.4809 112.025C98.5519 113.168 115.225 116.794 118.841 117.544C121.032 117.993 123.635 118.628 124.6 118.933C130.202 120.673 140.877 125.785 144.64 128.501C146.192 129.629 146.699 130.244 150.917 136.038C159.106 147.354 161.836 151.395 161.625 151.979C161.559 152.145 161.621 152.328 161.769 152.37C162.181 152.557 164.405 159.985 164.583 161.889C164.8 164.149 165.302 181.162 165.183 182.676C165.157 183.351 164.968 185.38 164.808 187.195C164.403 191.929 164.134 194.867 164.09 195.67C163.701 200.93 163.597 202.819 163.506 204.927C163.407 207.581 163.007 215.005 162.911 216.195C162.645 219.592 162.586 223.87 162.755 232.901C162.793 235.027 162.806 237.018 162.765 237.319C162.724 237.619 162.745 237.95 162.819 238.048C162.875 238.121 162.878 238.58 162.77 239.047C162.669 239.47 162.653 239.906 162.733 239.96C162.906 240.137 162.958 244.407 162.788 244.69C162.704 244.832 162.742 245.034 162.834 245.156C162.946 245.302 162.991 245.614 162.998 245.878C162.883 248.005 163.129 252.783 163.657 259.501C163.87 262.11 163.991 262.826 164.528 264.341C164.783 265.032 165.49 267.226 166.122 269.17C167.161 272.458 167.54 273.209 170.985 278.899C177.733 290.042 180.085 292.677 188.897 298.785C194.907 302.985 195.314 303.214 203.079 306.732C208.95 309.383 212.336 310.692 215.788 311.682C227.58 315.021 231.442 316.045 234.541 316.572C237.15 317.012 243.79 318.191 247.227 318.808C247.485 318.843 249.314 319.221 251.296 319.597C253.297 319.998 255.218 320.345 255.562 320.391C255.906 320.437 257.827 320.784 259.828 321.185C261.81 321.562 264.284 322.026 265.309 322.208C266.334 322.39 267.53 322.595 267.997 322.702C268.654 322.856 273.024 323.686 275.583 324.162C275.841 324.197 277.67 324.575 279.653 324.952C281.654 325.353 283.36 325.67 283.489 325.688C285.121 325.908 289.652 327 290.961 327.504C292.934 328.273 301.701 333.107 303.388 334.362C304.62 335.272 306.188 336.926 309.796 341.261C311.001 342.692 312.328 344.183 312.754 344.59C313.155 345.016 314.164 346.442 314.926 347.747C315.732 349.058 317.423 351.888 318.725 354.054C321.296 358.292 322.205 360.448 323.88 366.294C326.075 373.936 326.047 373.495 325.34 385.425C325.131 389.202 324.372 408.253 324.359 410.11C324.369 410.68 324.243 411.122 324.09 411.123C323.961 411.106 323.925 411.21 324.055 411.381C324.259 411.649 324.199 415.773 323.937 420.745C323.904 421.309 323.83 424.098 323.769 426.954C323.708 429.81 323.645 432.36 323.652 432.623C323.636 432.905 323.581 436.68 323.505 441.087C323.454 445.475 323.369 449.465 323.342 449.986C323.32 450.464 323.323 450.923 323.36 450.972C323.397 451.021 323.564 453.011 323.738 455.418C324.493 466.89 327.792 479.273 332.445 487.968C334.797 492.374 335.162 492.905 338.981 497.618C342.862 502.361 343.263 502.787 347.738 506.539C353.944 511.705 361.798 516.656 367.077 518.68C369.05 519.449 371.791 520.518 373.162 521.053C374.532 521.588 376.24 522.211 376.934 522.414C380.153 523.351 396.423 527.207 398.141 527.439C398.699 527.514 403.155 528.355 405.794 528.886C407.433 529.217 408.968 529.511 409.201 529.564C409.459 529.599 411.269 529.953 413.27 530.354C416.487 530.984 419.151 531.496 420.495 531.743C420.752 531.778 422.753 532.179 424.969 532.609C427.209 533.021 431.726 533.739 435.051 534.209C444.157 535.437 450.731 536.783 453.516 538.011C455.686 538.938 461.436 542.796 464.887 545.558C469.534 549.333 471.585 551.774 475.519 558.208C479.372 564.434 480.725 567.022 481.906 570.395C482.986 573.383 483.222 574.858 483.316 578.982C483.341 580.887 483.378 582.86 483.393 583.387C483.47 584.753 483.606 598.196 483.585 599.79C483.572 600.531 483.592 603.748 483.625 606.879C483.762 627.057 483.751 634.84 483.545 643.886C483.416 649.488 483.264 654.453 483.267 654.912C483.246 655.39 483.243 655.893 483.287 656.052C483.331 656.211 483.454 658.195 483.566 660.419C483.775 664.186 484.508 669.554 486.077 678.905C486.989 684.407 488.498 689.377 490.719 694.421C492.716 698.867 492.716 698.867 495.923 702.776C497.684 704.938 499.475 707.038 499.901 707.445C500.302 707.871 501.185 708.777 501.814 709.452C503.635 711.337 508.472 715.16 512.757 718.056C523.348 725.234 528.772 727.956 534.954 729.292C537.035 729.748 541.369 730.682 544.598 731.38C550.055 732.575 551.073 732.647 553.46 731.985C553.913 731.871 554.617 731.681 555.069 731.568C556.636 731.145 562.547 727.569 564.962 725.577C568.559 722.607 570.872 719.115 571.075 716.343C571.231 713.915 570.842 706.822 570.39 704.203C569.918 701.407 569.85 701.266 568.516 699.818C567.757 698.972 566.351 697.733 565.372 697.055C563.34 695.6 557.824 693.063 553.536 691.632C549.666 690.345 548.534 689.667 543.555 685.76C538.731 682.005 537.596 681.021 534.758 678.102C530.253 673.449 528.536 669.675 526.573 660.009C525.731 655.763 525.579 654.146 525.684 649.525C525.796 643.09 525.872 642.532 527.839 627.295C529.557 614.21 529.796 609.41 529.208 599.12C529.012 595.267 528.749 590.618 528.675 588.75C528.521 585.712 528.265 583.097 527.025 573.419C525.999 565.387 524.464 557.549 522.79 551.704C520.107 542.509 519.846 542.015 511.314 530.806L504.247 521.523L497.682 516.898C490.139 511.595 479.821 504.825 476.788 503.17C475.644 502.578 472.857 501.044 470.556 499.793C463.942 496.168 451.597 491.595 445.331 490.401C444.52 490.248 442.685 489.913 441.237 489.63C439.788 489.347 437.978 488.994 437.21 488.846C434.246 488.294 422.417 485.867 417.549 484.839C414.768 484.224 409.764 482.915 406.447 481.899C403.106 480.902 399.07 479.702 397.511 479.273C388.569 476.843 386.868 476.329 384.974 475.461C378.844 472.623 372.625 465.465 371.072 459.527C370.474 457.173 370.2 450.839 370.559 446.601C371.11 439.832 371.424 436.245 371.602 434.301C371.711 433.179 371.841 431.425 371.932 430.432C371.999 429.457 372.311 426.525 372.595 423.962C373.275 418.172 373.847 409 374.122 399.285C374.189 397.348 374.237 395.387 374.272 394.976C374.335 393.388 373.394 381.52 372.816 376.61C372.479 373.788 371.585 368.157 370.829 364.076C369.642 357.859 369.152 356 367.743 352.377C365.095 345.657 363.071 341.733 357.307 332.035C354.351 327.088 351.121 321.58 350.092 319.823C347.73 315.656 343.397 310.065 339.979 306.74Z" fill="#328862"/>
</svg>
