<svg width="323" height="285" viewBox="0 0 323 285" fill="none" xmlns="http://www.w3.org/2000/svg">
<path d="M84.7613 1.22305C84.6296 1.35483 83.9933 2.34317 83.3351 3.3974C80.6363 7.79007 74.3721 17.97 73.3628 19.5953C72.9459 20.2542 72.2328 21.4183 71.772 22.176C70.7408 23.8672 43.2593 68.4746 42.3158 70.0011C41.6795 71.0333 38.6516 75.9531 37.6862 77.5235C37.4449 77.9188 35.6237 80.8839 33.6271 84.1125C27.0337 94.8196 15.1635 114.092 13.1339 117.387C12.0369 119.166 8.92119 124.228 6.20047 128.643C0.857768 137.319 0.287294 138.263 0.0678809 138.68C-0.0857082 138.977 -0.0966788 138.944 1.35145 141.601C1.61474 142.085 1.97677 142.765 2.16327 143.106C2.3388 143.457 2.94219 144.566 3.50169 145.577C4.05023 146.598 4.67555 147.74 4.87302 148.135C5.08147 148.531 5.32282 148.97 5.42156 149.124C5.50932 149.278 6.01397 150.189 6.52959 151.155C7.04521 152.122 7.63763 153.231 7.85704 153.626C8.07645 154.022 8.3946 154.615 8.57013 154.944C9.06381 155.888 9.4807 156.668 10.1718 157.909C11.3238 160.018 12.9913 163.114 13.4521 164.004C13.6934 164.487 13.9567 164.948 14.0335 165.025C14.1103 165.113 14.1542 165.212 14.1213 165.267C14.0884 165.322 14.1103 165.377 14.1542 165.399C14.2529 165.432 16.5897 169.703 16.5897 169.835C16.5897 169.879 16.6555 170 16.7433 170.088C16.8201 170.187 17.1931 170.856 17.577 171.581C17.95 172.306 18.3011 172.943 18.345 173.009C18.3889 173.064 18.718 173.69 19.069 174.382C19.4201 175.073 19.7383 175.666 19.7821 175.699C19.826 175.732 20.1332 176.292 20.4733 176.951C20.8134 177.61 21.1315 178.203 21.1864 178.269C21.2412 178.335 21.5155 178.829 21.8007 179.378C22.086 179.916 22.5358 180.762 22.81 181.245C23.0733 181.728 23.4463 182.442 23.6438 182.837C23.8303 183.233 24.0168 183.573 24.0607 183.606C24.0936 183.639 24.4227 184.232 24.7738 184.924C25.1248 185.616 25.443 186.209 25.4869 186.242C25.5198 186.275 25.8379 186.835 26.189 187.505C26.5401 188.164 26.935 188.91 27.0776 189.152C27.2093 189.382 27.297 189.624 27.2751 189.668C27.2422 189.712 27.2641 189.756 27.3299 189.756C27.3848 189.756 27.5055 189.888 27.5823 190.052C27.67 190.228 28.1966 191.205 28.7561 192.249C29.3156 193.292 29.7654 194.17 29.7545 194.214C29.7435 194.258 29.7764 194.324 29.8422 194.357C29.8971 194.39 30.1933 194.895 30.4895 195.466C30.7967 196.037 31.1806 196.74 31.3452 197.037C31.5098 197.322 31.5975 197.553 31.5427 197.553C31.4988 197.553 31.5098 197.597 31.5756 197.641C31.6414 197.685 31.8608 198.014 32.0583 198.376C32.7385 199.617 33.5942 201.232 33.8465 201.726C33.9782 202 34.1208 202.242 34.1756 202.253C34.2195 202.275 34.2305 202.341 34.1866 202.396C34.1537 202.451 34.1756 202.495 34.2305 202.495C34.2744 202.495 34.5596 202.978 34.8668 203.56C35.163 204.153 35.4702 204.702 35.547 204.779C35.6676 204.911 35.7115 205.086 35.6567 205.163C35.6347 205.185 35.7115 205.284 35.8212 205.394C35.92 205.504 35.9858 205.635 35.9529 205.69C35.909 205.745 35.9309 205.789 35.9858 205.789C36.0516 205.789 36.282 206.173 36.5233 206.635C36.7537 207.107 36.9951 207.524 37.0499 207.568C37.1267 207.623 37.1267 207.656 37.0499 207.656C36.9841 207.656 36.9951 207.7 37.0609 207.744C37.1267 207.788 37.4229 208.293 37.7191 208.864C38.0154 209.435 38.3225 209.973 38.3884 210.05C38.52 210.182 38.5529 210.281 38.52 210.467C38.52 210.511 38.5639 210.577 38.6187 210.61C38.7284 210.687 41.2956 215.398 41.2956 215.53C41.2846 215.574 41.3504 215.695 41.4272 215.782C41.6466 216.035 43.0618 218.671 43.0618 218.824C43.0618 218.901 43.1057 218.967 43.1496 218.967C43.1935 218.967 43.4239 219.351 43.6543 219.813C43.8846 220.285 44.115 220.702 44.1809 220.746C44.2576 220.801 44.2576 220.834 44.1809 220.834C44.115 220.834 44.126 220.878 44.1918 220.922C44.2686 220.966 44.5429 221.427 44.8281 221.965C45.1024 222.492 45.4534 223.151 45.618 223.415C45.7716 223.689 45.8594 223.909 45.8045 223.909C45.7606 223.909 45.7716 223.953 45.8374 223.997C45.9691 224.084 46.9893 225.951 46.9784 226.061C46.9674 226.105 47.0113 226.171 47.0661 226.204C47.121 226.237 47.4391 226.786 47.7573 227.423C48.0864 228.06 48.3936 228.609 48.4594 228.653C48.5252 228.708 48.5362 228.741 48.4594 228.741C48.3936 228.741 48.4046 228.774 48.4704 228.829C48.5362 228.872 48.8434 229.4 49.1615 230.004C49.4797 230.597 49.7759 231.146 49.8198 231.212C49.8637 231.266 50.2037 231.892 50.5548 232.584C50.9059 233.276 51.2679 233.913 51.3447 233.99C51.4215 234.078 51.4544 234.188 51.4215 234.242C51.3776 234.297 51.3886 234.341 51.4434 234.341C51.4873 234.341 51.586 234.451 51.6519 234.594C52.0578 235.385 52.5844 236.34 52.727 236.571C52.8257 236.713 52.8696 236.867 52.8257 236.9C52.7928 236.944 52.8148 236.977 52.8915 236.977C52.9683 236.977 52.9903 237.021 52.9574 237.087C52.9245 237.142 52.9464 237.197 53.0122 237.197C53.078 237.197 53.1 237.24 53.0671 237.306C53.0342 237.361 53.0451 237.416 53.111 237.416C53.1768 237.416 53.3743 237.746 53.5608 238.163C53.7582 238.569 53.9667 238.976 54.0544 239.063C54.1312 239.151 54.4823 239.799 54.8334 240.491C55.1954 241.183 55.5135 241.776 55.5464 241.809C55.5794 241.842 55.6781 242.007 55.7659 242.193C56.0401 242.731 56.8739 244.258 57.0385 244.51C57.1152 244.631 57.1482 244.774 57.1043 244.807C57.0714 244.851 57.0933 244.884 57.1701 244.884C57.2469 244.884 57.2688 244.928 57.2359 244.994C57.203 245.048 57.214 245.103 57.2579 245.103C57.3127 245.103 57.598 245.587 57.8942 246.18C58.1904 246.762 58.4646 247.267 58.5085 247.3C58.5524 247.333 58.8706 247.926 59.2216 248.617C59.5836 249.309 59.9237 249.913 59.9786 249.957C60.0444 250.001 60.0444 250.045 59.9896 250.045C59.9347 250.045 59.9676 250.133 60.0554 250.232C60.1431 250.342 60.4174 250.803 60.6588 251.253C60.9001 251.703 61.2512 252.351 61.4267 252.681C62.8858 255.338 63.8732 257.161 63.8732 257.238C63.8732 257.282 63.9609 257.447 64.0706 257.6C64.1913 257.765 64.5643 258.435 64.9154 259.105C65.2555 259.764 65.5846 260.357 65.6285 260.423C65.6724 260.478 65.9247 260.95 66.188 261.466C66.4513 261.982 66.8243 262.663 67.0217 262.992C67.2082 263.322 67.3509 263.629 67.3179 263.684C67.285 263.728 67.307 263.772 67.3618 263.772C67.4167 263.772 67.6251 264.102 67.8336 264.519C68.042 264.925 68.3602 265.518 68.5576 265.848C68.7551 266.177 68.8867 266.485 68.8538 266.529C68.8209 266.583 68.8538 266.627 68.9197 266.627C68.9855 266.627 69.0074 266.671 68.9745 266.737C68.9416 266.792 68.9526 266.847 69.0184 266.847C69.0732 266.847 69.3914 267.352 69.7205 267.967C70.0496 268.593 70.5214 269.472 70.7627 269.922C71.0041 270.372 71.3113 270.932 71.4429 271.152C71.5746 271.382 71.6404 271.569 71.5855 271.569C71.5416 271.569 71.5526 271.613 71.6184 271.657C71.6843 271.701 71.9476 272.118 72.1889 272.59C72.4412 273.052 72.7155 273.546 72.8033 273.689C72.8801 273.82 73.1763 274.347 73.4396 274.864C74.3282 276.555 74.8658 277.532 75.6776 278.993C76.1274 279.783 76.4894 280.486 76.4894 280.563C76.4894 280.629 76.5662 280.684 76.6649 280.684C76.7527 280.684 76.8076 280.717 76.7856 280.761C76.7527 280.816 77.378 280.86 78.1789 280.882C78.9688 280.893 80.5047 280.936 81.5908 280.958C82.6769 280.991 84.5309 281.035 85.7048 281.068C86.8786 281.101 88.7875 281.145 89.9285 281.178C91.0804 281.211 93.0222 281.266 94.2619 281.288C95.5015 281.321 97.3007 281.365 98.2661 281.387C99.2316 281.409 101.579 281.464 103.477 281.507C105.375 281.54 107.152 281.595 107.427 281.617C107.701 281.639 109.281 281.683 110.937 281.716C114.217 281.793 116.697 281.859 116.697 281.881C116.697 281.892 117.98 281.914 119.549 281.947C121.118 281.969 123.312 282.013 124.431 282.046C130.388 282.232 132.451 282.287 136.828 282.386C138.123 282.408 140.152 282.463 141.326 282.496C143.761 282.573 145.462 282.617 149.444 282.704C152.055 282.77 154.37 282.825 158.056 282.935C158.901 282.957 160.678 283.001 162.006 283.034C163.333 283.067 165.483 283.111 166.778 283.155C168.072 283.188 169.883 283.232 170.782 283.254C176.564 283.385 178.791 283.44 183.892 283.594C184.704 283.616 186.679 283.66 188.28 283.693C192.691 283.792 195.192 283.858 196.947 283.923C197.825 283.956 199.92 284 201.61 284.033C203.299 284.066 205.373 284.11 206.217 284.143C207.062 284.176 208.817 284.22 210.112 284.253C217.912 284.44 221.357 284.527 223.057 284.582C224.11 284.615 227.073 284.692 229.64 284.747C232.207 284.802 235.092 284.89 236.057 284.923C237.67 284.989 237.835 284.978 238.054 284.791C238.186 284.67 239.393 282.781 240.731 280.574C242.069 278.367 248.926 267.1 255.969 255.536C290.933 198.113 312.424 162.796 316.834 155.548C323.11 145.236 323 145.423 323 145.346C323 145.313 319.818 139.537 315.935 132.509C308.277 118.661 295.76 96.0276 274.016 56.7133C266.369 42.8764 257.703 27.2166 254.762 21.9015C251.822 16.5864 248.388 10.3817 247.138 8.11951C245.887 5.8573 244.79 3.92453 244.702 3.82568C244.494 3.58411 243.309 3.54016 229.804 3.3425C223.891 3.25464 216.091 3.13385 212.471 3.06796C208.85 3.01306 201.27 2.88126 195.631 2.79343C189.992 2.70557 182.389 2.57379 178.736 2.51889C172.164 2.40906 158.199 2.17844 144.727 1.96979C140.898 1.91489 134.919 1.81604 131.452 1.75015C127.986 1.69525 123.367 1.61838 121.195 1.58545C119.023 1.55249 114.481 1.47562 111.102 1.42072C107.723 1.35483 101.623 1.26697 97.5531 1.20108C93.4829 1.14618 88.985 1.06931 87.5698 1.02536L84.9917 0.959473L84.7613 1.22305Z" fill="#3840A9"/>
</svg>
