<svg width="800" height="381" viewBox="0 0 800 381" fill="none" xmlns="http://www.w3.org/2000/svg">
<path d="M661.006 0.056427C660.492 0.110413 658.41 0.2724 656.409 0.434418C648.81 1.02841 647.107 1.56839 637.886 6.15833C630.692 9.74927 629.097 10.6672 624.852 13.5832C618.659 17.7951 614.954 21.1971 610.844 26.354C606.842 31.3759 597.918 43.2827 593.159 49.9786C587.588 57.8085 587.074 58.5105 572.769 77.5722C566.252 86.2661 560.06 94.7169 559.005 96.3909C557.951 98.0379 556.571 100.063 555.922 100.873C555.3 101.683 553.786 103.762 552.596 105.463C550.379 108.568 547.648 112.294 535.858 128.358C532.396 133.056 528.015 139.104 526.15 141.777C524.257 144.45 521.634 148.149 520.282 150.012C518.957 151.875 516.631 155.196 515.117 157.437C508.086 167.859 504.3 172.584 502.353 173.421C501.217 173.88 498.648 173.88 497.702 173.394C496.782 172.908 495.052 171.045 494.619 170.046C494.403 169.506 494.268 163.836 494.132 149.202C493.997 131.301 493.916 128.574 493.402 124.362C493.105 121.77 492.78 118.045 492.672 116.128C492.591 114.184 492.266 110.674 491.969 108.325C491.699 105.949 491.455 103.276 491.455 102.358C491.455 99.4688 489.914 88.291 488.616 81.5681C487.507 76.0062 485.073 66.0974 483.992 62.9654C481.747 56.2695 478.935 49.3306 477.745 47.5487C475.717 44.5247 469.633 37.1538 465.874 33.2119C462.304 29.5129 457.193 26.003 450.622 22.7901C442.591 18.8751 437.02 16.9582 431.639 16.2562C429.963 16.0132 427.069 15.6352 425.203 15.3652C421.39 14.8252 412.764 14.7712 408.221 15.2842C403.245 15.8242 395.917 17.5791 392.348 19.0641C388.237 20.7921 377.475 26.327 374.825 28.109C367.794 32.7799 359.519 41.2308 350.974 52.4086C349.974 53.7316 348.378 55.7565 347.459 56.8635C344.917 59.9955 343.321 62.0744 340.293 66.3134C336.074 72.2263 323.878 88.858 320.309 93.5289C316.739 98.2539 313.089 103.195 310.736 106.543C307.87 110.566 293.375 129.816 291.699 131.787C289.671 134.163 288.643 134.892 287.156 134.892C285.128 134.892 284.316 134.595 282.964 133.299C281.802 132.219 281.585 131.814 281.126 130.032C279.449 123.633 278.719 121.069 277.367 116.803C275.501 110.917 274.717 109.027 271.228 101.872C266.523 92.1519 260.98 83.7281 256.274 79.0572C252.434 75.2772 244.782 69.6613 239.427 66.7184C237.859 65.8544 235.966 64.7474 235.182 64.2614C232.126 62.3174 228.232 60.8325 221.715 59.1585C218.984 58.4565 212.196 57.5655 206.41 57.1605C200.082 56.7015 188.616 57.5925 183.343 58.9155C176.664 60.5894 171.742 62.3174 164.793 65.5034C160.168 67.6093 154.976 70.7413 147.405 76.0062C145.836 77.0862 138.616 82.8641 136.534 84.7001C123.067 96.5529 107.14 112.024 99.8927 120.34C98.6217 121.77 96.215 124.47 94.5114 126.306C92.8348 128.115 90.7526 130.464 89.9414 131.517C86.2096 136.188 85.3984 137.16 82.586 140.319C80.9095 142.155 77.9079 145.719 75.8797 148.23C73.8516 150.741 70.9852 154.089 69.4979 155.655C67.9836 157.248 66.1988 159.192 65.5228 160.002C62.1426 163.998 55.4092 172.746 52.8403 176.472C51.2448 178.767 48.9192 182.115 47.6753 183.896C45.5931 186.839 43.4568 190.079 37.8592 198.746C36.8046 200.366 34.2897 204.2 32.2616 207.251C30.2335 210.302 27.9349 214.001 27.1507 215.486C26.3395 216.971 24.9874 219.374 24.1221 220.805C23.2567 222.263 22.2021 224.18 21.7424 225.071C21.2827 225.962 20.201 227.906 19.3087 229.391C18.4163 230.903 17.1453 233.171 16.4963 234.494C15.8203 235.79 14.5764 238.004 13.684 239.408C12.8187 240.812 11.6018 242.972 10.9799 244.241C10.3849 245.51 9.43848 247.264 8.89765 248.155C7.68078 250.126 4.35466 256.741 3.5975 258.631C3.30004 259.387 2.9485 260.494 2.81329 261.115C2.70512 261.709 2.2995 263.356 1.92092 264.76C0.514752 270.079 -0.0260798 274.399 0.000961794 280.42V285.955L1.70458 292.57C2.65104 296.215 3.43525 299.374 3.48933 299.59C3.51637 299.806 3.62454 300.184 3.70566 300.4C3.81383 300.616 4.27354 301.885 4.73324 303.235C6.78841 309.202 10.4661 315.519 15.3606 321.621C16.0637 322.485 16.7938 323.403 16.9561 323.619C17.1453 323.835 18.2 325.104 19.3087 326.427C20.4174 327.75 21.5802 329.127 21.8776 329.532C23.5272 331.692 30.7473 337.605 34.0463 339.495C39.049 342.33 50.0009 347.109 51.5152 347.109C51.7856 347.109 52.0561 347.217 52.1642 347.352C52.2454 347.514 52.5158 347.595 52.7862 347.595C53.0296 347.595 54.8954 347.892 56.8965 348.297C63.0079 349.539 63.6028 349.593 72.175 349.647C80.6391 349.674 83.1539 349.458 89.6169 348.027C96.7829 346.434 103.138 344.031 107.518 341.277C108.086 340.926 108.546 340.71 108.546 340.818C108.546 340.953 108.654 340.899 108.762 340.737C108.87 340.575 110.547 339.387 112.521 338.091C114.982 336.471 116.686 335.121 117.929 333.771C120.012 331.53 128.178 320.217 133.019 312.873C140.509 301.507 142.537 298.321 143.781 296.107C145.755 292.57 154.165 280.177 155.571 278.719C157.329 276.856 158.032 276.559 160.25 276.694C162.061 276.802 162.115 276.802 163.603 278.26C164.414 279.07 165.306 280.096 165.523 280.555C166.415 282.202 168.822 288.331 168.687 288.574C168.605 288.682 168.687 288.79 168.849 288.79C169.011 288.79 169.092 288.898 169.011 289.033C168.903 289.168 168.93 289.33 169.065 289.384C169.173 289.411 169.606 290.302 170.039 291.355C170.444 292.381 171.066 293.839 171.418 294.595C171.742 295.324 172.121 296.242 172.229 296.566C172.337 296.917 173.284 298.942 174.311 301.021C175.366 303.127 176.231 305.017 176.231 305.179C176.231 305.368 176.339 305.53 176.475 305.53C176.61 305.53 176.637 305.638 176.556 305.8C176.475 305.935 176.502 306.07 176.637 306.07C176.88 306.07 177.962 308.257 177.827 308.473C177.773 308.527 177.854 308.662 177.989 308.743C178.34 308.986 180.801 313.899 180.558 313.899C180.423 313.899 180.477 314.007 180.639 314.115C180.828 314.223 181.748 316.032 182.694 318.111C185.669 324.618 187.643 327.372 193.619 333.204C195.755 335.283 197.946 337.335 198.486 337.794C199.054 338.226 200.055 339.09 200.731 339.684C201.434 340.278 203.083 341.628 204.409 342.654C205.761 343.68 206.896 344.598 206.977 344.679C207.302 345.057 212.386 348.081 216.983 350.646C229.098 357.369 231.18 358.476 232.802 358.854C232.964 358.881 233.938 359.178 234.966 359.529C239.752 361.014 245.377 362.283 249.974 362.904C253.11 363.336 263.63 363.228 267.821 362.742C273.148 362.121 280.99 359.853 287.183 357.153C292.429 354.885 302.461 348.729 307.653 344.571C312.413 340.791 319.579 333.906 324.095 328.749C326.691 325.806 333.343 317.085 338.129 310.39C346.215 299.077 355.896 286.414 358.789 283.444C361.169 280.987 361.71 280.69 363.954 280.69C366.144 280.69 366.766 281.014 368.713 283.012C370.201 284.578 371.255 286.495 374.122 292.705C378.854 302.911 380.72 306.367 384.776 312.549C388.859 318.759 391.401 322.782 391.401 323.079C391.401 323.241 391.482 323.349 391.618 323.349C391.726 323.349 392.104 323.808 392.483 324.375C394.673 327.669 399.541 334.149 405.409 341.574C410.655 348.189 419.957 356.586 427.015 361.041C428.611 362.067 429.99 362.958 430.071 363.039C430.152 363.12 430.882 363.525 431.693 363.957C432.504 364.416 435.182 365.955 437.642 367.413C443.024 370.626 451.271 374.729 455.355 376.241C463.359 379.184 474.906 381.128 483.478 380.993C485.858 380.939 489.319 380.723 491.185 380.48C497.08 379.697 509.627 376.997 515.117 375.323C519.2 374.081 530.801 367.305 537.588 362.202C542.537 358.503 550.514 349.701 557.896 339.819C559.411 337.821 562.656 333.609 565.117 330.504C580.72 310.822 587.75 301.48 599.973 284.335C608.572 272.266 625.473 249.586 629.854 244.241C632.639 240.839 633.532 239.624 637.886 232.901C640.4 229.04 641.428 227.798 643.51 226.124C644.808 225.098 644.862 225.071 647.107 225.071C648.54 225.071 649.676 225.206 650.135 225.449C651.352 226.07 654.083 229.121 655.273 231.2C656.571 233.414 658.843 236.357 661.358 239.03C662.304 240.029 663.9 241.892 664.9 243.161C665.928 244.43 668.145 246.941 669.849 248.749C671.552 250.558 673.31 252.502 673.797 253.069C674.257 253.636 675.987 255.283 677.637 256.714C681.909 260.494 681.666 260.278 685.884 263.545C687.155 264.517 688.372 265.462 688.589 265.651C689.724 266.569 693.808 268.999 695.728 269.917C700.865 272.293 714.278 276.343 720.227 277.288C724.473 277.963 724.824 278.017 728.745 278.017C733.207 278.017 736.885 277.531 742.645 276.208C749.567 274.615 752.839 273.373 760.6 269.431C766.036 266.677 768.983 264.625 775.933 258.793C779.908 255.472 780.719 254.662 783.856 251.017C790.265 243.539 794.105 235.493 797.134 223.181C798.134 219.077 800 208.682 800 207.17C800 206.036 798.891 199.556 797.972 195.101C796.728 189.242 792.32 176.229 790.076 171.801C789.048 169.722 779.448 155.898 777.204 153.225C765.846 139.698 767.063 141.291 759.924 130.113C759.329 129.195 758.031 126.522 757.031 124.173C756.003 121.824 754.786 119.044 754.3 118.018C750.379 109.54 746.647 99.4149 744.051 90.343C743.618 88.777 742.645 85.4291 741.861 82.9181C741.103 80.3802 740.238 77.3562 739.941 76.1682C739.129 72.9013 735.208 60.9674 733.721 57.1335C733.018 55.2705 731.612 51.5716 730.611 48.8987C727.799 41.2308 721.66 29.5399 718.361 25.463C712.331 18.0651 697.431 8.45328 682.91 2.64838C676.934 0.245422 676.149 0.110413 668.578 0.0294189C664.927 -0.0245972 661.52 0.00241089 661.006 0.056427Z" fill="#3840A9"/>
</svg>
