<svg width="1624" height="1390" viewBox="0 0 1624 1390" fill="none" xmlns="http://www.w3.org/2000/svg">
<path d="M569.355 0.130615C565.589 0.840332 486.108 25.8425 469.131 31.629C456.03 36.1055 441.783 41.7283 415.962 52.5917C400.296 59.1425 384.137 65.8571 346.908 81.3606C329.822 88.4574 309.024 97.0826 300.781 100.576C284.841 107.236 244.282 127.326 236.094 132.675C230.362 136.387 184.399 168.05 181.233 170.452C179.868 171.489 172.772 177.931 165.512 184.7C153.229 196.164 149.899 199.712 136.198 215.871C133.796 218.709 125.28 228.808 117.201 238.253C103.608 254.302 101.48 257.141 86.4678 278.977C72.0019 299.994 69.2179 304.416 59.6649 321.557C52.6231 334.113 43.3976 352.073 32.5892 373.964L16.2127 407.263L8.13365 431.829L0 456.395V623.004V789.667L3.22071 800.421C13.92 836.232 20.6889 858.341 23.8551 867.458C28.2221 880.177 31.2245 889.13 31.3336 889.84C31.3882 890.113 31.552 890.604 31.7158 890.932C32.1525 891.641 34.6089 898.956 34.7181 899.666C34.7181 899.939 35.0456 900.812 35.3732 901.577C36.0828 903.16 39.8494 913.041 40.0132 913.859C40.0678 914.132 40.2315 914.515 40.4499 914.678C40.7774 915.006 43.1793 920.629 43.3431 921.502C43.3976 921.775 43.9981 923.249 44.7078 924.777C46.6729 929.145 48.0376 932.693 47.7101 932.693C47.5464 932.693 47.8193 933.075 48.256 933.566C48.7473 934.003 49.1294 934.713 49.1294 935.095C49.1294 935.477 49.4569 936.514 49.8936 937.388C50.3304 938.261 52.2955 942.901 54.2607 947.705C59.0099 959.169 60.0471 961.353 64.0866 968.177C65.888 971.288 67.3619 974.072 67.3073 974.291C67.1981 974.509 67.3619 974.727 67.5802 974.727C67.8532 974.727 68.5082 975.655 69.1087 976.747C69.6546 977.894 70.2551 978.931 70.4188 979.095C70.5826 979.258 72.6569 982.698 75.0042 986.737C77.3515 990.777 79.6988 994.707 80.1901 995.472C82.8104 999.402 91.4353 1014.31 91.3261 1014.69C91.2169 1014.91 91.3261 1015.12 91.5991 1015.12C91.8174 1015.12 92.6362 1016.27 93.3459 1017.69C94.1101 1019.16 94.8744 1020.42 95.0381 1020.58C95.2019 1020.75 97.3854 1024.3 99.8965 1028.5C102.353 1032.7 108.74 1043.13 113.98 1051.7C119.275 1060.27 123.861 1067.75 124.188 1068.35C124.516 1068.95 125.935 1071.24 127.354 1073.43C128.774 1075.61 129.92 1077.52 129.92 1077.68C129.92 1077.85 130.52 1078.78 131.285 1079.76C132.049 1080.74 132.649 1081.72 132.649 1081.89C132.649 1082.05 133.632 1083.63 134.833 1085.44C135.979 1087.24 137.508 1089.64 138.163 1090.79C138.763 1091.99 140.565 1094.93 142.148 1097.39C143.676 1099.85 146.733 1104.76 148.917 1108.31C151.1 1111.86 154.321 1117.1 156.122 1119.94C157.924 1122.78 159.889 1126.11 160.544 1127.31C161.199 1128.51 161.909 1129.6 162.127 1129.76C162.345 1129.93 163.983 1132.27 165.784 1135C167.531 1137.68 169.66 1140.79 170.479 1141.83C171.298 1142.92 171.953 1144.07 171.953 1144.39C171.953 1144.72 172.171 1145.05 172.39 1145.16C172.99 1145.38 176.593 1150.73 176.375 1151C176.32 1151.11 176.484 1151.38 176.866 1151.6C177.193 1151.82 180.141 1155.86 183.362 1160.61C191.004 1171.74 189.912 1170.49 204.16 1184.63C225.777 1206.13 225.722 1206.13 248.376 1222.84C258.421 1230.26 266.936 1236.65 267.264 1237.09C267.592 1237.52 268.028 1237.85 268.247 1237.85C268.629 1237.85 274.197 1242 275.78 1243.47C276.216 1243.8 277.035 1244.4 277.69 1244.78C279.437 1245.77 324.418 1279.34 325.073 1280.1C325.4 1280.49 325.892 1280.92 326.219 1281.03C326.547 1281.14 327.529 1281.8 328.403 1282.45C336.264 1288.57 348.764 1297.46 357.007 1302.87C361.374 1305.76 365.359 1308.49 365.905 1309.04C366.396 1309.58 366.833 1309.8 366.833 1309.53C366.833 1309.31 367.215 1309.58 367.706 1310.18C368.143 1310.78 368.58 1311.17 368.689 1311C368.744 1310.84 370.763 1312.09 373.111 1313.73C383.046 1320.61 387.74 1323.18 402.861 1329.89C408.102 1332.18 412.523 1334.31 412.578 1334.59C412.687 1334.8 413.178 1335.02 413.724 1335.02C414.216 1335.02 415.853 1335.62 417.382 1336.33C421.749 1338.46 437.252 1345.23 440.527 1346.43C442.165 1347.03 450.025 1349.16 457.995 1351.13C465.965 1353.09 472.843 1354.84 473.28 1355.06C473.717 1355.22 474.699 1355.49 475.464 1355.6C476.228 1355.71 482.123 1357.19 488.565 1358.82C495.006 1360.46 500.902 1361.93 501.666 1362.1C502.43 1362.26 503.795 1362.59 504.668 1362.86C506.47 1363.41 516.459 1365.97 518.534 1366.47C520.772 1366.96 561.222 1377 566.626 1378.42C579.017 1381.64 584.258 1382.95 586.005 1383.33C586.605 1383.5 592.009 1384.81 598.014 1386.34C615.209 1390.7 614.227 1390.65 635.134 1388.85C640.538 1388.41 646.707 1387.92 648.781 1387.76C650.91 1387.59 657.024 1387.1 662.428 1386.66C667.832 1386.23 674.11 1385.68 676.348 1385.52C678.586 1385.35 681.916 1385.08 683.718 1384.92C685.519 1384.81 688.358 1384.54 689.995 1384.43C691.633 1384.32 697.419 1383.83 702.824 1383.39C708.228 1382.9 714.232 1382.41 716.198 1382.3C718.163 1382.13 725.751 1381.53 733.12 1380.93C740.489 1380.33 748.241 1379.68 750.315 1379.51C758.121 1378.91 759.704 1378.75 764.235 1378.2C766.801 1377.93 770.349 1377.49 772.151 1377.33C773.952 1377.17 776.19 1376.95 777.064 1376.78C777.992 1376.67 779.793 1376.4 781.158 1376.29C782.522 1376.13 785.688 1375.75 788.254 1375.47C790.82 1375.15 794.477 1374.76 796.442 1374.6C798.408 1374.44 800.755 1374.16 801.628 1374.05C802.556 1373.94 804.74 1373.67 806.596 1373.51C808.397 1373.34 810.472 1373.13 811.236 1372.96C812.819 1372.74 821.335 1371.71 825.101 1371.38C833.289 1370.56 838.912 1369.25 863.313 1362.54C899.177 1352.6 908.13 1350.03 912.442 1348.4C914.462 1347.63 916.318 1347.14 916.536 1347.3C916.809 1347.47 917.082 1347.36 917.192 1347.14C917.246 1346.87 928.055 1342.94 941.101 1338.35C954.148 1333.71 972.38 1327.32 981.551 1324.1C990.776 1320.83 999.347 1317.66 1000.66 1317.01C1001.97 1316.3 1016.16 1307.02 1032.21 1296.32C1051.31 1283.6 1062.83 1275.57 1065.51 1273.12C1067.8 1270.99 1079.76 1259.52 1092.15 1247.57L1114.64 1225.84L1139.75 1195.76C1162.89 1168.03 1165.84 1164.21 1177.63 1147.29C1198.1 1117.92 1196.19 1121.19 1204.49 1101.38C1219.5 1065.57 1222.39 1058.25 1226.32 1046.24C1240.79 1001.91 1240.08 1004.48 1241.55 994.653C1242.32 989.521 1245.32 969.268 1248.16 949.616C1251 929.964 1253.46 913.095 1253.62 912.222C1254 909.711 1258.26 835.304 1258.26 830.5C1258.26 828.153 1257.17 814.178 1255.8 799.439C1253.35 772.908 1253.29 772.417 1249.25 751.836C1247.01 740.372 1244.34 726.561 1243.3 721.156C1241.61 712.095 1240.9 709.911 1234.62 693.043C1228.34 676.174 1226.76 672.626 1214.1 646.641C1197.07 611.867 1177.2 573.054 1173.37 567.212C1168.62 560.061 1164.53 556.021 1157.38 551.49C1137.13 538.716 1130.36 535.059 1100.77 520.756C1084.29 512.786 1068.56 505.417 1065.84 504.379C1063.16 503.342 1048.42 495.972 1033.08 488.057C1017.8 480.141 1000.71 471.571 995.144 469.059C964.683 455.139 949.071 448.151 945.195 446.732C942.793 445.804 932.913 442.31 923.251 438.871C906.11 432.812 901.798 431.611 879.962 426.425C874.121 425.06 863.531 422.549 856.489 420.856C843.77 417.854 843.552 417.799 831.925 417.363C825.483 417.09 815.057 416.871 808.725 416.871C792.84 416.817 782.686 418.236 736.395 426.97C699.548 433.903 695.836 434.777 674.656 440.891C653.64 446.95 647.471 448.916 619.304 458.851C602.763 464.692 600.525 465.62 572.631 478.995C551.123 489.367 552.324 488.657 531.144 502.25C512.584 514.096 510.072 515.898 506.033 519.937C495.825 530.255 476.337 551.054 470.933 557.386C467.384 561.59 462.69 567.103 460.506 569.669C458.323 572.235 455.43 575.783 454.065 577.585C450.953 581.733 443.202 594.726 441.073 599.257C438.944 603.952 426.498 654.12 425.461 662.472C425.024 665.911 423.714 676.939 422.513 686.983L420.329 705.216L421.476 720.829L422.568 736.442L427.208 754.729C429.773 764.774 432.448 775.091 433.212 777.657C434.031 780.168 434.741 782.625 434.85 783.116C434.959 783.553 436.76 789.339 438.889 795.945C441.018 802.55 443.093 809.156 443.529 810.684C443.966 812.158 445.768 818.054 447.569 823.731C449.37 829.409 450.735 834.267 450.626 834.485C450.462 834.704 450.517 834.977 450.735 835.086C451.008 835.141 451.772 837.106 452.482 839.344C453.683 843.274 459.196 854.684 464.983 865.274C466.456 867.949 470.496 875.592 473.935 882.197C477.429 888.803 480.868 895.299 481.577 896.664C482.724 898.847 486.108 904.142 493.751 915.77C495.006 917.735 498.227 922.648 500.847 926.688C503.467 930.728 507.07 936.187 508.872 938.862C510.618 941.482 511.928 943.611 511.765 943.611C511.601 943.611 511.928 944.048 512.474 944.594C512.966 945.085 513.894 946.122 514.494 946.886C515.586 948.251 520.008 952.4 524.429 956.221C528.414 959.661 533.491 963.591 537.967 966.539C540.369 968.122 542.443 969.651 542.498 969.923C542.607 970.142 542.88 970.36 543.153 970.36C543.371 970.36 547.575 973.09 552.488 976.42C561.877 982.807 571.43 987.993 576.124 989.248C580.546 990.449 583.93 990.176 595.012 987.829C604.728 985.755 619.576 981.114 634.861 975.437C640.702 973.253 652.712 967.412 657.242 964.464C661.227 961.953 670.562 954.202 673.4 951.144C677.604 946.613 678.641 944.266 691.742 910.857C701.186 886.947 703.642 878.649 704.024 869.532C704.407 861.781 704.352 861.562 696.218 829.245C693.434 818.108 689.995 803.042 688.631 795.672C687.266 788.302 685.355 778.367 684.373 773.563L682.626 764.829L682.462 741.955C682.298 716.789 682.244 716.953 685.956 696.045C688.085 684.144 689.286 680.432 695.727 665.857C699.821 656.576 702.332 652.482 709.32 643.529C718.927 631.192 729.299 623.167 746.876 614.433C758.231 608.81 762.052 607.391 778.428 602.914C792.021 599.202 801.519 597.947 816.094 597.837C826.138 597.783 834.654 598.165 838.475 598.875C839.24 599.038 843.552 599.639 848.028 600.294C857.472 601.55 856.762 601.495 870.682 603.297C891.59 606.026 895.793 607.555 902.234 614.76C904.418 617.217 914.353 633.266 925.598 652.482C926.199 653.41 929.474 658.924 932.913 664.765C936.352 670.551 939.955 676.775 940.828 678.576C941.756 680.378 942.739 682.015 943.012 682.234C943.394 682.507 943.394 682.67 943.012 682.67C942.684 682.67 942.739 682.889 943.066 683.107C943.394 683.326 944.977 686.055 946.56 689.221C948.143 692.388 951.2 698.283 953.384 702.323C967.576 728.908 970.197 735.295 976.911 759.643C979.968 770.724 982.479 783.062 984.444 796.491C984.608 797.692 985.099 800.858 985.536 803.588C986.027 806.262 986.464 809.374 986.628 810.411C986.901 812.377 991.213 839.89 991.595 841.801C991.704 842.401 992.196 844.748 992.687 846.987C993.178 849.225 993.67 851.681 993.833 852.446C993.943 853.21 994.816 857.25 995.744 861.453C997.109 867.458 997.491 870.351 997.491 875.101C997.491 882.47 997.545 882.252 987.883 907.582C981.005 925.651 975.656 938.753 964.192 965.72C958.897 978.112 944.376 1007.54 940.774 1013.1C937.935 1017.47 913.097 1050.55 907.857 1056.89C905.892 1059.29 901.907 1063.82 899.014 1066.98C896.12 1070.15 888.314 1078.72 881.6 1086.09C864.951 1104.43 862.549 1106.84 846.664 1121.25C827.667 1138.5 824.119 1141.83 813.474 1151.98C808.397 1156.84 802.556 1161.92 800.482 1163.23C794.313 1167.21 764.781 1180.26 755.392 1183.15C750.752 1184.63 744.638 1185.23 723.567 1186.32C712.322 1186.86 701.077 1187.08 689.995 1186.97C674.056 1186.7 672.363 1186.59 650.146 1183.92C609.696 1178.95 603.418 1178.08 594.466 1175.89C594.029 1175.78 587.861 1174.42 580.819 1172.89C564.06 1169.29 558.711 1167.87 538.786 1162.03C529.615 1159.35 519.189 1156.4 515.586 1155.42C491.185 1149.03 471.096 1142.54 447.624 1133.48C440.254 1130.58 433.267 1127.96 432.066 1127.58C426.225 1125.72 403.462 1116.72 397.566 1113.93C388.996 1109.89 377.314 1103.23 372.783 1099.96C366.997 1095.64 346.035 1078.5 342.596 1075.23C336.7 1069.55 308.041 1036.8 304.821 1032.05C302.528 1028.66 293.084 1005.68 287.953 991.104C286.97 988.266 283.586 979.258 280.474 971.179C270.594 945.74 268.028 938.316 263.825 923.413C261.641 915.443 257.001 899.011 253.562 886.837C246.302 860.962 245.429 857.632 244.337 851.081C243.081 843.82 236.149 780.823 234.184 759.37C233.256 749.161 232.273 738.734 232 736.169C231.727 733.603 230.854 724.432 230.035 715.697L228.506 699.921L230.035 654.557C231.727 601.604 232.764 580.096 233.965 572.944C234.402 570.106 237.513 555.093 240.789 539.644C247.339 508.965 246.466 511.803 255.855 490.24C257.984 485.436 260.713 479.049 261.969 475.992C266.391 465.293 268.137 463 292.429 435.923C297.888 429.864 304.056 423.913 314.21 415.015C328.894 402.077 334.68 397.765 351.275 387.775C360.61 382.097 370.545 375.983 383.482 367.904C396.201 359.988 405.154 354.911 420.602 346.832C427.535 343.229 433.485 340.008 433.867 339.735C434.195 339.408 434.522 339.353 434.522 339.626C434.522 339.899 434.741 339.845 434.959 339.517C435.177 339.135 440.527 336.187 446.805 332.857C453.137 329.582 460.616 325.597 463.454 324.068C470.66 320.138 487.473 312.004 487.473 312.44C487.473 312.659 487.691 312.55 487.91 312.222C488.128 311.84 497.408 307.091 508.489 301.632C526.012 293.006 530.161 291.205 539.878 287.93C546.046 285.855 551.068 284.163 551.068 284.217C551.068 284.217 551.723 283.999 552.542 283.672C553.361 283.344 554.616 283.016 555.272 282.962C555.981 282.853 556.8 282.634 557.073 282.47C557.619 282.088 562.914 280.342 564.06 280.123C564.442 280.014 565.097 279.796 565.534 279.632C565.971 279.468 568.591 278.649 571.266 277.83C573.995 277.066 578.417 275.701 581.092 274.882C589.99 272.098 621.05 264.947 634.042 262.654C644.087 260.853 671.981 259.652 705.28 259.488C771.277 259.161 780.011 259.543 802.72 263.419C811.727 264.947 821.389 266.694 824.282 267.294C827.121 267.895 830.342 268.495 831.379 268.605C833.071 268.878 850.048 271.989 865.879 274.937C869.099 275.538 874.613 276.52 878.161 277.066C884.93 278.103 902.18 281.215 904.527 281.761C905.291 281.925 906.765 282.198 907.802 282.307C910.04 282.634 922.596 284.927 926.908 285.801C928.546 286.128 930.402 286.51 931.002 286.565C944.977 288.748 955.24 291.205 972.489 296.446C984.062 299.994 999.074 304.361 1002.24 305.18C1004.21 305.671 1006.88 306.381 1008.24 306.818C1016.92 309.602 1046.18 318.609 1048.91 319.373C1059.39 322.267 1099.52 335.259 1110.87 339.408C1118.24 342.137 1127.74 345.522 1132 346.996C1144.39 351.254 1147.23 352.728 1170.1 366.594C1174.9 369.542 1181.29 373.363 1184.29 375.055C1187.29 376.802 1189.86 378.44 1189.91 378.658C1190.02 378.931 1190.35 379.15 1190.68 379.15C1190.95 379.15 1194.55 381.169 1198.65 383.681C1211.42 391.432 1222.83 398.311 1228.67 401.75C1231.78 403.606 1235.11 405.517 1236.04 406.117C1237.02 406.663 1237.95 407.373 1238.17 407.755C1238.39 408.082 1238.61 408.191 1238.61 407.919C1238.61 407.7 1240.63 408.792 1243.14 410.375C1245.59 411.904 1249.09 414.033 1250.89 415.07C1252.69 416.107 1258.7 419.874 1264.26 423.368C1284.3 435.978 1292.43 441.055 1296.63 443.511C1305.37 448.643 1319.51 458.36 1332.5 468.131C1339.87 473.7 1346.15 478.394 1346.42 478.667C1346.75 478.94 1352.75 483.417 1359.79 488.603C1378.24 502.305 1392.6 513.005 1393.86 514.096C1394.51 514.642 1396.37 516.116 1398 517.372C1399.64 518.627 1401.12 519.828 1401.28 519.992C1401.44 520.156 1403.52 521.739 1405.92 523.54C1408.32 525.342 1413.23 529.163 1416.84 532.002C1420.44 534.895 1425.63 538.935 1428.3 541.009C1431.03 543.084 1433.6 545.103 1434.03 545.486C1438.45 549.089 1454.67 561.535 1457.23 563.282C1459.03 564.483 1460.62 565.684 1460.67 565.957C1460.78 566.175 1461.11 566.394 1461.38 566.394C1461.71 566.394 1462.2 566.667 1462.58 566.94C1462.96 567.267 1467.66 570.488 1473.06 574.145C1486.77 583.371 1493.21 587.847 1493.42 588.339C1493.53 588.557 1493.81 588.776 1494.08 588.776C1494.3 588.776 1499.38 592.051 1505.33 596.091C1511.33 600.076 1518.54 604.552 1521.37 605.971C1524.21 607.391 1530.98 610.939 1536.39 613.887C1541.79 616.78 1548.94 620.602 1552.22 622.403C1555.55 624.15 1560.68 626.879 1563.68 628.463C1575.85 634.959 1618.65 655.375 1620.12 655.375C1621.49 655.375 1624 653.137 1624 651.882C1624 651.445 1620.67 641.455 1616.63 629.718C1612.59 617.981 1609.26 608.264 1609.26 608.1C1609.26 607.937 1608.06 604.552 1606.59 600.622C1605.06 596.636 1602 588.12 1599.76 581.679C1597.52 575.237 1590.37 555.203 1583.88 537.188C1577.33 519.173 1567.88 492.151 1562.86 477.139C1555.55 455.357 1552.27 446.405 1546.54 432.921C1542.55 423.586 1538.41 414.142 1537.31 411.904C1533.55 404.316 1513.51 372.053 1506.36 362.063C1502.43 356.604 1493.75 344.539 1486.98 335.205C1473.88 317.135 1472.63 315.279 1457.07 292.624C1451.5 284.49 1445.82 276.356 1444.46 274.555C1440.75 269.642 1406.47 230.61 1404.45 229.027C1401.99 227.116 1379.72 215.052 1369.07 209.811C1364.11 207.409 1350.02 200.585 1337.68 194.635C1325.4 188.685 1270 161.171 1214.59 133.494C1159.18 105.817 1111.8 82.3433 1109.23 81.3606C1103.61 79.177 1057.54 62.6908 1054.1 61.599C1052.02 60.944 1013.21 52.7555 1000.27 50.2443C998.146 49.8076 987.228 48.0061 975.983 46.2046C964.738 44.3486 946.615 41.4008 935.642 39.5992C886.458 31.5199 874.831 29.8822 808.179 21.5845C747.531 14.051 706.481 9.35632 652.875 3.89734C640.811 2.64172 629.075 2.04126 576.998 0.0760498C573.559 -0.0332031 570.12 -0.0332031 569.355 0.130615Z" fill="#328862"/>
</svg>
