<svg width="882" height="774" viewBox="0 0 882 774" fill="none" xmlns="http://www.w3.org/2000/svg">
<path d="M451.899 0.447021C440.369 1.60535 432.284 3.41095 419.492 7.77167C415.739 9.03223 414.238 9.61139 414.034 9.8158C413.931 9.91797 412.567 10.6675 410.964 11.451C404.516 14.7557 400.081 17.1404 397.25 18.8779C395.613 19.9 394.18 20.7176 394.112 20.7176C393.6 20.7176 384.355 26.2707 382.002 28.0082C380.398 29.2006 376.919 31.5854 374.292 33.3228C371.665 35.0603 369.448 36.5934 369.346 36.6956C369.107 36.9681 367.742 37.9221 361.875 41.9421C359.18 43.7818 356.758 45.5193 356.485 45.7918C356.212 46.0303 354.2 47.5974 352.016 49.1986C345.125 54.343 333.288 66.7778 328.478 73.9322C327.08 76.0444 325.238 78.7698 324.419 79.9963C323.191 81.8019 320.325 87.2869 318.858 90.7278C317.972 92.7037 316.232 96.5535 314.901 99.2789C314.083 101.016 313.4 102.481 313.4 102.584C313.4 102.686 312.957 103.776 312.377 104.968C311.831 106.195 311.354 107.319 311.354 107.489C311.354 107.626 310.501 109.908 309.443 112.531C308.386 115.155 307.294 117.948 306.987 118.732C306.646 119.549 306.305 120.197 306.168 120.197C305.998 120.197 305.896 120.401 305.896 120.64C305.896 120.878 304.872 123.433 303.644 126.329C302.416 129.225 301.017 132.529 300.54 133.654C300.062 134.778 298.766 137.606 297.64 139.956C296.514 142.307 294.672 146.361 293.547 148.984C286.212 166.121 280.106 173.309 268.371 178.794C266.973 179.441 265.779 180.089 265.71 180.225C265.642 180.395 265.438 180.498 265.233 180.498C265.028 180.498 264.073 180.872 263.118 181.315C258.24 183.632 254.897 184.824 250.257 185.778C247.903 186.289 245.959 186.562 236.305 187.822C234.326 188.061 231.256 188.538 229.482 188.81C227.709 189.117 224.877 189.628 223.172 189.9C221.5 190.173 219.351 190.548 218.396 190.752C216.485 191.093 212.597 191.604 207.48 192.115C204 192.49 199.668 192.353 195.028 191.74C193.63 191.536 191.105 191.263 189.4 191.059C182.27 190.275 180.462 189.969 175.243 188.64C173.844 188.299 171.934 187.822 170.979 187.618C166.749 186.732 157.641 184.824 153.922 184.075C150.306 183.359 144.302 181.962 139.765 180.838C138.912 180.6 137.923 180.293 137.548 180.123C137.173 179.952 134.41 179.203 131.408 178.419C123.63 176.443 119.263 176.103 112.066 176.852C98.3521 178.317 92.5529 179.169 90.1309 180.157C89.7557 180.293 88.1524 180.838 86.5491 181.349C78.9078 183.802 74.0978 186.085 68.4351 189.9C66.2859 191.331 62.6359 193.716 60.2821 195.215C52.6749 200.019 49.707 202.403 42.748 209.115C37.4605 214.259 35.7548 216.303 31.1496 223.321C29.2051 226.285 26.9878 229.556 26.2714 230.578C21.018 238.005 16.3445 246.726 12.865 255.618C10.6136 261.341 7.20226 269.756 4.91669 275.207C2.80168 280.249 1.67595 284.099 0.925469 288.835C-0.0979201 295.205 -0.166146 295.648 0.209097 297.079C0.857243 299.907 1.33483 301.61 1.60773 302.291C2.15354 303.654 5.97419 314.249 6.21298 315.067C6.69056 316.702 9.07847 321.54 10.2042 323.141C11.5005 325.049 17.0268 332.544 17.2997 332.783C17.402 332.885 17.8796 333.498 18.3913 334.213C18.903 334.895 19.5512 335.644 19.7899 335.917C20.0287 336.155 21.6662 338.199 23.3718 340.448C28.9663 347.738 36.9147 356.562 45.7499 365.25C52.9478 372.302 57.7577 376.492 64.3756 381.534C67.0023 383.544 69.8678 385.793 70.7889 386.542C71.6758 387.292 73.6202 388.791 75.1212 389.847C78.3278 392.163 81.1592 394.412 81.5344 395.059C81.705 395.298 81.9438 395.4 82.0803 395.298C82.2508 395.23 82.6602 395.468 83.0013 395.843C84.8093 397.853 91.359 401.464 96.783 403.44C98.1816 403.951 99.8872 404.598 100.535 404.837C102.241 405.518 105.686 406.438 111.793 407.869C119.434 409.674 127.621 412.127 129.122 413.047C129.531 413.32 129.873 413.456 129.873 413.354C129.873 412.945 138.503 417.646 140.448 419.145C143.245 421.292 147.372 425.516 148.942 427.833C152.933 433.693 158.323 443.368 160.745 449.125C162.143 452.362 162.996 454.645 163.303 455.769C164.293 459.618 164.668 461.39 165.179 464.286C167.567 478.356 167.67 486.464 165.486 496.14C164.668 499.819 162.962 505.508 162.553 506.019C162.416 506.19 162.28 506.53 162.28 506.803C162.28 507.041 161.939 507.961 161.563 508.847C161.154 509.699 160.028 512.356 159.039 514.707C158.016 517.057 156.788 519.885 156.276 521.009C155.764 522.134 155.321 523.224 155.287 523.394C155.184 523.803 150.92 532.661 148.566 537.362C146.588 541.28 145.803 542.472 142.017 547.412C138.401 552.148 129.804 560.733 126.12 563.288C124.517 564.378 121.378 566.831 119.127 568.705C116.876 570.579 113.908 573.032 112.509 574.156C109.985 576.2 109.371 576.677 102.241 581.787C98.318 584.615 97.4311 585.33 92.2118 589.793C87.7771 593.609 78.2255 603.148 74.9848 607.032C71.1982 611.597 68.7762 615.276 65.5355 621.374C56.4955 638.374 55.4039 640.555 54.6193 643.382C53.1866 648.629 53.016 650.026 52.9819 658.304C52.9478 665.867 53.016 666.651 53.6983 668.695C54.517 671.148 56.4955 675.1 57.7577 676.769C58.2012 677.348 58.5764 677.962 58.5764 678.098C58.5764 678.234 58.7811 678.507 59.054 678.711C59.4975 679.052 65.9448 686.956 67.1047 688.591C67.3776 688.966 68.128 689.749 68.708 690.26C69.322 690.805 69.8337 691.385 69.8337 691.555C69.8337 691.827 71.744 693.701 74.2002 695.779C74.8483 696.324 75.8035 697.176 76.3152 697.653C77.8161 699.05 82.0803 702.797 85.3551 705.659C87.0608 707.124 88.9029 708.793 89.5169 709.373C90.7791 710.565 92.8941 712.473 97.1241 716.084C98.7274 717.447 101.115 719.559 102.412 720.751C105.448 723.545 113.635 730.086 116.739 732.232C118.069 733.118 120.696 735.06 122.572 736.525C126.359 739.421 136.456 745.621 146.076 750.902C149.453 752.775 153.001 754.717 153.922 755.262C154.877 755.808 157.231 757.034 159.21 757.988C161.188 758.942 162.894 759.896 162.996 760.066C163.099 760.236 163.337 760.373 163.508 760.339C163.815 760.305 170.808 763.745 171.149 764.086C171.524 764.461 175.345 766.164 180.871 768.379C184.078 769.639 186.739 770.798 186.841 770.9C186.944 771.036 187.489 771.24 188.035 771.377C189.536 771.717 189.707 771.751 190.082 771.99C190.287 772.092 191.037 772.297 191.788 772.433C192.538 772.569 193.63 772.808 194.176 772.944C196.939 773.727 201.714 774 213.006 774C225.832 774 240.194 773.489 241.934 772.978C242.514 772.808 243.946 772.569 245.174 772.433C246.402 772.331 248.006 772.092 248.756 771.922C249.507 771.751 251.895 771.377 254.044 771.07C260.764 770.116 265.369 769.196 268.03 768.311C270.657 767.391 270.998 767.254 274.955 765.483C276.251 764.904 277.445 764.427 277.616 764.427C277.786 764.427 277.923 764.291 277.923 764.154C277.923 764.018 278.332 763.711 278.878 763.507C279.39 763.303 282.051 762.076 284.78 760.747C289.692 758.431 291.773 757.204 293.785 755.433C294.365 754.922 295.662 753.866 296.685 753.082C299.346 751.072 303.098 747.802 304.531 746.234C306.817 743.713 307.294 743.134 309.341 740.409C310.467 738.91 312.343 736.457 313.537 734.958C314.697 733.459 317.221 730.154 319.131 727.633C321.008 725.112 323.327 722.08 324.248 720.888C325.135 719.729 326.875 717.072 328.103 714.994C333.493 705.761 335.301 702.593 337.962 697.653C339.531 694.757 341.373 691.453 342.055 690.328C342.738 689.204 344.102 686.785 345.057 684.98C347.547 680.346 348.4 678.847 350.379 675.509C351.334 673.908 352.426 672.068 352.767 671.421C353.483 670.126 358.225 662.427 361.67 656.942C362.864 655.068 364.57 652.342 365.491 650.877C366.378 649.413 367.811 647.198 368.629 645.938C369.482 644.677 371.699 641.168 373.576 638.136C379.409 628.767 382.24 624.849 386.061 620.966C390.632 616.332 394.18 614.016 401.412 611.018C404.789 609.621 410.657 608.667 420.686 607.883C422.016 607.781 424.302 607.543 425.803 607.372C438.527 605.839 448.795 605.192 467.591 604.817C481.134 604.545 482.84 604.715 501.192 608.258C505.695 609.11 510.471 610.098 511.767 610.438C515.69 611.461 523.161 614.22 527.903 616.434C528.892 616.877 529.779 617.252 529.847 617.252C530.052 617.252 534.896 619.467 537.011 620.557C537.966 621 541.412 622.533 544.686 623.929C547.961 625.326 550.963 626.621 551.338 626.791C553.351 627.745 557.411 629.176 557.99 629.176C558.366 629.176 558.673 629.312 558.673 629.483C558.673 629.653 559.082 629.857 559.628 629.96C560.14 630.062 562.323 630.641 564.472 631.254C569.384 632.583 570.646 632.924 576.582 634.457C580.778 635.547 582.142 635.751 587.839 636.024C599.131 636.603 608.205 636.841 610.866 636.637C615.403 636.228 621.202 635.649 623.658 635.308C624.988 635.138 627.274 634.899 628.775 634.797C630.276 634.661 631.572 634.525 631.674 634.457C631.777 634.388 632.834 634.252 634.062 634.15C635.29 634.048 639.964 633.571 644.467 633.06C648.97 632.583 654.735 632.004 657.259 631.731C664.321 631.016 667.288 630.471 669.71 629.483C670.768 629.04 677.966 626.689 684.208 624.747C691.338 622.533 697.854 620.386 698.536 620.012C698.843 619.841 699.593 619.603 700.242 619.467C700.89 619.33 701.606 619.092 701.777 618.956C701.981 618.819 702.732 618.547 703.482 618.342C707.781 617.218 714.603 614.356 718.901 611.869C720.198 611.12 722.006 610.098 722.927 609.587C727.771 606.929 730.5 604.749 737.118 598.14C740.87 594.426 743.906 591.258 743.906 591.054C743.906 590.883 744.111 590.509 744.35 590.27C745.441 589.146 750.626 580.663 754.925 572.963C755.471 571.941 756.221 570.613 756.528 570.034C756.869 569.488 757.483 567.955 757.893 566.627C758.336 565.332 759.018 563.186 759.462 561.891C761.577 555.486 762.259 551.943 763.385 541.621C763.862 537.158 763.589 530.753 762.839 528.675C762.191 526.937 759.121 521.043 757.244 517.943C755.812 515.559 755.846 515.593 753.697 511.913C751.513 508.132 749.33 505.27 745.782 501.591C742.576 498.286 737.732 492.937 732.819 487.316C731.148 485.34 728.385 482.206 726.679 480.298C725.008 478.356 722.244 475.256 720.573 473.348C718.935 471.474 716.479 468.374 715.149 466.5C713.819 464.626 712.318 462.582 711.772 462.003C710.168 460.095 706.416 454.236 705.495 452.158C705.017 451.033 704.165 448.921 703.585 447.422C703.039 445.957 702.391 444.254 702.118 443.675C701.879 443.129 701.504 442.107 701.299 441.46C699.9 436.452 699.593 435.123 699.082 432.262C697.513 422.961 697.376 421.496 697.376 414.376C697.342 405.825 697.854 402.418 700.378 394.276C701.197 391.618 705.359 383.68 707.405 380.819C708.429 379.422 710.714 376.526 712.488 374.38C714.296 372.233 716.002 370.121 716.275 369.747C718.833 366.033 726.236 359.185 731.148 355.915C740.7 349.578 742.985 348.147 746.465 346.376C748.511 345.32 751.445 343.923 752.946 343.31C754.447 342.696 755.709 342.083 755.778 341.947C755.846 341.776 756.426 341.572 757.074 341.436C757.722 341.334 758.234 341.129 758.234 340.993C758.234 340.857 758.745 340.584 759.359 340.38C759.939 340.175 762.771 339.051 765.568 337.893C768.399 336.734 771.845 335.372 773.243 334.827C774.642 334.316 776.962 333.328 778.36 332.68C779.759 332.033 784.228 330.057 788.253 328.354C792.278 326.616 796.679 324.708 798.009 324.061C799.34 323.414 800.636 322.903 800.841 322.903C801.045 322.903 801.216 322.801 801.216 322.63C801.216 322.494 801.932 322.085 802.853 321.744C803.74 321.37 805.685 320.518 807.186 319.802C808.687 319.121 811.825 317.758 814.179 316.736C816.533 315.748 818.511 314.794 818.545 314.658C818.614 314.522 818.852 314.386 819.057 314.386C819.842 314.386 829.632 309.275 832.429 307.402C833.999 306.38 835.431 305.528 835.636 305.528C835.841 305.528 836.011 305.392 836.011 305.255C836.011 305.085 837.273 304.131 838.843 303.143C840.378 302.121 842.732 300.622 844.028 299.77C845.358 298.919 847.507 297.283 848.804 296.159C850.134 295.001 852.761 292.82 854.637 291.287C856.547 289.788 858.321 288.323 858.56 288.085C858.833 287.812 860.709 286.109 862.722 284.235C866.645 280.692 868.146 278.853 870.534 274.798C871.796 272.72 875.207 265.907 876.265 263.454C880.119 254.494 880.563 252.654 881.04 243.864C881.245 240.015 881.552 235.177 881.723 233.133C882.098 228.227 882.098 222.333 881.689 220.187C881.518 219.233 881.143 216.474 880.87 214.055C879.642 203.119 879.335 200.632 878.857 198.315C878.277 195.453 875.923 185.778 874.491 180.157C873.911 178.011 873.263 175.455 873.058 174.536C872.819 173.582 872.546 172.594 872.444 172.321C872.342 172.049 871.762 170.345 871.182 168.574C869.544 163.532 865.894 154.81 864.359 152.289C862.995 150.006 858.969 145.612 856.786 143.976C856.138 143.499 852.863 141.489 849.486 139.479C846.109 137.503 843.175 135.766 843.004 135.63C841.947 134.812 839.252 133.62 833.453 131.473C829.905 130.145 826.664 128.918 826.289 128.748C824.208 127.828 820.012 126.636 814.349 125.273C812.849 124.932 810.972 124.489 810.154 124.285C807.663 123.706 799.272 123.297 786.889 123.195C777.303 123.127 774.301 123.229 770.685 123.706C768.263 124.012 764.476 124.523 762.327 124.796C760.178 125.069 757.483 125.443 756.357 125.648C755.232 125.852 753.458 126.159 752.434 126.329C747.761 127.113 744.452 127.692 743.94 127.828C743.633 127.93 742.405 128.169 741.177 128.373C732.751 129.668 729.545 130.315 726.509 131.337C721.972 132.87 717.469 134.574 717.162 134.88C716.957 135.051 716.548 135.187 716.206 135.187C715.865 135.187 715.592 135.323 715.592 135.528C715.592 135.698 715.354 135.868 715.047 135.868C714.603 135.868 713.716 136.209 710.646 137.572C709.009 138.287 705.973 139.616 702.8 141.013C700.924 141.83 698.229 143.091 696.83 143.84C693.521 145.578 689.735 147.417 686.938 148.644C683.322 150.245 676.567 153.686 676.09 154.163C675.851 154.401 675.476 154.606 675.305 154.606C675.134 154.606 674.418 154.98 673.702 155.389C673.019 155.832 670.154 157.399 667.323 158.864C664.525 160.329 661.285 162.101 660.159 162.782C658.999 163.497 655.247 165.473 651.801 167.177C645.456 170.345 643.785 171.265 634.131 176.818C631.265 178.453 628.775 179.816 628.57 179.816C628.4 179.816 628.263 179.952 628.263 180.123C628.263 180.293 627.82 180.532 627.24 180.668C626.694 180.804 626.216 181.009 626.216 181.179C626.216 181.315 625.944 181.52 625.636 181.622C625.295 181.724 624.033 182.167 622.805 182.644C618.37 184.279 615.539 184.722 609.501 184.722C605.373 184.722 603.156 184.586 601.143 184.143C592.752 182.269 585.417 178.59 578.288 172.662C576.787 171.435 574.569 169.664 573.341 168.744C567.474 164.315 562.63 159.682 557.82 153.89C555.296 150.858 551.304 145.748 550.622 144.726C550.179 144.079 548.814 142.239 547.62 140.638C545.232 137.538 542.947 133.415 541.446 129.566C540.934 128.237 540.32 126.704 540.047 126.159C539.058 123.944 538 120.98 534.794 111.509C532.952 106.058 530.939 100.335 530.359 98.7338C528.176 92.9081 526.197 86.5034 524.219 78.7358C523.229 74.852 521.967 70.5253 521.456 69.2648C521.319 68.8901 520.944 67.6636 520.637 66.5394C520.296 65.4151 519.852 63.8139 519.613 62.9622C519.375 62.1105 518.419 58.8058 517.532 55.6375C515.895 49.6415 514.394 45.4511 512.654 41.7718C512.109 40.5793 510.846 37.7517 509.891 35.4351C507.708 30.2567 506.207 27.5653 503.956 24.7036C501.841 22.0122 500.169 19.8318 498.156 17.1404C496.178 14.4831 489.73 8.07831 487.479 6.57928C484.511 4.60333 479.838 2.42297 477.143 1.80975C475.744 1.46906 474.345 1.0943 474.073 0.992126C473.8 0.855835 472.708 0.719543 471.685 0.651428C470.661 0.617371 467.659 0.447021 465.033 0.276672C459.302 -0.132141 457.46 -0.0980835 451.899 0.447021Z" fill="#328862"/>
</svg>
