<svg width="1616" height="1027" viewBox="0 0 1616 1027" fill="none" xmlns="http://www.w3.org/2000/svg">
<path d="M1125.32 0.696533C1112.66 1.46143 1095.57 3.37347 1090.66 4.52069C1083.57 6.26892 1057.54 20.3638 1045.42 29.1047C1036.96 35.1142 1030.96 40.4134 1027.9 44.4015C1020.42 54.1805 1008.31 76.4153 1002.69 90.5648C997.994 102.529 997.067 111.707 997.067 147.709C997.067 170.326 997.23 176.609 998.104 185.787C998.704 191.851 999.304 201.248 999.468 206.711C999.686 212.119 1000.18 220.478 1000.67 225.285C1001.27 231.295 1001.6 242.767 1001.81 262.762L1002.09 291.498L999.741 294.066C996.848 297.235 994.774 298.163 990.845 298.163C988.062 298.163 987.625 298 984.678 295.486C982.932 294.011 978.402 289.641 974.582 285.707C970.762 281.829 962.248 273.361 955.753 266.914C949.205 260.523 939.217 250.361 933.487 244.352C923.391 233.808 913.731 224.63 894.739 207.749C889.663 203.214 884.424 198.571 883.06 197.314C872.199 187.645 859.483 175.79 845.076 161.804C835.798 152.79 825.974 143.393 823.246 141.044C815.442 134.106 801.798 122.797 797.323 119.574C795.085 117.935 790.228 114.166 786.571 111.27C775.111 102.092 762.34 94.1705 753.772 90.8926C751.152 89.8546 746.677 87.9972 743.839 86.7407C737.727 84.0091 732.324 82.8072 721.191 81.5507C712.35 80.5127 707.001 80.6766 694.449 82.1516C686.099 83.135 681.733 84.173 671.91 87.5601C656.356 92.8593 638.128 100.836 630.815 105.588C628.25 107.227 623.174 111.762 617.062 117.826C599.489 135.198 594.413 141.7 587.482 155.849C582.898 165.136 581.261 169.835 579.787 177.702C578.86 182.728 578.75 186.115 578.805 219.768C578.805 250.525 578.969 257.572 579.733 264.019C580.279 268.226 580.933 278.824 581.206 287.565C581.534 296.306 582.134 307.123 582.571 311.603C583.007 316.082 583.662 324.059 583.935 329.303C584.262 334.548 585.027 343.289 585.572 348.697C586.664 358.804 586.937 362.246 587.482 370.277C587.646 372.844 588.137 377.98 588.574 381.749C589.01 385.519 589.611 394.205 589.938 401.143C590.211 408.027 590.921 418.024 591.521 423.269C592.121 428.513 592.722 435.889 592.94 439.658C593.213 446.105 594.031 455.447 594.632 459.052C594.795 459.926 595.123 467.192 595.396 475.168C595.669 483.145 596.16 492.541 596.542 496.038C596.869 499.534 596.978 502.648 596.815 502.921C596.651 503.249 596.706 503.577 597.033 503.686C597.306 503.795 597.906 511.225 598.397 521.059C599.216 538.541 599.38 540.944 600.307 549.795C600.58 552.526 600.962 560.011 601.126 566.457C601.399 577.056 602.163 590.659 602.818 596.996C603.473 603.661 604.073 615.352 604.237 626.06L604.401 637.915L601.945 640.482C597.524 645.071 592.776 645.836 588.028 642.832C582.025 639.007 562.705 624.967 557.903 620.924C555.12 618.575 550.153 614.587 546.933 612.074C543.713 609.561 537.055 604.153 532.089 600.055C527.123 595.903 520.574 590.549 517.463 588.091C514.352 585.633 509.932 582.082 507.639 580.17C505.347 578.312 500.872 574.87 497.761 572.521C494.651 570.227 488.975 565.856 485.209 562.797C481.443 559.792 476.477 555.968 474.24 554.384C472.002 552.745 465.508 547.5 459.832 542.638C454.156 537.83 447.007 531.821 444.005 529.308C438.166 524.391 436.037 522.534 418.846 507.346C412.843 502.047 403.893 494.18 398.872 489.864C385.774 478.446 357.231 453.371 344.843 442.335C328.852 428.076 322.358 422.777 308.878 412.616C293.87 401.362 283.555 394.478 278.862 392.566C276.897 391.747 271.767 389.616 267.401 387.813C258.669 384.262 253.157 382.405 244.534 380.274C236.512 378.253 224.942 378.253 208.624 380.274C190.942 382.514 178.553 385.901 165.346 392.238C161.58 394.041 156.614 396.336 154.267 397.374C145.699 400.979 134.129 408.081 127.58 413.708C120.267 419.936 101.002 445.34 97.4002 453.534C93.0888 463.259 78.5719 506.417 73.6602 524.063C72.405 528.543 69.8945 537.284 68.0935 543.457C66.2926 549.631 60.5622 571.592 55.323 592.352C50.1384 613.058 45.0084 633.216 43.9715 637.15C42.9345 641.029 39.6055 654.796 36.5493 667.743C33.4931 680.636 28.7996 700.14 26.1255 710.957C22.1415 727.182 17.2298 748.871 16.0291 755.426C15.8654 756.191 13.1912 769.084 10.0805 784.108C2.65829 819.782 2.00339 823.442 1.34849 831.364C1.18477 833.003 0.85732 837.319 0.52987 840.924C-0.507052 853.708 -0.015878 866.218 1.94882 876.161C2.87659 880.75 6.26023 892.824 8.82525 900.745C10.4079 905.717 16.0291 918.227 16.9023 918.774C17.1206 918.938 17.7755 919.921 18.3213 920.959C18.9216 921.997 19.9039 923.636 20.6134 924.619C21.2683 925.548 21.8141 926.586 21.8141 926.914C21.8141 927.241 21.9778 927.515 22.2507 927.515C22.469 927.515 23.5059 928.771 24.5428 930.301C27.8719 935.163 36.2764 945.598 37.2587 946.035C37.5316 946.089 39.1143 947.455 40.8061 948.93C45.6633 953.191 56.3054 961.167 60.9442 964.063C69.6216 969.417 77.7533 973.132 87.8496 976.355C90.4146 977.174 92.8705 977.994 93.3071 978.158C93.7437 978.322 94.6169 978.54 95.2172 978.649C95.8176 978.704 99.6378 979.578 103.676 980.507C107.715 981.436 112.79 982.583 114.864 983.075C125.233 985.369 153.176 982.474 170.694 977.229C173.587 976.355 176.152 975.809 176.37 975.918C176.588 976.082 176.807 975.972 176.807 975.754C176.807 975.481 177.953 974.825 179.426 974.334C186.466 971.711 210.206 957.89 217.574 952.044C223.686 947.236 239.677 926.641 244.152 917.79C247.754 910.634 250.974 900.09 256.158 878.347C257.468 872.774 260.688 859.881 263.308 849.665C265.927 839.449 268.765 828.141 269.584 824.535C271.112 818.143 272.04 814.701 279.68 786.566C281.645 779.191 284.374 769.139 285.738 764.167C287.048 759.196 288.412 754.498 288.74 753.678C289.504 751.875 294.143 747.396 296.053 746.685C298.29 745.866 303.257 746.03 305.221 747.013C307.895 748.379 332.563 765.205 342.441 772.362C347.244 775.858 353.629 780.393 356.631 782.469C359.632 784.545 365.799 788.97 370.274 792.302C374.804 795.635 379.934 799.459 381.735 800.77C383.536 802.081 385.119 803.338 385.173 803.611C385.283 803.83 385.61 804.048 385.828 804.048C386.21 804.048 394.942 809.948 398.108 812.352C398.435 812.571 403.838 816.613 410.114 821.257C416.445 825.955 422.175 830.271 422.939 830.817C423.703 831.418 424.795 832.238 425.395 832.675C427.032 833.931 435.109 840.269 435.764 840.815C436.092 841.033 438.548 842.836 441.222 844.803C443.951 846.715 446.406 848.682 446.788 849.174C447.116 849.611 447.552 849.993 447.716 849.938C447.935 849.938 449.463 850.976 451.154 852.233C456.175 856.057 464.034 861.903 465.508 862.886C466.272 863.432 470.801 866.71 475.604 870.152C485.646 877.472 506.002 891.731 507.53 892.551C508.076 892.824 508.84 893.425 509.277 893.753C509.659 894.135 511.842 895.665 514.079 897.194C520.082 901.182 530.07 908.394 530.779 909.268C531.107 909.705 531.543 910.033 531.761 910.033C531.98 910.033 535.254 912.218 539.075 914.84C549.225 921.833 549.826 922.27 549.989 922.707C550.099 922.98 550.535 923.144 550.972 923.144C551.408 923.144 551.736 923.363 551.736 923.69C551.736 923.964 552.009 924.237 552.336 924.237C552.991 924.237 557.957 927.515 558.176 928.17C558.285 928.389 558.612 928.607 558.885 928.607C559.213 928.607 559.704 928.826 560.086 929.154C560.468 929.427 565.652 932.923 571.656 936.857C577.659 940.845 582.625 944.286 582.734 944.505C582.844 944.778 583.171 944.997 583.444 944.997C584.099 944.997 592.34 950.514 592.558 951.115C592.667 951.334 593.104 951.552 593.54 951.552C593.977 951.552 594.304 951.771 594.304 952.099C594.304 952.372 594.632 952.645 595.014 952.645C595.341 952.645 597.688 953.956 600.089 955.54C604.946 958.654 604.619 958.436 611.222 962.26C613.787 963.735 615.916 965.101 616.025 965.319C616.134 965.593 616.571 965.756 616.953 965.756C617.662 965.756 624.266 969.362 624.866 970.072C625.139 970.4 627.54 971.711 632.78 974.388C634.308 975.153 635.617 975.918 635.781 976.082C636.163 976.573 646.587 981.654 653.518 984.713C668.035 991.215 696.905 1005.2 696.905 1005.69C696.905 1005.97 697.342 1006.18 697.887 1006.18C698.378 1006.18 699.907 1006.84 701.271 1007.6C702.635 1008.37 706.783 1010.23 710.549 1011.7C714.314 1013.18 717.807 1014.65 718.298 1014.92C718.844 1015.25 719.608 1015.47 720.045 1015.47C720.481 1015.47 721.518 1015.74 722.391 1016.13C723.21 1016.45 724.247 1016.78 724.684 1016.89C725.993 1017.16 735.38 1020.55 735.653 1020.88C735.926 1021.21 736.472 1021.37 738.655 1021.81C739.692 1022.03 742.966 1022.96 748.205 1024.54C751.698 1025.58 760.976 1027 764.578 1027C768.016 1027.05 786.299 1025.96 789.082 1025.58C790.119 1025.41 793.721 1024.65 796.995 1023.83C800.324 1023.01 803.271 1022.41 803.544 1022.52C803.817 1022.57 804.199 1022.41 804.363 1022.14C804.527 1021.86 806.164 1021.1 807.965 1020.44C813.477 1018.42 820.572 1014.38 831.159 1007.28C851.516 993.673 860.902 985.861 867.342 977.174C872.745 969.745 880.822 956.797 884.642 949.312C889.663 939.479 890.646 936.365 894.302 919.866C895.557 914.075 895.83 894.244 894.793 885.722C894.302 881.788 893.538 874.686 893.102 869.879C892.665 865.071 891.956 857.423 891.519 852.943C891.082 848.409 890.591 840.924 890.373 836.281C890.209 831.637 889.827 825.955 889.554 823.715C889.008 819.126 888.299 811.205 887.098 796.673C885.516 777.934 883.606 756.246 883.005 751.329C882.732 748.598 882.459 744.609 882.459 742.424C882.459 740.184 881.859 732.809 881.095 726.035C880.386 719.206 879.512 709.208 879.185 703.8C878.858 698.391 878.366 692.491 878.093 690.688C877.821 688.886 877.493 685.553 877.275 683.313C876.347 671.13 875.256 660.368 874.819 658.456C874.492 657.254 874.055 650.862 873.727 644.252C873.182 631.523 872.909 627.262 872.036 620.214C871.763 617.81 871.053 608.687 870.453 600.001C869.853 591.26 869.089 582.792 868.816 581.153C868.543 579.514 868.161 573.122 867.997 566.949C867.615 555.804 867.615 555.749 868.925 553.837C869.634 552.799 871.272 551.16 872.527 550.177C874.655 548.593 875.31 548.374 878.366 548.374C883.06 548.374 885.461 549.631 895.285 557.388C897.14 558.863 900.633 561.595 902.98 563.398C905.326 565.201 909.856 568.916 913.021 571.647C924.045 581.044 935.997 590.386 950.296 600.82C952.916 602.732 955.044 604.535 955.044 604.754C955.044 604.972 955.426 605.191 955.863 605.191C956.299 605.191 956.681 605.409 956.681 605.737C956.681 606.01 957.009 606.283 957.391 606.283C957.773 606.283 959.137 607.157 960.338 608.195C961.593 609.233 962.739 610.107 962.957 610.107C963.503 610.107 968.906 614.041 969.124 614.587C969.233 614.86 969.67 615.024 970.107 615.024C970.543 615.024 970.871 615.243 970.871 615.571C970.871 615.844 971.144 616.117 971.471 616.117C972.126 616.117 987.189 626.77 988.062 627.808C988.389 628.19 989.208 628.846 989.972 629.228C991.718 630.157 999.468 635.893 999.686 636.44C999.795 636.713 1000.23 636.877 1000.67 636.877C1001.11 636.877 1001.6 637.259 1001.76 637.696C1001.98 638.133 1002.36 638.516 1002.63 638.516C1003.29 638.516 1008.69 642.394 1008.96 642.995C1009.07 643.269 1009.4 643.432 1009.67 643.432C1010 643.432 1011.69 644.416 1013.49 645.618C1015.29 646.82 1017.04 647.803 1017.31 647.803C1017.59 647.803 1017.81 648.021 1017.81 648.295C1017.81 648.568 1018.35 649.005 1019.01 649.223C1020.48 649.66 1026.21 653.266 1026.43 653.922C1026.54 654.14 1026.86 654.359 1027.14 654.359C1027.46 654.359 1029.1 655.287 1030.79 656.435C1035.27 659.33 1035.49 659.439 1054.37 668.945C1063.81 673.698 1071.67 677.686 1071.83 677.85C1072 678.014 1072.49 678.178 1073.03 678.287C1074.29 678.506 1084.93 683.204 1085.86 683.969C1086.3 684.351 1087.06 684.679 1087.55 684.788C1088.64 684.952 1103.11 691.508 1103.49 692C1103.65 692.163 1104.14 692.382 1104.58 692.491C1105.02 692.601 1107.96 693.639 1111.13 694.84C1119.04 697.79 1135.63 702.707 1141.47 703.855C1148.02 705.111 1160.79 705.111 1168.43 703.855C1177.05 702.434 1177.11 702.434 1181.53 701.505C1183.77 701.068 1186 700.631 1186.44 700.577C1186.88 700.467 1187.64 700.304 1188.08 700.14C1188.52 699.921 1194.57 697.9 1201.45 695.605C1216.08 690.743 1220.17 688.886 1225.74 684.624C1233.21 678.888 1244.51 669.273 1247.35 666.323C1259.03 653.867 1267.1 639.772 1275.56 617.21C1279.49 606.666 1280.15 603.224 1280.8 589.074C1281.13 582.464 1281.57 574.215 1281.73 570.773C1281.89 567.331 1281.73 561.049 1281.4 556.842C1281.07 552.635 1280.58 543.02 1280.31 535.536C1279.76 520.731 1279.6 517.999 1278.4 508.493C1277.2 498.769 1275.78 476.534 1276.11 472.546C1276.38 468.94 1276.38 468.94 1279.93 465.499L1283.48 462.057H1287.57C1291.12 462.057 1292.97 462.494 1301.43 465.28C1306.78 467.083 1312.51 469.05 1314.15 469.705C1326.7 474.568 1363.92 486.641 1370.85 488.061C1371.61 488.225 1372.43 488.498 1372.76 488.717C1373.09 488.881 1373.69 489.099 1374.18 489.154C1374.62 489.209 1379.04 490.411 1384 491.831C1388.97 493.251 1396.72 495.491 1401.19 496.748C1405.72 498.059 1410.96 499.534 1412.93 500.026C1414.89 500.517 1416.86 501.064 1417.29 501.227C1418.22 501.61 1418.71 501.719 1420.57 502.102C1421.33 502.266 1425.64 503.14 1430.12 504.123C1439.83 506.144 1438.85 505.98 1447.04 507.401C1450.64 508.056 1456.53 509.258 1460.13 510.187C1467.28 511.881 1475.2 513.301 1480.33 513.738C1482.13 513.902 1485.68 514.23 1488.24 514.503C1497.85 515.596 1502.98 515.869 1512.25 515.814C1523.11 515.814 1527.86 514.885 1536.27 511.28C1551.22 504.833 1562.19 496.311 1580.42 477.081C1588.88 468.121 1592.64 462.931 1598.86 451.732C1607.27 436.653 1611.8 421.794 1615.4 397.701C1615.73 395.407 1616 385.901 1616 376.122C1616 355.799 1615.95 355.526 1610.65 343.617C1607.05 335.477 1604.48 330.505 1599.9 323.021C1597.28 318.705 1595.04 316.028 1589.15 310.182C1580.69 301.714 1573.87 296.634 1559.13 287.674C1542.21 277.458 1541.78 277.185 1525.41 271.394C1506.9 264.838 1505.54 264.401 1492.61 260.905C1475.96 256.371 1472.47 255.333 1457.95 250.416C1439.67 244.242 1421.11 237.304 1410.47 232.606C1407.2 231.131 1402.23 228.946 1399.45 227.798C1394.04 225.504 1377.4 216.49 1371.07 212.447C1362.66 207.039 1350.77 198.68 1346.62 195.184C1344.22 193.162 1340.18 189.884 1337.61 187.918C1324.02 177.374 1310.22 164.426 1295.7 148.747C1281.89 133.833 1281.29 133.177 1274.63 123.999C1267.32 113.947 1263.88 108.484 1250.68 86.4675C1233.7 58.1139 1233.16 57.3491 1218.26 42.1616C1203.91 27.5204 1195.01 20.5276 1178.09 10.5848C1168 4.63 1162.05 2.4447 1151.24 0.696533C1145.56 -0.232178 1140.87 -0.232178 1125.32 0.696533Z" fill="#328862"/>
</svg>
