<svg width="265" height="427" viewBox="0 0 265 427" fill="none" xmlns="http://www.w3.org/2000/svg">
<path d="M139.373 0.544312C139.113 0.879578 138.398 1.88535 137.774 2.78906C136.669 4.36328 136.266 4.96091 133.368 9.17343C132.601 10.2958 131.795 11.4765 131.574 11.7826C131.366 12.0887 131.041 12.5551 130.859 12.8175C130.677 13.0798 129.338 15.0185 127.87 17.132C126.401 19.2456 125.049 21.2134 124.854 21.4903C124.672 21.7673 122.982 24.2015 121.124 26.8835C119.252 29.5655 117.523 32.058 117.276 32.4225C117.029 32.7869 115.755 34.6235 114.456 36.5038C113.143 38.3987 111.089 41.3723 109.867 43.1214C108.658 44.8705 107.307 46.8237 106.878 47.4505C106.449 48.0627 104.525 50.8613 102.588 53.6454C100.665 56.4294 98.9618 58.8928 98.8188 59.1115C98.6758 59.3301 97.571 60.9335 96.3491 62.6826C93.8795 66.2246 93.5155 66.7348 91.4488 69.7521C90.643 70.9328 89.0962 73.1629 88.0303 74.708C85.4177 78.4832 85.5997 78.2354 83.715 80.9466C82.7921 82.2585 81.7262 83.8035 81.3363 84.3866C80.3874 85.7713 77.7358 89.6049 77.2419 90.2899C77.0339 90.596 76.631 91.1645 76.371 91.5435C76.098 91.937 75.0842 93.4092 74.1093 94.8086C73.1345 96.2079 71.9386 97.9424 71.4447 98.6713C70.9638 99.3855 69.9499 100.872 69.196 101.951C68.4291 103.03 67.3893 104.531 66.8694 105.274C66.3624 106.032 65.4916 107.271 64.9586 108.044C63.3209 110.42 63.2169 110.565 62.8789 111.061C62.697 111.323 61.3841 113.233 59.9414 115.303C58.5116 117.387 56.7828 119.894 56.1069 120.885C55.431 121.877 54.4301 123.349 53.8712 124.165C51.3106 127.882 50.5697 128.99 50.2187 129.544C49.9978 129.879 49.5038 130.608 49.1139 131.162C47.8141 132.969 42.7058 140.549 41.484 142.473C41.211 142.925 40.6651 143.712 40.3012 144.222C39.9242 144.747 39.1443 145.884 38.5724 146.773C37.3766 148.595 34.9719 152.166 33.8411 153.798C33.4251 154.411 32.8402 155.285 32.5413 155.737C31.7614 156.947 29.8117 159.731 28.9018 160.926C28.4599 161.495 27.784 162.428 27.394 163.011C27.0041 163.594 26.0812 164.935 25.3403 165.999C24.6124 167.048 23.6765 168.389 23.2606 168.987C22.8577 169.584 22.3377 170.299 22.1168 170.59C21.8958 170.882 20.713 172.529 19.4781 174.249C18.2563 175.969 16.9695 177.776 16.6316 178.243C16.2936 178.724 15.5787 179.744 15.0458 180.517C13.0701 183.374 12.3682 184.379 11.5363 185.472C10.6264 186.697 8.78068 189.277 7.63684 190.924C7.2469 191.492 6.48 192.615 5.92108 193.417C5.36216 194.218 4.69926 195.166 4.45229 195.53C4.20533 195.894 3.38645 197.075 2.61956 198.154C0.136913 201.725 -0.0450613 202.002 0.00693122 202.235C0.0329275 202.352 1.30675 204.713 2.82753 207.483C4.34831 210.252 5.98608 213.226 6.46701 214.115C6.94794 214.989 7.63684 216.243 8.00079 216.884C8.36474 217.526 9.06664 218.808 9.56056 219.727C10.0545 220.645 11.1203 222.598 11.9392 224.056C12.7581 225.528 13.655 227.16 13.9409 227.685C14.2269 228.21 14.8768 229.391 15.3707 230.294C15.8777 231.198 16.8135 232.903 17.4504 234.07C18.1003 235.25 19.0622 237.014 19.6081 237.991C20.154 238.967 21.0639 240.614 21.6358 241.664C22.2078 242.699 23.2086 244.506 23.8455 245.672C26.4971 250.468 27.8619 252.96 28.5119 254.126C28.8758 254.811 29.7337 256.342 30.3966 257.552C31.5274 259.622 33.2432 262.755 34.0101 264.169C34.192 264.519 34.556 265.175 34.8159 265.627C35.3099 266.487 35.3879 266.633 38.0135 271.399C38.9364 273.075 40.4571 275.83 41.38 277.521C42.3159 279.197 43.6417 281.632 44.3436 282.914C45.8124 285.611 48.0611 289.707 48.438 290.348C48.75 290.888 50.9466 294.896 51.4796 295.887C51.6875 296.281 52.3894 297.563 53.0393 298.73C54.4041 301.207 54.7421 301.805 56.4449 304.924C57.1468 306.207 57.9136 307.577 58.1346 307.985C58.3556 308.379 59.0315 309.603 59.6164 310.682C60.2143 311.761 60.9292 313.058 61.2022 313.553C61.4881 314.064 61.9301 314.88 62.216 315.376C62.489 315.886 63.2429 317.241 63.8798 318.407C64.5297 319.573 66.0895 322.416 67.3633 324.748C68.6371 327.066 70.2879 330.083 71.0418 331.453C71.7957 332.809 72.6145 334.325 72.8875 334.806C73.1475 335.287 73.6024 336.103 73.8884 336.628C75.7601 340.009 77.3199 342.822 78.3857 344.79C79.0746 346.029 79.8805 347.501 80.2055 348.07C80.7254 349.003 81.4273 350.271 84.3259 355.577C84.8848 356.582 86.2496 359.075 87.3804 361.116C88.5113 363.156 89.9021 365.678 90.474 366.727C91.0459 367.762 91.7218 369.016 91.9948 369.497C93.0086 371.334 93.6715 372.529 95.1143 375.167C97.077 378.738 101.522 386.828 104.161 391.58C104.928 392.979 105.838 394.626 106.163 395.224C106.488 395.822 108.034 398.649 109.607 401.492C111.167 404.334 113.091 407.847 113.897 409.29C114.69 410.733 115.911 412.963 116.626 414.246C117.328 415.529 118.407 417.496 119.031 418.619C119.642 419.741 120.474 421.242 120.864 421.942C121.254 422.656 121.877 423.793 122.267 424.493C122.657 425.193 123.112 426.038 123.281 426.373C123.463 426.723 123.684 427 123.775 427C123.944 427 124.763 425.805 131.964 415.062C134.252 411.651 136.487 408.328 136.916 407.687C137.358 407.045 138.944 404.684 140.439 402.439C141.934 400.194 145.053 395.53 147.367 392.09C151.773 385.531 153.411 383.082 154.672 381.202C156.271 378.797 168.242 360.941 171.205 356.539C172.934 353.988 174.806 351.204 175.378 350.344C178.094 346.233 178.666 345.402 183.242 338.595C185.282 335.564 187.323 332.517 187.791 331.803C188.259 331.103 190.287 328.086 192.288 325.083C194.303 322.095 198.411 315.973 201.439 311.484C204.455 306.994 207.769 302.038 208.809 300.479C209.849 298.919 211.045 297.141 211.448 296.543C214.333 292.287 215.659 290.304 215.997 289.751C216.101 289.576 217.154 288.016 218.337 286.267C219.52 284.518 220.897 282.462 221.391 281.69C221.898 280.917 222.977 279.299 223.796 278.104C225.317 275.889 226.642 273.935 227.11 273.236C230.672 267.886 233.168 264.155 237.6 257.552C240.551 253.135 244.957 246.576 247.362 242.976C249.779 239.361 251.885 236.212 252.054 235.979C253.224 234.259 255.472 230.921 258.878 225.849C261.062 222.598 263.323 219.216 263.921 218.342C264.506 217.453 265 216.593 265 216.432C265 216.257 264.337 214.975 263.531 213.59C260.139 207.759 258.592 205.077 257.123 202.527C256.278 201.04 255.108 199.028 254.536 198.037C253.965 197.061 252.678 194.845 251.677 193.11C250.676 191.376 248.934 188.373 247.79 186.449C246.66 184.51 245.464 182.441 245.126 181.858C244.437 180.633 242.318 177.062 241.109 175.08C240.654 174.351 240.252 173.637 240.2 173.505C240.148 173.374 239.719 172.616 239.238 171.829C237.743 169.395 236.742 167.704 236.404 167.106C236.222 166.8 235.702 165.897 235.234 165.11C234.766 164.322 233.635 162.398 232.726 160.839C231.816 159.279 230.204 156.524 229.151 154.717C228.098 152.909 227.058 151.131 226.85 150.752C226.629 150.373 225.902 149.119 225.213 147.983C223.965 145.884 222.509 143.406 220.871 140.578C220.39 139.732 219.572 138.319 219.052 137.444C218.545 136.555 217.713 135.126 217.219 134.266C216.283 132.634 215.568 131.38 213.852 128.407C212.189 125.535 207.639 117.868 206.677 116.338C206.196 115.536 205.391 114.18 204.884 113.306C204.39 112.431 203.272 110.565 202.414 109.166C201.556 107.752 200.62 106.193 200.334 105.697C200.048 105.187 199.528 104.327 199.177 103.773C198.826 103.234 198.008 101.893 197.345 100.799C196.058 98.6421 194.55 96.1787 192.847 93.3947C191.626 91.3977 190.716 89.8527 189.936 88.4825C189.325 87.433 187.089 83.5703 185.126 80.2324C183.671 77.7253 183.138 76.807 182.384 75.4659C182.111 74.9558 181.448 73.7751 180.928 72.8423C178.64 68.7463 178.211 67.9592 177.263 66.2392C176.717 65.2335 175.976 63.907 175.625 63.2948C173.922 60.3067 173.259 59.1115 172.752 58.164C172.453 57.5956 171.634 56.1088 170.919 54.8698C169.035 51.5756 167.54 48.8498 165.096 44.2729C163.9 42.0428 162.77 39.9583 162.575 39.6377C162.367 39.317 161.873 38.457 161.47 37.7428C160.287 35.6584 158.519 32.6411 157.505 30.9794C156.518 29.3323 155.53 27.5977 154.581 25.8632C153.996 24.7845 152.943 22.8459 152.241 21.5632C151.539 20.2805 150.772 18.8666 150.538 18.4293C150.304 17.992 149.784 17.0737 149.395 16.3886C149.005 15.7036 148.381 14.5958 148.004 13.9107C147.64 13.2256 147.146 12.3802 146.912 12.0158C146.678 11.6514 146.34 11.0246 146.158 10.631C145.976 10.2229 145.183 8.77988 144.39 7.42429C143.61 6.05414 142.571 4.26126 142.09 3.41583C140.348 0.369415 140.166 0.0778809 139.997 0.00500488C139.906 -0.0387268 139.633 0.209076 139.373 0.544312Z" fill="#E25D35"/>
</svg>
