<svg width="1067" height="929" viewBox="0 0 1067 929" fill="none" xmlns="http://www.w3.org/2000/svg">
<path d="M1062.39 0.878896C1061.78 0.287264 1059.5 -0.120289 1058.74 0.213298C1058.56 0.292724 1057.37 2.06557 1056.04 4.11336C1049.81 14.0381 1047.01 18.4964 1045.97 20.3294C1045.3 21.4411 1044.74 22.2059 1044.66 22.0262C1044.6 21.8824 1044.47 21.9819 1044.42 22.2611C1044.34 22.7676 1039.68 30.5851 1038.7 31.7879C1038.44 32.1624 1038.07 32.7959 1037.88 33.1386C1037.74 33.5014 1036.42 35.6729 1034.96 37.9957C1033.48 40.2825 1032.2 42.3503 1032.06 42.6253C1031.96 42.8844 1031.35 43.8407 1030.78 44.6932C1030.19 45.5976 1028.1 48.9284 1026.15 52.1079C1024.19 55.2515 1022.48 57.8969 1022.34 57.9605C1022.19 58.024 1021.86 58.6417 1021.62 59.3513C1021.37 60.0609 1020.97 60.7103 1020.72 60.8215C1020.5 60.9168 1020.22 61.3431 1020.1 61.7418C1019.99 62.1764 1019.76 62.4472 1019.66 62.4071C1019.5 62.347 1019.18 62.7891 1018.94 63.411C1018.51 64.4633 1016.92 67.097 1014.6 70.6108C1013.94 71.6348 1012.36 74.1808 1011.06 76.3004C1009.76 78.4201 1007.79 81.6515 1006.69 83.4284C1005.58 85.2054 1003.45 88.6399 1001.98 91.0504C1000.47 93.4768 999.045 95.696 998.817 96.0546C998.573 96.3772 997.964 97.3334 997.503 98.1383C997.042 98.9433 996.013 100.601 995.252 101.796C992.929 105.485 986.143 116.386 980.687 125.239C979.505 127.136 976.741 131.578 974.53 135.132C972.303 138.65 970.224 142.017 969.895 142.635C969.55 143.217 968.557 144.858 967.628 146.257C966.715 147.691 964.848 150.663 963.474 152.902C960.513 157.775 957.313 162.883 955.081 166.489C950.126 174.433 948.48 177.223 942.877 187.3C940.488 191.62 939.334 193.676 938.108 195.764C937.667 196.517 936.068 199.414 934.545 202.191C933.002 205.021 931.387 207.882 930.983 208.619C929.528 211.065 924.31 220.458 923.152 222.602C922.515 223.785 910.428 245.446 909.719 246.662C909.354 247.295 907.374 250.79 905.371 254.424C903.347 258.11 900.229 263.697 898.457 266.885C896.686 270.072 894.971 273.193 894.626 273.774C894.297 274.392 893.163 276.396 892.121 278.317C891.063 280.202 888.558 284.745 886.519 288.395C884.479 292.045 882.495 295.627 882.09 296.364C881.67 297.066 881.169 297.974 880.992 298.353C880.764 298.711 878.047 303.649 874.873 309.303C871.699 314.957 869.062 319.687 869.017 319.879C868.957 320.034 868.476 320.891 867.939 321.815C867.418 322.776 866.937 323.632 866.877 323.788C866.817 323.943 866.336 324.8 865.815 325.76C865.278 326.685 864.757 327.645 864.605 327.884C863.366 330.235 859.723 336.87 856.974 341.736C855.111 345.007 853.436 348.024 853.259 348.402C853.067 348.745 852.602 349.637 852.197 350.375C851.828 351.096 851.191 352.28 850.786 353.017C850.417 353.738 849.223 355.898 848.181 357.819C846.177 361.453 844.902 363.82 842.389 368.538C841.523 370.08 840.365 372.224 839.736 373.232C839.123 374.276 838.562 375.34 838.457 375.687C838.373 375.982 837.691 377.357 836.978 378.66C835.611 381.111 832.682 386.442 831.387 388.861C830.962 389.65 830.193 391.021 829.708 391.965C829.171 392.89 828.453 394.281 828.064 395.054C827.711 395.811 827.018 397.062 826.557 397.867C826.096 398.672 824.685 401.314 823.406 403.769C822.092 406.24 820.833 408.643 820.529 409.121C820.224 409.599 819.146 411.536 818.16 413.389C816.02 417.298 815.499 418.258 812.761 423.247C811.699 425.22 810.637 427.192 810.461 427.571C810.164 428.26 808.581 431.193 806.132 435.668C805.499 436.764 804.801 438.103 804.508 438.705C803.827 440.08 800.705 445.754 799.463 447.806C798.906 448.783 798.416 449.815 798.384 450.13C798.351 450.445 798.051 450.835 797.799 450.946C797.512 451.074 797.323 451.329 797.387 451.472C797.466 451.652 796.604 453.493 795.45 455.549C794.276 457.657 792.712 460.538 791.903 462.013C791.145 463.507 789.794 465.994 788.929 467.536C788.079 469.114 786.84 471.465 786.195 472.824C785.549 474.183 784.085 477.192 782.955 479.496C781.84 481.835 780.725 484.175 780.488 484.709C780.267 485.279 779.614 486.426 779.045 487.279C778.477 488.131 777.163 490.215 776.149 491.909C775.12 493.566 774.034 495.291 773.734 495.682C773.45 496.108 771.876 498.478 770.242 501.004C768.623 503.566 766.922 506.036 766.458 506.542C765.993 507.047 765.581 507.573 765.521 507.729C765.477 507.92 764.64 508.848 763.66 509.839C762.68 510.831 761.068 512.531 760.12 513.594C759.151 514.709 757.835 516.107 757.207 516.728C756.543 517.365 755.247 518.71 754.283 519.738C753.043 521.016 752.423 521.461 752.224 521.206C751.433 520.095 745.946 511.567 741.645 504.748C738.961 500.522 736.305 496.456 735.776 495.745C735.211 495.049 733.032 491.674 730.909 488.231C728.786 484.788 726.687 481.592 726.237 481.061C725.768 480.581 723.505 477.114 721.147 473.431C718.826 469.732 715.792 465.102 714.428 463.085C713.08 461.104 710.858 457.533 709.439 455.196C706.068 449.513 705.332 448.334 704.867 447.767C704.668 447.511 702.513 443.996 700.137 439.978C697.76 435.96 695.001 431.467 694.015 430.013C693.029 428.559 690.238 423.993 687.829 419.903C685.421 415.813 683.282 412.334 683.111 412.238C682.617 411.898 678.177 404.282 674.343 397.257C670.013 389.206 669.834 388.898 668.494 386.741C667.957 385.819 665.16 380.655 662.32 375.295C659.479 369.936 656.587 364.557 655.907 363.311C655.192 362.08 654.37 360.511 653.996 359.86C653.658 359.193 651.874 356.03 650.094 352.779C648.294 349.58 644.933 343.334 642.593 338.913C638.302 330.758 637.802 329.82 634.666 324.376C632.409 320.434 629.672 315.115 621.855 299.756C619.134 294.473 616.166 288.826 615.24 287.217C614.314 285.607 609.881 277.129 605.408 268.367C600.936 259.606 596.538 251.112 595.576 249.518C594.614 247.924 590.36 239.754 586.062 231.387C581.8 223.005 576.655 213.209 574.701 209.563C572.762 205.953 570.191 201.204 569.043 199.092C566.735 194.743 566.109 194.203 563.687 194.457C562.697 194.551 562.157 194.789 561.709 195.331C561.201 196.028 556.399 204.807 554.395 208.828C553.95 209.669 552.847 211.745 551.921 213.443C551.016 215.088 549.453 217.969 548.466 219.822C547.496 221.711 546.125 224.25 545.432 225.501C544.775 226.736 542.787 230.406 541.083 233.65C539.38 236.894 537.391 240.564 536.734 241.8C536.041 243.051 534.846 245.211 534.129 246.601C533.375 248.008 532.181 250.168 531.524 251.403C530.83 252.655 530.189 253.926 530.017 254.217C529.78 254.751 525.487 262.832 523.888 265.729C522.385 268.455 516.26 279.88 514.344 283.518C513.747 284.598 511.795 288.252 509.995 291.668C506.268 298.597 505.823 299.438 501.357 307.811C499.598 311.122 497.59 314.844 496.932 316.08C494.023 321.359 490.604 327.723 490.15 328.74C489.918 329.186 489.088 330.712 488.319 332.083C487.185 334.087 483.433 341.157 481.729 344.401C481.593 344.676 480.631 346.389 479.609 348.258C477.437 352.095 476.916 353.056 474.158 358.097C471.649 362.727 470.84 364.202 470.483 365.047C470.154 365.664 468.915 368.015 466.33 372.765C465.693 373.949 464.458 376.212 463.609 377.79C462.759 379.368 461.272 382.13 460.29 383.895C459.324 385.696 458.418 387.342 458.266 387.581C458.166 387.84 456.891 390.207 455.428 392.829C452.378 398.472 450.679 401.628 450.306 402.437C450.185 402.748 449.38 404.135 448.59 405.557C447.749 406.96 446.318 409.654 445.364 411.579C444.394 413.468 443.436 415.093 443.256 415.173C443.041 415.268 442.888 415.507 442.88 415.683C442.883 415.982 440.362 420.876 437.917 425.263C437.284 426.359 436.354 428.144 435.829 429.192C435.267 430.256 434.125 432.436 433.223 433.994C432.338 435.588 430.967 438.126 430.173 439.637C429.359 441.199 427.913 443.857 426.951 445.57C426.025 447.268 424.422 450.252 423.38 452.173C422.389 454.114 421.508 455.62 421.46 455.512C421.397 455.369 420.623 456.827 419.953 458.326C419.833 458.637 419.292 459.649 418.755 460.573C418.234 461.534 417.753 462.39 417.692 462.546C417.632 462.701 417.207 463.49 416.731 464.259C416.254 465.028 415.485 466.399 415.035 467.328C414.622 468.24 413.985 469.424 413.68 469.902C413.34 470.396 412.875 471.289 412.582 471.89C412.29 472.492 411.805 473.437 411.496 474.002C409.993 476.728 407.768 480.932 406.706 482.905C406.085 484.124 404.341 487.472 402.834 490.285C400.529 494.697 398.745 498.148 397.598 500.415C396.901 501.754 396.628 502.304 395.065 505.185C394.159 506.831 393.417 508.362 393.425 508.573C393.416 508.749 393.192 509.019 392.905 509.146C392.617 509.274 392.465 509.513 392.528 509.656C392.719 510.088 389.276 516.204 385.415 522.248C383.473 525.34 381.646 528.208 381.378 528.671C378.681 533.169 377.219 535.404 376.932 535.531C376.716 535.627 376.524 535.969 376.491 536.284C376.458 536.599 375.725 537.954 374.872 539.233C374.035 540.548 373.229 541.935 373.053 542.313C372.892 542.728 371.767 544.557 370.569 546.417C369.356 548.242 367.021 551.807 365.407 554.282C363.793 556.756 362.046 559.417 361.554 560.15C361.061 560.883 359.756 562.791 358.695 564.377C352.495 573.687 350.749 576.349 350.08 577.46C348.914 579.393 346.095 583.516 345.879 583.611C345.771 583.659 345.599 583.95 345.427 584.241C344.685 585.771 343.251 588.166 341.873 590.106C341.025 591.297 338.954 594.488 337.275 597.205C335.545 599.903 334.011 602.169 333.832 602.249C333.688 602.312 333.327 602.858 333.071 603.444C332.814 604.03 331.896 605.552 331.007 606.847C330.103 608.106 328.965 609.811 328.433 610.647C327.936 611.468 326.987 612.918 326.378 613.875C325.769 614.831 323.47 618.381 321.283 621.795C319.132 625.193 317.254 628.042 317.11 628.106C316.894 628.201 313.823 632.435 311.869 635.403C311.376 636.136 310.436 637.411 309.815 638.244C309.195 639.076 307.325 641.749 305.627 644.131C302.019 649.29 300.21 651.808 299.634 652.449C299.394 652.684 298.897 653.504 298.564 654.21C298.195 654.931 297.707 655.576 297.491 655.672C297.239 655.783 296.603 656.58 296.05 657.468C295.533 658.341 294.961 658.894 294.794 658.71C294.627 658.526 293.488 657.698 292.297 656.85C291.105 656.002 289.612 654.858 288.97 654.282C288.309 653.758 287.664 653.27 287.473 653.226C287.281 653.182 286.126 652.318 284.871 651.326C278.726 646.267 275.355 643.891 271.254 641.708C268.887 640.435 263.03 636.709 262.871 636.35C262.807 636.206 258.737 632.635 254.054 628.648C252.752 627.549 251.673 626.565 251.625 626.457C251.577 626.35 249.399 624.434 246.779 622.199C240.558 616.873 236.285 613.134 236.206 612.954C236.158 612.847 234.688 611.563 232.932 610.02C227.508 605.329 225.179 603.266 219.134 597.948C217.8 596.777 215.605 594.825 214.235 593.67C208.457 588.663 205.841 586.34 204.698 585.213C204.025 584.566 203.384 583.99 203.193 583.945C203.037 583.885 202.141 583.122 201.197 582.25C200.29 581.363 198.247 579.559 196.71 578.22C189.306 571.87 185.001 568.059 184.874 567.772C184.811 567.628 183.461 566.421 181.924 565.081C180.335 563.722 178.324 561.99 177.448 561.175C176.552 560.411 174.373 558.495 172.581 556.968C170.809 555.389 168.818 553.605 168.165 552.906C167.528 552.242 166.804 551.575 166.529 551.439C166.254 551.302 165.29 550.483 164.382 549.595C162.837 548.044 160.846 546.261 156.522 542.502C155.422 541.571 152.738 539.192 150.528 537.204C148.318 535.217 145.786 532.986 144.874 532.186C143.978 531.423 141.887 529.512 140.235 528.008C138.582 526.505 136.185 524.386 134.918 523.27C133.704 522.175 132.187 520.783 131.633 520.212C131.044 519.656 130.435 519.152 130.243 519.108C130.052 519.064 129.02 518.188 127.91 517.132C126.799 516.077 124.37 513.886 122.442 512.247C120.551 510.591 118.086 508.416 117.011 507.345C115.936 506.273 114.721 505.178 114.295 504.894C113.869 504.61 112.805 503.662 111.898 502.775C110.99 501.887 109.696 500.612 108.987 499.98C108.262 499.313 106.682 497.777 105.492 496.542C104.265 495.323 101.901 492.889 100.225 491.138C98.5131 489.403 95.9813 486.785 94.5043 485.29C93.0792 483.815 90.4279 481.121 88.6684 479.279C86.8889 477.488 84.154 474.702 82.6453 473.135C78.6884 469.042 75.0975 465.389 71.3554 461.587C69.6118 459.78 67.0959 457.198 65.8221 455.871C63.3739 453.345 59.5006 449.344 54.0784 443.88C52.2989 442.089 49.7829 439.507 48.5451 438.164C47.2712 436.837 44.823 434.311 43.0953 432.54C41.3158 430.749 38.4973 427.871 36.7336 426.116C34.9901 424.31 32.5419 421.783 31.304 420.441C27.8887 416.795 24.8102 414.204 23.9165 414.127C23.4257 414.086 22.4517 414.215 21.721 414.409C20.4552 414.754 20.303 414.993 19.126 418.262C18.4192 420.163 17.4145 423.141 16.8916 424.875C16.3529 426.574 15.6092 428.878 15.2436 429.899C14.8939 430.955 14.3836 432.426 14.1343 433.223C12.5699 438.339 8.96435 449.338 8.62726 450.131C8.37468 450.629 8.28598 451.012 8.42979 450.948C8.5736 450.885 8.4849 451.268 8.2482 451.802C7.99561 452.3 7.11138 454.967 6.22295 457.722C3.89474 465.193 3.77429 465.504 3.24813 466.939C2.96707 467.664 2.12299 470.228 1.39516 472.568C-0.0320248 477.021 -0.276975 481.038 0.817095 482.444C1.29852 483.048 3.11783 486.582 9.79079 499.74C10.6883 501.577 12.4759 505.039 13.7152 507.455C14.9545 509.871 15.979 511.996 15.9865 512.207C16.03 512.403 16.8565 513.884 17.7825 515.494C18.7444 517.088 22.836 524.987 26.8514 533.005C30.8669 541.024 34.8347 548.935 35.6888 550.576C36.5429 552.217 37.8933 554.885 38.7474 556.526C39.6015 558.168 40.7138 560.296 41.2144 561.235C41.7668 562.193 43.7967 566.107 45.723 569.98C47.6852 573.838 49.9373 578.254 50.7438 579.788C51.5143 581.337 53.2976 584.887 54.6757 587.715C56.0896 590.526 57.5513 593.445 57.9725 594.204C58.3937 594.963 60.0817 598.297 61.7021 601.576C63.3024 604.906 64.7365 607.665 64.9079 607.762C65.0433 607.874 65.9809 609.607 66.942 611.587C67.9548 613.588 69.1941 616.004 69.7307 616.927C70.2471 617.901 72.094 621.595 73.8213 625.213C75.5486 628.831 77.7565 633.439 78.7852 635.475C79.8139 637.512 82.3552 642.875 84.4636 647.355C86.5878 651.871 89.3714 657.685 90.6182 660.312C94.5777 668.399 97.7507 674.9 98.7636 676.9C99.3118 677.947 101.424 682.339 103.489 686.624C105.518 690.924 108.064 696.199 109.124 698.308C110.201 700.452 113.234 706.929 115.914 712.703C118.594 718.477 122.421 726.75 124.45 731.051C126.479 735.352 130.132 743.23 132.59 748.501C135.063 753.807 138.815 761.813 140.959 766.278C143.084 770.794 145.546 775.977 146.407 777.83C147.269 779.683 150.703 786.97 154.027 794.006C157.35 801.042 162.57 812.565 165.666 819.573C168.727 826.596 177.772 847.167 185.723 865.259L200.23 898.192L202.22 900.362C203.307 901.557 204.621 902.78 205.115 903.12C205.609 903.46 206.72 904.516 207.52 905.451C208.355 906.37 209.399 907.369 209.825 907.654C210.251 907.938 211.712 909.397 213.137 910.872C214.542 912.398 215.868 913.745 216.127 913.846C216.366 913.998 217.592 915.217 218.83 916.56C220.104 917.887 221.33 919.106 221.59 919.206C221.829 919.358 223.007 920.47 224.161 921.721C226.323 923.987 228.19 925.782 230.237 927.498C230.93 928.093 232.111 928.431 233.619 928.538L235.917 928.682L238.154 926.061C239.367 924.624 240.363 923.281 240.356 923.07C240.364 922.894 240.481 922.671 240.624 922.608C240.876 922.497 245.102 917.279 253.42 906.732C255.013 904.697 257.07 902.156 258.002 901.057C258.935 899.958 259.707 898.886 259.768 898.731C259.812 898.539 260.733 897.316 261.797 896.03C262.898 894.728 265.387 891.609 267.337 889.116C270.619 884.874 272.96 881.906 276.835 877.059C280.801 872.129 285.84 865.736 288.706 862.108C290.431 859.885 292.356 857.531 292.952 856.838C293.565 856.181 294.149 855.365 294.321 855.074C294.478 854.747 295.847 852.983 297.38 851.103C298.912 849.223 300.786 846.849 301.518 845.881C302.287 844.897 304.368 842.217 306.201 839.947C308.018 837.64 310.264 834.844 311.164 833.673C318.565 824.262 325.005 816.176 326.91 813.874C327.842 812.775 328.631 811.74 328.691 811.584C328.751 811.429 329.428 810.529 330.192 809.632C330.992 808.721 333.822 805.108 336.54 801.631C339.242 798.118 342.912 793.49 344.653 791.303C351.241 783.066 354.555 778.896 357.185 775.415C358.671 773.427 360.544 771.054 361.308 770.158C362.108 769.246 362.749 768.361 362.793 768.17C362.838 767.978 363.61 766.907 364.527 765.772C365.443 764.637 367.133 762.43 368.298 760.885C371.152 757.132 373.798 753.687 375.315 751.771C376.007 750.907 377.828 748.513 379.39 746.406C380.967 744.335 382.748 742.044 383.328 741.316C383.961 740.607 384.585 739.686 384.746 739.272C384.87 738.873 385.135 738.499 385.279 738.435C385.53 738.324 394.736 726.483 395.442 725.355C395.65 725.048 396.382 724.08 397.075 723.216C397.767 722.352 398.856 720.926 399.532 720.026C401.038 717.986 403.475 714.847 405.745 711.912C406.718 710.709 408.315 708.586 409.276 707.26C410.969 704.965 415.436 699.126 419.091 694.462C419.951 693.394 421.773 691.001 423.09 689.216C424.459 687.451 426.524 684.735 427.725 683.174C428.942 681.648 430.051 680.17 430.167 679.947C430.476 679.381 436.872 671.101 438.365 669.324C438.981 668.58 439.51 667.831 439.554 667.639C439.614 667.484 440.327 666.568 441.127 665.656C441.963 664.728 442.604 663.844 442.524 663.664C442.461 663.52 442.541 663.313 442.721 663.233C442.901 663.154 443.833 662.055 444.774 660.78C445.679 659.521 447.312 657.382 448.325 656.076C450.31 653.567 450.442 653.38 453.921 648.707C455.162 647.042 456.267 645.652 456.41 645.589C456.518 645.541 457.027 644.844 457.519 644.111C458.3 642.864 460.462 639.976 463.18 636.499C463.688 635.802 465.041 634.001 466.118 632.452C467.211 630.938 468.544 629.189 469.085 628.564C469.605 627.991 470.485 626.871 470.998 626.086C471.527 625.338 472.808 623.569 473.84 622.211C474.909 620.837 476.39 618.937 477.123 617.969C478.812 615.762 481.314 612.38 481.827 611.595C482.035 611.289 482.655 610.456 483.18 609.795C483.704 609.134 485.617 606.656 487.435 604.35C490.753 600.092 495.423 594.421 495.783 594.262C495.891 594.214 497.191 592.781 498.7 591.041C500.188 589.352 501.764 587.668 502.204 587.302C502.66 586.972 502.996 586.565 502.932 586.422C502.869 586.278 503.581 585.362 504.541 584.422C505.45 583.463 507.138 581.643 508.218 580.393C511.796 576.235 514.64 573.045 514.856 572.95C514.964 572.902 516.152 571.604 517.513 570.015C523.139 563.492 524.011 562.548 524.763 561.916C525.203 561.55 526.095 560.554 526.803 559.726C527.496 558.861 529.656 556.361 531.645 554.15C536.759 548.412 538.675 546.234 540.968 543.546C542.069 542.244 543.089 541.149 543.233 541.085C543.376 541.021 544.453 539.859 545.625 538.525C546.797 537.191 547.91 536.012 548.125 535.917C548.305 535.837 549.101 535.013 549.849 534.081C550.598 533.149 552.118 531.533 553.226 530.442C554.334 529.351 555.374 528.204 555.511 527.929C555.647 527.654 556.299 526.894 556.963 526.257C557.607 525.672 558.719 524.493 559.443 523.701C560.784 522.163 566.269 516.39 567.076 515.689C567.408 515.371 568.121 515.915 569.94 517.989C571.277 519.46 572.818 521.099 573.36 521.546C574.287 522.382 576.465 524.684 581.898 530.659C583.267 532.202 584.843 533.825 585.349 534.289C585.906 534.772 587.196 536.135 588.231 537.31C589.282 538.521 590.607 539.868 591.113 540.332C591.634 540.832 594.501 543.817 597.41 546.999C604.989 555.204 608.372 558.777 609.137 559.341C609.512 559.605 610.634 560.785 611.637 561.888C612.62 563.043 613.643 564.094 613.866 564.21C614.105 564.362 615.602 565.805 617.195 567.464C618.751 569.139 621.518 571.996 623.297 573.787C625.093 575.614 627.421 578.064 628.528 579.207C629.615 580.402 630.721 581.545 630.956 581.785C631.227 582.009 631.478 582.285 631.525 582.393C631.609 582.485 631.999 582.785 632.39 583.085C632.78 583.385 634.137 584.804 635.423 586.254C636.708 587.705 637.93 589.012 638.19 589.112C638.429 589.264 639.671 590.52 640.956 591.97C642.242 593.421 643.5 594.712 643.723 594.828C643.962 594.98 645.204 596.235 646.49 597.686C647.775 599.137 649.033 600.428 649.256 600.544C649.495 600.696 650.92 602.171 652.441 603.862C653.961 605.552 655.402 607.063 655.625 607.179C655.864 607.331 656.903 608.418 657.974 609.577C659.025 610.788 660.35 612.135 660.856 612.599C661.414 613.083 662.906 614.614 664.228 616.049C665.549 617.483 668.133 620.122 669.913 621.912C671.708 623.739 674.24 626.357 675.525 627.808C676.847 629.243 678.204 630.662 678.595 630.962C679.694 631.893 684.371 636.742 692.81 645.727C694.251 647.238 695.676 648.713 696.066 649.013C696.421 649.328 698.029 651.023 699.669 652.79C706.758 660.567 707.645 661.507 708.056 661.755C708.315 661.855 709.401 663.05 710.52 664.317C711.602 665.599 712.939 667.07 713.481 667.518C714.409 668.354 715.631 669.661 722.286 676.943C723.973 678.817 725.649 680.568 726.004 680.884C726.394 681.184 727.835 682.694 729.188 684.201C730.557 685.744 733.169 688.542 734.96 690.456C736.787 692.355 739.414 695.188 740.767 696.695C742.136 698.238 743.713 699.861 744.218 700.324C744.776 700.808 746.03 702.187 747.064 703.362C748.115 704.573 749.289 705.772 749.664 706.036C750.309 706.524 751.698 708.015 758.29 715.153C759.695 716.68 761.224 718.195 761.734 718.571C762.208 718.963 763.314 720.106 764.198 721.133C765.045 722.176 766.387 723.559 767.127 724.262C767.904 724.95 769.584 726.613 770.874 727.976C774.806 732.209 777.453 734.99 777.923 735.47C778.158 735.71 778.389 736.038 778.468 736.217C778.496 736.377 778.651 736.437 778.831 736.358C778.975 736.294 780.034 737.329 781.184 738.668C782.282 739.987 783.958 741.738 784.834 742.553C785.746 743.353 787.306 744.94 788.305 746.131C789.34 747.306 790.363 748.357 790.638 748.493C790.913 748.629 791.168 748.817 791.216 748.925C791.227 749.049 791.916 749.732 792.709 750.456C793.939 751.587 794.493 751.772 796.098 751.707C797.81 751.595 798.041 751.536 798.81 750.552C799.278 749.958 799.719 749.205 799.767 748.926C799.8 748.611 800.579 746.678 801.434 744.625C804.166 738.264 806.727 732.193 808.729 727.486C809.745 725.019 811.354 721.172 812.285 719C816.205 709.88 817.437 706.931 819.544 701.877C820.74 698.943 822.799 694.168 824.047 691.254C825.331 688.325 827.273 683.773 828.384 681.134C829.46 678.511 831.92 672.7 833.842 668.2C835.728 663.716 837.59 659.371 837.932 658.49C838.289 657.645 839.657 654.421 840.965 651.352C842.309 648.267 843.718 644.939 844.135 643.938C844.553 642.938 846.242 638.884 847.944 634.954C851.194 627.333 855.424 617.261 856.392 614.685C856.749 613.84 859.061 608.18 861.569 602.09C864.058 596.051 866.43 590.235 866.847 589.235C867.265 588.234 869.641 582.331 872.19 576.137C874.739 569.943 877.512 563.091 878.371 560.95C879.23 558.81 881.98 552.097 884.488 546.007C889.304 534.344 894.109 522.557 895.883 518.208C896.461 516.793 898.235 512.445 899.793 508.578C907.909 488.628 934.037 422.108 935.074 418.815C935.392 417.686 936.019 415.605 936.458 414.166C937.13 411.893 939.78 403.206 941.614 397.242C941.907 396.253 942.495 394.276 942.933 392.836C943.356 391.361 944.606 387.287 945.692 383.714C946.778 380.142 947.969 376.223 948.307 375.043C948.645 373.863 949.163 372.216 949.417 371.331C953.056 359.63 955.268 352.382 955.9 350.213C957.103 346.031 957.457 344.887 959.616 338.005C960.718 334.469 962.013 330.203 962.495 328.573C963.634 324.633 964.302 322.449 964.752 321.133C964.957 320.527 965.419 318.948 965.781 317.629C966.144 316.309 966.795 314.088 967.266 312.721C967.72 311.318 968.488 308.874 968.95 307.295C969.449 305.7 969.976 303.878 970.181 303.272C970.386 302.666 970.885 301.071 971.247 299.752C972.655 294.963 979.478 273.351 980.189 271.362C980.595 270.238 981.72 266.949 982.669 264.039C983.617 261.128 984.638 258.186 984.919 257.461C985.381 256.269 986.256 253.778 990.179 242.037C990.834 240.116 991.445 238.385 991.505 238.23C991.601 238.059 992.561 235.272 993.651 231.999C994.74 228.726 995.785 225.644 995.949 225.142C996.13 224.676 996.99 222.148 997.854 219.533C998.734 216.954 999.715 214.115 1000 213.214C1000.76 211.121 1003.85 201.98 1005.23 197.806C1005.81 196.004 1006.5 194.067 1006.72 193.497C1006.96 192.875 1007.92 190.176 1008.8 187.421C1009.73 184.651 1010.96 180.927 1011.59 179.145C1012.21 177.327 1013.16 174.629 1013.66 173.122C1014.19 171.599 1014.86 169.626 1015.15 168.724C1017.6 161.629 1019.24 156.869 1019.53 155.88C1019.84 154.927 1022.97 145.77 1024.34 141.859C1024.56 141.289 1025.28 139.212 1025.97 137.275C1027.27 133.52 1033.49 116.171 1034.62 113.093C1034.99 112.073 1036.87 106.902 1038.78 101.593C1042.15 92.2006 1045.8 82.0832 1047.19 78.3321C1047.56 77.3116 1049.43 72.1054 1051.33 66.7955C1053.24 61.4856 1055.68 54.7406 1056.75 51.8187C1057.81 48.8608 1058.86 45.9906 1059.06 45.3846C1059.28 44.8146 1060.97 40.1625 1062.81 35.0081C1064.68 29.8896 1066.39 24.6232 1066.65 23.2634C1067.07 20.7151 1066.66 17.5467 1064.34 6.75902C1063.26 1.69442 1063.3 1.76634 1062.39 0.878896Z" fill="#E25D35"/>
</svg>
