<svg width="785" height="644" viewBox="0 0 785 644" fill="none" xmlns="http://www.w3.org/2000/svg">
<path d="M783.544 343.037C783.199 342.693 782.268 341.977 781.47 341.448C780.672 340.945 779.715 340.309 779.343 340.044C778.971 339.779 774.61 336.866 769.637 333.53C761.234 327.915 745.705 317.561 744.402 316.661C744.11 316.449 741.584 314.78 738.792 312.953C731.984 308.425 729.884 306.968 729.351 306.332C729.272 306.226 727.676 305.114 725.762 303.869C723.874 302.598 721.347 300.903 720.177 300.082C719.007 299.288 716.561 297.619 714.726 296.374C712.891 295.156 710.924 293.806 710.339 293.355C709.753 292.932 708.69 292.217 707.945 291.766C707.227 291.316 705.605 290.231 704.356 289.357C703.106 288.483 700.021 286.364 697.495 284.669C694.942 282.974 692.522 281.332 692.124 281.041C690.103 279.637 679.094 272.222 677.498 271.243C676.089 270.342 671.596 267.642 670.984 267.298C670.426 267.007 665.082 263.697 660.801 261.023C659.445 260.149 658.275 259.461 658.195 259.461C658.142 259.461 657.025 258.799 655.749 257.952C653.064 256.23 651.548 255.277 650.458 254.668C649.235 253.954 646.071 252.048 644.662 251.121C643.944 250.671 643.146 250.194 642.933 250.088C642.721 250.009 641.923 249.532 641.179 249.056C640.434 248.606 638.653 247.494 637.19 246.62C635.755 245.773 634.505 244.978 634.425 244.899C634.345 244.819 633.335 244.157 632.165 243.469C628.23 241.139 618.339 234.97 612.569 231.237C611.585 230.601 610.681 230.072 610.548 230.072C610.415 230.072 610.096 229.834 609.83 229.542C609.564 229.25 609.218 229.012 609.086 229.012C608.926 229.013 608.448 228.721 607.996 228.377C607.543 228.059 606.825 227.556 606.374 227.318C605.948 227.079 605.044 226.47 604.379 225.967C603.714 225.464 602.651 224.749 601.986 224.352C601.321 223.955 600.683 223.531 600.524 223.398C599.752 222.789 596.668 220.803 596.455 220.803C596.322 220.804 596.003 220.565 595.737 220.274C595.471 219.982 595.152 219.744 595.019 219.744C594.807 219.744 593.477 218.897 591.217 217.361C588.478 215.454 588.159 215.163 587.865 214.154C587.678 213.597 587.465 213.12 587.359 213.12C587.252 213.12 586.959 212.377 586.692 211.475C586.451 210.547 585.998 209.3 585.731 208.69C585.465 208.08 585.225 207.443 585.224 207.284C585.224 207.124 584.877 206.063 584.45 204.949C583.597 202.72 582.85 200.465 581.969 197.6C581.675 196.592 581.328 195.637 581.221 195.478C581.115 195.345 580.741 194.31 580.448 193.223C580.127 192.135 579.753 190.994 579.62 190.702C579.327 190.119 578.366 187.36 577.352 184.202C577.005 183.115 575.938 180.011 575.004 177.305C574.07 174.599 572.388 169.664 571.241 166.295C570.093 162.952 569.053 159.954 568.919 159.662C568.813 159.37 568.092 157.275 567.345 155.019C566.598 152.764 565.877 150.668 565.744 150.377C565.611 150.085 564.89 148.069 564.143 145.867C563.422 143.691 562.382 140.693 561.875 139.234C561.341 137.775 560.674 135.759 560.38 134.724C560.06 133.716 559.713 132.761 559.606 132.602C559.5 132.469 559.126 131.434 558.806 130.347C558.485 129.259 558.112 128.251 558.005 128.092C557.872 127.959 557.579 127.11 557.338 126.235C557.071 125.359 556.724 124.298 556.511 123.847C556.111 122.892 554.991 119.735 554.243 117.347C553.949 116.392 553.549 115.278 553.336 114.827C553.149 114.402 552.776 113.315 552.535 112.439C552.268 111.564 551.975 110.741 551.868 110.582C551.735 110.45 551.388 109.415 551.068 108.327C550.721 107.239 550.374 106.231 550.267 106.072C550.161 105.939 549.814 105.038 549.521 104.082C549.2 103.127 548.533 101.164 548 99.705C547.466 98.2459 546.799 96.3357 546.505 95.4603C546.212 94.5848 545.812 93.5236 545.625 93.0727C545.412 92.6483 545.038 91.5606 544.798 90.685C544.531 89.8094 544.237 88.987 544.131 88.8279C543.998 88.6954 543.651 87.6607 543.33 86.5729C542.983 85.4851 542.636 84.477 542.53 84.3179C542.397 84.1854 542.077 83.2834 541.756 82.3283C541.463 81.3732 540.769 79.41 540.235 77.9509C539.702 76.4918 539.008 74.4755 538.661 73.4408C538.341 72.4326 537.941 71.2919 537.781 70.9205C537.621 70.5491 536.633 67.5777 535.592 64.2879C534.551 60.998 533.51 57.894 533.323 57.3899C533.11 56.8859 532.763 55.7451 532.522 54.8695C532.282 53.9939 531.988 53.0919 531.882 52.8531C531.749 52.641 531.375 51.5002 531.054 50.3327C530.734 49.1918 530.36 48.1306 530.254 47.9715C530.147 47.839 529.8 46.6981 529.453 45.4511C529.132 44.204 528.758 43.0897 528.652 42.9306C528.546 42.7981 528.225 41.8961 527.985 40.9409C527.718 39.9857 527.371 38.9245 527.184 38.5531C527.024 38.1818 526.651 37.0675 526.383 36.0327C526.116 35.0244 525.822 34.0427 525.689 33.9102C525.583 33.7511 525.236 32.7961 524.969 31.7878C524.167 29.0019 522.779 24.7305 522.353 23.7756C522.14 23.3246 521.98 22.8471 521.979 22.7144C521.979 22.4489 519.95 16.0284 519.443 14.6754C519.23 14.1714 518.536 11.9694 517.842 9.76727C517.148 7.59173 516.427 5.36314 516.24 4.85909C516.027 4.35508 515.733 3.50613 515.573 2.97549C515.199 1.7285 514.082 0.695034 512.833 0.484648C511.691 0.274096 511.532 0.407068 507.077 5.40443C505.831 6.7867 504.399 8.35507 503.895 8.93984C503.391 9.49807 502.675 10.269 502.304 10.6943C501.933 11.093 500.686 12.4753 499.52 13.7778C498.353 15.0803 496.682 16.9411 495.807 17.898C493.659 20.2639 491.644 22.4968 489.576 24.8094C488.621 25.8992 487.508 27.122 487.057 27.6005C486.633 28.0524 485.307 29.4879 484.14 30.7904C482.973 32.1195 481.356 33.9005 480.534 34.7778C479.738 35.655 478.121 37.436 476.981 38.7385C475.84 40.041 474.727 41.3168 474.488 41.5561C473.109 43.0182 471.359 44.9322 469.423 47.1384C468.204 48.5206 467.09 49.7965 466.931 49.956C466.772 50.1156 465.579 51.4181 464.253 52.8801C462.025 55.2992 461.15 56.3092 457.226 60.5891C456.43 61.4663 454.707 63.3802 453.381 64.8157C452.081 66.2511 450.703 67.7398 450.331 68.1385C449.111 69.4411 444.869 74.1196 443.808 75.3158C443.251 75.9537 442.588 76.698 442.376 76.9373C442.164 77.1765 441.66 77.7878 441.263 78.2928C437.631 82.7579 435.589 84.8316 433.625 86.0823C433.121 86.4016 432.537 86.8804 432.325 87.1196C432.139 87.3588 431.848 87.5451 431.715 87.5453C431.582 87.5455 431.078 87.8383 430.627 88.184C430.149 88.5299 429.353 89.062 428.849 89.3548C428.345 89.6476 426.965 90.4195 425.797 91.085C422.771 92.8151 421.736 93.0291 419.557 92.4751C418.6 92.2112 417.723 91.9206 417.563 91.8147C417.43 91.7087 416.474 91.3651 415.437 91.0217C414.427 90.7048 413.231 90.2819 412.779 90.0968C412.354 89.9117 411.451 89.6211 410.786 89.4364C410.122 89.2782 409.351 88.9874 409.059 88.802C408.766 88.6167 408.048 88.2993 407.464 88.1144C406.879 87.9295 405.816 87.5065 405.072 87.1891C403.503 86.4749 398.905 84.6771 398.666 84.6775C398.586 84.6776 398.134 84.4925 397.683 84.2809C397.204 84.0693 396.008 83.5934 394.971 83.2234C393.961 82.8268 392.34 82.2454 391.383 81.8753C390.427 81.5317 389.417 81.1352 389.124 80.9763C388.832 80.8441 387.768 80.4211 386.732 80.0511C385.722 79.6545 384.101 79.0465 383.144 78.6764C382.187 78.3063 380.512 77.6719 379.423 77.2489C378.333 76.8524 376.473 76.1387 375.303 75.6893C374.134 75.2399 372.353 74.5525 371.316 74.1825C370.306 73.839 369.349 73.4424 369.19 73.3099C369.057 73.204 368.446 72.966 367.861 72.7811C367.276 72.5962 366.319 72.2261 365.735 71.9616C365.15 71.6971 364.033 71.2476 363.289 70.9568C360.525 69.8728 359.09 69.2911 358.292 68.9473C356.644 68.2067 352.312 66.435 352.179 66.4352C352.126 66.4353 351.435 66.1444 350.664 65.8271C349.893 65.4832 348.112 64.7428 346.73 64.2141C345.348 63.6588 343.62 62.9449 342.876 62.601C342.158 62.2836 341.068 61.8606 340.484 61.6757C339.899 61.4908 339.288 61.2529 339.155 61.1469C338.995 61.0144 338.224 60.6706 337.427 60.3533C336.629 60.0626 335.46 59.5601 334.849 59.2956C334.211 59.0046 333.626 58.7666 333.52 58.7668C333.307 58.7671 329.293 57.1277 327.698 56.3604C327.087 56.096 326.502 55.858 326.396 55.8582C326.29 55.8583 325.413 55.5146 324.482 55.0648C323.579 54.6416 322.675 54.2714 322.542 54.2716C322.383 54.2718 321.771 54.0339 321.133 53.7429C319.512 53.0022 316.269 51.6801 314.595 51.0722C313.797 50.8081 313.026 50.4642 312.867 50.3317C312.707 50.1993 312.282 50.0141 311.91 49.9085C311.192 49.6973 307.87 48.2426 303.989 46.4437C302.633 45.8088 301.463 45.2797 301.41 45.2798C301.331 45.28 299.656 44.5128 297.662 43.5604C295.669 42.6079 293.994 41.8408 293.941 41.8408C293.861 41.841 292.771 41.3383 291.495 40.7564C288.731 39.4601 285.78 38.0844 283.6 37.0792C282.723 36.6824 281.075 35.9152 279.958 35.3861C278.815 34.857 277.858 34.4338 277.779 34.4339C277.726 34.434 276.317 33.7992 274.669 33.0054C272.994 32.2383 270.628 31.1537 269.379 30.5982C265.099 28.7734 263.398 28.0329 262.069 27.4244C261.351 27.0805 259.544 26.3136 258.082 25.7054C256.62 25.0706 255.318 24.4887 255.158 24.3827C255.025 24.2768 254.174 23.933 253.297 23.5893C252.42 23.2457 251.596 22.8753 251.437 22.7694C251.038 22.4781 246.52 21.2376 243.331 20.5525C241.79 20.2098 238.92 19.5773 236.954 19.1291C234.988 18.681 232.304 18.0747 230.975 17.7848L228.584 17.2577L227.389 17.8701C225.187 19.015 225.292 18.3512 224.892 34.0395C224.691 41.6846 224.412 50.1261 224.257 52.8339C224.102 55.5417 223.825 65.045 223.6 73.9377C223.401 82.8569 223.125 92.6522 222.997 95.705C222.535 106.058 222.03 122.994 221.859 132.338C221.787 137.461 221.663 142.876 221.612 144.416C221.588 145.956 221.538 147.973 221.513 148.955L221.489 150.681L220.375 151.266C219.738 151.612 218.57 152.278 217.774 152.784C216.978 153.289 215.89 153.928 215.386 154.194C214.881 154.487 213.767 155.126 212.917 155.605C212.068 156.111 211.033 156.696 210.662 156.909C207.371 158.746 206.176 159.438 205.832 159.73C205.619 159.917 203.655 160.981 201.452 162.1C199.276 163.218 197.365 164.23 197.206 164.336C197.073 164.443 196.41 164.762 195.746 165.029C195.082 165.322 194.499 165.641 194.419 165.747C194.34 165.854 193.623 166.253 192.827 166.626C190.916 167.505 174.699 175.892 168.94 178.927C163.021 182.069 152.325 187.739 148.37 189.79C141.602 193.331 137.356 195.567 132.977 197.91C129.128 199.96 124.165 202.596 122.493 203.448C121.538 203.927 119.388 205.045 117.716 205.95C116.044 206.829 114.319 207.734 113.867 207.974C113.443 208.187 111.16 209.411 108.825 210.689C106.489 211.941 104.392 213.059 104.18 213.165C103.968 213.272 102.349 214.124 100.597 215.082C98.8455 216.04 96.8284 217.132 96.0852 217.478C95.3686 217.851 94.0416 218.543 93.1657 219.022C92.2899 219.502 90.326 220.566 88.7866 221.365C87.2472 222.19 84.8055 223.495 83.3458 224.267C81.8861 225.066 79.9752 226.104 79.0993 226.557C78.2235 227.036 76.2595 228.074 74.7201 228.873C73.1807 229.645 71.6148 230.497 71.2698 230.71C70.8983 230.949 69.4651 231.721 68.085 232.44C66.7049 233.159 64.6347 234.251 63.4934 234.863C60.4944 236.487 57.6811 238.004 54.8147 239.522C53.4346 240.241 51.7095 241.173 50.9663 241.572C50.2498 241.971 48.392 242.983 46.8526 243.782C45.3132 244.58 42.8449 245.911 41.3322 246.737C39.8459 247.562 38.5454 248.228 38.4657 248.228C38.386 248.228 36.3955 249.293 34.0335 250.597C31.6714 251.902 28.3008 253.712 26.5491 254.617C24.7973 255.522 23.0191 256.481 22.568 256.747C22.1434 257.013 20.6306 257.812 19.2505 258.531C17.8703 259.25 15.5348 260.501 14.075 261.273C8.79354 264.148 8.20962 264.441 7.3072 264.894C4.41411 266.332 1.52144 268.035 1.01767 268.62C0.301731 269.417 0.223926 270.612 0.836294 271.513C1.23574 272.15 2.88397 272.997 11.3107 277.018C12.9855 277.812 16.6539 279.558 19.4186 280.907C22.2098 282.257 25.4795 283.818 26.7289 284.4C27.9782 284.982 31.1948 286.543 33.9063 287.839C44.9649 293.21 46.6129 293.951 48.6592 294.532C49.5362 294.796 50.3867 295.086 50.5196 295.192C50.6792 295.298 51.5031 295.589 52.38 295.826C53.257 296.09 54.5858 296.513 55.3035 296.777C56.659 297.306 58.7851 297.993 61.8147 298.917C62.7715 299.208 63.9143 299.604 64.3396 299.816C64.7915 300.001 65.6685 300.291 66.3329 300.476C66.9972 300.634 68.14 301.004 68.8576 301.268C70.1068 301.744 70.9838 302.035 75.6347 303.514C80.95 305.231 81.9067 305.548 82.4118 305.786C82.7042 305.892 90.0128 308.322 98.6236 311.176C107.261 314.002 114.543 316.459 114.836 316.592C115.128 316.724 116.271 317.094 117.36 317.411C118.45 317.701 119.486 318.044 119.619 318.15C119.779 318.283 120.496 318.521 121.214 318.705C121.958 318.89 123.074 319.26 123.739 319.498C124.403 319.762 126.662 320.528 128.788 321.188C130.914 321.875 132.881 322.536 133.174 322.668C133.466 322.8 134.609 323.17 135.698 323.487C136.788 323.777 137.824 324.121 137.957 324.227C138.117 324.332 139.18 324.702 140.349 325.046C141.519 325.389 142.661 325.759 142.874 325.865C143.087 325.97 144.23 326.393 145.399 326.763C149.997 328.216 151.724 328.77 153.85 329.404C155.046 329.774 156.401 330.25 156.88 330.461C157.332 330.673 157.837 330.858 157.97 330.858C158.235 330.857 162.275 332.151 173.782 335.903C176.387 336.774 178.646 337.461 178.805 337.461C178.938 337.461 179.443 337.619 179.895 337.831C180.852 338.254 188.32 340.631 188.665 340.631C188.798 340.63 189.276 340.789 189.728 341.001C190.791 341.45 197.25 343.537 197.648 343.536C197.807 343.536 198.312 343.695 198.764 343.906C199.243 344.118 201.422 344.831 203.601 345.518C205.807 346.204 208.013 346.918 208.518 347.103C209.023 347.288 211.255 348.001 213.434 348.688C215.64 349.374 217.793 350.088 218.271 350.299C218.723 350.511 219.202 350.669 219.361 350.669C219.6 350.669 225.287 352.438 226.988 353.046C228.397 353.575 232.782 354.922 235.094 355.555C236.343 355.898 238.602 356.558 240.143 357.007C241.685 357.456 244.076 358.116 245.458 358.485C246.84 358.828 248.222 359.25 248.514 359.383C248.807 359.515 250.189 359.911 251.57 360.28C257.204 361.705 259.41 362.338 259.676 362.55C259.835 362.683 260.447 362.868 261.058 362.973C262.785 363.236 262.785 363.236 262.47 365.891C262.313 367.192 262.129 368.864 262.077 369.581C261.999 370.324 261.841 371.333 261.683 371.838C261.551 372.342 261.235 374.254 261.025 376.086C260.658 379.192 260.474 380.599 260.211 382.192C260.159 382.564 259.818 385.193 259.477 388.033C259.109 390.874 258.689 393.688 258.557 394.273C258.398 394.857 258.11 397.14 257.874 399.317C257.665 401.521 257.35 404.016 257.219 404.892C257.061 405.769 256.641 409.167 256.275 412.459C254.677 427.008 254.311 430.433 254.205 431.043C254.153 431.415 253.813 434.574 253.446 438.079C253.08 441.583 252.66 445.114 252.502 445.911C252.344 446.708 251.977 449.867 251.69 452.946C251.403 456 251.114 458.575 251.062 458.654C251.008 458.734 250.72 461.203 250.433 464.124C250.118 467.017 249.699 470.787 249.489 472.46C249.253 474.133 248.834 477.717 248.546 480.425C248.231 483.133 247.891 486.292 247.76 487.46C247.393 490.567 246.556 498.744 245.824 506.177C245.484 509.761 245.065 513.451 244.934 514.407C244.776 515.363 244.409 518.761 244.122 521.974C243.835 525.186 243.521 528 243.468 528.213C243.389 528.425 243.048 531.664 242.709 535.381C242.343 539.124 242.003 542.336 241.923 542.549C241.844 542.761 241.53 545.761 241.243 549.186C240.956 552.611 240.59 555.956 240.458 556.62C240.326 557.284 240.012 559.912 239.803 562.461C239.568 565.009 239.281 568.009 239.15 569.098C239.018 570.186 238.6 574.115 238.234 577.832C237.868 581.549 237.475 585.319 237.317 586.195C237.186 587.098 236.871 589.912 236.663 592.461C236.428 595.009 236.088 598.301 235.878 599.762C235.273 604.036 234.596 612.744 234.81 613.513C234.997 614.309 236.354 615.289 237.283 615.288C237.761 615.287 241.132 613.158 249.437 607.571C250.313 606.985 251.878 605.948 252.886 605.256C253.921 604.591 255.036 603.819 255.407 603.553C256.23 602.994 259.839 600.626 260.422 600.254C260.82 600.014 278.732 588.121 280.35 587.003C286.904 582.56 291.336 579.713 292.875 578.887C294.786 577.902 295.131 577.769 297.733 576.756C299.458 576.063 301.926 574.6 306.729 571.407C307.286 571.034 307.95 570.608 308.215 570.449C308.481 570.316 309.383 569.757 310.205 569.251C312.594 567.761 314.16 566.829 316.495 565.419C317.716 564.727 319.016 563.902 319.414 563.636C319.812 563.343 320.21 563.13 320.263 563.13C320.343 563.13 321.033 562.731 321.802 562.278C322.572 561.799 323.527 561.214 323.925 561.001C325.624 560.016 327.296 559.058 328.649 558.206C329.445 557.701 330.48 557.115 330.905 556.849C331.648 556.449 335.47 554.187 340.804 550.993C342.024 550.275 343.378 549.476 343.856 549.21C346.642 547.587 349.88 545.67 350.676 545.165C351.976 544.34 353.277 543.568 354.657 542.769C355.32 542.397 356.222 541.891 356.647 541.625C357.098 541.359 358.054 540.826 358.77 540.4C359.513 539.975 360.522 539.362 361.026 539.043C361.53 538.724 363.441 537.579 365.272 536.515C367.103 535.423 369.438 534.066 370.447 533.454C374.135 531.245 376.736 529.728 377.877 529.062C378.514 528.69 380.239 527.678 381.699 526.8C385.812 524.352 387.352 523.447 388.227 522.941C388.678 522.701 390.138 521.796 391.491 520.971C392.845 520.146 394.013 519.481 394.092 519.481C394.172 519.481 394.543 519.268 394.941 518.975C395.525 518.576 398.338 516.873 403.089 514.078C403.38 513.892 404.813 512.987 406.273 512.056C410.094 509.608 410.598 509.288 412.376 508.171C413.252 507.638 414.287 506.947 414.685 506.681C415.083 506.388 415.481 506.175 415.561 506.175C415.64 506.175 416.941 505.376 418.427 504.418C419.913 503.434 421.558 502.37 422.062 502.05C422.566 501.731 423.654 501.039 424.45 500.533C425.246 500.028 426.494 499.256 427.184 498.83C427.874 498.404 429.413 497.42 430.554 496.675C431.695 495.903 432.73 495.265 432.836 495.264C432.942 495.264 433.393 494.998 433.844 494.652C434.295 494.307 435.038 493.828 435.463 493.615C437.241 492.683 439.444 491.432 439.577 491.272C439.656 491.166 440.85 490.474 442.23 489.702C443.61 488.93 445.76 487.732 446.981 486.987C448.202 486.268 449.29 485.683 449.423 485.682C449.529 485.682 449.794 485.522 449.98 485.336C450.404 484.911 452.819 483.686 452.926 483.845C453.006 483.951 456.731 488.166 457.37 488.882C458.062 489.624 459.578 491.347 461.095 493.07C461.894 493.998 462.852 495.084 463.224 495.482C464.395 496.781 465.193 497.682 467.908 500.81C469.398 502.506 470.808 504.123 471.101 504.415C471.367 504.707 472.032 505.475 472.538 506.085C473.044 506.721 473.709 507.463 474.001 507.782C475.039 508.842 479.616 514.17 480.521 515.363C481.027 516.026 481.692 516.848 482.038 517.219C482.358 517.59 483.741 519.207 485.099 520.797C486.456 522.414 487.813 523.978 488.106 524.27C488.398 524.561 489.064 525.33 489.569 525.94C490.075 526.55 490.74 527.318 491.06 527.636C491.352 527.954 493.455 530.367 495.69 532.991C497.952 535.615 499.974 537.948 500.187 538.187C500.427 538.425 501.092 539.194 501.678 539.91C503.54 542.136 506.175 545.158 506.627 545.582C507.159 546.059 519.507 560.48 520.598 561.885C521.024 562.415 522.355 564.085 523.553 565.57C524.777 567.028 526.001 568.539 526.267 568.91C526.56 569.282 528.024 571.058 529.488 572.887C530.978 574.716 532.495 576.625 532.894 577.129C533.267 577.632 534.145 578.719 534.811 579.515C535.476 580.31 536.354 581.397 536.727 581.901C537.313 582.669 540.001 585.983 543.461 590.251C543.833 590.702 545.217 592.425 546.548 594.095C547.905 595.766 549.316 597.515 549.689 597.966C550.46 598.894 550.62 599.079 552.643 601.651C553.441 602.685 554.16 603.56 554.24 603.639C554.32 603.719 555.224 604.832 556.236 606.105C557.274 607.404 558.764 609.26 559.563 610.24C560.361 611.221 561.346 612.441 561.745 612.945C565.737 617.902 568.212 620.818 571.831 624.767C572.416 625.377 573.853 626.994 575.051 628.372C578.271 632.004 581.703 635.794 582.049 636.112C582.235 636.271 583.193 637.331 584.204 638.498C588.249 643.137 588.568 643.402 589.658 643.4C591.065 643.398 591.94 642.308 592.15 640.29C592.228 639.441 592.464 637.264 592.673 635.432C592.883 633.6 593.249 629.777 593.457 626.936C593.665 624.096 593.978 620.937 594.11 619.901C594.267 618.892 594.686 614.645 595.051 610.476C596.721 591.123 596.955 588.442 597.218 586.583C597.376 585.495 597.689 582.203 597.897 579.282C598.132 576.362 598.471 572.592 598.681 570.92C598.891 569.247 599.307 563.38 599.59 557.911C599.874 552.443 600.158 547.771 600.238 547.558C600.291 547.346 600.575 542.143 600.884 536.01C601.166 529.878 601.502 523.799 601.659 522.472C601.974 519.631 602.334 512.384 602.689 501.633C602.815 497.332 603.046 492.262 603.202 490.351C603.359 488.466 603.639 480.688 603.839 473.096C604.443 451.727 604.697 444.32 605.108 435.268C605.313 430.676 605.54 422.977 605.585 418.146C605.819 398.025 606.081 395.344 608.069 392.845C609.076 391.543 610.642 390.798 613.696 390.129C622.565 388.151 628.274 386.815 632.92 385.613C634.673 385.132 637.248 384.491 638.629 384.144C645.639 382.381 646.834 382.087 648.055 381.713C648.799 381.5 650.285 381.126 651.374 380.912C652.463 380.698 653.658 380.377 654.029 380.244C654.401 380.084 655.968 379.657 657.481 379.283C664.73 377.546 670.678 376.024 672.218 375.57C672.961 375.357 675.829 374.609 678.59 373.941C681.378 373.273 684.166 372.552 684.83 372.365C685.494 372.178 687.113 371.751 688.414 371.43C692.636 370.388 695.769 369.587 699.035 368.732C703.231 367.638 707.665 366.542 711.249 365.687C712.869 365.313 714.409 364.886 714.701 364.753C714.993 364.62 716.241 364.272 717.489 363.979C718.737 363.685 721.419 363.017 723.463 362.483C725.508 361.922 728.136 361.254 729.305 360.987C730.473 360.693 731.694 360.346 732.04 360.213C732.385 360.053 733.765 359.706 735.093 359.412C736.447 359.118 737.775 358.744 738.067 358.611C738.359 358.477 739.793 358.05 741.253 357.703C742.713 357.329 745.05 356.742 746.431 356.368C747.811 355.994 750.387 355.326 752.139 354.872C756.122 353.831 760.264 352.736 764.22 351.668C767.008 350.894 768.973 350.386 775.77 348.597C783.364 346.621 783.205 346.674 783.761 345.399C784.263 344.177 784.236 343.806 783.544 343.037Z" fill="#F0AC02"/>
</svg>
