<svg width="1128" height="1257" viewBox="0 0 1128 1257" fill="none" xmlns="http://www.w3.org/2000/svg">
<path d="M203.857 56.0826C203.827 56.3475 198.953 61.0532 191.285 68.1543C187.078 72.0308 183.735 75.4032 181.197 78.1973C180.93 78.4686 180.182 79.4226 179.545 80.2886C178.908 81.1546 177.538 82.8421 176.524 84.0673C175.51 85.2925 174.295 86.7966 173.814 87.4792C173.34 88.0957 172.407 89.196 171.793 89.8634C171.179 90.5307 169.505 92.5188 168.091 94.3018C166.677 96.0849 164.944 98.3009 164.166 99.2179C161.627 102.314 158.192 106.481 156.933 108.081C156.192 108.968 155.023 110.377 154.319 111.235C153.608 112.16 151.972 114.119 150.721 115.652C142.717 125.366 143.903 123.825 132.091 140.347C127.69 146.484 123.615 152.121 123.088 152.899C122.533 153.64 121.08 155.754 119.835 157.523C118.59 159.292 115.908 163.043 113.833 165.891C109.824 171.536 107.042 176.147 97.4971 193.1C94.0753 199.181 89.4811 207.276 87.3656 211.058C85.2208 214.804 81.2128 221.892 78.4664 226.776C75.7201 231.661 72.729 236.92 71.7797 238.455C69.9101 241.561 66.6105 248.328 64.942 252.599C64.3314 254.106 63.2149 256.796 62.4411 258.552C61.6968 260.345 60.7663 262.587 60.4157 263.587C59.6484 265.579 58.4426 268.46 57.2751 271.01C56.866 271.936 56.1816 273.501 55.831 274.501C55.4804 275.501 54.5054 277.838 53.7533 279.698C52.972 281.521 51.9969 283.858 51.5725 284.916C51.1849 285.945 50.4483 287.673 49.9869 288.76C49.5254 289.848 48.7212 291.869 48.1551 293.281C47.5969 294.626 46.711 296.772 46.168 297.984C45.6251 299.197 45.0222 300.637 44.7916 301.181C42.3187 307.473 40.0779 312.92 39.1411 314.926C37.9737 317.476 36.4885 321.902 35.3269 326.433C34.7722 328.617 30.7416 344.025 26.3962 360.706C22.0583 377.321 18.4014 391.531 18.2878 392.222C18.1743 392.914 17.3988 396.718 16.5711 400.683C15.2026 407.002 14.1402 412.417 11.9322 423.673C11.6083 425.313 10.6224 430.066 9.74234 434.193C6.63551 448.869 5.69294 453.828 5.42345 456.448C5.20765 458.604 4.28616 470.345 4.06489 473.709C3.80403 477.706 3.02408 489.094 2.83618 491.589C2.55638 494.879 2.43742 496.779 2.08459 501.571C1.52455 509.896 0.779251 520.113 0.484093 523.536C-0.089504 529.947 -0.140879 531.552 0.271429 538.144C0.476907 541.591 0.83691 548.345 1.12482 553.11C1.38345 557.838 1.81335 565.439 2.13189 569.94C2.38421 574.433 2.85104 582.004 3.10968 586.733C3.36831 591.461 3.79957 598.76 4.05326 602.951C4.30694 607.142 4.82823 615.693 5.14634 621.939C6.18863 640.786 6.53559 643.881 11.0081 672.824L15.2644 700.735L23.1939 730.548C30.8116 759.284 32.6099 765.5 43.3331 799.595C48.0233 814.468 48.6712 816.121 57.9277 837.361C63.2632 849.556 68.0665 860.549 68.5909 861.818C69.0862 863.05 75.7108 875.126 83.3082 888.656C95.6827 910.794 98.3502 915.298 110.131 933.574C117.297 944.74 124.129 955.027 125.271 956.468C126.421 957.843 133.343 965.892 140.691 974.326C148.009 982.724 155.738 991.638 157.87 994.1C170.397 1008.54 175.364 1014.04 180.218 1018.8C183.201 1021.73 186.097 1024.55 186.632 1025.15C187.175 1025.68 188.201 1026.67 188.905 1027.25C189.573 1027.87 197.213 1035.23 205.842 1043.61C214.471 1051.99 222.132 1059.46 222.888 1060.18C223.643 1060.91 225.938 1063.12 228.02 1065.14C232.192 1069.11 239.357 1075.64 241.99 1077.83C242.907 1078.6 249.157 1084.06 255.89 1089.97C273.668 1105.72 277.688 1109.27 277.826 1109.52C277.877 1109.66 278.244 1109.97 278.626 1110.15C278.971 1110.36 283.57 1114.42 288.895 1119.16C294.153 1123.9 299.156 1128.23 299.934 1128.76C301.732 1130.04 322.189 1142.94 325.112 1144.66C326.368 1145.41 327.623 1146.16 327.865 1146.39C328.174 1146.62 328.893 1147.07 329.488 1147.45C332.073 1148.89 351.04 1160.74 351.957 1161.52C352.265 1161.76 354.962 1163.11 357.857 1164.49C360.818 1165.87 363.294 1167.09 363.353 1167.17C363.499 1167.35 368.157 1169.74 374.696 1172.98C376.885 1174.07 380.625 1175.98 383.034 1177.2C385.407 1178.44 389.184 1180.32 391.373 1181.42C393.525 1182.54 401.328 1186.46 408.711 1190.23C428.966 1200.53 431.928 1201.91 444.937 1207.24C451.537 1209.95 459.872 1213.33 463.422 1214.85C466.979 1216.3 472.359 1218.53 475.439 1219.76C478.49 1220.95 481.981 1222.4 483.23 1222.91C492.675 1226.86 501.561 1230.4 501.863 1230.4C502.062 1230.42 503.276 1230.66 504.511 1231.01C506.953 1231.66 508.586 1232.05 509.741 1232.22C510.632 1232.35 524.593 1235.55 526.55 1236.04C528.764 1236.63 539.65 1239.13 540.511 1239.23C540.872 1239.31 542.218 1239.56 543.424 1239.87C547.801 1240.91 564.646 1244.71 565.338 1244.82C566.493 1244.99 586.171 1247.8 589.04 1248.23C590.461 1248.43 594.096 1248.92 597.135 1249.34C606.356 1250.57 616.99 1252.07 628.41 1253.72C642.635 1255.8 650.715 1256.74 653.543 1256.66C654.817 1256.67 656.872 1256.61 658.109 1256.65C659.353 1256.63 661.768 1256.64 663.484 1256.6C665.163 1256.6 668.926 1256.56 671.776 1256.59C679.397 1256.56 680.266 1256.6 683.867 1256.51C685.678 1256.52 687.291 1256.5 687.49 1256.53C687.688 1256.55 690.413 1256.49 693.609 1256.43C696.739 1256.35 699.477 1256.47 699.595 1256.62C699.741 1256.8 700.08 1256.77 700.339 1256.57C700.56 1256.39 702.858 1256.25 705.435 1256.32C707.983 1256.34 710.936 1256.35 712.011 1256.34C713.123 1256.3 715.376 1256.26 717.055 1256.25C721.62 1256.24 724.507 1256.24 726.363 1256.15C727.342 1256.1 728.984 1256.12 730.118 1256.18C736.788 1256.55 747.247 1255.78 759.442 1253.94C766.987 1252.83 774.326 1251.76 775.792 1251.56C777.221 1251.39 778.489 1251.17 778.6 1251.08C778.711 1251 780.177 1250.8 781.842 1250.62C783.507 1250.44 784.936 1250.27 784.973 1250.24C785.084 1250.15 789.866 1249.43 801.714 1247.68C803.49 1247.42 806.017 1247.04 807.351 1246.82C808.685 1246.61 811.588 1246.17 813.835 1245.89C817.585 1245.39 819.634 1245.09 824.424 1244.3C825.345 1244.17 827.12 1243.91 828.343 1243.78C829.595 1243.69 830.694 1243.48 830.804 1243.39C830.915 1243.3 832.315 1243.1 833.914 1242.91C837.958 1242.47 843.493 1241.34 847.49 1240.15C849.37 1239.56 851.685 1238.99 852.643 1238.84C853.601 1238.68 854.537 1238.42 854.722 1238.27C854.906 1238.12 856.742 1237.63 858.74 1237.19C860.774 1236.72 862.573 1236.26 862.758 1236.11C862.942 1235.97 864.749 1235.44 866.746 1235C868.751 1234.49 871.619 1233.78 873.079 1233.34C874.568 1232.95 877.03 1232.26 878.549 1231.9C882.11 1231 884.808 1230.3 887.27 1229.62C888.347 1229.3 890.145 1228.84 891.251 1228.57C892.357 1228.29 894.126 1227.79 895.232 1227.52C896.309 1227.2 898.107 1226.74 899.213 1226.47C900.319 1226.19 902.118 1225.73 903.194 1225.42C904.3 1225.14 906.099 1224.68 907.175 1224.37C908.281 1224.09 910.08 1223.63 911.156 1223.32C915.174 1222.24 916.147 1221.95 917.385 1221.69C918.078 1221.5 918.919 1221.19 919.273 1221.03C919.628 1220.87 920.233 1220.57 920.616 1220.45C921 1220.33 923.212 1219.47 925.462 1218.59C927.749 1217.68 930.028 1216.84 930.552 1216.66C931.702 1216.29 938.473 1213.75 945.119 1211.13C947.789 1210.1 951.441 1208.71 953.196 1208.04C955.018 1207.38 958.005 1206.21 959.872 1205.45C961.767 1204.73 964.792 1203.54 966.576 1202.91C980.465 1197.73 986.691 1195.26 991.701 1192.86C993.871 1191.8 996.667 1190.54 997.87 1190.01C1000.83 1188.81 1041.37 1170.27 1042.94 1169.45C1043.87 1168.95 1054.1 1162.28 1061.41 1157.45C1063.91 1155.83 1066.27 1154.32 1066.65 1154.2C1067 1154.04 1069.33 1152.5 1071.75 1150.76C1074.19 1149.06 1076.3 1147.63 1076.47 1147.62C1076.64 1147.6 1078.35 1146.49 1080.25 1145.17C1082.21 1143.85 1084.21 1142.5 1084.82 1142.21C1085.39 1141.87 1088.19 1140.08 1090.98 1138.22C1093.82 1136.33 1097.96 1133.59 1100.25 1132.08C1104.6 1129.29 1106.93 1127.75 1111.52 1124.65C1113.07 1123.66 1115.65 1121.97 1117.31 1120.96C1118.97 1119.94 1121.84 1118.09 1123.7 1116.8C1126.58 1114.81 1127.03 1114.4 1127.08 1113.4C1127.18 1112 1127.03 1111.81 1079.75 1049.66C1060.7 1024.57 1038.91 995.941 1031.4 986.011C1023.85 976.111 1014.35 963.603 1010.28 958.231C1006.2 952.86 999.999 944.659 996.441 940.019C992.921 935.35 980.864 919.458 969.649 904.703C958.435 889.949 945.587 873.059 941.137 867.141C933.363 856.879 932.982 856.399 931.811 856.364C930.876 856.323 929.304 857.148 924.969 860.104C921.837 862.225 918.824 864.192 918.219 864.492C917.584 864.754 915.414 866.114 913.346 867.452C906.773 871.76 902.106 874.677 897.803 877.066C893.816 879.324 892.738 879.937 886.198 883.678C884.647 884.607 881.857 886.096 880.079 886.965C878.3 887.833 875.983 889.008 874.913 889.556C870.41 891.922 868.159 893.105 865.466 894.337C863.872 895.059 861.813 896.029 860.854 896.489C859.895 896.948 858.33 897.707 857.342 898.13C856.383 898.59 854.612 899.392 853.401 899.99C852.257 900.596 850.738 901.259 850.074 901.485C849.41 901.71 848.038 902.256 847.013 902.708C845.95 903.19 844.253 903.933 843.228 904.385C840.896 905.391 837.06 906.927 835.77 907.349C835.246 907.523 833.911 908.04 832.782 908.514C830.562 909.432 827.125 910.712 825.591 911.206C825.067 911.381 823.703 911.861 822.574 912.334C821.446 912.808 820.295 913.178 819.986 913.243C819.684 913.242 818.253 913.714 816.881 914.26C815.509 914.806 813.901 915.359 813.378 915.533C812.825 915.671 811.431 916.114 810.215 916.476C808.998 916.839 807.501 917.304 806.808 917.492C806.144 917.718 805.171 918.008 804.648 918.182C799.951 919.619 795.372 920.902 792.748 921.539C791.023 921.943 789.497 922.371 789.386 922.459C788.536 923.132 761.753 928.661 753.633 929.803C751.857 930.068 749.743 930.361 748.851 930.526C736.236 932.524 709.572 934.409 697.01 934.198C693.462 934.124 687.137 933.963 686.504 933.923C686.136 933.915 684.133 933.817 682.16 933.757C680.158 933.66 678.089 933.555 677.522 933.523C676.956 933.491 675.093 933.343 673.356 933.276C665.221 932.806 645.858 930.466 636.124 928.737C633.034 928.178 630.4 927.74 630.201 927.717C630.003 927.694 627.575 927.212 624.794 926.588C622.014 925.965 619.586 925.483 619.35 925.489C619.151 925.466 617.548 925.113 615.819 924.678C591.054 918.56 570.003 911.662 551.211 903.516C534.595 896.292 522.891 890.409 508.357 882.016C493.352 873.334 487.523 869.472 476.64 861.133C439.01 832.182 404.797 794.867 379.072 754.674C370.912 741.951 362.839 727.593 356.411 714.399C333.661 667.636 321.413 618.866 319.334 566.908C319.062 560.265 318.912 545.883 319.09 544.058C319.136 543.66 319.21 541.857 319.285 540.053C319.606 527.404 320.942 512.087 322.978 497.958C324.27 489.113 327.895 470.537 329.865 463.079C330.547 460.372 331.117 458.055 331.14 457.857C331.163 457.658 331.739 455.577 332.449 453.209C333.196 450.812 334.072 447.59 334.455 446.024C334.83 444.523 335.255 443.163 335.366 443.075C335.44 443.016 336.164 440.818 336.897 438.251C337.667 435.656 338.428 433.428 338.613 433.281C338.835 433.106 338.969 432.819 338.896 432.576C338.751 432.089 340.258 427.766 340.701 427.415C340.886 427.268 340.954 426.974 340.807 426.789C340.661 426.604 340.781 426.148 341.033 425.708C341.278 425.333 342.03 423.474 342.686 421.57C343.85 418.18 344.9 415.482 346.552 411.646C347.014 410.558 347.758 408.765 348.19 407.64C349.404 404.693 351.837 399.034 352.989 396.617C353.561 395.441 354.149 394.133 354.298 393.714C354.715 392.722 357.457 386.998 359.196 383.574C362.806 376.44 363.549 374.949 365.651 370.997C366.825 368.682 368.108 366.582 368.367 366.377C368.662 366.143 368.885 365.665 368.85 365.393C368.822 365.054 369.022 364.775 369.294 364.739C369.596 364.741 369.686 364.549 369.568 364.402C369.422 364.217 369.757 363.35 370.328 362.476C370.862 361.631 371.559 360.537 371.819 360.03C373.934 356.248 375.01 354.493 375.513 353.913C375.854 353.583 376.217 353.055 376.284 352.76C376.627 351.827 386.712 336.011 388.653 333.45C389.135 332.767 391.462 329.479 393.87 326.065C396.278 322.652 398.382 319.841 398.544 319.893C398.743 319.916 398.95 319.571 399.07 319.115C399.153 318.689 399.316 318.439 399.433 318.587C399.551 318.734 399.714 318.485 399.797 318.058C399.917 317.602 400.554 316.736 401.263 316.113C401.944 315.454 402.425 314.771 402.279 314.586C402.132 314.401 402.185 314.24 402.383 314.263C402.582 314.286 403.826 312.819 405.182 310.962C406.567 309.142 408.218 307.05 408.84 306.317C409.491 305.62 410.468 304.424 410.958 303.675C411.447 302.926 412.024 302.289 412.223 302.311C412.385 302.364 413.044 301.601 413.622 300.661C414.238 299.692 414.859 298.958 415.058 298.981C415.191 298.996 415.501 298.63 415.717 298.218C416 297.513 421.078 291.622 423.245 289.423C423.704 288.939 424.51 288.059 425.013 287.479C427.604 284.523 432.199 279.618 435.927 275.82C445.498 266.187 447.658 264.054 453.86 258.596C464.054 249.672 465.341 248.412 465.39 247.41C465.416 246.608 462.752 242.944 450.284 226.836C441.93 216.071 429.931 200.554 423.599 192.338C417.266 184.122 404.82 168.118 395.998 156.761C387.175 145.404 375.257 130.065 369.568 122.662C363.88 115.258 351.756 99.6602 342.7 88.0079C325.721 66.2106 312.931 49.6966 289.263 19.004C279.255 6.00002 275.403 1.29244 274.639 0.93568L273.58 0.511259L238.738 28.1313C219.591 43.3695 203.909 55.9207 203.857 56.0826Z" fill="#F0AC02"/>
</svg>
