<svg width="1189" height="1381" viewBox="0 0 1189 1381" fill="none" xmlns="http://www.w3.org/2000/svg">
<path d="M377.064 3.82275C374 5.89685 369.005 9.62073 366.083 12.1663C363.115 14.6647 359.863 17.3044 358.873 18.1057C357.884 18.86 354.821 21.3112 352.087 23.5267C349.307 25.7422 346.479 27.9578 345.82 28.4762C345.113 28.9948 342.003 31.446 338.892 33.9443C335.782 36.3955 332.672 38.8468 332.012 39.3652C325.462 44.2677 322.493 46.8604 317.121 52.1399C313.728 55.5338 308.874 59.8706 306.282 61.8505C303.737 63.7831 300.815 66.0929 299.779 66.9885C297.799 68.7327 285.123 79.5746 280.693 83.3457C271.268 91.3121 256.565 105.312 246.48 115.918C234.275 128.787 217.687 146.936 212.409 153.205C210.948 154.949 206.471 160.229 202.418 164.99C198.413 169.751 193.229 175.973 190.92 178.849C188.658 181.677 186.207 184.694 185.548 185.495C183.945 187.381 183.663 187.805 178.903 193.886C151.523 229.004 126.17 266.197 106.189 300.702C103.88 304.709 101.807 308.197 101.618 308.48C101.241 308.951 99.9215 311.355 91.1563 327.335C86.0196 336.716 73.3901 361.794 68.7719 371.646C60.1009 390.171 53.4563 405.821 44.8324 427.976C40.1199 440.044 31.2133 465.97 27.8674 477.472C27.5375 478.651 26.6893 481.479 25.9824 483.836C23.6262 491.755 22.0239 497.506 20.563 503.163C17.924 513.156 16.3218 519.567 15.6149 522.725C12.0805 538.375 10.5254 545.87 8.78178 555.251C8.2634 558.221 7.60365 561.615 7.36803 562.793C7.1324 563.971 6.80253 566.611 6.66115 568.685C6.47265 570.759 6.09565 574.483 5.71865 576.935C5.38878 579.386 4.96465 583.298 4.77615 585.655C4.58765 587.965 4.25778 591.359 4.02215 593.197C3.40953 597.44 1.90153 625.11 1.00616 646.983C0.157905 668.761 -0.360469 741.024 0.29928 746.87C0.534905 749.179 1.00616 753.233 1.28891 755.826C2.7969 769.637 4.06928 778.83 6.66115 794.244C7.93353 801.786 10.8553 817.342 11.892 822.056C12.1277 823.234 12.7874 826.251 14.1069 832.662C14.7667 835.82 15.4264 838.648 16.9815 845.295C17.4057 846.898 18.0183 849.585 18.3953 851.282C19.7619 857.315 26.0295 880.649 27.1605 883.807C27.3961 884.467 28.0088 886.589 28.5743 888.521C36.774 916.663 51.5241 955.552 63.7766 981.384C70.7983 996.139 80.3175 1014.85 82.9094 1019C83.6163 1020.09 84.1818 1021.08 84.1818 1021.17C84.1818 1021.31 86.3495 1025.18 88.9885 1029.8C100.11 1049.26 115.756 1073.16 129.139 1091.03C130.741 1093.1 132.438 1095.41 132.956 1096.12C133.475 1096.87 134.134 1097.68 134.37 1098.01C134.653 1098.29 136.443 1100.55 138.376 1103C142.334 1108.09 146.057 1112.62 155.812 1123.98C159.582 1128.36 163.069 1132.51 163.587 1133.12C171.127 1142.13 196.339 1167.49 209.958 1179.74C233.332 1200.81 259.581 1221.41 283.285 1237.3C286.913 1239.75 289.977 1241.92 290.024 1242.16C290.118 1242.34 290.401 1242.53 290.636 1242.53C290.919 1242.53 292.333 1243.33 293.794 1244.37C298.176 1247.34 306.753 1252.67 316.037 1258.23C320.843 1261.06 326.263 1264.31 328.054 1265.39C332.813 1268.27 346.244 1275.62 357.035 1281.23C359.25 1282.36 361.135 1283.45 361.182 1283.64C361.277 1283.87 361.559 1284.01 361.842 1284.01C362.078 1284.01 367.214 1286.42 373.199 1289.39C379.231 1292.31 384.604 1294.86 385.216 1295.05C385.782 1295.23 386.253 1295.61 386.253 1295.85C386.253 1296.08 386.536 1296.27 386.866 1296.27C387.195 1296.27 388.374 1296.69 389.41 1297.21C390.494 1297.73 393.275 1299 395.631 1300.04C397.987 1301.08 401.239 1302.54 402.841 1303.29C410.004 1306.64 440.352 1318.94 450.343 1322.53C462.313 1326.86 467.167 1328.61 473.905 1330.92C481.21 1333.37 496.384 1338.32 505.244 1341.05C507.835 1341.85 510.286 1342.66 510.663 1342.8C511.04 1342.94 511.7 1343.13 512.077 1343.17C512.831 1343.32 515.517 1344.02 521.973 1345.91C524.188 1346.52 526.403 1347.18 526.921 1347.32C527.439 1347.42 529.56 1348.03 531.634 1348.59C537.571 1350.2 549.4 1353.26 556.61 1355.05C569.946 1358.31 578.9 1360.28 599.494 1364.57C600.813 1364.81 605.337 1365.71 609.625 1366.51C613.914 1367.26 619.003 1368.25 620.935 1368.63C622.867 1369.01 625.412 1369.43 626.59 1369.57C627.768 1369.71 629.229 1369.95 629.889 1370.09C631.067 1370.37 635.968 1371.17 643.791 1372.4C646.147 1372.78 648.551 1373.15 649.21 1373.3C650.577 1373.53 654.394 1374.05 656.75 1374.33C657.646 1374.43 658.918 1374.62 659.578 1374.76C663.065 1375.46 689.314 1378.34 697.985 1379C699.823 1379.14 702.132 1379.33 703.168 1379.47C704.205 1379.56 707.693 1379.8 710.944 1379.94C714.196 1380.08 720.463 1380.41 724.846 1380.7C732.716 1381.21 777.485 1381.03 785.637 1380.46C787.711 1380.27 792.8 1379.94 796.947 1379.66C808.729 1378.81 808.87 1378.81 814.101 1378.29C824.845 1377.3 843.036 1375.28 845.722 1374.76C846.381 1374.66 847.748 1374.43 848.785 1374.29C856.56 1373.3 870.933 1370.94 883.186 1368.63C888.888 1367.59 900.292 1365.23 903.921 1364.39C914.76 1361.89 920.368 1360.57 926.777 1358.97C936.531 1356.56 945.108 1354.3 946.569 1353.83C947.229 1353.59 949.444 1352.93 951.517 1352.37C965.183 1348.59 993.6 1339.45 1005 1335.16C1014.24 1331.67 1014.9 1331.39 1019.14 1329.64C1023.9 1327.67 1032.01 1324.37 1035.64 1322.95C1037.1 1322.43 1039.03 1321.49 1039.92 1320.92C1040.87 1320.31 1041.81 1319.84 1042.04 1319.84C1042.28 1319.79 1043.32 1319.42 1044.35 1318.9C1045.39 1318.38 1046.38 1318 1046.62 1317.95C1046.8 1317.95 1049.54 1316.73 1052.74 1315.17C1059.34 1312.01 1067.16 1308.81 1069.57 1308.29C1070.46 1308.1 1071.83 1307.44 1072.63 1306.88C1074 1305.84 1080.92 1302.4 1081.63 1302.4C1081.82 1302.4 1083.89 1301.46 1086.25 1300.28C1088.6 1299.15 1093.17 1297.12 1096.43 1295.8C1099.68 1294.48 1104.77 1292.17 1107.74 1290.66C1110.71 1289.15 1114.33 1287.41 1115.75 1286.8C1117.16 1286.18 1121.21 1284.2 1124.7 1282.32C1128.19 1280.48 1133.28 1277.79 1136.01 1276.38C1138.74 1274.92 1142.04 1273.17 1143.32 1272.47C1144.64 1271.76 1151.09 1268.32 1157.69 1264.83C1180.26 1252.81 1188.37 1248.09 1188.93 1246.54C1189.31 1245.64 1188.23 1245.36 1182.43 1244.84C1158.44 1242.77 1147.98 1241.83 1141.15 1241.17C1138.46 1240.88 1134.03 1240.41 1131.3 1240.13C1128.57 1239.85 1123.29 1239.33 1119.52 1238.95C1109.62 1238.01 1096.8 1236.55 1082.05 1234.8C1062.45 1232.44 1063.16 1232.49 1050.95 1231.27C1048.36 1230.98 1043.18 1230.47 1039.45 1230.04C1030.64 1229.1 1021.17 1228.3 1019.38 1228.3C1018.62 1228.3 1015.75 1228.01 1013.02 1227.68C1010.28 1227.31 1006.04 1226.79 1003.59 1226.51C997.653 1225.8 994.731 1225.23 989.924 1223.87C971.027 1218.49 960.659 1215.85 946.098 1212.6C889.218 1200.11 844.826 1186.34 798.597 1166.97C794.591 1165.27 789.831 1163.25 787.994 1162.4C786.203 1161.55 783.517 1160.37 782.103 1159.71C775.505 1156.79 769.096 1153.68 756.655 1147.41C749.257 1143.68 743.036 1140.48 742.753 1140.24C742.518 1140.05 740.916 1139.16 739.219 1138.26C710.049 1122.61 677.061 1100.74 647.514 1077.45C597.514 1038.09 547.797 987.277 500.154 926.845C471.455 890.454 438.232 843.692 412.407 803.294C410.852 800.89 408.307 796.931 406.799 794.574C399.589 783.355 392.379 771.099 385.169 757.947C381.399 751.018 370.655 729.805 367.874 723.772C367.026 721.933 365.612 718.916 364.717 717.031C358.638 703.926 349.448 681.111 343.746 665.084C339.976 654.383 332.248 630.296 330.975 625.252C330.834 624.733 329.609 620.066 328.195 614.881C323.247 596.78 319.477 580.706 316.272 563.5C314.482 554.072 314.057 551.857 313.445 547.944C313.068 545.587 312.644 543.278 312.549 542.712C312.125 541.156 310.099 526.873 308.685 516.126C303.36 475.257 301.192 430.946 302.323 386.589C303.831 326.345 309.958 272.042 322.399 208.31C322.776 206.378 323.294 203.596 323.577 202.182C323.859 200.768 324.284 198.741 324.519 197.704C324.755 196.667 325.367 193.697 325.933 191.105C326.498 188.512 327.252 185.118 327.582 183.562C327.912 182.007 328.572 179.226 328.949 177.434C330.598 170.175 333.143 159.522 335.405 150.565C338.657 137.744 338.892 136.942 340.07 132.653C340.636 130.579 341.296 128.08 341.531 127.09C342.144 124.592 349.59 98.8071 351.333 93.1505C357.083 74.8136 359.769 66.7057 364.811 52.2812C371.267 33.8972 373.576 27.8163 382.671 5.3783C384.368 1.27722 384.509 -0.0897217 383.331 0.0045166C383.001 0.0045166 380.174 1.70154 377.064 3.82275Z" fill="#F0AC02"/>
</svg>
