<svg width="779" height="809" viewBox="0 0 779 809" fill="none" xmlns="http://www.w3.org/2000/svg">
<path d="M549.89 3.24563C548.887 3.74541 542.811 6.77191 536.384 9.96463C529.948 13.1379 520.356 17.9039 515.058 20.5609C501.678 27.2439 460.354 47.6155 425.77 64.5984C409.812 72.4331 392.237 81.0825 386.725 83.8411C361.269 96.5401 317.951 117.834 294.957 128.936C286.263 133.132 265.032 143.374 247.792 151.674C209.982 169.901 178.332 185.277 164.748 192.033C159.236 194.791 148.01 200.285 139.793 204.279C124.217 211.813 10.9993 265.082 4.96968 267.705L1.5076 269.204L0.867887 270.319C0.508598 270.919 0.154597 271.731 0.0698269 272.105C-0.0291486 272.701 0.510424 275.999 0.996502 277.677C1.09617 277.988 1.341 279.207 1.54792 280.397C1.76507 281.559 2.38547 284.676 2.91941 287.309C3.47282 289.932 4.19091 293.456 4.51299 295.14C5.06245 297.957 5.17962 298.355 6.17314 300.197C7.48179 302.654 14.162 314.369 15.4765 316.537C16.0081 317.406 16.5581 318.314 16.6875 318.586C16.8363 318.849 17.488 319.972 18.1489 321.113C18.8201 322.226 21.7059 327.202 24.5733 332.139C27.4407 337.076 29.9089 341.273 30.0689 341.459C30.3223 341.792 32.9135 346.097 34.6356 349.073C35.5757 350.702 36.9741 352.544 38.5763 354.312C39.2452 355.068 40.8177 356.874 42.0314 358.326C43.2644 359.769 44.7047 361.447 45.2514 362.046C45.7981 362.646 46.2977 363.196 46.3921 363.294C46.4577 363.382 46.6465 363.579 46.7788 363.707C46.9111 363.835 47.542 364.562 48.1626 365.317C50.2503 367.857 51.907 369.79 52.1254 369.949C52.2495 370.009 53.342 371.256 54.5658 372.679C55.7794 374.131 57.1929 375.703 57.6842 376.185C58.1756 376.668 59.3727 377.984 60.3523 379.094C62.6132 381.647 65.9705 385.255 66.7089 385.906C67.0023 386.172 67.3038 386.506 67.3972 386.653C67.4619 386.789 67.8978 387.155 68.3541 387.463C68.8104 387.771 70.0543 388.684 71.0983 389.477C72.171 390.28 73.4057 391.173 73.8528 391.462C74.2999 391.751 74.6127 392.008 74.5348 392.045C74.4375 392.091 74.5133 392.15 74.6476 392.182C74.8014 392.205 75.429 392.622 76.0648 393.108C79.206 395.506 81.5985 397.281 82.6444 397.977C83.272 398.395 85.1804 399.804 86.8695 401.101C88.578 402.39 90.1736 403.541 90.4125 403.643C90.6606 403.763 90.7929 403.892 90.6956 403.938C90.5983 403.984 90.6547 404.053 90.8085 404.075C90.9622 404.097 92.1312 404.903 93.4224 405.864C94.694 406.835 96.3553 408.075 97.1244 408.64C97.8649 409.195 99.4503 410.375 100.637 411.267C103.295 413.25 103.599 413.44 113.061 418.755C114.1 419.335 115.739 420.275 116.72 420.836C118.816 422.036 120.829 423.061 122.157 423.599C122.683 423.803 124.347 424.445 125.877 425.055C138.546 430.04 141.139 430.933 144.164 431.477C145.518 431.718 147.65 432.089 148.88 432.317C150.109 432.545 151.876 432.852 152.808 433.006C153.749 433.18 155.727 433.529 157.235 433.792C158.743 434.054 160.721 434.404 161.644 434.539C162.575 434.693 164.736 435.075 166.464 435.4C168.193 435.725 169.903 436.011 170.258 436.057C170.614 436.103 171.315 436.223 171.823 436.34C172.332 436.456 173.465 436.682 174.339 436.816C175.223 436.969 177.086 437.278 178.488 437.519C181.11 437.969 184.952 438.173 185.517 437.905C185.692 437.822 185.874 437.855 185.939 437.991C185.994 438.108 186.071 438.119 186.121 438.024C186.143 437.918 186.452 437.867 186.779 437.903C187.346 437.992 189.14 437.952 196.065 437.719C197.541 437.663 198.871 437.652 199.034 437.694C199.168 437.725 200.422 437.703 201.801 437.645C203.161 437.596 205.032 437.567 205.947 437.586C206.843 437.614 207.836 437.596 208.146 437.545C208.455 437.494 209.564 437.468 210.605 437.451C211.656 437.454 213.392 437.393 214.464 437.29C215.545 437.207 216.577 437.17 216.769 437.222C216.932 437.264 217.067 437.248 217.03 437.17C216.993 437.092 217.38 437.052 217.871 437.081C218.372 437.082 220.205 436.975 221.944 436.818C223.662 436.671 225.274 436.55 225.524 436.574C225.746 436.589 226.933 436.526 228.12 436.416C229.317 436.325 230.987 436.225 231.836 436.204C234.237 436.138 239.302 435.452 243.83 434.592C246.124 434.148 248.396 433.761 248.899 433.713C249.392 433.646 251.384 433.321 253.3 432.937C255.226 432.572 257.954 432.088 259.365 431.896C260.767 431.684 262.111 431.452 262.353 431.408C263.729 431.042 264.861 430.863 265.012 430.981C265.108 431.032 265.301 430.987 265.41 430.864C265.519 430.741 266.44 430.471 267.446 430.28C269.643 429.834 273.13 428.99 274.692 428.512C275.322 428.332 276.379 428.045 277.009 427.865C277.648 427.705 278.472 427.481 278.811 427.392C279.965 427.059 280.711 426.872 281.281 426.816C281.59 426.765 282.636 426.555 283.624 426.325C284.592 426.104 285.414 425.977 285.451 426.054C285.488 426.132 285.538 426.49 285.55 426.866C285.572 427.214 285.629 427.687 285.683 427.9C285.746 428.085 285.808 428.867 285.85 429.61C285.883 430.334 286.079 432.102 286.252 433.523C286.425 434.943 286.558 436.431 286.56 436.836C286.536 437.539 286.842 440.447 287.807 448.41C288.055 450.391 288.239 452.236 288.224 452.506C288.209 452.776 288.411 454.66 288.648 456.718C288.886 458.776 289.26 462.129 289.478 464.196C289.715 466.255 289.992 468.747 290.107 469.743C290.221 470.738 290.399 472.419 290.502 473.491C290.905 477.355 291.927 486.698 292.846 494.564C293.083 496.623 293.266 498.516 293.251 498.785C293.255 499.046 293.439 500.891 293.687 502.872C293.936 504.854 294.292 508.167 294.51 510.235C294.728 512.302 295.083 515.664 295.301 517.732C295.538 519.79 295.9 523.268 296.125 525.451C296.849 532.455 297.343 537.064 297.728 540.34C297.914 542.088 298.099 543.885 298.099 544.338C298.119 544.782 298.213 545.835 298.34 546.705C298.438 547.565 298.537 548.377 298.515 548.531C298.502 548.656 298.545 548.946 298.627 549.169C298.68 549.382 298.786 550.358 298.843 551.333C298.9 552.308 299.102 554.192 299.276 555.564C299.461 556.908 299.522 558.143 299.442 558.276C299.363 558.41 299.361 558.506 299.438 558.469C299.516 558.432 299.608 558.675 299.63 559.023C299.661 559.39 299.852 561.35 300.069 563.418C300.307 565.476 300.669 568.954 300.894 571.137C301.119 573.321 301.464 576.711 301.666 578.643C301.867 580.576 302.204 583.899 302.43 586.034C302.647 588.149 303.01 591.579 303.228 593.647C304.268 603.53 305.178 612.282 305.651 616.948C305.868 619.064 306.214 622.407 306.415 624.339C306.802 628.02 307.274 632.734 307.951 639.235C308.327 642.945 308.56 645.244 309.486 654.132C309.868 658.054 310.279 661.986 311.069 669.531C311.286 671.646 311.651 674.98 311.861 676.98C312.09 678.97 312.254 680.824 312.258 681.085C312.243 681.354 312.401 683.045 312.615 684.852C312.828 686.659 313.184 690.021 313.425 692.339C313.667 694.658 314.029 698.136 314.231 700.068C314.729 704.889 315.282 710.376 315.7 714.877C315.899 716.953 316.189 720.179 316.372 722.072C316.546 723.946 316.698 725.925 316.726 726.437C316.734 726.958 316.899 728.812 317.085 730.561C317.507 734.869 317.842 738.288 317.945 739.813C317.989 740.508 318.199 742.508 318.384 744.257C318.57 746.006 318.701 747.637 318.676 747.888C318.652 748.138 318.799 749.905 318.982 751.798C319.193 753.702 319.487 756.783 319.65 758.685C319.824 760.559 320.123 763.804 320.322 765.881C320.52 767.958 320.664 769.869 320.649 770.139C320.653 770.399 320.793 772.051 320.979 773.799C321.164 775.548 321.457 778.677 321.636 780.763C321.955 784.452 322.31 788.316 322.967 795.28C323.15 797.173 323.297 798.94 323.292 799.181C323.277 799.45 323.409 800.986 323.587 802.619C323.757 804.232 323.925 805.894 323.946 806.289C323.99 806.936 324.075 807.063 324.769 807.521C326.319 808.527 325.378 808.854 339.866 802.194C347.047 798.882 358.374 793.651 365.039 790.559C371.705 787.468 379.811 783.741 383.05 782.276C386.29 780.81 394.133 777.184 400.468 774.25C406.822 771.306 414.86 767.587 418.372 765.992C421.884 764.397 429.416 760.919 435.108 758.29C440.82 755.651 449.383 751.683 454.18 749.478C465.516 744.266 478.993 738.039 490.475 732.733C495.545 730.399 501.052 727.882 502.734 727.155C504.408 726.409 512.688 722.599 521.125 718.667C529.563 714.735 537.395 711.138 538.543 710.641C539.7 710.163 548.751 705.916 558.659 701.215C575.634 693.16 582.321 689.963 621.952 670.8C643.242 660.531 669.211 648.209 728.686 620.202L778.118 596.914L778.479 596.218C778.66 595.845 778.847 595.184 778.865 594.77C778.909 594.057 778.872 593.98 777.577 592.709C776.84 592.01 775.216 590.347 773.932 589.048C772.667 587.739 771.373 586.469 771.051 586.192C770.709 585.925 769.424 584.674 768.169 583.385C766.913 582.097 764.704 579.853 763.221 578.386C761.738 576.919 759.253 574.448 757.704 572.893C756.136 571.347 753.652 568.876 752.188 567.399C746.653 561.915 744.585 559.819 742.073 557.29C740.676 555.853 739.258 554.474 738.974 554.227C738.661 553.97 737.329 552.67 736.007 551.342C733.788 549.078 732.532 547.838 725.826 541.144C724.494 539.796 722.237 537.551 720.82 536.124C719.423 534.687 718.006 533.308 717.722 533.062C717.409 532.804 716.124 531.554 714.839 530.255C707.616 522.923 699.553 515.179 696.814 512.925C696.416 512.589 695.262 511.514 694.26 510.558C693.249 509.583 692.322 508.735 692.178 508.684C692.045 508.604 691.004 507.666 689.86 506.563C688.717 505.46 687.288 504.158 686.691 503.654C686.094 503.15 684.874 502.035 683.986 501.168C683.069 500.291 682.208 499.483 682.008 499.363C681.638 499.086 677.607 495.416 674.61 492.568C673.561 491.563 672.425 490.527 672.102 490.299C671.524 489.834 667.825 486.46 664.543 483.366C663.513 482.4 662.339 481.334 661.931 481.027C661.533 480.691 660.351 479.606 659.301 478.601C658.272 477.587 657.297 476.689 657.154 476.638C657.021 476.558 655.856 475.512 654.542 474.299C650.353 470.347 648.299 468.483 646.907 467.307C646.177 466.675 644.852 465.49 643.983 464.663C643.132 463.826 642.3 463.076 642.156 463.025C642.003 462.954 640.953 461.997 639.809 460.894C638.646 459.8 637.596 458.843 637.443 458.772C637.186 458.632 634.678 456.363 630.185 452.221C629.154 451.255 628.046 450.278 627.743 450.04C627.43 449.783 626.123 448.638 624.836 447.483C623.569 446.319 621.288 444.277 619.801 442.954C618.335 441.622 616.357 439.817 615.421 438.95C614.485 438.082 613.377 437.105 612.959 436.778C612.144 436.115 608.567 432.898 605.672 430.216C604.642 429.25 603.553 428.264 603.23 428.035C602.918 427.778 601.734 426.742 600.599 425.706C599.463 424.67 597.287 422.697 595.754 421.325C594.22 419.954 592.025 417.942 590.843 416.857C589.66 415.772 588.591 414.824 588.467 414.764C588.314 414.693 587.168 413.686 585.9 412.523C584.633 411.359 582.693 409.584 581.625 408.588C580.536 407.601 578.965 406.2 578.122 405.479C577.279 404.757 576.418 403.997 576.21 403.762C576.003 403.526 575.066 402.707 574.127 401.935C573.189 401.164 571.928 400.116 571.333 399.564C570.726 399.04 569.666 398.112 568.965 397.539C566.936 395.877 563.696 393.12 561.708 391.344C560.686 390.446 559.748 389.674 559.614 389.594C559.461 389.524 558.372 388.585 557.199 387.52C556.026 386.455 554.936 385.516 554.784 385.446C554.631 385.375 553.618 384.496 552.51 383.519C551.422 382.532 550.408 381.653 550.256 381.583C549.998 381.442 548.833 380.445 543 375.388C541.892 374.411 540.764 373.491 540.526 373.342C540.288 373.192 539.228 372.264 538.139 371.277C537.051 370.291 535.962 369.352 535.724 369.203C535.477 369.034 534.473 368.174 533.47 367.267C532.486 366.35 531.558 365.55 531.405 365.479C531.177 365.349 528.297 362.899 523.789 358.978C522.662 358.01 521.629 357.141 521.505 357.08C521.353 357.01 520.548 356.318 519.705 355.549C518.854 354.76 517.793 353.88 517.336 353.572C516.899 353.254 515.63 352.187 514.542 351.2C513.434 350.223 512.468 349.393 512.362 349.372C512.276 349.341 511.394 348.638 510.419 347.789C509.444 346.94 508.174 345.873 507.605 345.427C507.036 344.981 505.889 344.023 505.065 343.292C504.242 342.562 503.379 341.85 503.113 341.69C502.875 341.541 501.927 340.75 500.99 339.93C500.072 339.102 498.726 337.975 498.005 337.41C496.213 335.995 495.996 335.74 496.36 335.4C496.527 335.249 498.015 334.114 499.641 332.865C501.286 331.607 502.942 330.273 503.355 329.886C503.777 329.519 505.06 328.504 506.216 327.622C509.202 325.37 511.397 323.613 511.684 323.214C511.813 323.034 512.735 322.262 513.743 321.522C514.751 320.781 516.506 319.352 517.664 318.325C518.832 317.318 521.148 315.313 522.825 313.872C524.503 312.432 526.476 310.709 527.203 310.03C527.93 309.351 529.608 307.911 530.922 306.81C532.236 305.71 533.679 304.428 534.112 303.984C534.565 303.531 535.173 303.004 535.457 302.797C535.76 302.582 536.182 302.215 536.438 301.95C536.675 301.695 536.881 301.526 536.899 301.564C536.983 301.74 540.961 297.609 545.035 293.076C547.629 290.199 549.363 288.375 549.606 288.235C549.714 288.16 549.794 288.027 549.748 287.93C549.711 287.852 549.741 287.766 549.848 287.739C549.935 287.721 550.22 287.467 550.467 287.183C550.733 286.89 551.019 286.587 551.107 286.521C551.214 286.447 551.362 286.305 551.422 286.181C551.511 286.067 552.073 285.443 552.674 284.799C554.094 283.267 555.897 280.885 560.163 274.948C562.049 272.288 564.152 269.382 564.845 268.48C566.124 266.752 567.471 264.515 568.188 262.91C568.421 262.394 569.106 260.924 569.72 259.655C570.334 258.385 571.371 256.247 571.986 254.93C572.62 253.603 573.477 251.789 573.899 250.921C574.313 250.033 574.907 248.773 575.21 248.104C575.513 247.435 576.148 246.061 576.622 245.048C578.083 241.946 588.195 213.245 589.097 209.668C589.38 208.556 590.095 205.688 590.683 203.309C591.291 200.922 591.994 198.131 592.246 197.105C592.499 196.079 592.835 194.726 593.002 194.122C593.178 193.49 593.544 192.1 593.798 191.025C594.491 188.215 594.817 186.891 595.153 185.539C595.321 184.887 595.629 183.023 595.865 181.409C596.1 179.794 596.369 177.949 596.469 177.305C596.636 176.248 597.909 167.271 598.293 164.512C598.374 163.877 598.588 162.368 598.776 161.158C598.936 159.937 599.174 158.226 599.288 157.36C599.402 156.495 599.563 155.226 599.664 154.534C599.765 153.842 599.772 152.097 599.705 150.65C599.639 149.203 599.598 147.91 599.649 147.766C599.671 147.613 599.628 146.416 599.54 145.075C599.471 143.724 599.408 142.132 599.42 141.505C599.433 140.879 599.403 139.558 599.336 138.563C599.25 137.578 599.204 136.074 599.222 135.206C599.234 133.674 598.809 130.416 597.618 122.728C597.287 120.523 596.701 116.674 596.299 114.169C595.917 111.655 595.357 107.961 595.022 105.949C594.687 103.937 594.351 101.52 594.245 100.592C593.764 96.3119 592.683 92.1733 588.96 80.5572C587.864 77.1412 586.789 73.6196 586.566 72.7475C586.03 70.6638 582.764 60.7152 581.213 56.4416C580.557 54.606 579.956 52.8873 579.894 52.6546C579.85 52.4127 577.694 46.6612 575.144 39.8798C572.565 33.088 570.079 26.4429 569.567 25.1116C568.736 22.8579 563.713 10.7136 560.89 4.06144C559.723 1.29953 559.629 1.15299 558.859 0.635759C558.412 0.346977 557.666 0.0808864 557.204 0.0616693C556.318 0.00473334 555.589 0.327038 549.89 3.24563Z" fill="#F0AC02"/>
</svg>
