<svg width="469" height="241" viewBox="0 0 469 241" fill="none" xmlns="http://www.w3.org/2000/svg">
<path d="M468.082 210.99C468.02 210.926 467.841 208.676 467.636 205.199C467.529 203.295 467.369 201.721 467.187 200.476C467.173 200.35 467.086 199.956 466.998 199.609C466.91 199.261 466.766 198.552 466.665 198.031C466.564 197.511 466.434 196.88 466.361 196.611C466.302 196.359 466.216 195.886 466.175 195.586C466.133 195.287 465.975 194.436 465.816 193.694C465.656 192.953 465.453 192.038 465.381 191.643C465.122 190.334 464.777 188.568 464.631 187.906C464.56 187.527 464.445 186.928 464.373 186.565C464.285 186.186 464.127 185.351 463.998 184.704C463.192 180.588 463.337 181.219 461.585 174.682C460.937 172.25 460.349 170.008 460.26 169.708C460.187 169.408 459.95 168.586 459.759 167.891C459.567 167.197 459.169 165.712 458.875 164.575C458.271 162.349 457.673 160.656 455.33 154.611C454.489 152.443 453.379 149.547 452.853 148.202C452.343 146.857 451.367 144.325 450.691 142.584C450.015 140.844 449.295 138.961 449.101 138.391C448.697 137.253 447.654 134.971 446.908 133.638C446.649 133.161 446.193 132.305 445.905 131.734C445.601 131.162 445.221 130.448 445.038 130.147C444.687 129.527 444.201 128.607 443.792 127.767C443.64 127.466 443.382 126.958 443.199 126.656C443.016 126.354 442.621 125.609 442.301 125.021C441.997 124.435 441.602 123.689 441.42 123.356C441.237 123.038 440.948 122.483 440.766 122.134C440.584 121.785 440.234 121.15 439.99 120.705C439.762 120.277 439.397 119.595 439.2 119.198C439.003 118.802 438.76 118.342 438.669 118.167C437.573 116.199 436.645 114.469 436.327 113.804C435.918 112.963 435.093 111.644 434.173 110.386C433.728 109.781 430.615 105.482 427.242 100.833C423.884 96.1991 421.001 92.2499 420.847 92.0743C420.693 91.8987 419.878 90.894 419.033 89.8416C417.696 88.1518 416.527 86.7321 414.097 83.7811C413.744 83.3505 412.729 82.0908 411.853 80.9907C408.733 77.0844 407.657 75.7921 407.039 75.1681C406.53 74.6561 403.703 71.9337 402.884 71.1647C401.911 70.2514 399.145 67.6401 398.542 67.0636C397.755 66.2951 397.291 65.8624 396.132 64.7573C394.108 62.8508 391.636 60.4962 390.818 59.6958C389.289 58.1911 388.887 57.8381 387.103 56.5488C386.172 55.8721 384.358 54.5351 383.07 53.6005C381.798 52.6661 379.751 51.1678 378.525 50.2972C377.316 49.4111 375.268 47.9285 373.996 46.9941C372.724 46.0598 370.754 44.6257 369.622 43.8039C368.49 42.9821 366.179 41.3062 364.504 40.066C359.432 36.3446 358.562 35.7789 350.166 30.8034L342.081 25.9907L332.729 21.7209C323.721 17.5987 321.74 16.7459 310.695 12.2885C305.874 10.3474 305.312 10.1644 297.885 8.05076C293.617 6.84252 289.771 5.75187 289.333 5.61828C288.912 5.48497 284.401 4.63381 279.31 3.72506C270.993 2.22397 269.269 1.95724 262.071 1.1206C257.681 0.601605 253.587 0.182239 252.974 0.171219C252.377 0.176191 248.84 0.254001 245.114 0.359839C241.403 0.46596 237.473 0.568126 236.388 0.595758C230.021 0.764093 227.552 0.876828 225.3 1.1192C223.915 1.26714 222.576 1.41593 222.309 1.42683C222.057 1.45373 221.585 1.50809 221.285 1.56557C220.986 1.60733 217.474 2.01561 213.49 2.46254C209.507 2.90947 205.964 3.30148 205.617 3.34239C205.271 3.38331 204.216 3.50576 203.255 3.6142C201.35 3.84708 198.151 4.30814 197.032 4.52373C196.638 4.59521 193.911 5.04904 190.964 5.53033C183.147 6.77264 181.382 7.05519 181.288 7.03778C181.241 7.02123 181.083 7.04982 180.957 7.1104C180.83 7.15527 178.813 7.48042 176.465 7.84678C174.133 8.1977 171.958 8.56716 171.657 8.65605C170.947 8.84756 163.296 11.3815 162.236 11.771C161.777 11.9356 161.318 12.1002 161.208 12.1139C161.082 12.1431 160.813 12.2326 160.592 12.3072C159.674 12.6678 152.607 15.0394 152.213 15.1108C152.087 15.14 151.168 15.5478 150.201 16.0018C149.218 16.4713 148.379 16.8491 148.347 16.8485C148.269 16.8471 146.669 17.5412 144.451 18.5385C143.707 18.8708 142.424 19.4292 141.6 19.7916C140.777 20.1382 139.494 20.7123 138.749 21.0446C138.005 21.3612 135.344 22.5391 132.809 23.6407C125.872 26.6746 124.889 27.1441 120.764 29.3643C118.669 30.4895 116.035 31.9193 114.893 32.5117C113.766 33.12 112.053 34.0321 111.084 34.5647C110.132 35.0976 109.021 35.6905 108.625 35.9033C105.61 37.4992 102.817 39.0361 102.753 39.1136C102.705 39.1598 102.386 39.4213 102.035 39.6664C101.351 40.157 100.905 40.4947 100.617 40.7566C100.394 40.9569 96.6169 43.8748 96.0754 44.2737C95.4546 44.7182 92.5066 46.991 92.2987 47.1916C92.203 47.2684 91.852 47.5607 91.5176 47.8061C90.3228 48.7118 85.7807 52.2445 85.605 52.3985C85.3175 52.6605 80.4285 57.1299 79.7097 57.777C79.3582 58.1006 78.4632 58.9332 77.7122 59.6268C75.4427 61.7389 72.8064 64.1588 69.9627 66.7477C66.4162 69.9683 64.4652 71.8504 63.8861 72.5943C63.6131 72.9194 63.1947 73.4619 62.922 73.7713C62.6648 74.0967 62.1508 74.7161 61.797 75.1654C61.4434 75.5991 60.6559 76.575 60.0457 77.3026C58.4389 79.2695 58.2464 79.486 57.5065 80.4313C57.121 80.8958 56.7835 81.3141 56.7355 81.3604C56.6876 81.4066 56.1247 82.1194 55.4654 82.9561C54.8221 83.7775 54.2127 84.4579 54.1498 84.4568C54.0713 84.4554 54.0068 84.5485 54.0048 84.6585C54.0031 84.7528 53.5519 85.3732 52.9902 86.0232C52.4443 86.6734 51.8178 87.4321 51.5927 87.711C51.3674 88.0055 50.9011 88.5943 50.5476 89.0279C49.5836 90.2049 48.9731 90.9482 48.6027 91.4445C48.4094 91.7081 48.0562 92.1261 47.7997 92.4043C46.2931 94.043 44.2775 96.8983 42.1711 100.428C40.8591 102.604 39.5797 104.718 39.3207 105.138C39.062 105.542 38.851 105.915 38.8502 105.962C38.8493 106.01 38.5903 106.429 38.2834 106.895C37.9764 107.361 37.7177 107.765 37.7175 107.781C37.7166 107.828 36.8903 109.212 34.8331 112.632C34.5253 113.145 34.0878 113.876 33.8608 114.264C33.6338 114.653 33.1316 115.493 32.7273 116.13C32.0637 117.202 31.7074 117.793 30.8965 119.193C30.7346 119.457 30.4268 119.97 30.2006 120.312C29.9588 120.653 29.78 120.98 29.7792 121.027C29.7784 121.074 29.5354 121.478 29.2444 121.929C28.5012 123.063 27.6226 124.728 27.081 126.007C26.8344 126.616 26.4915 127.332 26.3293 127.612C26.1671 127.892 26.0361 128.189 26.0347 128.267C26.0333 128.346 25.7715 128.922 25.462 129.53C25.1522 130.153 24.8907 130.714 24.8893 130.792C24.8879 130.871 24.6418 131.448 24.3323 132.055C24.0382 132.679 23.6136 133.567 23.4167 134.035C23.204 134.502 22.8599 135.282 22.6315 135.749C22.1088 136.855 21.7165 137.697 21.3725 138.477C21.2249 138.82 20.9634 139.381 20.8 139.723C20.6367 140.066 20.3909 140.628 20.2276 140.97C20.08 141.313 19.8185 141.874 19.6552 142.217C19.4919 142.56 19.2304 143.121 19.0828 143.464C18.9195 143.807 18.6579 144.368 18.5103 144.711C18.347 145.054 18.0855 145.615 17.9379 145.958C17.3652 147.22 17.2339 147.532 17.0386 147.906C16.9404 148.124 16.841 148.405 16.8073 148.53C16.7737 148.656 16.7226 148.875 16.6732 149C16.6238 149.124 16.3746 149.874 16.1251 150.64C15.8754 151.421 15.6102 152.186 15.5442 152.358C15.3961 152.732 14.6165 155.013 13.8843 157.278C13.5851 158.184 13.1701 159.418 12.9708 160.012C12.7556 160.621 12.423 161.636 12.2229 162.277C12.0071 162.918 11.6743 163.949 11.4593 164.542C9.85106 169.212 9.16855 171.337 8.72762 173.136C8.54069 173.918 8.27154 174.904 8.15395 175.326C7.8371 176.342 4.02742 190.699 3.907 191.279C3.83794 191.623 3.38802 195.67 3.08439 198.571C2.97233 199.559 2.86141 200.485 2.81202 200.609C2.77834 200.734 2.68312 201.66 2.61819 202.649C2.53755 203.637 2.45946 204.485 2.42719 204.531C2.39492 204.578 2.31994 205.252 2.25896 206.021C2.182 206.805 2.10475 207.605 2.05366 207.825C2.01829 208.044 1.88854 209.142 1.77423 210.255C1.65962 211.385 1.48857 213.032 1.39363 213.941C1.19003 215.651 1.09481 216.576 0.920369 218.412C0.846512 219.023 0.733889 220.043 0.643757 220.685C0.553626 221.328 0.423315 222.457 0.362624 223.21C0.263167 224.372 0.275202 224.576 0.522593 224.801C0.862544 225.121 0.941089 225.122 26.9462 226.109C37.436 226.517 49.4178 226.969 53.5634 227.138C57.7092 227.291 62.9383 227.495 65.1839 227.582C67.4295 227.67 70.8527 227.81 72.8 227.876C74.7471 227.959 81.3896 228.22 87.561 228.456C93.7325 228.693 100.799 228.962 103.264 229.069C107.551 229.24 107.755 229.244 108.012 228.95C108.221 228.718 108.341 228.139 108.498 226.397C108.615 225.142 108.746 223.95 108.797 223.731C108.864 223.512 108.974 222.665 109.067 221.85C109.35 219.246 109.587 217.428 109.883 215.814C110.145 214.31 110.216 213.903 110.637 211.428C110.727 210.832 110.934 209.799 111.087 209.157C111.24 208.516 111.428 207.67 111.513 207.279C111.857 205.619 112.03 204.79 112.282 203.836C112.434 203.273 112.62 202.537 112.705 202.193C112.79 201.849 112.925 201.286 113.026 200.942C113.111 200.598 113.279 199.972 113.381 199.534C113.467 199.111 113.618 198.579 113.701 198.361C113.783 198.142 113.933 197.674 114.034 197.314C114.135 196.939 114.303 196.345 114.404 195.985C114.638 195.172 115.055 193.859 115.219 193.438C115.285 193.266 115.435 192.813 115.552 192.423C115.786 191.657 116.184 190.501 116.381 190.002C116.447 189.83 116.612 189.377 116.73 188.986C116.847 188.596 116.995 188.221 117.044 188.128C117.108 188.05 117.289 187.582 117.439 187.113C117.589 186.645 117.787 186.114 117.853 185.942C117.935 185.771 118.116 185.318 118.28 184.929C118.444 184.539 118.641 184.055 118.739 183.837C118.822 183.618 118.953 183.306 119.019 183.135C119.643 181.621 120.282 180.171 120.674 179.361C120.935 178.832 121.148 178.348 121.149 178.301C121.155 177.94 125.402 169.876 126.827 167.544C127.134 167.031 127.507 166.425 127.653 166.161C129.809 162.491 134.968 155.229 137.681 152.04C138.452 151.143 139.832 149.549 139.976 149.395C140.056 149.302 140.505 148.807 140.938 148.312C141.387 147.817 141.852 147.307 141.98 147.168C142.109 147.029 142.541 146.581 142.926 146.147C144.769 144.153 149.47 139.665 151.975 137.526C152.773 136.848 153.444 136.263 153.492 136.217C153.54 136.171 154.177 135.648 154.927 135.064C155.676 134.481 156.314 133.958 156.362 133.896C156.41 133.85 156.84 133.512 157.318 133.159C164.135 128.08 170.366 124.122 176.441 121.009C181.817 118.262 185.809 116.495 191.046 114.53C196.457 112.506 198.685 111.823 203.135 110.788C218.551 107.23 235.398 106.323 251.188 108.21C256.19 108.803 261.594 109.765 266.351 110.903C283.203 114.947 298.348 122.118 312.161 132.581C313.928 133.917 317.662 136.923 318.094 137.355C318.186 137.451 318.635 137.852 319.083 138.253C322.271 141.013 325.931 144.599 329.136 148.114C331.139 150.319 335.153 155.184 336.655 157.27C337.208 158.018 337.683 158.655 337.73 158.703C337.776 158.751 338.19 159.34 338.649 160.024C339.108 160.724 339.751 161.631 340.074 162.061C340.38 162.475 340.64 162.873 340.64 162.92C340.639 162.952 341.052 163.603 341.557 164.335C342.062 165.083 342.474 165.75 342.473 165.829C342.471 165.923 342.517 166.018 342.595 166.051C342.751 166.117 343.544 167.42 343.541 167.608C343.54 167.687 343.601 167.766 343.68 167.768C343.758 167.769 343.85 167.897 343.91 168.055C343.955 168.197 344.274 168.784 344.625 169.356C345.251 170.373 345.723 171.215 346.361 172.452C346.543 172.801 346.847 173.372 347.045 173.721C347.547 174.658 348.488 176.482 348.867 177.29C349.048 177.686 349.261 178.114 349.337 178.241C349.504 178.559 350.397 180.476 350.91 181.648C351.982 184.088 352.208 184.595 352.781 185.972C353.128 186.764 353.397 187.539 353.395 187.649C353.392 187.775 353.468 187.933 353.546 187.982C353.639 188.046 353.668 188.157 353.62 188.235C353.556 188.312 353.586 188.375 353.649 188.376C353.727 188.378 353.88 188.648 353.984 188.98C354.088 189.296 354.222 189.707 354.297 189.881C354.823 191.226 355.047 191.875 355.09 192.127C355.103 192.284 355.162 192.49 355.223 192.569C355.391 192.855 357.327 198.799 357.575 199.84C357.649 200.109 358.003 201.404 358.372 202.746C358.74 204.089 359.019 205.225 358.971 205.256C358.923 205.302 358.968 205.429 359.06 205.556C359.152 205.668 359.182 205.762 359.119 205.761C359.056 205.76 359.086 205.855 359.178 205.967C359.27 206.094 359.358 206.441 359.368 206.756C359.394 207.071 359.468 207.339 359.546 207.34C359.625 207.342 359.655 207.39 359.607 207.436C359.559 207.482 359.674 208.113 359.865 208.855C360.04 209.597 360.229 210.464 360.286 210.78C360.327 211.095 360.428 211.599 360.517 211.884C360.607 212.168 360.649 212.452 360.601 212.498C360.553 212.529 360.61 212.86 360.729 213.208C360.848 213.571 360.906 213.887 360.858 213.933C360.826 213.964 360.854 214.121 360.915 214.264C361.036 214.486 361.477 217.04 361.585 218.063C361.612 218.284 361.668 218.678 361.711 218.93C361.923 220.222 362.213 222.443 362.401 224.207C362.855 228.709 362.947 229.717 363.039 232.469C363.177 236.981 363.229 237.579 363.477 237.804C363.678 237.98 365.185 238.07 371.97 238.271C376.509 238.4 383.043 238.596 386.498 238.705C389.953 238.814 396.707 238.999 401.497 239.132C406.288 239.265 412.759 239.445 415.868 239.548C418.978 239.651 425.559 239.832 430.475 239.967C439.679 240.212 446.637 240.415 459.547 240.82C465.012 240.997 467.039 241.002 467.293 240.881L467.626 240.699L467.893 225.884C468.023 217.731 468.112 211.038 468.082 210.99Z" fill="#F0AC02"/>
</svg>
