<svg id="Слой_1" data-name="Слой 1" xmlns="http://www.w3.org/2000/svg" xmlns:xlink="http://www.w3.org/1999/xlink" viewBox="0 0 2213.36 934.97"><defs><style>.cls-1,.cls-14,.cls-20,.cls-23,.cls-29,.cls-5{fill:none;}.cls-2{fill:#e25d35;}.cls-3{fill:#d9d9d9;}.cls-25,.cls-31,.cls-4,.cls-8{fill:#338862;}.cls-10,.cls-11,.cls-14,.cls-23,.cls-24,.cls-25,.cls-26,.cls-27,.cls-28,.cls-29,.cls-5,.cls-7,.cls-8,.cls-9{stroke:#22211d;}.cls-10,.cls-11,.cls-14,.cls-23,.cls-24,.cls-25,.cls-26,.cls-27,.cls-28,.cls-29,.cls-31,.cls-5,.cls-7,.cls-8,.cls-9{stroke-miterlimit:10;}.cls-11,.cls-14,.cls-5,.cls-7{stroke-width:3.35px;}.cls-10,.cls-24,.cls-26,.cls-27,.cls-6,.cls-7,.cls-9{fill:#fff;}.cls-10,.cls-8{stroke-width:4.09px;}.cls-9{stroke-width:5.58px;}.cls-11,.cls-28,.cls-33{fill:#22211d;}.cls-12{fill:#e15d34;}.cls-13{fill:#020203;}.cls-14,.cls-20,.cls-29{stroke-linecap:round;}.cls-15{fill:#f0ac06;}.cls-16,.cls-17{fill-rule:evenodd;}.cls-16{fill:url(#Безымянный_градиент);}.cls-17{fill:url(#Безымянный_градиент_2);}.cls-18{fill:url(#Безымянный_градиент_3);}.cls-19{fill:#2b7454;}.cls-20{stroke:#fff;stroke-linejoin:round;stroke-width:9.05px;}.cls-21{fill:url(#Безымянный_градиент_4);}.cls-22{clip-path:url(#clip-path);}.cls-23,.cls-24,.cls-28,.cls-29{stroke-width:3.16px;}.cls-25,.cls-27,.cls-31{stroke-width:3.87px;}.cls-26{stroke-width:5.27px;}.cls-30{clip-path:url(#clip-path-3);}.cls-31{stroke:#338862;}.cls-32{clip-path:url(#clip-path-4);}.cls-34{fill:#f0ac02;}</style><linearGradient id="Безымянный_градиент" x1="841.29" y1="422.06" x2="779.79" y2="422.06" gradientTransform="matrix(1, 0, 0, -1, 0, 1035.34)" gradientUnits="userSpaceOnUse"><stop offset="0" stop-color="#898989"/><stop offset="1" stop-color="#eee"/></linearGradient><linearGradient id="Безымянный_градиент_2" x1="778.1" y1="422.4" x2="841.09" y2="422.26" gradientTransform="matrix(1, 0, 0, -1, 0, 1035.34)" gradientUnits="userSpaceOnUse"><stop offset="0" stop-color="#56e6f6"/><stop offset="1" stop-color="#3c93a7"/></linearGradient><linearGradient id="Безымянный_градиент_3" x1="513.75" y1="1170.39" x2="685.73" y2="826.41" gradientTransform="matrix(0.87, -0.5, -0.87, -0.5, 1151.77, 1098.83)" gradientUnits="userSpaceOnUse"><stop offset="0" stop-color="#56e6f7"/><stop offset="1" stop-color="#43a1b6"/></linearGradient><radialGradient id="Безымянный_градиент_4" cx="548.37" cy="1028.53" r="1" gradientTransform="matrix(0.5, 179.62, 169.27, 97.12, -173705.47, -197784.1)" gradientUnits="userSpaceOnUse"><stop offset="0" stop-color="#a7a7a7"/><stop offset="1" stop-color="#4e4e4e"/></radialGradient><clipPath id="clip-path"><path class="cls-1" d="M583.79,538.69h118a55,55,0,0,1,55,55v136h-173Z"/></clipPath><clipPath id="clip-path-3"><rect class="cls-1" x="709.79" y="535.67" width="14" height="94"/></clipPath><clipPath id="clip-path-4"><rect class="cls-1" x="533.79" y="512.67" width="176" height="217"/></clipPath></defs><title>Background</title><path class="cls-2" d="M1111.1,7c-.66-.59-7.32-5.25-8.15-4.92L1095.44,0s-12.16.23-13.32,2.06h0l0,0c-.35.41-5.54,2.14-7.12,4.41s-3,4.34-3.17,4.62a19.87,19.87,0,0,1-1.4,2.06,41,41,0,0,0-3.65,4.59c-2.44,3.51-4.72,6.87-5.08,7.48s-1.46,2.22-2.48,3.61-3,4.4-4.55,6.63c-3.24,4.86-6.74,9.95-9.18,13.54-5.43,7.93-7.23,10.71-13.36,20.75-2.62,4.31-3.88,6.36-5.23,8.44-.48.75-2.23,3.64-3.9,6.41s-3.45,5.67-3.9,6.41c-1.59,2.44-7.3,11.8-8.57,13.94-.7,1.18-13.93,22.78-14.71,24-.4.63-2.56,4.11-4.76,7.74s-5.63,9.24-7.56,12.42-3.82,6.29-4.2,6.87-1.6,2.61-2.74,4.53-3.9,6.41-6.14,10-4.4,7.22-4.84,8-1,1.61-1.21,2-3.22,5.28-6.7,10.92-6.36,10.35-6.41,10.54-.59,1-1.18,1.94-1.09,1.81-1.16,2-.59,1-1.16,2-1.16,1.88-1.33,2.12c-1.35,2.34-5.34,9-8.35,13.81-2,3.26-3.87,6.26-4.07,6.64s-.72,1.23-1.16,2-1.1,1.9-1.55,2.63-1.71,2.88-2.85,4.79c-2.19,3.62-3.59,6-6.34,10.69-1,1.54-2.21,3.67-2.9,4.68a17.47,17.47,0,0,0-1.4,2.45,29.25,29.25,0,0,1-1.62,3c-1.5,2.44-4.71,7.76-6.12,10.17-.47.79-1.31,2.15-1.84,3.09s-1.38,2.31-1.8,3.08-1.15,2-1.65,2.81-2,3.44-3.45,5.88-2.82,4.86-3.15,5.34-1.51,2.41-2.59,4.25L889.66,305c-1.17,2-2.33,3.94-2.52,4.31-.33.69-2.06,3.62-4.74,8.08-.7,1.09-1.46,2.42-1.78,3-.75,1.37-4.16,7-5.52,9.08a9.79,9.79,0,0,0-1.18,2.31,1.22,1.22,0,0,1-.64.82c-.32.13-.53.38-.46.52a17.73,17.73,0,0,1-2.12,4.07c-1.28,2.1-3,5-3.88,6.44s-2.31,4-3.26,5.51-2.28,3.92-3,5.27-2.31,4.36-3.55,6.65-2.44,4.67-2.7,5.2a16.16,16.16,0,0,1-1.58,2.56c-.62.85-2.06,2.93-3.17,4.62s-2.31,3.37-2.64,3.76-2,2.79-3.82,5.31-3.64,5-4.15,5.52a6.77,6.77,0,0,0-1,1.18,14.5,14.5,0,0,1-2,2.11c-1.07,1-2.84,2.68-3.88,3.74s-2.5,2.5-3.18,3.12-2.15,2-3.21,3c-1.35,1.28-2,1.72-2.25,1.47-.87-1.11-6.87-9.61-11.58-16.41-2.94-4.21-5.85-8.27-6.43-9s-3-4.06-5.33-7.49-4.62-6.62-5.11-7.15-3-3.93-5.57-7.6-5.87-8.31-7.36-10.32-3.91-5.53-5.46-7.86c-3.69-5.67-4.5-6.85-5-7.41-.21-.26-2.57-3.76-5.17-7.77s-5.63-8.48-6.71-9.93-4.13-6-6.77-10.08-5-7.55-5.16-7.64c-.55-.34-5.41-7.94-9.6-14.94-4.74-8-4.94-8.33-6.41-10.48-.58-.92-3.65-6.07-6.76-11.42s-6.27-10.7-7-11.94-1.68-2.8-2.09-3.44-2.32-3.82-4.27-7.06-5.65-9.42-8.21-13.83c-4.7-8.13-5.25-9.06-8.68-14.49-2.47-3.93-5.47-9.24-14-24.55-3-5.27-6.22-10.89-7.24-12.5s-5.87-10.06-10.76-18.79-9.71-17.21-10.77-18.8-5.71-9.73-10.41-18.07S631.17,95.61,629,92s-4.94-8.33-6.2-10.44c-2.52-4.34-3.21-4.87-5.86-4.62a2.91,2.91,0,0,0-2.16.87c-.56.7-5.82,9.45-8,13.46-.49.84-1.7,2.91-2.71,4.6s-2.7,4.51-3.78,6.36-2.56,4.41-3.32,5.66-2.9,4.89-4.77,8.12-4,6.9-4.76,8.13-2.06,3.4-2.85,4.79-2.13,3.55-2.85,4.78-1.46,2.52-1.65,2.81c-.26.53-5,8.59-6.71,11.48-1.65,2.71-8.35,14.11-10.45,17.73-.65,1.08-2.79,4.72-4.76,8.13-3.68,6.23-4.44,7.52-8.14,13.84l-1.32,2.25c-1.92,3.3-4.12,7-4.84,8.25-3.19,5.26-6.93,11.61-7.43,12.62-.25.44-1.16,2-2,3.33-1.24,2-5.35,9.05-7.22,12.28-.14.28-1.2,2-2.32,3.85-2.24,3.61-2.88,4.67-5.48,9l-.48.8-.72,1.21c-2.19,3.67-3,4.95-3.31,5.72-.36.61-1.71,3-4.54,7.69l-3,5h0c-.94,1.58-2.56,4.33-3.64,6.09s-2,3.44-2.21,3.67-1.51,2.62-3.11,5.24c-3.34,5.62-5.2,8.77-5.61,9.58-.13.31-1,1.69-1.88,3.11s-2.48,4.08-3.53,6a21.05,21.05,0,0,1-2.31,3.58.7.7,0,0,0-.41.51,109.61,109.61,0,0,1-5.43,9.55c-.69,1.09-1.71,2.87-2.29,3.92l-.14.25c-.65,1.12-1.79,3.1-2.71,4.54s-2.47,4.12-3.34,5.62-2.47,4.21-3.53,5.92l-3.91,6.58a18.9,18.9,0,0,1-2.1,3.33,11.79,11.79,0,0,0-1.65,2.81,24,24,0,0,1-1.31,2.24c-.57.95-1.1,1.81-1.16,2a16.62,16.62,0,0,1-1.06,1.71c-.52.77-1.36,2.14-1.85,3.06a26.21,26.21,0,0,1-1.48,2.57,16.55,16.55,0,0,0-1.21,2c-.32.6-.85,1.54-1.19,2.11-1.64,2.71-4.08,6.9-5.24,8.87-.68,1.22-2.59,4.55-4.24,7.36-2.52,4.4-4.48,7.84-5.73,10.1-.76,1.33-1.06,1.88-2.77,4.76a19.85,19.85,0,0,0-1.8,3.37c0,.18-.25.45-.57.57s-.48.37-.41.51c.21.43-3.56,6.53-7.79,12.56-2.13,3.08-4.13,5.94-4.42,6.4-2.95,4.48-4.55,6.71-4.87,6.84a1,1,0,0,0-.48.75,13.16,13.16,0,0,1-1.77,2.94c-.92,1.31-1.8,2.69-2,3.07s-1.41,2.24-2.72,4.09-3.89,5.38-5.65,7.84-3.68,5.12-4.22,5.85-2,2.64-3.13,4.22c-6.79,9.28-8.7,11.93-9.43,13a73.22,73.22,0,0,1-4.6,6.14c-.12,0-.31.33-.5.62h0a45.32,45.32,0,0,1-3.89,5.85c-.93,1.19-3.19,4.37-5,7.08a57.68,57.68,0,0,1-3.77,5,3.35,3.35,0,0,0-.84,1.19,29.34,29.34,0,0,1-2.25,3.39c-1,1.26-2.24,3-2.82,3.79s-1.59,2.26-2.25,3.22-3.19,4.49-5.58,7.89-4.41,6.23-4.57,6.3a92,92,0,0,0-5.74,7.27c-.54.73-1.57,2-2.25,2.83s-2.72,3.5-4.58,5.87c-3.95,5.15-5.93,7.66-6.56,8.3a8.12,8.12,0,0,0-1.17,1.75,4.26,4.26,0,0,1-1.18,1.46,7,7,0,0,0-1.58,1.79c-.56.87-1.19,1.42-1.37,1.24s-1.43-1-2.73-1.86-2.94-2-3.65-2.56a9.76,9.76,0,0,0-1.64-1.05,23.39,23.39,0,0,1-2.84-1.89c-6.73-5-10.42-7.42-14.91-9.59a86.36,86.36,0,0,1-9.18-5.34c-.07-.15-4.52-3.71-9.65-7.68a30.32,30.32,0,0,1-2.66-2.19c-.05-.1-2.44-2-5.31-4.24-6.81-5.31-11.49-9-11.57-9.22s-1.66-1.39-3.59-2.93c-5.93-4.67-8.48-6.73-15.1-12-1.46-1.17-3.87-3.11-5.37-4.27-6.32-5-9.19-7.3-10.44-8.43a8.6,8.6,0,0,0-1.64-1.26,18.84,18.84,0,0,1-2.19-1.69c-1-.89-3.23-2.68-4.91-4-8.11-6.33-12.82-10.13-13-10.42s-1.55-1.34-3.23-2.68-3.94-3.08-4.9-3.89-3.37-2.67-5.33-4.2-4.12-3.35-4.83-4a11.37,11.37,0,0,0-1.79-1.46,16.28,16.28,0,0,1-2.35-1.84c-1.7-1.54-3.88-3.32-8.61-7.07-1.2-.93-4.14-3.3-6.56-5.28s-5.19-4.21-6.19-5-3.27-2.67-5.08-4.17-4.43-3.61-5.82-4.72-3-2.48-3.6-3.05a6.5,6.5,0,0,0-1.52-1.1,17.22,17.22,0,0,1-2.55-2c-1.22-1.06-3.88-3.24-6-4.87s-4.77-3.82-6-4.89a30.37,30.37,0,0,0-3-2.45,24.58,24.58,0,0,1-2.62-2.11c-1-.88-2.41-2.15-3.19-2.78s-2.52-2.2-3.83-3.43-3.93-3.64-5.76-5.39-4.65-4.34-6.27-5.83-4.46-4.16-6.39-6-4.94-4.57-6.59-6.13C86,350.68,82.07,347,78,343.25l-6.06-5.7-.25-.24c-2.69-2.53-6.85-6.44-12.6-11.72-2-1.78-4.71-4.36-6.06-5.7s-4.08-3.84-6-5.6-5-4.66-7-6.41-4.59-4.32-6-5.66C30.38,298.59,27,296,26,295.93a9.83,9.83,0,0,0-2.4.28c-1.38.34-1.55.58-2.84,3.84-.77,1.9-1.87,4.87-2.45,6.6s-1.4,4-1.8,5-.94,2.52-1.21,3.32c-1.72,5.1-5.66,16.07-6,16.86-.28.49-.38.87-.22.81s.06.32-.2.85-1.24,3.16-2.22,5.9c-2.51,7.34-2.67,7.75-3.23,9.13l0,.06c-.31.73-1.23,3.28-2,5.62C-.18,358.64-.45,362.64.75,364c.52.6,2.51,4.13,9.82,17.25,1,1.83,2.94,5.28,4.3,7.69a47.11,47.11,0,0,1,2.48,4.74c0,.19,1,1.67,2,3.27s5.53,9.47,9.93,17.46S38,430.33,38.92,432s2.42,4.3,3.35,5.93,2.15,3.76,2.7,4.7,2.83,4.85,4.94,8.72,4.61,8.25,5.5,9.77,2.79,5.09,4.3,7.91,3.15,5.71,3.61,6.47,2.31,4.08,4.08,7.35A59,59,0,0,0,70.91,489a35.72,35.72,0,0,1,2.23,3.82c1.11,2,2.46,4.4,3,5.32s2.59,4.66,4.48,8.26,4.31,8.2,5.43,10.23S90,524,92.32,528.46s5.37,10.3,6.74,12.92c4.33,8.06,7.81,14.54,8.92,16.54.55,1,2.54,4.72,4.61,8.63l.56,1.06c2.22,4.29,5,9.55,6.17,11.65s4.5,8.59,7.43,14.35,7.13,14,9.35,18.29,6.22,12.15,8.91,17.4,6.82,13.27,9.16,17.72,5,9.67,6,11.52,4.7,9.11,8.34,16.13,9.35,18.5,12.74,25.49,13.26,27.51,22,45.55l15.88,32.83,2.18,2.17a26.25,26.25,0,0,0,3.17,2.75,18,18,0,0,1,2.63,2.32,20.25,20.25,0,0,0,2.53,2.2,44.77,44.77,0,0,1,3.62,3.2,26.56,26.56,0,0,0,3.28,3,36.2,36.2,0,0,1,3,2.71,24.57,24.57,0,0,0,3,2.63,29.51,29.51,0,0,1,2.81,2.51,78,78,0,0,0,6.65,5.76,7,7,0,0,0,3.71,1l2.51.14,2.45-2.61a15.7,15.7,0,0,0,2.41-3,.56.56,0,0,1,.3-.46c.27-.12,4.9-5.32,14-15.83,1.75-2,4-4.57,5-5.66a20.7,20.7,0,0,0,1.93-2.32,21.75,21.75,0,0,1,2.23-2.69c1.2-1.3,3.93-4.41,6.06-6.9,3.59-4.23,6.16-7.18,10.4-12,3.9-4.42,8.76-10,12-13.74l1-1.16c1.89-2.22,4-4.57,4.65-5.26a13.06,13.06,0,0,0,1.5-1.76c.17-.32,1.67-2.08,3.35-4s3.73-4.24,4.53-5.2,3.12-3.65,5.13-5.92,4.45-5.08,5.43-6.25c8.1-9.39,15.15-17.45,17.24-19.74a23.59,23.59,0,0,0,1.95-2.29,18.94,18.94,0,0,1,1.64-1.94c.88-.91,4-4.51,7-8s7-8.12,8.89-10.3c7.21-8.21,10.84-12.37,13.72-15.84,1.62-2,3.67-4.34,4.51-5.24a10.56,10.56,0,0,0,1.62-2,17.54,17.54,0,0,1,1.9-2.39c1-1.13,2.86-3.33,4.13-4.87,3.13-3.74,6-7.18,7.68-9.09.76-.86,2.75-3.25,4.46-5.35s3.68-4.35,4.32-5.07a9.54,9.54,0,0,0,1.55-2,1.54,1.54,0,0,1,.58-.83c.28-.12,10.36-11.92,11.13-13,.23-.3,1-1.27,1.79-2.13s1.95-2.28,2.69-3.18c1.64-2,4.31-5.16,6.8-8.09,1.06-1.2,2.81-3.31,3.86-4.64,1.86-2.28,6.75-8.11,10.75-12.76.94-1.06,2.93-3.45,4.38-5.23s3.76-4.46,5.07-6,2.55-3,2.67-3.22c.34-.56,7.35-8.82,9-10.59a9,9,0,0,0,1.3-1.68,19.61,19.61,0,0,1,1.72-2c.92-.92,1.62-1.8,1.53-2a.33.33,0,0,1,.22-.43,17.09,17.09,0,0,0,2.25-2.45c1-1.25,2.77-3.38,3.88-4.69,2.05-2.35,2.3-2.66,5.5-6.57l.63-.77a32.33,32.33,0,0,1,2.73-3.11,11.29,11.29,0,0,0,1.21-1.48c.85-1.24,3.22-4.12,6.2-7.59.55-.69,2-2.49,3.21-4s2.66-3.25,3.25-3.88a24.58,24.58,0,0,0,2.1-2.47c.57-.74,2-2.51,3.11-3.86s2.79-3.26,3.59-4.23c1.85-2.2,4.59-5.57,5.15-6.35.23-.31.91-1.14,1.48-1.8s2.67-3.13,4.66-5.43c3.63-4.24,8.75-9.9,9.14-10.06.12,0,1.54-1.47,3.19-3.21s3.36-3.36,3.84-3.72.87-.74.8-.88.71-1.06,1.76-2,2.84-2.77,4-4c3.92-4.15,7-7.33,7.27-7.42s1.42-1.35,2.91-2.93c6.16-6.5,7.11-7.44,7.94-8.07a25.65,25.65,0,0,0,2.23-2.19c.76-.86,3.12-3.35,5.3-5.56,5.6-5.72,7.7-7.89,10.21-10.57a23.6,23.6,0,0,1,2.48-2.45A35.35,35.35,0,0,0,597.2,420a25.57,25.57,0,0,1,2.73-2.6,11.31,11.31,0,0,0,1.89-1.83c.82-.92,2.49-2.54,3.7-3.62a22.39,22.39,0,0,0,2.5-2.51,10.27,10.27,0,0,1,1.59-1.67c.71-.58,1.92-1.76,2.72-2.55,1.46-1.53,7.47-7.28,8.35-8,.37-.32,1.15.22,3.14,2.29,1.46,1.47,3.15,3.1,3.74,3.55,1,.83,3.4,3.13,9.35,9.08,1.5,1.54,3.22,3.16,3.78,3.62s2,1.84,3.15,3,2.6,2.55,3.16,3,3.71,3.47,6.89,6.64c8.3,8.18,12,11.75,12.84,12.31a30.22,30.22,0,0,1,2.74,2.54,18,18,0,0,0,2.44,2.31c.26.15,1.9,1.59,3.64,3.25s4.73,4.52,6.68,6.3,4.52,4.27,5.73,5.41,2.4,2.33,2.66,2.57a2.71,2.71,0,0,1,.62.6c.09.09.52.39,1,.69a43.73,43.73,0,0,1,3.32,3.16,23.4,23.4,0,0,0,3,2.85,31.88,31.88,0,0,1,3,2.85,31.05,31.05,0,0,0,3,2.85,30.24,30.24,0,0,1,3,2.85,32.49,32.49,0,0,0,3,2.85,46.94,46.94,0,0,1,3.49,3.31,42.17,42.17,0,0,0,3.48,3.3,32.86,32.86,0,0,1,2.58,2.39c1.15,1.21,2.6,2.55,3.15,3s2.25,2,3.69,3.44,4.28,4.06,6.23,5.84,4.73,4.43,6.14,5.88,2.93,2.85,3.36,3.14c1.2.93,6.33,5.77,15.56,14.72,1.58,1.51,3.14,3,3.57,3.28s2.15,2,3.94,3.77c7.76,7.75,8.74,8.69,9.18,8.93a20.89,20.89,0,0,1,2.7,2.56,39.33,39.33,0,0,0,3.24,3.19c1,.83,2.36,2.14,9.64,9.4,1.85,1.87,3.69,3.61,4.07,3.93a48,48,0,0,1,3.49,3.3c1.5,1.54,4.36,4.33,6.32,6.24s4.88,4.72,6.36,6.22,3.22,3.16,3.78,3.62,2,1.86,3.11,3a26.39,26.39,0,0,0,2.85,2.66c.7.49,2.22,2,9.44,9.09a42,42,0,0,0,3.77,3.41,30.15,30.15,0,0,1,2.7,2.55,41.61,41.61,0,0,0,3.21,3.12c.85.69,2.69,2.35,4.1,3.71,4.3,4.22,7.2,7,7.72,7.47a3.38,3.38,0,0,1,.59.74c0,.16.2.22.4.14a11,11,0,0,1,2.57,2.31,55.41,55.41,0,0,0,4,3.87,40.65,40.65,0,0,1,3.8,3.57,17.55,17.55,0,0,0,2.56,2.35,1.73,1.73,0,0,1,.63.43,9.3,9.3,0,0,0,1.63,1.53,4.3,4.3,0,0,0,3.71,1.25c1.88-.11,2.13-.17,3-1.15a5.68,5.68,0,0,0,1-1.63,45.83,45.83,0,0,1,1.82-4.28c3-6.35,5.8-12.4,8-17.09,1.11-2.46,2.87-6.3,3.89-8.46,4.3-9.09,5.64-12,8-17.07,1.31-2.93,3.56-7.69,4.93-10.59s3.53-7.46,4.75-10.09,3.87-8.41,6-12.9,4.11-8.8,4.48-9.68l3.32-7.12c1.47-3.07,3-6.39,3.47-7.39l0-.07c.5-1.1,2.31-5.05,4.13-8.89,3.56-7.59,8.19-17.64,9.25-20.2.39-.85,2.92-6.49,5.67-12.56s5.32-11.82,5.78-12.82,3.06-6.88,5.85-13.06,5.82-13,6.76-15.14,4-8.82,6.7-14.9c5-11,10-22.09,12.13-26.93l.35-.78c.63-1.41,2.57-5.75,4.28-9.6,8.88-19.89,37.49-86.21,38.62-89.5.35-1.12,1-3.2,1.52-4.63.73-2.27,3.63-10.93,5.64-16.87.32-1,1-3,1.45-4.4s1.83-5.53,3-9.09,2.49-7.47,2.86-8.65.94-2.81,1.22-3.7c4-11.66,6.4-18.89,7.09-21,1.32-4.17,1.71-5.31,4.07-12.17,1.21-3.53,2.62-7.78,3.15-9.41,1.25-3.93,2-6.1,2.47-7.41.23-.61.73-2.18,1.13-3.5s1.11-3.53,1.63-4.89,1.33-3.84,1.84-5.41,1.12-3.41,1.35-4,.77-2.2,1.16-3.51c1.55-4.78,9-26.32,9.79-28.31.45-1.12,1.68-4.4,2.72-7.3s2.15-5.83,2.46-6.56c.51-1.18,1.47-3.67,5.76-15.37.72-1.92,1.39-3.64,1.45-3.8s1.16-3,2.35-6.21,2.34-6.34,2.52-6.84,1.14-3,2.08-5.59,2-5.4,2.36-6.3c.82-2.09,4.21-11.2,5.72-15.36.63-1.8,1.39-3.73,1.63-4.3s1.31-3.31,2.28-6.06,2.37-6.47,3.06-8.25,1.72-4.5,2.26-6,1.32-3.49,1.63-4.39c0-.09.07-.19.11-.28l-.24.65c-.32,1,2.73-7.21.24-.65.88-2.36,3.7-9.88,5-13.33.25-.57,1-2.64,1.78-4.57.25-.57-.34,0,1.68-5.16a34.7,34.7,0,0,1,0-5.49v-7.6S1112.1,7.86,1111.1,7Z"/><path class="cls-3" d="M1032.43,384.69l121.25,70c14.35,8.28,14.35,21.71,0,30L1112,508.76c-14.35,8.28-37.62,8.28-52,0l-121.24-70c-14.35-8.28-14.35-21.71,0-30l41.7-24.07C994.82,376.41,1018.08,376.41,1032.43,384.69Z"/><path class="cls-3" d="M1144.43,314.69l121.25,70c14.35,8.28,14.35,21.71,0,30L1224,438.76c-14.35,8.28-37.62,8.28-52,0l-121.24-70c-14.35-8.28-14.35-21.71,0-30l41.7-24.07C1106.82,306.41,1130.08,306.41,1144.43,314.69Z"/><path class="cls-3" d="M1256.43,244.69l121.25,70c14.35,8.28,14.35,21.71,0,30L1336,368.76c-14.35,8.28-37.62,8.28-52,0l-121.24-70c-14.35-8.28-14.35-21.71,0-30l41.7-24.07C1218.82,236.41,1242.08,236.41,1256.43,244.69Z"/><path class="cls-3" d="M874.44,537.69l121.24,70c14.35,8.28,14.35,21.71,0,30L954,661.76c-14.35,8.29-37.61,8.29-52,0l-121.25-70c-14.35-8.29-14.35-21.72,0-30l41.7-24.08C836.82,529.41,860.09,529.41,874.44,537.69Z"/><path class="cls-3" d="M955.43,451.69,1037.34,499c14.35,8.28,14.35,21.71,0,30l-41.71,24.07c-14.34,8.28-37.61,8.28-52,0l-81.9-47.28c-14.35-8.29-14.35-21.72,0-30l41.7-24.08C917.82,443.41,941.08,443.41,955.43,451.69Z"/><path class="cls-3" d="M841.44,517.69,923.34,565c14.35,8.28,14.35,21.71,0,30l-41.7,24.07c-14.35,8.28-37.62,8.28-52,0l-81.91-47.28c-14.35-8.29-14.35-21.72,0-30l41.7-24.08C803.82,509.41,827.09,509.41,841.44,517.69Z"/><path class="cls-4" d="M1192.49,265.91H1185a1,1,0,0,0-.84,1.45l3,5.19a1.53,1.53,0,0,1-.66,2.14l-5.36,2.64a.49.49,0,0,0,.08.92l12.53,3.66"/><path class="cls-5" d="M1192.49,265.91H1185a1,1,0,0,0-.84,1.45l3,5.19a1.53,1.53,0,0,1-.66,2.14l-5.36,2.64a.49.49,0,0,0,.08.92l12.53,3.66"/><path class="cls-4" d="M1184.15,266.09h7.39a1.32,1.32,0,0,0,1.32-1.41l-.38-5.82a.86.86,0,0,1,1.45-.67l8.78,8.76"/><path class="cls-5" d="M1184.15,266.09h7.39a1.32,1.32,0,0,0,1.32-1.41l-.38-5.82a.86.86,0,0,1,1.45-.67l8.78,8.76"/><path class="cls-4" d="M1201.12,267.71l-.9-.89-6.26-.28a2.06,2.06,0,0,1-.24.29,3.32,3.32,0,0,1-.41.36,3.48,3.48,0,0,1-.38.24,2.84,2.84,0,0,1-.32.14l.94,12.57.51.15Z"/><path class="cls-6" d="M1334.4,274v53.66H1224V271.82"/><path class="cls-5" d="M1334.4,274v53.66H1224V271.82"/><path class="cls-7" d="M1334.83,304.17l-.47-26.79,20.87-9.93,12.06,23.33-31.8,14.07Z"/><path class="cls-8" d="M1338.54,200.67a16.82,16.82,0,0,1-32-7.36,17.11,17.11,0,0,1,.49-4.07,132.44,132.44,0,0,0-15.64-2.15,186.33,186.33,0,0,0-20.65-.11,136.15,136.15,0,0,0-15.24,1.89,16.84,16.84,0,0,1-31.86,10.93c-16.21,8.9-26.34,21.57-26.34,35.63s10.1,26.69,26.26,35.59l.76.42a98,98,0,0,0,16.38,6.86,131,131,0,0,0,39.61,5.9,133.81,133.81,0,0,0,34.38-4.36,105.38,105.38,0,0,0,17.58-6.37l1.13-.54c18.29-9,29.93-22.43,29.93-37.5C1363.33,221.82,1353.85,209.52,1338.54,200.67Zm-113.08,26c-7,0-12.72-1.91-12.72-4.27s5.69-4.26,12.72-4.26,12.72,1.91,12.72,4.26S1232.49,226.62,1225.46,226.62Zm110.65,0c-7,0-12.73-1.91-12.73-4.27s5.7-4.26,12.73-4.26,12.73,1.91,12.73,4.26S1343.14,226.62,1336.11,226.62Z"/><path class="cls-9" d="M1238.31,222.83c0,2.33-5.68,4.23-12.67,4.23s-12.68-1.9-12.68-4.23,5.68-4.24,12.68-4.24S1238.31,220.49,1238.31,222.83Z"/><path class="cls-9" d="M1335.8,227.06c7,0,12.68-1.9,12.68-4.23s-5.68-4.24-12.68-4.24-12.67,1.9-12.67,4.24S1328.8,227.06,1335.8,227.06Z"/><path class="cls-10" d="M1339.89,194a16.76,16.76,0,1,1-33.51,0,17.23,17.23,0,0,1,.48-4,16.76,16.76,0,0,1,33,4Z"/><path class="cls-10" d="M1255.56,189.61a16.82,16.82,0,1,0,.85,5.29A16.76,16.76,0,0,0,1255.56,189.61Z"/><path class="cls-11" d="M1246.83,188.1a7.3,7.3,0,1,1-7.81,7.28A7.54,7.54,0,0,1,1246.83,188.1Z"/><path class="cls-11" d="M1330.14,187.21a7.29,7.29,0,1,1-7.81,7.27A7.54,7.54,0,0,1,1330.14,187.21Z"/><path class="cls-12" d="M1335.8,227.06c7,0,12.68-1.9,12.68-4.23s-5.68-4.24-12.68-4.24-12.67,1.9-12.67,4.24S1328.8,227.06,1335.8,227.06Z"/><path class="cls-12" d="M1238.31,222.83c0,2.33-5.68,4.23-12.67,4.23s-12.68-1.9-12.68-4.23,5.68-4.24,12.68-4.24S1238.31,220.49,1238.31,222.83Z"/><path class="cls-13" d="M1324.47,162.32l-40.66-12.41a5.62,5.62,0,0,0-1.77-.24,5.7,5.7,0,0,0-1.77.24l-40.66,12.41c-1.92.58-1.91,1.91,0,2.5L1263,172V189c0,1.34,1.57,2.41,4.07,3.21,7.21,2.31,22.19,2.36,29.64.12,2.7-.81,4.41-1.92,4.41-3.33V172l23.37-7.13C1326.39,164.23,1326.39,162.9,1324.47,162.32Z"/><path class="cls-6" d="M1289.42,223a7.4,7.4,0,0,1-14.76,0"/><path class="cls-14" d="M1289.42,223a7.4,7.4,0,0,1-14.76,0"/><path class="cls-14" d="M1274.66,222.22h14.76"/><path class="cls-6" d="M1297.46,292.25l15.52,11.5-26.18,4.62"/><path class="cls-5" d="M1297.46,292.25l15.52,11.5-26.18,4.62"/><path class="cls-6" d="M1322.49,278.29l1.17,12-21.61,6.79"/><path class="cls-5" d="M1322.49,278.29l1.17,12-21.61,6.79"/><path class="cls-5" d="M1280.32,305.24l27.44-23.39"/><path class="cls-5" d="M1277.47,321.48a3.24,3.24,0,1,0-3.24-3.24A3.24,3.24,0,0,0,1277.47,321.48Z"/><path class="cls-6" d="M1265,292.25l-15.52,11.5,38,6.71"/><path class="cls-5" d="M1265,292.25l-15.52,11.5,38,6.71"/><path class="cls-15" d="M1257.91,284.46a145.89,145.89,0,0,0,44.08.14l-21.39,18.47Z"/><path class="cls-6" d="M1238.09,278.29l-1.18,12,21.61,6.79"/><path class="cls-5" d="M1238.09,278.29l-1.18,12,21.61,6.79"/><path class="cls-5" d="M1287.44,327.67V310.46s-36.77-29.84-37.15-29.9"/><path class="cls-4" d="M1366.14,266.83l7.52.2a1,1,0,0,1,.8,1.47l-3.09,5.11a1.54,1.54,0,0,0,.61,2.16l5.29,2.77a.49.49,0,0,1-.1.92l-12.63,3.35"/><path class="cls-5" d="M1366.14,266.83l7.52.2a1,1,0,0,1,.8,1.47l-3.09,5.11a1.54,1.54,0,0,0,.61,2.16l5.29,2.77a.49.49,0,0,1-.1.92l-12.63,3.35"/><path class="cls-4" d="M1374.48,267.21l-7.39-.18a1.33,1.33,0,0,1-1.29-1.45l.53-5.8a.87.87,0,0,0-1.44-.72l-9,8.54"/><path class="cls-5" d="M1374.48,267.21l-7.39-.18a1.33,1.33,0,0,1-1.29-1.45l.53-5.8a.87.87,0,0,0-1.44-.72l-9,8.54"/><path class="cls-4" d="M1357.47,268.41l.92-.87,6.27-.12a2.59,2.59,0,0,0,.23.29,3.37,3.37,0,0,0,.4.38,2.89,2.89,0,0,0,.37.24c.17.09.24.11.32.15L1364.72,281l-.51.14Z"/><path class="cls-7" d="M1223.54,303.13l.47-26.8-20.87-9.92-12.07,23.33,31.8,14.07Z"/><path class="cls-4" d="M1080.49,335.91H1073a1,1,0,0,0-.84,1.45l3,5.19a1.53,1.53,0,0,1-.66,2.14l-5.36,2.64a.49.49,0,0,0,.08.92l12.53,3.66"/><path class="cls-5" d="M1080.49,335.91H1073a1,1,0,0,0-.84,1.45l3,5.19a1.53,1.53,0,0,1-.66,2.14l-5.36,2.64a.49.49,0,0,0,.08.92l12.53,3.66"/><path class="cls-4" d="M1072.15,336.09h7.39a1.32,1.32,0,0,0,1.32-1.41l-.38-5.82a.86.86,0,0,1,1.45-.67l8.78,8.76"/><path class="cls-5" d="M1072.15,336.09h7.39a1.32,1.32,0,0,0,1.32-1.41l-.38-5.82a.86.86,0,0,1,1.45-.67l8.78,8.76"/><path class="cls-4" d="M1089.12,337.71l-.9-.89-6.26-.28a2.06,2.06,0,0,1-.24.29,3.32,3.32,0,0,1-.41.36,3.48,3.48,0,0,1-.38.24,2.84,2.84,0,0,1-.32.14l.94,12.57.51.15Z"/><path class="cls-6" d="M1222.4,344v53.66H1112V341.82"/><path class="cls-5" d="M1222.4,344v53.66H1112V341.82"/><path class="cls-7" d="M1222.83,374.17l-.47-26.79,20.87-9.93,12.06,23.33-31.8,14.07Z"/><path class="cls-8" d="M1226.54,270.67a16.82,16.82,0,0,1-32-7.36,17.11,17.11,0,0,1,.49-4.07,132.44,132.44,0,0,0-15.64-2.15,186.33,186.33,0,0,0-20.65-.11,136.15,136.15,0,0,0-15.24,1.89,16.84,16.84,0,0,1-31.86,10.93c-16.21,8.9-26.34,21.57-26.34,35.63s10.1,26.69,26.26,35.59l.76.42a98,98,0,0,0,16.38,6.86,131,131,0,0,0,39.61,5.9,133.81,133.81,0,0,0,34.38-4.36,105.38,105.38,0,0,0,17.58-6.37l1.13-.54c18.29-9,29.93-22.43,29.93-37.5C1251.33,291.82,1241.85,279.52,1226.54,270.67Zm-113.08,25.95c-7,0-12.72-1.91-12.72-4.27s5.69-4.26,12.72-4.26,12.72,1.91,12.72,4.26S1120.49,296.62,1113.46,296.62Zm110.65,0c-7,0-12.73-1.91-12.73-4.27s5.7-4.26,12.73-4.26,12.73,1.91,12.73,4.26S1231.14,296.62,1224.11,296.62Z"/><path class="cls-9" d="M1126.31,292.83c0,2.33-5.68,4.23-12.67,4.23s-12.68-1.9-12.68-4.23,5.68-4.24,12.68-4.24S1126.31,290.49,1126.31,292.83Z"/><path class="cls-9" d="M1223.8,297.06c7,0,12.68-1.9,12.68-4.23s-5.68-4.24-12.68-4.24-12.67,1.9-12.67,4.24S1216.8,297.06,1223.8,297.06Z"/><path class="cls-10" d="M1227.89,264a16.76,16.76,0,1,1-33.51,0,17.23,17.23,0,0,1,.48-4,16.76,16.76,0,0,1,33,4Z"/><path class="cls-10" d="M1143.56,259.61a16.82,16.82,0,1,0,.85,5.29A16.76,16.76,0,0,0,1143.56,259.61Z"/><path class="cls-11" d="M1133.83,258.1a7.3,7.3,0,1,1-7.81,7.28A7.54,7.54,0,0,1,1133.83,258.1Z"/><path class="cls-11" d="M1219.14,257.21a7.29,7.29,0,1,1-7.81,7.27A7.54,7.54,0,0,1,1219.14,257.21Z"/><path class="cls-12" d="M1223.8,297.06c7,0,12.68-1.9,12.68-4.23s-5.68-4.24-12.68-4.24-12.67,1.9-12.67,4.24S1216.8,297.06,1223.8,297.06Z"/><path class="cls-12" d="M1126.31,292.83c0,2.33-5.68,4.23-12.67,4.23s-12.68-1.9-12.68-4.23,5.68-4.24,12.68-4.24S1126.31,290.49,1126.31,292.83Z"/><path class="cls-13" d="M1212.47,232.32l-40.66-12.41a5.62,5.62,0,0,0-1.77-.24,5.7,5.7,0,0,0-1.77.24l-40.66,12.41c-1.92.58-1.91,1.91,0,2.5L1151,242V259c0,1.34,1.57,2.41,4.07,3.21,7.21,2.31,22.19,2.36,29.64.12,2.7-.81,4.41-1.92,4.41-3.33V242l23.37-7.13C1214.39,234.23,1214.39,232.9,1212.47,232.32Z"/><path class="cls-6" d="M1177.42,293a7.4,7.4,0,0,1-14.76,0"/><path class="cls-14" d="M1177.42,293a7.4,7.4,0,0,1-14.76,0"/><path class="cls-14" d="M1162.66,292.22h14.76"/><path class="cls-6" d="M1185.46,362.25l15.52,11.5-26.18,4.62"/><path class="cls-5" d="M1185.46,362.25l15.52,11.5-26.18,4.62"/><path class="cls-6" d="M1210.49,348.29l1.17,12-21.61,6.79"/><path class="cls-5" d="M1210.49,348.29l1.17,12-21.61,6.79"/><path class="cls-5" d="M1168.32,375.24l27.44-23.39"/><path class="cls-5" d="M1165.47,391.48a3.24,3.24,0,1,0-3.24-3.24A3.24,3.24,0,0,0,1165.47,391.48Z"/><path class="cls-6" d="M1153,362.25l-15.52,11.5,38,6.71"/><path class="cls-5" d="M1153,362.25l-15.52,11.5,38,6.71"/><path class="cls-15" d="M1145.91,354.46a145.89,145.89,0,0,0,44.08.14l-21.39,18.47Z"/><path class="cls-6" d="M1126.09,348.29l-1.18,12,21.61,6.79"/><path class="cls-5" d="M1126.09,348.29l-1.18,12,21.61,6.79"/><path class="cls-5" d="M1175.44,397.67V380.46s-36.77-29.84-37.15-29.9"/><path class="cls-4" d="M1254.14,336.83l7.52.2a1,1,0,0,1,.8,1.47l-3.09,5.11a1.54,1.54,0,0,0,.61,2.16l5.29,2.77a.49.49,0,0,1-.1.92l-12.63,3.35"/><path class="cls-5" d="M1254.14,336.83l7.52.2a1,1,0,0,1,.8,1.47l-3.09,5.11a1.54,1.54,0,0,0,.61,2.16l5.29,2.77a.49.49,0,0,1-.1.92l-12.63,3.35"/><path class="cls-4" d="M1262.48,337.21l-7.39-.18a1.33,1.33,0,0,1-1.29-1.45l.53-5.8a.87.87,0,0,0-1.44-.72l-9,8.54"/><path class="cls-5" d="M1262.48,337.21l-7.39-.18a1.33,1.33,0,0,1-1.29-1.45l.53-5.8a.87.87,0,0,0-1.44-.72l-9,8.54"/><path class="cls-4" d="M1245.47,338.41l.92-.87,6.27-.12a2.59,2.59,0,0,0,.23.29,3.37,3.37,0,0,0,.4.38,2.89,2.89,0,0,0,.37.24l.32.15L1252.72,351l-.51.14Z"/><path class="cls-7" d="M1111.54,373.13l.47-26.8-20.87-9.92-12.07,23.33,31.8,14.07Z"/><path class="cls-4" d="M968.49,405.91H961a1,1,0,0,0-.84,1.45l3,5.19a1.55,1.55,0,0,1-.66,2.14l-5.37,2.64a.5.5,0,0,0,.08.92l12.54,3.66"/><path class="cls-5" d="M968.49,405.91H961a1,1,0,0,0-.84,1.45l3,5.19a1.55,1.55,0,0,1-.66,2.14l-5.37,2.64a.5.5,0,0,0,.08.92l12.54,3.66"/><path class="cls-4" d="M960.14,406.09h7.39a1.32,1.32,0,0,0,1.33-1.41l-.39-5.82a.86.86,0,0,1,1.46-.67L978.7,407"/><path class="cls-5" d="M960.14,406.09h7.39a1.32,1.32,0,0,0,1.33-1.41l-.39-5.82a.86.86,0,0,1,1.46-.67L978.7,407"/><path class="cls-4" d="M977.12,407.71l-.9-.89-6.26-.28a3.28,3.28,0,0,1-.24.29,3.32,3.32,0,0,1-.41.36,3.48,3.48,0,0,1-.38.24c-.17.09-.24.1-.32.14l.94,12.57.51.15Z"/><path class="cls-6" d="M1110.4,414v53.66H1000V411.82"/><path class="cls-5" d="M1110.4,414v53.66H1000V411.82"/><path class="cls-7" d="M1110.82,444.17l-.47-26.79,20.87-9.93,12.06,23.33-31.8,14.07Z"/><path class="cls-8" d="M1114.54,340.67a16.82,16.82,0,0,1-32-7.36,17.11,17.11,0,0,1,.49-4.07,133,133,0,0,0-15.64-2.15,186.51,186.51,0,0,0-20.66-.11,136.15,136.15,0,0,0-15.24,1.89,16.84,16.84,0,0,1-31.86,10.93c-16.2,8.9-26.33,21.57-26.33,35.63S983.4,402.12,999.56,411l.76.42a98,98,0,0,0,16.38,6.86,131.07,131.07,0,0,0,39.62,5.9,133.79,133.79,0,0,0,34.37-4.36,105.38,105.38,0,0,0,17.58-6.37l1.14-.54c18.28-9,29.92-22.43,29.92-37.5C1139.33,361.82,1129.84,349.52,1114.54,340.67Zm-113.09,25.95c-7,0-12.72-1.91-12.72-4.27s5.69-4.26,12.72-4.26,12.73,1.91,12.73,4.26S1008.48,366.62,1001.45,366.62Zm110.65,0c-7,0-12.72-1.91-12.72-4.27s5.69-4.26,12.72-4.26,12.73,1.91,12.73,4.26S1119.13,366.62,1112.1,366.62Z"/><path class="cls-9" d="M1014.3,362.83c0,2.33-5.67,4.23-12.67,4.23S989,365.16,989,362.83s5.68-4.24,12.68-4.24S1014.3,360.49,1014.3,362.83Z"/><path class="cls-9" d="M1111.8,367.06c7,0,12.67-1.9,12.67-4.23s-5.67-4.24-12.67-4.24-12.68,1.9-12.68,4.24S1104.8,367.06,1111.8,367.06Z"/><path class="cls-10" d="M1115.88,334a16.75,16.75,0,1,1-16.76-16.8A16.82,16.82,0,0,1,1115.88,334Z"/><path class="cls-10" d="M1031.55,329.61a16.82,16.82,0,1,0,.85,5.29A16.52,16.52,0,0,0,1031.55,329.61Z"/><path class="cls-11" d="M1014.82,318.1a7.3,7.3,0,1,1-7.81,7.28A7.54,7.54,0,0,1,1014.82,318.1Z"/><path class="cls-11" d="M1106.13,327.21a7.29,7.29,0,1,1-7.8,7.27A7.54,7.54,0,0,1,1106.13,327.21Z"/><path class="cls-12" d="M1111.8,367.06c7,0,12.67-1.9,12.67-4.23s-5.67-4.24-12.67-4.24-12.68,1.9-12.68,4.24S1104.8,367.06,1111.8,367.06Z"/><path class="cls-12" d="M1014.3,362.83c0,2.33-5.67,4.23-12.67,4.23S989,365.16,989,362.83s5.68-4.24,12.68-4.24S1014.3,360.49,1014.3,362.83Z"/><path class="cls-13" d="M1100.46,302.32l-40.65-12.41a6.68,6.68,0,0,0-3.55,0l-40.66,12.41c-1.92.58-1.91,1.91,0,2.5L1039,312V329c0,1.34,1.57,2.41,4.07,3.21,7.22,2.31,22.2,2.36,29.65.12,2.69-.81,4.4-1.92,4.4-3.33V312l23.37-7.13C1102.38,304.23,1102.38,302.9,1100.46,302.32Z"/><path class="cls-6" d="M1065.41,363a7.4,7.4,0,0,1-14.76,0"/><path class="cls-14" d="M1065.41,363a7.4,7.4,0,0,1-14.76,0"/><path class="cls-14" d="M1050.65,362.22h14.76"/><path class="cls-6" d="M1073.45,432.25l15.52,11.5-26.18,4.62"/><path class="cls-5" d="M1073.45,432.25l15.52,11.5-26.18,4.62"/><path class="cls-6" d="M1098.48,418.29l1.18,12L1078,437.11"/><path class="cls-5" d="M1098.48,418.29l1.18,12L1078,437.11"/><path class="cls-5" d="M1056.31,445.24l27.44-23.39"/><path class="cls-5" d="M1053.46,461.48a3.24,3.24,0,1,0-3.24-3.24A3.24,3.24,0,0,0,1053.46,461.48Z"/><path class="cls-6" d="M1041,432.25l-15.52,11.5,38,6.71"/><path class="cls-5" d="M1041,432.25l-15.52,11.5,38,6.71"/><path class="cls-15" d="M1033.9,424.46a145.89,145.89,0,0,0,44.08.14l-21.39,18.47Z"/><path class="cls-6" d="M1014.08,418.29l-1.18,12,21.61,6.79"/><path class="cls-5" d="M1014.08,418.29l-1.18,12,21.61,6.79"/><path class="cls-5" d="M1063.43,467.67V450.46s-36.77-29.84-37.15-29.9"/><path class="cls-4" d="M1142.14,406.83l7.51.2a1,1,0,0,1,.81,1.47l-3.09,5.11a1.53,1.53,0,0,0,.6,2.16l5.3,2.77a.5.5,0,0,1-.11.92l-12.62,3.35"/><path class="cls-5" d="M1142.14,406.83l7.51.2a1,1,0,0,1,.81,1.47l-3.09,5.11a1.53,1.53,0,0,0,.6,2.16l5.3,2.77a.5.5,0,0,1-.11.92l-12.62,3.35"/><path class="cls-4" d="M1150.47,407.21l-7.39-.18a1.33,1.33,0,0,1-1.29-1.45l.53-5.8a.87.87,0,0,0-1.44-.72l-9,8.54"/><path class="cls-5" d="M1150.47,407.21l-7.39-.18a1.33,1.33,0,0,1-1.29-1.45l.53-5.8a.87.87,0,0,0-1.44-.72l-9,8.54"/><path class="cls-4" d="M1133.46,408.41l.92-.87,6.27-.12a2.59,2.59,0,0,0,.23.29,3.37,3.37,0,0,0,.4.38,3.48,3.48,0,0,0,.38.24l.31.15L1140.72,421l-.52.14Z"/><path class="cls-7" d="M999.53,443.13l.47-26.8-20.87-9.92-12.07,23.33,31.81,14.07Z"/><path class="cls-16" d="M557.79,296.76h501V785a14.89,14.89,0,0,1-7.54,13L828,924.59a40,40,0,0,1-39.44,0L557.79,793.76Z"/><path class="cls-17" d="M557.79,296.76h501V785a14.89,14.89,0,0,1-7.54,13L828,924.59a40,40,0,0,1-39.44,0L557.79,793.76Z"/><path class="cls-18" d="M568.42,285.15,782.31,161.67c14.35-8.28,37.61-8.28,52,0l213.89,123.48c14.35,8.28,14.35,21.71,0,30L834.27,438.63c-14.35,8.28-37.61,8.28-52,0L568.42,315.15C554.07,306.86,554.07,293.43,568.42,285.15Z"/><path class="cls-19" d="M949.3,247.24c-13.07-7.54-28.93-13.33-46.68-17a237.41,237.41,0,0,0-56.74-4.52,262.08,262.08,0,0,0-58.18,8.68,211.87,211.87,0,0,0-50.76,20.55c-14.82,8.56-26.92,18.52-35.6,29.31s-13.8,22.2-15,33.58a50.5,50.5,0,0,0,7.83,32.76c6.4,10.25,16.42,19.4,29.49,26.95l112.84-65.14Z"/><ellipse class="cls-19" cx="683.66" cy="288.41" rx="56.52" ry="32.63"/><ellipse class="cls-6" cx="685.22" cy="288.41" rx="44.33" ry="25.59"/><ellipse class="cls-19" cx="685.22" cy="288.41" rx="31.03" ry="17.91"/><path class="cls-19" d="M686.79,327.31c0-4.34-7.31-6-11-6.33l6.27-2.71,12.54,1.81-.79,5Z"/><path class="cls-19" d="M860,225.53c-7.52,0-10.45-4.22-11-6.33l-4.7,3.62,3.13,7.23,8.62-.45Z"/><ellipse class="cls-19" cx="793.36" cy="225.08" rx="56.52" ry="32.63"/><ellipse class="cls-6" cx="794.93" cy="225.08" rx="44.33" ry="25.59"/><ellipse class="cls-19" cx="794.93" cy="225.08" rx="31.03" ry="17.91"/><path class="cls-20" d="M826.43,279.92a11,11,0,0,1,1.51,7.34,15.3,15.3,0,0,1-3.63,7.59,30.26,30.26,0,0,1-8.23,6.68,50,50,0,0,1-11.56,4.75,60.53,60.53,0,0,1-13.15,2.1,52.74,52.74,0,0,1-12.72-.88"/><path class="cls-19" d="M782.3,377.52a21.47,21.47,0,0,1,16.59,2.21c9.06,5.38,7.82,12.84-4.23,19.79-10.8,6.24-21.69,6.74-32.27,1.86-8-3.69-21.28-11.81-29.6-17.57,3-6.76,19.49-16,28.68-17.09,12.19-1.4,21.47,4.17,20.92,9.8C782.39,376.78,782.34,377.07,782.3,377.52Zm-3.4,15a6,6,0,0,0,3.9-2.15c.78-1.08.09-2.07-1.51-2.83a5.88,5.88,0,0,0-4.46-.14c-1.11.43-2.81,1.3-2.81,2.26C775.54,390.66,777.24,391.59,778.9,392.54Zm-16.55-9.18c2.25-.34,4.55-2,1.56-3.66-2.62-1.41-5.79.42-5.56,1.35A8.41,8.41,0,0,0,762.35,383.36ZM795.88,355c6.34,2.71,28.31,15.71,35,20.78.32,4.65-11.26,9.58-23.63,4.78-4.87-1.91-30.75-16.27-34.89-20.36C772.85,355.54,783.14,349.59,795.88,355Zm45.1-1c5-2.84,12-7.48,20-11.09,10.48,1.86,12.92,9.26,7,13.19s-15.86,9.32-15.86,9.32c-4.64,2.68-14.25,7.69-23.76,2.89-8.69-4.43-8.41-12-7.86-21.15-6.39,3.74-12.09,7.56-13.75,8.2-6.62-.48-16.46-6.9-8.41-12.13,5.29-3.48,23.4-13.61,28.55-16.59,4.32.16,11,2.44,12.91,7.3C841.53,338.18,841.57,348.93,841,353.94Zm68-21.74c-6.07,4-14.25,8.23-14.25,8.23-4.74,2.73-13.24,6.53-23.59,2.1-7.44-3.19-23.95-12-33.51-19.56.42-4.65,11.13-10.94,23.63-5.15,6,2.81,15.35,8.23,20.92,11.65a160.5,160.5,0,0,1,19.58-10.67C912.42,320.66,915,328.25,909,332.2Zm-1.55-14.81C900,311,888.85,298.92,886.05,293.9c4.23-4.83,15-14.41,33.05-10.06a412,412,0,0,1,41.19,13.22c4.37,3.26-3.95,14.65-20.18,9.47-3,1.6-6.07,3.56-9.1,5.21a46.63,46.63,0,0,0,4.46,5.06C928.3,325.72,915.88,324.55,907.43,317.39Zm12-14.28,5.65-3.26c-4.59-1.65-9.15-3.22-13.7-4.83a1.66,1.66,0,0,1-.36.26C913.77,297.86,916.48,300.43,919.38,303.11Zm54.16-36a21.51,21.51,0,0,1,16.59,2.2c9.06,5.39,7.82,12.85-4.23,19.8-10.8,6.24-21.69,6.74-32.27,1.86-8-3.69-21.28-11.81-29.6-17.57,3-6.77,19.49-16,28.68-17.09,12.19-1.41,21.47,4.16,20.92,9.79C973.63,266.38,973.58,266.67,973.54,267.12Zm-3.4,15A6,6,0,0,0,974,280c.78-1.09.09-2.07-1.51-2.84a5.88,5.88,0,0,0-4.46-.13c-1.11.42-2.81,1.3-2.81,2.25C966.78,280.26,968.48,281.18,970.14,282.14ZM953.59,273c2.25-.35,4.55-2,1.56-3.66-2.62-1.41-5.79.42-5.56,1.35A8.41,8.41,0,0,0,953.59,273Z"/><path class="cls-21" d="M609.77,477.69l121,69.89c14.35,8.29,26,28.43,26,45V716.45c0,16.57-11.63,23.28-26,15l-121-69.89c-14.35-8.28-26-28.43-26-45V492.69C583.79,476.12,595.42,469.41,609.77,477.69Z"/><g class="cls-22"><path class="cls-3" d="M696.44,594.69l121.24,70c14.35,8.28,14.35,21.71,0,30L776,718.76c-14.35,8.29-37.61,8.29-52,0l-121.25-70c-14.35-8.29-14.35-21.72,0-30l41.7-24.08C658.82,586.41,682.09,586.41,696.44,594.69Z"/><path class="cls-3" d="M808.43,524.69l121.25,70c14.35,8.28,14.35,21.71,0,30L888,648.76c-14.35,8.28-37.62,8.28-52,0l-121.24-70c-14.35-8.28-14.35-21.71,0-30l41.7-24.07C770.82,516.41,794.08,516.41,808.43,524.69Z"/></g><g class="cls-22"><path class="cls-23" d="M639.64,644.26l16.16,17.23"/><path class="cls-24" d="M767.76,625.72v50.73H663.37V623.64a90.91,90.91,0,0,0,15.84,7,120.23,120.23,0,0,0,38.31,6,123.26,123.26,0,0,0,33.24-4.45A97.9,97.9,0,0,0,767.76,625.72Z"/><path class="cls-15" d="M697.27,637a118,118,0,0,0,18.3,1.45,141.26,141.26,0,0,0,19.45-1L716.79,653Z"/><path class="cls-6" d="M731.35,643,746,653.84l-24.76,4.37"/><path class="cls-23" d="M731.35,643,746,653.84l-24.76,4.37"/><path class="cls-24" d="M663.37,623.64v30.92l-7.57,6.93-16.16-17.23,23-21Z"/><path class="cls-23" d="M716.63,655.19l24-20.45"/><path class="cls-6" d="M702.13,643l-14.68,10.88,35.91,6.34"/><path class="cls-23" d="M702.13,643l-14.68,10.88,35.91,6.34"/><path class="cls-6" d="M676.69,629.76l-1.12,11.38L696,647.55"/><path class="cls-23" d="M676.69,629.76l-1.12,11.38L696,647.55"/><path class="cls-23" d="M723.36,676.45V660.18S691.16,634,690.8,633.92"/><path class="cls-6" d="M756.5,629.76l1.11,11.38-20.44,6.41"/><path class="cls-23" d="M756.5,629.76l1.11,11.38-20.44,6.41"/><path class="cls-23" d="M713.93,670.6a3.07,3.07,0,1,0-3.06-3.06A3.06,3.06,0,0,0,713.93,670.6Z"/><path class="cls-25" d="M772.11,551.78a16.22,16.22,0,0,1-14.66,9.77c-9,0-16.27-7.74-16.27-17.28a18.27,18.27,0,0,1,.47-4.15,122.51,122.51,0,0,0-15.12-2.2,170,170,0,0,0-20-.11,124.88,124.88,0,0,0-14.73,1.93,18.43,18.43,0,0,1,.82,5.45c0,9.54-7.29,17.28-16.27,17.28A16.39,16.39,0,0,1,661,550.89c-15.67,9.08-25.47,22-25.47,36.36s9.77,27.23,25.39,36.32l.74.42a91.25,91.25,0,0,0,15.84,7,120.23,120.23,0,0,0,38.31,6,122.81,122.81,0,0,0,33.24-4.46,96.8,96.8,0,0,0,17-6.5c.37-.18.74-.36,1.1-.55,17.68-9.13,28.94-22.88,28.94-38.26C796.09,573.36,786.91,560.8,772.11,551.78ZM662.75,578.25c-6.79,0-12.3-1.94-12.3-4.35s5.51-4.35,12.3-4.35,12.31,2,12.31,4.35S669.55,578.25,662.75,578.25Zm107,0c-6.8,0-12.31-1.94-12.31-4.35s5.51-4.35,12.31-4.35,12.31,2,12.31,4.35S776.56,578.25,769.76,578.25Z"/><path class="cls-26" d="M675.06,573.9c0,2.4-5.51,4.35-12.3,4.35s-12.31-2-12.31-4.35,5.51-4.35,12.31-4.35S675.06,571.49,675.06,573.9Z"/><path class="cls-26" d="M769.76,578.25c6.8,0,12.31-2,12.31-4.35s-5.51-4.35-12.31-4.35-12.31,1.94-12.31,4.35S763,578.25,769.76,578.25Z"/><path class="cls-27" d="M773.72,544.27a18.15,18.15,0,0,1-1.61,7.51,16.23,16.23,0,0,1-14.66,9.77c-9,0-16.28-7.74-16.28-17.28a18.27,18.27,0,0,1,.48-4.15c1.75-7.54,8.16-13.13,15.8-13.13C766.44,527,773.72,534.73,773.72,544.27Z"/><path class="cls-27" d="M691.82,539.74a16.41,16.41,0,0,0-15.45-11.83c-9,0-16.27,7.74-16.27,17.28a18.48,18.48,0,0,0,.9,5.7,16.39,16.39,0,0,0,15.37,11.58c9,0,16.27-7.74,16.27-17.28A18.11,18.11,0,0,0,691.82,539.74Z"/><path class="cls-28" d="M676.37,541.67a7.49,7.49,0,1,1-7.58,7.49A7.53,7.53,0,0,1,676.37,541.67Z"/><path class="cls-28" d="M757.37,541.67a7.49,7.49,0,1,1-7.58,7.49A7.53,7.53,0,0,1,757.37,541.67Z"/><path class="cls-29" d="M724.4,576.63a7.17,7.17,0,0,0-14.34,0"/><path class="cls-12" d="M675.06,573.9c0,2.4-5.51,4.35-12.3,4.35s-12.31-2-12.31-4.35,5.51-4.35,12.31-4.35S675.06,571.49,675.06,573.9Z"/><path class="cls-4" d="M646.23,665.16l-6.9,1.69a.91.91,0,0,1-1.1-1.14l1.54-5.43a1.45,1.45,0,0,0-1.09-1.82l-5.52-1.21a.46.46,0,0,1-.13-.86l10.68-6.2"/><path class="cls-23" d="M646.23,665.16l-6.9,1.69a.91.91,0,0,1-1.1-1.14l1.54-5.43a1.45,1.45,0,0,0-1.09-1.82l-5.52-1.21a.46.46,0,0,1-.13-.86l10.68-6.2"/><path class="cls-4" d="M638.53,666.89l6.78-1.68a1.26,1.26,0,0,1,1.54,1l1,5.43a.81.81,0,0,0,1.49.29l6.08-10"/><path class="cls-23" d="M638.53,666.89l6.78-1.68a1.26,1.26,0,0,1,1.54,1l1,5.43a.81.81,0,0,0,1.49.29l6.08-10"/><path class="cls-4" d="M653.76,661.56l-.63,1-5.68,1.67a2.86,2.86,0,0,0-.29-.21,4.14,4.14,0,0,0-.46-.24,3.58,3.58,0,0,0-.4-.13l-.33-.06-2-11.75.44-.25Z"/></g><g class="cls-30"><path class="cls-24" d="M767.76,625.69v50.74H663.37V623.62a90.91,90.91,0,0,0,15.84,7,120.51,120.51,0,0,0,38.31,6,122.87,122.87,0,0,0,33.24-4.45A97.9,97.9,0,0,0,767.76,625.69Z"/><path class="cls-31" d="M772.11,551.75a16.2,16.2,0,0,1-14.66,9.77c-9,0-16.27-7.73-16.27-17.28a18.18,18.18,0,0,1,.47-4.14c-4.85-1-11.14,6.5-16.36,6.07l-18.5-10c-5.07.36-10.24,2.63-15,3.55a18.38,18.38,0,0,1,.82,5.45c0,9.54-7.29,17.28-16.27,17.28A16.38,16.38,0,0,1,661,550.86c-15.67,9.09-25.47,22-25.47,36.36s9.77,27.24,25.39,36.33l.74.42a91.25,91.25,0,0,0,15.84,7,120.51,120.51,0,0,0,38.31,6,122.81,122.81,0,0,0,33.24-4.45,97.59,97.59,0,0,0,17-6.5l1.1-.55c17.68-9.13,28.94-22.88,28.94-38.27C796.09,573.34,786.91,560.78,772.11,551.75ZM662.75,578.23c-6.79,0-12.3-2-12.3-4.35s5.51-4.35,12.3-4.35,12.31,1.94,12.31,4.35S669.55,578.23,662.75,578.23Zm107,0c-6.8,0-12.31-2-12.31-4.35s5.51-4.35,12.31-4.35,12.31,1.94,12.31,4.35S776.56,578.23,769.76,578.23Z"/><path class="cls-29" d="M724.4,576.6a7.17,7.17,0,0,0-14.34,0"/></g><g class="cls-32"><path class="cls-23" d="M639.64,644.24l16.16,17.22"/><path class="cls-24" d="M767.76,625.69v50.74H663.37V623.62a90.91,90.91,0,0,0,15.84,7,120.51,120.51,0,0,0,38.31,6,122.87,122.87,0,0,0,33.24-4.45A97.9,97.9,0,0,0,767.76,625.69Z"/><path class="cls-15" d="M697.27,637a117.12,117.12,0,0,0,18.3,1.46,143.22,143.22,0,0,0,19.45-1L716.79,653Z"/><path class="cls-24" d="M663.37,623.62v30.92l-7.57,6.93-16.16-17.23,23-21Z"/><path class="cls-6" d="M702.13,642.93l-14.68,10.88,35.91,6.34"/><path class="cls-23" d="M702.13,642.93l-14.68,10.88,35.91,6.34"/><path class="cls-6" d="M676.69,629.73l-1.12,11.38L696,647.53"/><path class="cls-23" d="M676.69,629.73l-1.12,11.38L696,647.53"/><path class="cls-23" d="M723.36,676.43V660.15S691.16,634,690.8,633.9"/><path class="cls-23" d="M713.93,670.58a3.07,3.07,0,1,0-3.06-3.06A3.06,3.06,0,0,0,713.93,670.58Z"/><path class="cls-25" d="M772.11,551.75a16.2,16.2,0,0,1-14.66,9.77c-9,0-16.27-7.73-16.27-17.28a18.12,18.12,0,0,1,.47-4.14,120.64,120.64,0,0,0-15.12-2.2,170,170,0,0,0-20-.11,122.82,122.82,0,0,0-14.73,1.93,18.38,18.38,0,0,1,.82,5.45c0,9.54-7.29,17.27-16.27,17.27A16.37,16.37,0,0,1,661,550.86c-15.67,9.09-25.47,22-25.47,36.36s9.77,27.24,25.39,36.32l.74.43a91.25,91.25,0,0,0,15.84,7,120.51,120.51,0,0,0,38.31,6,122.81,122.81,0,0,0,33.24-4.45,97.59,97.59,0,0,0,17-6.5l1.1-.55c17.68-9.14,28.94-22.89,28.94-38.27C796.09,573.34,786.91,560.78,772.11,551.75ZM662.75,578.23c-6.79,0-12.3-2-12.3-4.35s5.51-4.35,12.3-4.35,12.31,1.94,12.31,4.35S669.55,578.23,662.75,578.23Zm107,0c-6.8,0-12.31-2-12.31-4.35s5.51-4.35,12.31-4.35,12.31,1.94,12.31,4.35S776.56,578.23,769.76,578.23Z"/><path class="cls-26" d="M675.06,573.87c0,2.41-5.51,4.36-12.3,4.36s-12.31-2-12.31-4.36,5.51-4.35,12.31-4.35S675.06,571.47,675.06,573.87Z"/><path class="cls-27" d="M691.82,539.72a16.41,16.41,0,0,0-15.45-11.83c-9,0-16.27,7.73-16.27,17.27a18.39,18.39,0,0,0,.9,5.7,16.37,16.37,0,0,0,15.37,11.58c9,0,16.27-7.73,16.27-17.28A18,18,0,0,0,691.82,539.72Z"/><path class="cls-28" d="M676.37,541.65a7.48,7.48,0,1,1-7.58,7.48A7.53,7.53,0,0,1,676.37,541.65Z"/><path class="cls-29" d="M724.4,576.6a7.17,7.17,0,0,0-14.34,0"/><path class="cls-12" d="M675.06,573.87c0,2.41-5.51,4.36-12.3,4.36s-12.31-2-12.31-4.36,5.51-4.35,12.31-4.35S675.06,571.47,675.06,573.87Z"/><path class="cls-4" d="M646.23,665.14l-6.9,1.69a.92.92,0,0,1-1.1-1.14l1.54-5.43a1.45,1.45,0,0,0-1.09-1.82l-5.52-1.21a.47.47,0,0,1-.13-.87l10.68-6.19"/><path class="cls-23" d="M646.23,665.14l-6.9,1.69a.92.92,0,0,1-1.1-1.14l1.54-5.43a1.45,1.45,0,0,0-1.09-1.82l-5.52-1.21a.47.47,0,0,1-.13-.87l10.68-6.19"/><path class="cls-4" d="M638.53,666.87l6.78-1.68a1.25,1.25,0,0,1,1.54,1l1,5.43a.81.81,0,0,0,1.49.29l6.08-10"/><path class="cls-23" d="M638.53,666.87l6.78-1.68a1.25,1.25,0,0,1,1.54,1l1,5.43a.81.81,0,0,0,1.49.29l6.08-10"/><path class="cls-4" d="M653.76,661.53l-.63,1-5.68,1.67a2.86,2.86,0,0,0-.29-.21,4.14,4.14,0,0,0-.46-.24,3.58,3.58,0,0,0-.4-.13l-.33-.06-2-11.76.44-.25Z"/></g><path class="cls-3" d="M584.44,664.69l121.24,70c14.35,8.28,14.35,21.71,0,30L664,788.76c-14.35,8.29-37.61,8.29-52,0l-121.25-70c-14.35-8.29-14.35-21.72,0-30l41.7-24.08C546.82,656.41,570.09,656.41,584.44,664.69Z"/><path class="cls-3" d="M472.43,734.69l121.25,70c14.35,8.28,14.35,21.71,0,30L552,858.76c-14.35,8.28-37.62,8.28-52,0l-121.24-70c-14.35-8.28-14.35-21.71,0-30l41.7-24.07C434.82,726.41,458.08,726.41,472.43,734.69Z"/><path class="cls-3" d="M360.43,804.69l121.25,70c14.35,8.28,14.35,21.71,0,30L440,928.76c-14.35,8.28-37.62,8.28-52,0l-121.24-70c-14.35-8.28-14.35-21.71,0-30l41.7-24.07C322.82,796.41,346.08,796.41,360.43,804.69Z"/><path class="cls-23" d="M527.64,714.26l16.16,17.22"/><path class="cls-24" d="M678.84,715.4l-15.21,16.21-7.87-7.21V695.83l1.1-.55Z"/><path class="cls-24" d="M655.76,695.71v50.74H551.37V693.64a90.91,90.91,0,0,0,15.84,7,120.51,120.51,0,0,0,38.31,6,122.87,122.87,0,0,0,33.24-4.45A97.9,97.9,0,0,0,655.76,695.71Z"/><path class="cls-15" d="M585.27,707a117.12,117.12,0,0,0,18.3,1.46,143.22,143.22,0,0,0,19.45-1L604.79,723Z"/><path class="cls-6" d="M619.35,713,634,723.83l-24.76,4.37"/><path class="cls-23" d="M619.35,713,634,723.83l-24.76,4.37"/><path class="cls-24" d="M551.37,693.64v30.92l-7.57,6.93-16.16-17.23,23-21Z"/><path class="cls-23" d="M604.63,725.18l24-20.44"/><path class="cls-6" d="M590.13,713l-14.68,10.88,35.91,6.34"/><path class="cls-23" d="M590.13,713l-14.68,10.88,35.91,6.34"/><path class="cls-6" d="M564.69,699.75l-1.12,11.38L584,717.55"/><path class="cls-23" d="M564.69,699.75l-1.12,11.38L584,717.55"/><path class="cls-23" d="M611.36,746.45V730.17s-32.21-26.2-32.57-26.25"/><path class="cls-6" d="M644.5,699.75l1.11,11.38-20.44,6.42"/><path class="cls-23" d="M644.5,699.75l1.11,11.38-20.44,6.42"/><path class="cls-23" d="M601.93,740.6a3.07,3.07,0,1,0-3.06-3.07A3.06,3.06,0,0,0,601.93,740.6Z"/><path class="cls-25" d="M660.11,621.77a16.2,16.2,0,0,1-14.66,9.77c-9,0-16.27-7.73-16.27-17.28a18.27,18.27,0,0,1,.47-4.15,122.52,122.52,0,0,0-15.12-2.19,167.64,167.64,0,0,0-20-.12,124.86,124.86,0,0,0-14.73,1.94,18.36,18.36,0,0,1,.82,5.44c0,9.55-7.29,17.28-16.27,17.28A16.37,16.37,0,0,1,549,620.88c-15.67,9.08-25.47,22-25.47,36.36s9.77,27.24,25.39,36.32c.25.14.5.28.74.43a92,92,0,0,0,15.84,7,120.51,120.51,0,0,0,38.31,6,122.81,122.81,0,0,0,33.24-4.45,97.59,97.59,0,0,0,17-6.5l1.1-.55c17.68-9.14,28.94-22.89,28.94-38.27C684.09,643.36,674.91,630.8,660.11,621.77ZM550.75,648.25c-6.79,0-12.3-2-12.3-4.35s5.51-4.36,12.3-4.36,12.31,2,12.31,4.36S557.55,648.25,550.75,648.25Zm107,0c-6.8,0-12.31-2-12.31-4.35s5.51-4.36,12.31-4.36,12.31,2,12.31,4.36S664.56,648.25,657.76,648.25Z"/><path class="cls-26" d="M563.06,643.89c0,2.41-5.51,4.35-12.3,4.35s-12.31-1.94-12.31-4.35,5.51-4.35,12.31-4.35S563.06,641.49,563.06,643.89Z"/><path class="cls-26" d="M657.76,648.24c6.8,0,12.31-1.94,12.31-4.35s-5.51-4.35-12.31-4.35-12.31,2-12.31,4.35S651,648.24,657.76,648.24Z"/><path class="cls-27" d="M661.73,614.26a18.15,18.15,0,0,1-1.61,7.51,16.23,16.23,0,0,1-14.67,9.77c-9,0-16.27-7.73-16.27-17.28a18.27,18.27,0,0,1,.47-4.15c1.75-7.53,8.16-13.12,15.8-13.12C654.44,597,661.73,604.72,661.73,614.26Z"/><path class="cls-27" d="M579.82,609.74a16.4,16.4,0,0,0-15.45-11.83c-9,0-16.27,7.73-16.27,17.27a18.39,18.39,0,0,0,.9,5.7,16.37,16.37,0,0,0,15.37,11.58c9,0,16.27-7.73,16.27-17.28A18,18,0,0,0,579.82,609.74Z"/><path class="cls-28" d="M564.37,611.67a7.48,7.48,0,1,1-7.58,7.48A7.52,7.52,0,0,1,564.37,611.67Z"/><path class="cls-28" d="M645.37,611.67a7.48,7.48,0,1,1-7.58,7.48A7.52,7.52,0,0,1,645.37,611.67Z"/><path class="cls-29" d="M612.4,646.62a7.17,7.17,0,0,0-14.34,0"/><path class="cls-12" d="M657.76,648.24c6.8,0,12.31-1.94,12.31-4.35s-5.51-4.35-12.31-4.35-12.31,2-12.31,4.35S651,648.24,657.76,648.24Z"/><path class="cls-12" d="M563.06,643.89c0,2.41-5.51,4.35-12.3,4.35s-12.31-1.94-12.31-4.35,5.51-4.35,12.31-4.35S563.06,641.49,563.06,643.89Z"/><path class="cls-23" d="M679.88,714.28l-16.16,17.23"/><path class="cls-4" d="M673.39,735l6.91,1.69a.91.91,0,0,0,1.09-1.14l-1.54-5.43a1.45,1.45,0,0,1,1.09-1.82l5.52-1.21a.47.47,0,0,0,.14-.86L675.91,720"/><path class="cls-23" d="M673.39,735l6.91,1.69a.91.91,0,0,0,1.09-1.14l-1.54-5.43a1.45,1.45,0,0,1,1.09-1.82l5.52-1.21a.47.47,0,0,0,.14-.86L675.91,720"/><path class="cls-4" d="M681.09,736.74l-6.78-1.68a1.25,1.25,0,0,0-1.54,1l-1,5.43a.81.81,0,0,1-1.49.29l-6.08-10"/><path class="cls-23" d="M681.09,736.74l-6.78-1.68a1.25,1.25,0,0,0-1.54,1l-1,5.43a.81.81,0,0,1-1.49.29l-6.08-10"/><path class="cls-4" d="M665.87,731.41l.62,1,5.69,1.68a2.43,2.43,0,0,1,.29-.22,3.29,3.29,0,0,1,.46-.24,3.58,3.58,0,0,1,.4-.13l.32-.06,2-11.75-.43-.25Z"/><path class="cls-4" d="M534.23,735.16l-6.9,1.69a.92.92,0,0,1-1.1-1.14l1.54-5.43a1.45,1.45,0,0,0-1.09-1.82l-5.52-1.21a.47.47,0,0,1-.13-.87l10.68-6.19"/><path class="cls-23" d="M534.23,735.16l-6.9,1.69a.92.92,0,0,1-1.1-1.14l1.54-5.43a1.45,1.45,0,0,0-1.09-1.82l-5.52-1.21a.47.47,0,0,1-.13-.87l10.68-6.19"/><path class="cls-4" d="M526.53,736.88l6.78-1.67a1.25,1.25,0,0,1,1.54,1l1,5.44a.81.81,0,0,0,1.49.29l6.08-10"/><path class="cls-23" d="M526.53,736.88l6.78-1.67a1.25,1.25,0,0,1,1.54,1l1,5.44a.81.81,0,0,0,1.49.29l6.08-10"/><path class="cls-4" d="M541.75,731.55l-.62,1-5.69,1.67a2.86,2.86,0,0,0-.29-.21,3.29,3.29,0,0,0-.46-.24,3.89,3.89,0,0,0-.39-.13,1.65,1.65,0,0,0-.33-.06l-2-11.76.44-.25Z"/><path class="cls-23" d="M415.64,784.26l16.16,17.23"/><path class="cls-24" d="M566.84,785.4l-15.21,16.21-7.87-7.2V765.83l1.1-.55Z"/><path class="cls-24" d="M543.76,765.72v50.73H439.37V763.64a90.91,90.91,0,0,0,15.84,7,120.23,120.23,0,0,0,38.31,6,123.26,123.26,0,0,0,33.24-4.45A97.9,97.9,0,0,0,543.76,765.72Z"/><path class="cls-15" d="M473.27,777a117.12,117.12,0,0,0,18.3,1.46,141.26,141.26,0,0,0,19.45-1L492.79,793Z"/><path class="cls-6" d="M507.35,783,522,793.83l-24.76,4.38"/><path class="cls-23" d="M507.35,783,522,793.83l-24.76,4.38"/><path class="cls-24" d="M439.37,763.64v30.92l-7.57,6.93-16.16-17.23,23-21Z"/><path class="cls-23" d="M492.63,795.19l24-20.45"/><path class="cls-6" d="M478.13,783l-14.68,10.87,35.91,6.35"/><path class="cls-23" d="M478.13,783l-14.68,10.87,35.91,6.35"/><path class="cls-6" d="M452.69,769.76l-1.12,11.38L472,787.55"/><path class="cls-23" d="M452.69,769.76l-1.12,11.38L472,787.55"/><path class="cls-23" d="M499.36,816.45V800.18S467.16,774,466.8,773.92"/><path class="cls-6" d="M532.5,769.76l1.11,11.38-20.44,6.41"/><path class="cls-23" d="M532.5,769.76l1.11,11.38-20.44,6.41"/><path class="cls-23" d="M489.93,810.6a3.07,3.07,0,1,0-3.06-3.06A3.06,3.06,0,0,0,489.93,810.6Z"/><path class="cls-25" d="M548.11,691.78a16.22,16.22,0,0,1-14.66,9.77c-9,0-16.27-7.74-16.27-17.28a18.27,18.27,0,0,1,.47-4.15,120.64,120.64,0,0,0-15.12-2.2,170,170,0,0,0-20-.11,122.82,122.82,0,0,0-14.73,1.93,18.43,18.43,0,0,1,.82,5.45c0,9.54-7.29,17.28-16.27,17.28A16.39,16.39,0,0,1,437,690.89c-15.67,9.08-25.47,22-25.47,36.36s9.77,27.23,25.39,36.32l.74.42a91.25,91.25,0,0,0,15.84,7,120.51,120.51,0,0,0,38.31,6,122.81,122.81,0,0,0,33.24-4.45,97.59,97.59,0,0,0,17-6.5c.37-.18.74-.36,1.1-.55,17.68-9.13,28.94-22.88,28.94-38.26C572.09,713.36,562.91,700.8,548.11,691.78ZM438.76,718.25c-6.8,0-12.31-1.94-12.31-4.35s5.51-4.35,12.31-4.35,12.3,2,12.3,4.35S445.55,718.25,438.76,718.25Zm107,0c-6.8,0-12.31-1.94-12.31-4.35s5.51-4.35,12.31-4.35,12.31,2,12.31,4.35S552.56,718.25,545.76,718.25Z"/><path class="cls-26" d="M451.06,713.9c0,2.4-5.51,4.35-12.3,4.35s-12.31-2-12.31-4.35,5.51-4.36,12.31-4.36S451.06,711.49,451.06,713.9Z"/><path class="cls-26" d="M545.76,718.25c6.8,0,12.31-2,12.31-4.35s-5.51-4.36-12.31-4.36-12.31,2-12.31,4.36S539,718.25,545.76,718.25Z"/><path class="cls-27" d="M549.72,684.27a18.19,18.19,0,0,1-1.61,7.51,16.23,16.23,0,0,1-14.66,9.77c-9,0-16.28-7.74-16.28-17.28a18.27,18.27,0,0,1,.48-4.15c1.75-7.54,8.16-13.13,15.8-13.13C542.44,667,549.72,674.72,549.72,684.27Z"/><path class="cls-27" d="M467.82,679.74a16.41,16.41,0,0,0-15.45-11.83c-9,0-16.27,7.74-16.27,17.28a18.48,18.48,0,0,0,.9,5.7,16.39,16.39,0,0,0,15.37,11.58c9,0,16.27-7.74,16.27-17.28A18.06,18.06,0,0,0,467.82,679.74Z"/><path class="cls-28" d="M452.37,681.67a7.49,7.49,0,1,1-7.58,7.49A7.53,7.53,0,0,1,452.37,681.67Z"/><path class="cls-28" d="M533.37,681.67a7.49,7.49,0,1,1-7.58,7.49A7.53,7.53,0,0,1,533.37,681.67Z"/><path class="cls-29" d="M500.4,716.62a7.17,7.17,0,0,0-14.34,0"/><path class="cls-12" d="M545.76,718.25c6.8,0,12.31-2,12.31-4.35s-5.51-4.36-12.31-4.36-12.31,2-12.31,4.36S539,718.25,545.76,718.25Z"/><path class="cls-12" d="M451.06,713.9c0,2.4-5.51,4.35-12.3,4.35s-12.31-2-12.31-4.35,5.51-4.36,12.31-4.36S451.06,711.49,451.06,713.9Z"/><path class="cls-23" d="M567.88,784.29l-16.16,17.22"/><path class="cls-4" d="M561.39,805l6.91,1.69a.91.91,0,0,0,1.09-1.14l-1.54-5.43a1.45,1.45,0,0,1,1.09-1.82l5.52-1.21a.47.47,0,0,0,.14-.87l-10.69-6.19"/><path class="cls-23" d="M561.39,805l6.91,1.69a.91.91,0,0,0,1.09-1.14l-1.54-5.43a1.45,1.45,0,0,1,1.09-1.82l5.52-1.21a.47.47,0,0,0,.14-.87l-10.69-6.19"/><path class="cls-4" d="M569.09,806.74l-6.78-1.68a1.26,1.26,0,0,0-1.54,1l-1,5.43a.81.81,0,0,1-1.49.29l-6.08-10"/><path class="cls-23" d="M569.09,806.74l-6.78-1.68a1.26,1.26,0,0,0-1.54,1l-1,5.43a.81.81,0,0,1-1.49.29l-6.08-10"/><path class="cls-4" d="M553.87,801.41l.62,1,5.69,1.67a2.86,2.86,0,0,1,.29-.21,3.29,3.29,0,0,1,.46-.24,3.58,3.58,0,0,1,.4-.13,1.48,1.48,0,0,1,.32-.06l2-11.76-.43-.25Z"/><path class="cls-4" d="M422.23,805.16l-6.9,1.69a.91.91,0,0,1-1.1-1.14l1.54-5.43a1.45,1.45,0,0,0-1.09-1.82l-5.52-1.21a.46.46,0,0,1-.13-.86l10.68-6.2"/><path class="cls-23" d="M422.23,805.16l-6.9,1.69a.91.91,0,0,1-1.1-1.14l1.54-5.43a1.45,1.45,0,0,0-1.09-1.82l-5.52-1.21a.46.46,0,0,1-.13-.86l10.68-6.2"/><path class="cls-4" d="M414.53,806.89l6.78-1.68a1.26,1.26,0,0,1,1.54,1l1,5.43a.81.81,0,0,0,1.49.29l6.08-10"/><path class="cls-23" d="M414.53,806.89l6.78-1.68a1.26,1.26,0,0,1,1.54,1l1,5.43a.81.81,0,0,0,1.49.29l6.08-10"/><path class="cls-4" d="M429.76,801.56l-.63,1-5.68,1.67a2.86,2.86,0,0,0-.29-.21,4.14,4.14,0,0,0-.46-.24,3.58,3.58,0,0,0-.4-.13l-.33-.06-2-11.75.44-.26Z"/><path class="cls-24" d="M326.61,835.14l1.1.55v28.57l-7.87,7.21-15.21-16.21Z"/><path class="cls-23" d="M319.75,871.37l-16.16-17.22"/><path class="cls-4" d="M307.56,859.9l-10.68,6.2a.46.46,0,0,0,.13.86l5.52,1.21a1.46,1.46,0,0,1,1.09,1.82l-1.54,5.44a.92.92,0,0,0,1.1,1.14l6.9-1.7"/><path class="cls-23" d="M307.56,859.9l-10.68,6.2a.46.46,0,0,0,.13.86l5.52,1.21a1.46,1.46,0,0,1,1.09,1.82l-1.54,5.44a.92.92,0,0,0,1.1,1.14l6.9-1.7"/><path class="cls-4" d="M319.23,871.62l-6.08,10a.81.81,0,0,1-1.49-.29l-1-5.43a1.26,1.26,0,0,0-1.54-1l-6.78,1.68"/><path class="cls-23" d="M319.23,871.62l-6.08,10a.81.81,0,0,1-1.49-.29l-1-5.43a1.26,1.26,0,0,0-1.54-1l-6.78,1.68"/><path class="cls-4" d="M308.28,861.32l-.44.25,2,11.75.33.06a3.89,3.89,0,0,1,.39.13,3.68,3.68,0,0,1,.47.24,3.42,3.42,0,0,1,.28.22l5.69-1.68.62-1Z"/><path class="cls-24" d="M454.84,855.4l-15.21,16.21-7.87-7.2V835.83l1.1-.55Z"/><path class="cls-24" d="M431.76,835.72v50.73H327.37V833.64a90.91,90.91,0,0,0,15.84,7,120.23,120.23,0,0,0,38.31,6,123.26,123.26,0,0,0,33.24-4.45A97.9,97.9,0,0,0,431.76,835.72Z"/><path class="cls-15" d="M361.28,847a116.88,116.88,0,0,0,18.29,1.46,141.26,141.26,0,0,0,19.45-1L380.79,863Z"/><path class="cls-6" d="M395.35,853,410,863.83l-24.76,4.38"/><path class="cls-23" d="M395.35,853,410,863.83l-24.76,4.38"/><path class="cls-23" d="M380.63,865.19l24-20.45"/><path class="cls-6" d="M366.13,853l-14.68,10.87,35.91,6.35"/><path class="cls-23" d="M366.13,853l-14.68,10.87,35.91,6.35"/><path class="cls-6" d="M340.69,839.76l-1.12,11.38L360,857.55"/><path class="cls-23" d="M340.69,839.76l-1.12,11.38L360,857.55"/><path class="cls-23" d="M387.36,886.45V870.18S355.16,844,354.8,843.92"/><path class="cls-6" d="M420.5,839.76l1.11,11.38-20.44,6.41"/><path class="cls-23" d="M420.5,839.76l1.11,11.38-20.44,6.41"/><path class="cls-23" d="M377.93,880.6a3.07,3.07,0,1,0-3.06-3.06A3.06,3.06,0,0,0,377.93,880.6Z"/><path class="cls-25" d="M436.11,761.78a16.22,16.22,0,0,1-14.66,9.77c-9,0-16.27-7.74-16.27-17.28a18.27,18.27,0,0,1,.47-4.15,120.64,120.64,0,0,0-15.12-2.2,170,170,0,0,0-20-.11,123.09,123.09,0,0,0-14.73,1.93,18.43,18.43,0,0,1,.82,5.45c0,9.54-7.29,17.28-16.27,17.28A16.39,16.39,0,0,1,325,760.89c-15.67,9.08-25.47,22-25.47,36.36s9.77,27.23,25.39,36.32l.74.42a91.25,91.25,0,0,0,15.84,7,120.51,120.51,0,0,0,38.31,6,122.81,122.81,0,0,0,33.24-4.45,97.59,97.59,0,0,0,17-6.5c.37-.18.74-.36,1.1-.55,17.68-9.13,28.94-22.88,28.94-38.26C460.09,783.36,450.91,770.8,436.11,761.78ZM326.76,788.25c-6.8,0-12.31-1.94-12.31-4.35s5.51-4.35,12.31-4.35,12.3,2,12.3,4.35S333.55,788.25,326.76,788.25Zm107,0c-6.8,0-12.31-1.94-12.31-4.35s5.51-4.35,12.31-4.35,12.31,2,12.31,4.35S440.56,788.25,433.76,788.25Z"/><path class="cls-26" d="M433.76,788.25c6.8,0,12.31-2,12.31-4.35s-5.51-4.36-12.31-4.36-12.31,2-12.31,4.36S427,788.25,433.76,788.25Z"/><path class="cls-27" d="M437.72,754.27a18.19,18.19,0,0,1-1.61,7.51,16.23,16.23,0,0,1-14.66,9.77c-9,0-16.28-7.74-16.28-17.28a18.27,18.27,0,0,1,.48-4.15c1.75-7.54,8.16-13.13,15.8-13.13C430.44,737,437.72,744.72,437.72,754.27Z"/><path class="cls-27" d="M355.82,749.74a16.41,16.41,0,0,0-15.45-11.83c-9,0-16.27,7.74-16.27,17.28a18.48,18.48,0,0,0,.9,5.7,16.39,16.39,0,0,0,15.37,11.58c9,0,16.27-7.74,16.27-17.28A18.06,18.06,0,0,0,355.82,749.74Z"/><path class="cls-28" d="M421.37,751.67a7.49,7.49,0,1,1-7.58,7.49A7.53,7.53,0,0,1,421.37,751.67Z"/><path class="cls-29" d="M388.4,786.62a7.17,7.17,0,0,0-14.34,0"/><path class="cls-12" d="M433.76,788.25c6.8,0,12.31-2,12.31-4.35s-5.51-4.36-12.31-4.36-12.31,2-12.31,4.36S427,788.25,433.76,788.25Z"/><path class="cls-23" d="M455.88,854.29l-16.16,17.22"/><path class="cls-4" d="M449.39,875l6.91,1.69a.91.91,0,0,0,1.09-1.14l-1.54-5.43a1.45,1.45,0,0,1,1.09-1.82l5.52-1.21a.47.47,0,0,0,.14-.87l-10.69-6.19"/><path class="cls-23" d="M449.39,875l6.91,1.69a.91.91,0,0,0,1.09-1.14l-1.54-5.43a1.45,1.45,0,0,1,1.09-1.82l5.52-1.21a.47.47,0,0,0,.14-.87l-10.69-6.19"/><path class="cls-4" d="M457.09,876.74l-6.78-1.68a1.26,1.26,0,0,0-1.54,1l-1,5.43a.81.81,0,0,1-1.49.29l-6.08-10"/><path class="cls-23" d="M457.09,876.74l-6.78-1.68a1.26,1.26,0,0,0-1.54,1l-1,5.43a.81.81,0,0,1-1.49.29l-6.08-10"/><path class="cls-4" d="M441.87,871.41l.62,1,5.69,1.67a2.86,2.86,0,0,1,.29-.21,3.29,3.29,0,0,1,.46-.24,3.58,3.58,0,0,1,.4-.13,1.48,1.48,0,0,1,.32-.06l2-11.76-.43-.25Z"/><path class="cls-33" d="M1401.41,343.47h16l23.61,40.22,23.62-40.22h16v67.2h-16v-39l-17.28,29.38h-12.77l-17.18-29.38v39h-16Zm91.78,0h53.08v14.4h-37v12.67h35.13V383.6h-35.13v12.67h37v14.4h-53.08Zm94.38,69.12a35,35,0,0,1-13.82-2.78,35.16,35.16,0,0,1-18.92-18.92,35,35,0,0,1-2.78-13.82,34.47,34.47,0,0,1,2.78-13.82,36,36,0,0,1,18.92-18.92,35,35,0,0,1,13.82-2.78,34.5,34.5,0,0,1,15.94,3.74,36.1,36.1,0,0,1,12.19,10.08l-10.85,9a22.57,22.57,0,0,0-7.58-5.57,22.27,22.27,0,0,0-9.51-2,19.22,19.22,0,0,0-7.68,1.54,19.83,19.83,0,0,0-6.24,4.22,19.42,19.42,0,0,0-4.22,6.44,21.86,21.86,0,0,0,0,16.12,19.42,19.42,0,0,0,4.22,6.44,19.83,19.83,0,0,0,6.24,4.22,19.22,19.22,0,0,0,7.68,1.54,22.27,22.27,0,0,0,9.51-2,22.57,22.57,0,0,0,7.58-5.57l10.85,9a36.1,36.1,0,0,1-12.19,10.08A34.5,34.5,0,0,1,1587.57,412.59Zm53.34-54.72h-22.75v-14.4h61.44v14.4h-22.75v52.8h-15.94Zm75.47,54.72a35,35,0,0,1-13.82-2.78,35.1,35.1,0,0,1-18.91-18.92,34.79,34.79,0,0,1-2.79-13.82,34.31,34.31,0,0,1,2.79-13.82,35.76,35.76,0,0,1,7.58-11.24,36.28,36.28,0,0,1,11.33-7.68,35,35,0,0,1,13.82-2.78,34.55,34.55,0,0,1,13.83,2.78,36.84,36.84,0,0,1,18.91,18.92,34.47,34.47,0,0,1,2.78,13.82,35,35,0,0,1-2.78,13.82,36,36,0,0,1-18.91,18.92A34.55,34.55,0,0,1,1716.38,412.59Zm-19.49-35.52a21.21,21.21,0,0,0,1.44,7.87,21.74,21.74,0,0,0,4.13,6.43,18.81,18.81,0,0,0,6.15,4.23,20.52,20.52,0,0,0,15.55,0,18.58,18.58,0,0,0,6.24-4.23,21.05,21.05,0,0,0,4-22.17,19.13,19.13,0,0,0-4-6.34,18.1,18.1,0,0,0-6.24-4.32,20.52,20.52,0,0,0-15.55,0,18.32,18.32,0,0,0-6.15,4.32,20.56,20.56,0,0,0-4.13,6.34A21.21,21.21,0,0,0,1696.89,377.07Zm93.62,20.45h2.6q3.65,0,5.18-2.5a20.79,20.79,0,0,0,2.59-6.14l11.23-45.41h44v52.8h5.76v25h-16V410.67h-39.36v10.56h-15.94Zm49.54-1.25v-38.4h-15.84l-8.93,36.48-.38,1a5.85,5.85,0,0,1-.29,1Zm26.12,1.25h2.59q3.65,0,5.19-2.5a21.06,21.06,0,0,0,2.59-6.14l11.23-45.41h44v67.2h-16v-52.8h-15.84l-9.7,39.46a19.31,19.31,0,0,1-5.47,9.69q-3.95,3.64-11.81,3.65h-6.72Zm91.58-9.89a20.34,20.34,0,0,1-7-2.78,22.31,22.31,0,0,1-10-19,23.1,23.1,0,0,1,1.54-8.35,21.74,21.74,0,0,1,4.32-7.2,20.61,20.61,0,0,1,6.72-4.9,19.87,19.87,0,0,1,8.83-1.92h38v67.2h-15.94V388.3h-8.64l-18.72,22.37h-18.43Zm26.5-13.15V357.2h-19.2a8.61,8.61,0,0,0-4,.86,8.25,8.25,0,0,0-2.69,2.21,8.86,8.86,0,0,0-1.44,2.78,9.5,9.5,0,0,0-.48,2.79,9.39,9.39,0,0,0,.48,2.78,10,10,0,0,0,1.44,2.88,8.82,8.82,0,0,0,2.69,2.11,8.49,8.49,0,0,0,4,.87Z"/><path class="cls-2" d="M1401.46,263h4.86q6.84,0,9.72-4.68a39.18,39.18,0,0,0,4.86-11.52L1442,161.67h82.44v126h-30.06v-99h-29.7l-18.18,74q-2.88,11.34-10.26,18.18t-22.14,6.84h-12.6Zm185.4-22.14-51.66-79.2h34.56l32.94,52,31.32-52h32l-75.06,126h-32ZM1753,234.39a40.24,40.24,0,0,1-14.4,7.74,61.67,61.67,0,0,1-16,2,63.49,63.49,0,0,1-20.88-3.42,51.18,51.18,0,0,1-16.92-9.72,46.69,46.69,0,0,1-11.52-15.48,49.36,49.36,0,0,1-4.14-20.52v-33.3H1699v31a25.45,25.45,0,0,0,1.8,9.54,25.77,25.77,0,0,0,5.4,7.92,26.86,26.86,0,0,0,8.46,5.4,33.56,33.56,0,0,0,11.34,1.8,44.46,44.46,0,0,0,8.28-.9,22.55,22.55,0,0,0,15.84-11.34q2.88-5,2.88-13.14V161.67h30.06v126H1753Zm53.54-72.72h30.06v99h38.16v-99h30.06v99h38v-99h30.06v126H1806.55Zm189.67,0h99.54v27h-69.48v23.76h65.88v24.48h-65.88v23.76h69.48v27h-99.54Zm117.6,0h99.54v27h-69.48v23.76h65.88v24.48h-65.88v23.76h69.48v27h-99.54Z"/><path class="cls-33" d="M1401,602.87h25.73a12.06,12.06,0,0,1,4.93,1,12.7,12.7,0,0,1,6.66,6.66,12.06,12.06,0,0,1,1,4.93,10.56,10.56,0,0,1-5.82,9.79,10.66,10.66,0,0,1,4.22,3.9,10.48,10.48,0,0,1,1.6,5.89,12.06,12.06,0,0,1-1,4.93,12.33,12.33,0,0,1-2.69,4,12.94,12.94,0,0,1-4,2.69,12.71,12.71,0,0,1-4.93,1H1401Zm25.09,39a7.35,7.35,0,0,0,2.75-.51,8.36,8.36,0,0,0,2.24-1.47,6.72,6.72,0,0,0,1.54-2.18,6.54,6.54,0,0,0,.58-2.69,6.3,6.3,0,0,0-.58-2.69,6.68,6.68,0,0,0-1.54-2.17,7.4,7.4,0,0,0-5-2.05h-18.69v13.76Zm-18.69-33.28v13.76h18.69a7.35,7.35,0,0,0,2.75-.51,8.36,8.36,0,0,0,2.24-1.47,7.45,7.45,0,0,0,1.54-2.24,6.57,6.57,0,0,0,.58-2.69,6.27,6.27,0,0,0-.58-2.69,6.72,6.72,0,0,0-1.54-2.18,7.14,7.14,0,0,0-2.24-1.4,6.52,6.52,0,0,0-2.75-.58Zm68.1,29.44h-24l-4.16,9.6h-6.72l19.52-44.8h6.72l19.52,44.8h-6.72Zm-2.56-5.76-9.41-21.76-9.47,21.76Zm17.31-29.44h6.4v39h19.14v-39h6.4v39h19.07v-39h6.4v44.8h-57.41Zm65.75,0h34.56v5.76h-28.16v13.76h26.88v5.76h-26.88v13.76h28.16v5.76H1556Zm41,0h33.28v5.76h-26.88v39H1597ZM1654.6,649a23.18,23.18,0,0,1-9.21-1.86,23.31,23.31,0,0,1-12.61-12.6,23.23,23.23,0,0,1-1.86-9.22,23,23,0,0,1,1.86-9.22,23.93,23.93,0,0,1,12.61-12.6,23.18,23.18,0,0,1,9.21-1.86,22.91,22.91,0,0,1,9.22,1.86,23.27,23.27,0,0,1,7.49,5.12,23.55,23.55,0,0,1,5.12,7.48,23.11,23.11,0,0,1,1.85,9.22,23.4,23.4,0,0,1-1.85,9.22,24.31,24.31,0,0,1-5.12,7.55,23.89,23.89,0,0,1-7.49,5.05A22.91,22.91,0,0,1,1654.6,649Zm-17.28-23.68a19,19,0,0,0,1.28,7,18.38,18.38,0,0,0,3.65,5.69,17.58,17.58,0,0,0,5.44,3.78,17.77,17.77,0,0,0,6.91,1.34,16.81,16.81,0,0,0,12.35-5.12,17.53,17.53,0,0,0,3.59-5.69,18.85,18.85,0,0,0,0-14,16.85,16.85,0,0,0-3.59-5.63,15.92,15.92,0,0,0-5.5-3.77,16.5,16.5,0,0,0-6.85-1.41,16.94,16.94,0,0,0-6.91,1.41,16.16,16.16,0,0,0-5.44,3.77,17.65,17.65,0,0,0-3.65,5.63A19.06,19.06,0,0,0,1637.32,625.27Zm77.5,5.76v16.64h-6.4v-44.8h25a12.6,12.6,0,0,1,5.37,1.15,13.39,13.39,0,0,1,4.42,3,13.12,13.12,0,0,1,2.94,4.48,14.12,14.12,0,0,1,0,10.88,13.12,13.12,0,0,1-2.94,4.48,14.18,14.18,0,0,1-4.42,3.07,13.19,13.19,0,0,1-5.37,1.09Zm17.92-5.76a7.88,7.88,0,0,0,3.2-.64,8.33,8.33,0,0,0,2.69-1.79,8.58,8.58,0,0,0,1.79-2.63,8.31,8.31,0,0,0,.64-3.26,7.88,7.88,0,0,0-.64-3.2,8.5,8.5,0,0,0-1.79-2.69,8.33,8.33,0,0,0-2.69-1.79,7.88,7.88,0,0,0-3.2-.64h-17.92v16.64Zm19.55-22.4h34.56v5.76h-28.16v13.76h26.88v5.76h-26.88v13.76h28.16v5.76h-34.56Zm41,0h34v5.76h-27.65v10.88h18.82a12.68,12.68,0,0,1,5.38,1.15,13.45,13.45,0,0,1,4.41,3,13.29,13.29,0,0,1,3,4.48,14.24,14.24,0,0,1,0,10.88,13.29,13.29,0,0,1-3,4.48,14.25,14.25,0,0,1-4.41,3.07,13.27,13.27,0,0,1-5.38,1.09h-25.22Zm24.58,39a7.88,7.88,0,0,0,3.2-.64,8.19,8.19,0,0,0,5.12-7.68,7.88,7.88,0,0,0-.64-3.2,8.2,8.2,0,0,0-4.48-4.48,7.88,7.88,0,0,0-3.2-.64h-18.18v16.64Zm19.55-39H1872v5.76h-28.16v13.76h26.88v5.76h-26.88v13.76H1872v5.76h-34.56Zm41,0h6.4v19.52h26.88V602.87h6.4v44.8h-6.4V628.15h-26.88v19.52h-6.4Zm48,0h6.4v18.62l21.89-18.62h9.15l-26.37,22.4,26.37,22.4h-9.15l-21.89-18.62v18.62h-6.4Zm70.43,35.2h-24l-4.16,9.6H1962l19.52-44.8h6.72l19.52,44.8H2001Zm-2.56-5.76-9.41-21.76-9.47,21.76Z"/><path class="cls-34" d="M1424.61,523.05v32.62h-23.38v-98h55.86a29,29,0,0,1,12.88,2.8,30.19,30.19,0,0,1,9.8,7.14,32.45,32.45,0,0,1,6.3,10.5,34,34,0,0,1,2.24,12.18,35.13,35.13,0,0,1-2.24,12.32,34.48,34.48,0,0,1-6.3,10.5,32.11,32.11,0,0,1-9.8,7.28,30.34,30.34,0,0,1-12.88,2.66Zm28.28-20.16a12.47,12.47,0,0,0,5.88-1.26,11.58,11.58,0,0,0,3.78-3.08,13.35,13.35,0,0,0,2.24-4.2,12.12,12.12,0,0,0,0-8.12,11.73,11.73,0,0,0-2.24-4.06,10.77,10.77,0,0,0-3.78-3.22,12.47,12.47,0,0,0-5.88-1.26h-28.28v25.2Zm96.8,37h-41l-6.44,15.82h-24.08l39.06-98h23.94l39.06,98h-24.08Zm-7.42-19.18-13-32.06-13.16,32.06ZM1580,474.89a34.73,34.73,0,0,1,8.4-8.54,56.29,56.29,0,0,1,11.06-6.3,63.29,63.29,0,0,1,12.6-3.78,62.56,62.56,0,0,1,13-1.4,64,64,0,0,1,18.06,2.38,44,44,0,0,1,13.86,6.3,27.23,27.23,0,0,1,9,9.52,22.13,22.13,0,0,1,3.08,11.9,20.17,20.17,0,0,1-4.76,13.3,35.31,35.31,0,0,1-11.48,8.4,34.27,34.27,0,0,1,11.48,8.54,19.6,19.6,0,0,1,4.76,13.16,22.82,22.82,0,0,1-3.08,12,28.94,28.94,0,0,1-9,9.52,46.25,46.25,0,0,1-13.86,6.16,64,64,0,0,1-18.06,2.38,62.56,62.56,0,0,1-13-1.4,63.29,63.29,0,0,1-12.6-3.78,56.29,56.29,0,0,1-11.06-6.3,38.35,38.35,0,0,1-8.4-8.54l15-12.32a29.81,29.81,0,0,0,6.86,5.32,71.75,71.75,0,0,0,8.26,3.64,60.69,60.69,0,0,0,8.54,2.1,49.19,49.19,0,0,0,7.84.7q9.51,0,14.28-2.94t5.18-6.58q.13-5-3.22-7.56a19.45,19.45,0,0,0-8.68-3.64,57.79,57.79,0,0,0-11.9-1.12H1609.3V497.29h12.88a74.9,74.9,0,0,0,11.9-1.12,21.87,21.87,0,0,0,8.68-3.64q3.36-2.52,3.22-7.56-.29-3.64-5.18-6.58t-14.28-2.94a49.19,49.19,0,0,0-7.84.7,50.16,50.16,0,0,0-8.54,2.24,49.23,49.23,0,0,0-8.26,3.64,27,27,0,0,0-6.86,5.18Zm100.78-17.22h59.08a26.32,26.32,0,0,1,10.78,2.24,27.76,27.76,0,0,1,14.56,14.56,26.28,26.28,0,0,1,2.24,10.78,24.94,24.94,0,0,1-3.08,12.46,26.28,26.28,0,0,1-8.26,9,26.28,26.28,0,0,1,8.26,9,24.94,24.94,0,0,1,3.08,12.46,26.28,26.28,0,0,1-2.24,10.78,27.06,27.06,0,0,1-5.88,8.82,28.42,28.42,0,0,1-8.68,5.88,27.77,27.77,0,0,1-10.78,2.1h-59.08Zm54.88,77a10,10,0,0,0,7.14-2.52,8.89,8.89,0,0,0,2.8-6.72,8.74,8.74,0,0,0-2.8-6.58,9.68,9.68,0,0,0-7.14-2.66h-31.5v18.48Zm-31.5-56v18.48h31.5a9.68,9.68,0,0,0,7.14-2.66,8.74,8.74,0,0,0,2.8-6.58,8.45,8.45,0,0,0-2.8-6.58,9.68,9.68,0,0,0-7.14-2.66Zm74.92-21h23.38v61.74l44.8-61.74h23.24v98H1847.3V493.93l-44.8,61.74h-23.38Zm136.27,21h-33.18v-21h89.6v21h-33.18v77h-23.24Zm67.71-21h23.38v61.74l44.8-61.74h23.24v98h-23.24V493.93l-44.8,61.74H1983.1Zm129.39,64.4a29.8,29.8,0,0,1-10.22-4.06,36.2,36.2,0,0,1-7.84-7.28,35.6,35.6,0,0,1-5-9.52,36.08,36.08,0,0,1-1.68-10.92,34,34,0,0,1,2.24-12.18,32.1,32.1,0,0,1,6.3-10.5,30.09,30.09,0,0,1,9.8-7.14,29,29,0,0,1,12.88-2.8h55.44v98h-23.24V523.05h-12.6l-27.3,32.62h-26.88Zm38.64-19.18v-25.2h-28a12.47,12.47,0,0,0-5.88,1.26,12.07,12.07,0,0,0-3.92,3.22,13.06,13.06,0,0,0-2.1,4.06,12.12,12.12,0,0,0,0,8.12,15,15,0,0,0,2.1,4.2,13.11,13.11,0,0,0,3.92,3.08,12.47,12.47,0,0,0,5.88,1.26Z"/><path class="cls-28" d="M340.07,752.67a7.49,7.49,0,1,1-7.58,7.49A7.53,7.53,0,0,1,340.07,752.67Z"/><path class="cls-12" d="M339.06,783.9c0,2.41-5.51,4.35-12.3,4.35s-12.31-1.94-12.31-4.35,5.51-4.35,12.31-4.35S339.06,781.5,339.06,783.9Z"/></svg>