<svg width="1057" height="885" viewBox="0 0 1057 885" fill="none" xmlns="http://www.w3.org/2000/svg">
<rect width="200" height="108.153" rx="30" transform="matrix(0.866041 0.499972 -0.866041 0.499972 674.66 220.926)" fill="#D9D9D9"/>
<rect width="200" height="108.153" rx="30" transform="matrix(0.866041 0.499972 -0.866041 0.499972 786.66 150.926)" fill="#D9D9D9"/>
<rect width="200" height="108.153" rx="30" transform="matrix(0.866041 0.499972 -0.866041 0.499972 898.66 80.9258)" fill="#D9D9D9"/>
<rect width="200" height="108.153" rx="30" transform="matrix(0.866041 0.499972 -0.866041 0.499972 516.664 373.93)" fill="#D9D9D9"/>
<rect width="154.574" height="108.153" rx="30" transform="matrix(0.866041 0.499972 -0.866041 0.499972 597.664 287.93)" fill="#D9D9D9"/>
<rect width="154.574" height="108.153" rx="30" transform="matrix(0.866041 0.499972 -0.866041 0.499972 483.664 353.93)" fill="#D9D9D9"/>
<path d="M860.701 117.148L853.18 117.16C852.437 117.16 851.972 117.963 852.34 118.606L855.299 123.792C855.738 124.562 855.437 125.543 854.641 125.937L849.277 128.573C848.871 128.774 848.923 129.369 849.355 129.495L861.891 133.157" fill="#338862"/>
<path d="M860.701 117.148L853.18 117.16C852.437 117.16 851.972 117.963 852.34 118.606L855.299 123.792C855.738 124.562 855.437 125.543 854.641 125.937L849.277 128.573C848.871 128.774 848.923 129.369 849.355 129.495L861.891 133.157" stroke="#22211D" stroke-width="3.34599" stroke-miterlimit="10"/>
<path d="M852.355 117.323L859.746 117.331C860.516 117.331 861.122 116.684 861.074 115.918L860.687 110.1C860.639 109.315 861.579 108.876 862.144 109.423L870.915 118.182" fill="#338862"/>
<path d="M852.355 117.323L859.746 117.331C860.516 117.331 861.122 116.684 861.074 115.918L860.687 110.1C860.639 109.315 861.579 108.876 862.144 109.423L870.915 118.182" stroke="#22211D" stroke-width="3.34599" stroke-miterlimit="10"/>
<path d="M869.334 118.948L868.434 118.052L862.174 117.773C862.174 117.773 862.036 117.963 861.932 118.067C861.683 118.313 861.519 118.428 861.519 118.428C861.519 118.428 861.334 118.562 861.144 118.662C860.969 118.751 860.906 118.77 860.824 118.803L861.761 131.373L862.274 131.525L869.334 118.948Z" fill="#338862"/>
<path d="M1002.61 125.25V178.905H892.223V123.057" fill="white"/>
<path d="M1002.61 125.25V178.905H892.223V123.057" stroke="#22211D" stroke-width="3.34599" stroke-miterlimit="10"/>
<path d="M1003.03 155.406L1002.57 128.612L1023.44 118.689L1035.5 142.011L1003.7 156.09C1003.48 155.863 1003.26 155.637 1003.03 155.406Z" fill="white" stroke="#22211D" stroke-width="3.34599" stroke-miterlimit="10"/>
<path d="M1006.75 51.9071C1004.03 57.573 998.266 61.4804 991.589 61.4804C982.299 61.4804 974.763 53.8998 974.763 44.5459C974.763 43.1443 974.934 41.7836 975.253 40.4787C970.242 39.4749 965.007 38.7499 959.613 38.3261C951.91 37.8911 948.534 37.8911 938.961 38.2146C933.715 38.5677 928.621 39.2109 923.721 40.1106C924.279 41.7873 924.576 43.583 924.576 45.4493C924.576 54.8032 917.041 62.3838 907.75 62.3838C900.4 62.3838 894.154 57.6473 891.86 51.0334C875.654 59.9338 865.523 72.6039 865.523 86.6645C865.523 100.703 875.617 113.354 891.778 122.258C892.031 122.396 892.288 122.534 892.54 122.671C897.489 125.329 902.98 127.638 908.917 129.534C920.688 133.3 934.183 135.434 948.534 135.434C960.791 135.434 972.432 133.873 982.905 131.073C989.232 129.378 995.132 127.233 1000.49 124.701C1000.87 124.523 1001.25 124.344 1001.62 124.162C1019.91 115.21 1031.55 101.736 1031.55 86.6608C1031.54 73.0575 1022.06 60.7517 1006.75 51.9071ZM893.671 77.8534C886.64 77.8534 880.945 75.9462 880.945 73.5891C880.945 71.2321 886.64 69.3249 893.671 69.3249C900.697 69.3249 906.393 71.2321 906.393 73.5891C906.393 75.9462 900.701 77.8534 893.671 77.8534ZM1004.32 77.8534C997.289 77.8534 991.593 75.9462 991.593 73.5891C991.593 71.2321 997.289 69.3249 1004.32 69.3249C1011.35 69.3249 1017.04 71.2321 1017.04 73.5891C1017.04 75.9462 1011.35 77.8534 1004.32 77.8534Z" fill="#338862" stroke="#22211D" stroke-width="4.08955" stroke-miterlimit="10"/>
<path d="M906.516 74.0609C906.516 76.3994 900.843 78.2917 893.846 78.2917C886.845 78.2917 881.172 76.3994 881.172 74.0609C881.172 71.7224 886.845 69.8301 893.846 69.8301C900.843 69.8264 906.516 71.7224 906.516 74.0609Z" fill="white" stroke="#22211D" stroke-width="5.57665" stroke-miterlimit="10"/>
<path d="M1004.01 78.2917C1011.01 78.2917 1016.69 76.3975 1016.69 74.0609C1016.69 71.7243 1011.01 69.8301 1004.01 69.8301C997.014 69.8301 991.34 71.7243 991.34 74.0609C991.34 76.3975 997.014 78.2917 1004.01 78.2917Z" fill="white" stroke="#22211D" stroke-width="5.57665" stroke-miterlimit="10"/>
<path d="M1008.1 45.2449C1008.1 47.8622 1007.5 50.3383 1006.44 52.5466C1003.73 58.1716 997.989 62.0492 991.342 62.0492C982.088 62.0492 974.586 54.5282 974.586 45.2449C974.586 43.8545 974.757 42.5012 975.073 41.2112C976.872 33.8797 983.475 28.4443 991.338 28.4443C1000.6 28.4443 1008.1 35.9654 1008.1 45.2449Z" fill="white" stroke="#22211D" stroke-width="4.08955" stroke-miterlimit="10"/>
<path d="M923.77 40.8424C921.558 34.1579 915.271 29.3359 907.865 29.3359C898.612 29.3359 891.109 36.857 891.109 46.1365C891.109 48.0772 891.44 49.9435 892.043 51.6797C894.325 58.2416 900.545 62.9408 907.865 62.9408C917.115 62.9408 924.621 55.4198 924.621 46.1365C924.621 44.2888 924.324 42.508 923.77 40.8424Z" fill="white" stroke="#22211D" stroke-width="4.08955" stroke-miterlimit="10"/>
<path d="M907.038 29.3398C911.336 29.3398 914.827 32.5892 914.827 36.6155C914.827 40.6381 911.332 43.8912 907.038 43.8912C902.725 43.8912 899.23 40.6419 899.23 36.6155C899.23 32.5892 902.725 29.3398 907.038 29.3398Z" fill="#22211D" stroke="#22211D" stroke-width="3.34599" stroke-miterlimit="10"/>
<path d="M991.35 28.4443C995.648 28.4443 999.139 31.6937 999.139 35.72C999.139 39.7426 995.644 42.9957 991.35 42.9957C987.038 42.9957 983.543 39.7464 983.543 35.72C983.543 31.6937 987.038 28.4443 991.35 28.4443Z" fill="#22211D" stroke="#22211D" stroke-width="3.34599" stroke-miterlimit="10"/>
<path d="M1004.01 78.2917C1011.01 78.2917 1016.69 76.3975 1016.69 74.0609C1016.69 71.7243 1011.01 69.8301 1004.01 69.8301C997.014 69.8301 991.34 71.7243 991.34 74.0609C991.34 76.3975 997.014 78.2917 1004.01 78.2917Z" fill="#E15D34"/>
<path d="M906.516 74.0609C906.516 76.3994 900.843 78.2917 893.846 78.2917C886.845 78.2917 881.172 76.3994 881.172 74.0609C881.172 71.7224 886.845 69.8301 893.846 69.8301C900.843 69.8264 906.516 71.7224 906.516 74.0609Z" fill="#E15D34"/>
<path d="M992.682 13.5509L952.024 1.14098C951.485 0.977395 950.868 0.89932 950.251 0.906756C949.638 0.89932 949.017 0.973678 948.478 1.14098L907.82 13.5509C905.902 14.1346 905.906 15.4693 907.82 16.0529L931.186 23.1836V40.2631C931.186 41.6089 932.759 42.6759 935.257 43.4789C942.474 45.7877 957.452 45.836 964.903 43.5979C967.602 42.7874 969.312 41.6795 969.312 40.2631V23.1836L992.678 16.0529C994.597 15.4693 994.6 14.1346 992.682 13.5509Z" fill="#020203"/>
<path d="M957.627 74.2021C957.627 78.0054 954.322 81.0875 950.247 81.0875C946.172 81.0875 942.867 78.0054 942.867 74.2021" fill="white"/>
<path d="M957.627 74.2021C957.627 78.0054 954.322 81.0875 950.247 81.0875C946.172 81.0875 942.867 78.0054 942.867 74.2021" stroke="#22211D" stroke-width="3.34599" stroke-miterlimit="10" stroke-linecap="round"/>
<path d="M942.867 73.4551H957.627" stroke="#22211D" stroke-width="3.34599" stroke-miterlimit="10" stroke-linecap="round"/>
<path d="M965.67 143.482L981.188 154.985L955.008 159.61" fill="white"/>
<path d="M965.67 143.482L981.188 154.985L955.008 159.61" stroke="#22211D" stroke-width="3.34599" stroke-miterlimit="10"/>
<path d="M990.695 129.525L991.873 141.556L970.262 148.341" fill="white"/>
<path d="M990.695 129.525L991.873 141.556L970.262 148.341" stroke="#22211D" stroke-width="3.34599" stroke-miterlimit="10"/>
<path d="M948.531 156.473L975.965 133.085" stroke="#22211D" stroke-width="3.34599" stroke-miterlimit="10"/>
<path d="M945.679 172.72C947.47 172.72 948.921 171.269 948.921 169.478C948.921 167.688 947.47 166.236 945.679 166.236C943.889 166.236 942.438 167.688 942.438 169.478C942.438 171.269 943.889 172.72 945.679 172.72Z" stroke="#22211D" stroke-width="3.34599" stroke-miterlimit="10"/>
<path d="M933.201 143.482L917.68 154.985L955.649 161.696" fill="white"/>
<path d="M933.201 143.482L917.68 154.985L955.649 161.696" stroke="#22211D" stroke-width="3.34599" stroke-miterlimit="10"/>
<path d="M926.121 135.695C926.121 135.695 934.512 137.29 947.387 137.432C960.496 137.573 970.199 135.84 970.199 135.84L948.811 154.303L926.121 135.695Z" fill="#F0AC06"/>
<path d="M906.296 129.527L905.121 141.558L926.729 148.343" fill="white"/>
<path d="M906.296 129.527L905.121 141.558L926.729 148.343" stroke="#22211D" stroke-width="3.34599" stroke-miterlimit="10"/>
<path d="M955.648 178.907V161.693C955.648 161.693 918.875 131.855 918.496 131.799" stroke="#22211D" stroke-width="3.34599" stroke-miterlimit="10"/>
<path d="M1034.35 118.062L1041.87 118.263C1042.61 118.282 1043.06 119.096 1042.67 119.732L1039.58 124.844C1039.13 125.602 1039.4 126.591 1040.19 127.004L1045.48 129.777C1045.89 129.985 1045.82 130.58 1045.38 130.695L1032.75 134.041" fill="#338862"/>
<path d="M1034.35 118.062L1041.87 118.263C1042.61 118.282 1043.06 119.096 1042.67 119.732L1039.58 124.844C1039.13 125.602 1039.4 126.591 1040.19 127.004L1045.48 129.777C1045.89 129.985 1045.82 130.58 1045.38 130.695L1032.75 134.041" stroke="#22211D" stroke-width="3.34599" stroke-miterlimit="10"/>
<path d="M1042.69 118.449L1035.3 118.266C1034.53 118.248 1033.94 117.582 1034.01 116.82L1034.54 111.013C1034.61 110.229 1033.68 109.771 1033.1 110.299L1024.11 118.835" fill="#338862"/>
<path d="M1042.69 118.449L1035.3 118.266C1034.53 118.248 1033.94 117.582 1034.01 116.82L1034.54 111.013C1034.61 110.229 1033.68 109.771 1033.1 110.299L1024.11 118.835" stroke="#22211D" stroke-width="3.34599" stroke-miterlimit="10"/>
<path d="M1025.68 119.646L1026.6 118.776L1032.87 118.653C1032.87 118.653 1033 118.843 1033.1 118.951C1033.34 119.204 1033.5 119.323 1033.5 119.323C1033.5 119.323 1033.68 119.464 1033.87 119.564C1034.04 119.657 1034.11 119.676 1034.19 119.717L1032.93 132.257L1032.42 132.394L1025.68 119.646Z" fill="#338862"/>
<path d="M891.749 154.362L892.217 127.568L871.345 117.649L859.281 140.971L891.083 155.05C891.306 154.82 891.529 154.593 891.749 154.362Z" fill="white" stroke="#22211D" stroke-width="3.34599" stroke-miterlimit="10"/>
<path d="M748.701 187.148L741.18 187.16C740.437 187.16 739.972 187.963 740.34 188.606L743.299 193.792C743.738 194.562 743.437 195.543 742.641 195.937L737.277 198.573C736.871 198.774 736.923 199.369 737.355 199.495L749.891 203.157" fill="#338862"/>
<path d="M748.701 187.148L741.18 187.16C740.437 187.16 739.972 187.963 740.34 188.606L743.299 193.792C743.738 194.562 743.437 195.543 742.641 195.937L737.277 198.573C736.871 198.774 736.923 199.369 737.355 199.495L749.891 203.157" stroke="#22211D" stroke-width="3.34599" stroke-miterlimit="10"/>
<path d="M740.355 187.323L747.746 187.331C748.516 187.331 749.122 186.684 749.074 185.918L748.687 180.1C748.639 179.315 749.579 178.876 750.144 179.423L758.915 188.182" fill="#338862"/>
<path d="M740.355 187.323L747.746 187.331C748.516 187.331 749.122 186.684 749.074 185.918L748.687 180.1C748.639 179.315 749.579 178.876 750.144 179.423L758.915 188.182" stroke="#22211D" stroke-width="3.34599" stroke-miterlimit="10"/>
<path d="M757.334 188.948L756.434 188.052L750.174 187.773C750.174 187.773 750.036 187.963 749.932 188.067C749.683 188.313 749.519 188.428 749.519 188.428C749.519 188.428 749.334 188.562 749.144 188.662C748.969 188.751 748.906 188.77 748.824 188.803L749.761 201.373L750.274 201.525L757.334 188.948Z" fill="#338862"/>
<path d="M890.614 195.25V248.905H780.223V193.057" fill="white"/>
<path d="M890.614 195.25V248.905H780.223V193.057" stroke="#22211D" stroke-width="3.34599" stroke-miterlimit="10"/>
<path d="M891.035 225.406L890.566 198.612L911.438 188.689L923.502 212.011L891.7 226.09C891.481 225.863 891.258 225.637 891.035 225.406Z" fill="white" stroke="#22211D" stroke-width="3.34599" stroke-miterlimit="10"/>
<path d="M894.754 121.907C892.033 127.573 886.266 131.48 879.589 131.48C870.299 131.48 862.763 123.9 862.763 114.546C862.763 113.144 862.934 111.784 863.253 110.479C858.242 109.475 853.007 108.75 847.613 108.326C839.91 107.891 836.534 107.891 826.961 108.215C821.715 108.568 816.621 109.211 811.721 110.111C812.279 111.787 812.576 113.583 812.576 115.449C812.576 124.803 805.041 132.384 795.75 132.384C788.4 132.384 782.154 127.647 779.86 121.033C763.654 129.934 753.523 142.604 753.523 156.665C753.523 170.703 763.617 183.354 779.778 192.258C780.031 192.396 780.288 192.534 780.54 192.671C785.489 195.329 790.98 197.638 796.917 199.534C808.688 203.3 822.183 205.434 836.534 205.434C848.791 205.434 860.432 203.873 870.905 201.073C877.232 199.378 883.132 197.233 888.49 194.701C888.873 194.523 889.248 194.344 889.624 194.162C907.911 185.21 919.548 171.736 919.548 156.661C919.544 143.057 910.056 130.752 894.754 121.907ZM781.671 147.853C774.64 147.853 768.945 145.946 768.945 143.589C768.945 141.232 774.64 139.325 781.671 139.325C788.697 139.325 794.393 141.232 794.393 143.589C794.393 145.946 788.701 147.853 781.671 147.853ZM892.319 147.853C885.289 147.853 879.593 145.946 879.593 143.589C879.593 141.232 885.289 139.325 892.319 139.325C899.345 139.325 905.045 141.232 905.045 143.589C905.045 145.946 899.345 147.853 892.319 147.853Z" fill="#338862" stroke="#22211D" stroke-width="4.08955" stroke-miterlimit="10"/>
<path d="M794.516 144.061C794.516 146.399 788.843 148.292 781.846 148.292C774.845 148.292 769.172 146.399 769.172 144.061C769.172 141.722 774.845 139.83 781.846 139.83C788.843 139.826 794.516 141.722 794.516 144.061Z" fill="white" stroke="#22211D" stroke-width="5.57665" stroke-miterlimit="10"/>
<path d="M892.014 148.292C899.013 148.292 904.688 146.398 904.688 144.061C904.688 141.724 899.013 139.83 892.014 139.83C885.014 139.83 879.34 141.724 879.34 144.061C879.34 146.398 885.014 148.292 892.014 148.292Z" fill="white" stroke="#22211D" stroke-width="5.57665" stroke-miterlimit="10"/>
<path d="M896.098 115.245C896.098 117.862 895.499 120.338 894.44 122.547C891.73 128.172 885.989 132.049 879.342 132.049C870.088 132.049 862.586 124.528 862.586 115.245C862.586 113.854 862.757 112.501 863.073 111.211C864.872 103.88 871.475 98.4443 879.338 98.4443C888.599 98.4443 896.098 105.965 896.098 115.245Z" fill="white" stroke="#22211D" stroke-width="4.08955" stroke-miterlimit="10"/>
<path d="M811.77 110.842C809.558 104.158 803.271 99.3359 795.865 99.3359C786.612 99.3359 779.109 106.857 779.109 116.137C779.109 118.077 779.44 119.944 780.043 121.68C782.325 128.242 788.545 132.941 795.865 132.941C805.115 132.941 812.621 125.42 812.621 116.137C812.621 114.289 812.324 112.508 811.77 110.842Z" fill="white" stroke="#22211D" stroke-width="4.08955" stroke-miterlimit="10"/>
<path d="M795.038 99.3398C799.336 99.3398 802.827 102.589 802.827 106.616C802.827 110.638 799.332 113.891 795.038 113.891C790.725 113.891 787.23 110.642 787.23 106.616C787.23 102.589 790.725 99.3398 795.038 99.3398Z" fill="#22211D" stroke="#22211D" stroke-width="3.34599" stroke-miterlimit="10"/>
<path d="M879.35 98.4443C883.648 98.4443 887.139 101.694 887.139 105.72C887.139 109.743 883.644 112.996 879.35 112.996C875.038 112.996 871.543 109.746 871.543 105.72C871.543 101.694 875.038 98.4443 879.35 98.4443Z" fill="#22211D" stroke="#22211D" stroke-width="3.34599" stroke-miterlimit="10"/>
<path d="M892.014 148.292C899.013 148.292 904.688 146.398 904.688 144.061C904.688 141.724 899.013 139.83 892.014 139.83C885.014 139.83 879.34 141.724 879.34 144.061C879.34 146.398 885.014 148.292 892.014 148.292Z" fill="#E15D34"/>
<path d="M794.516 144.061C794.516 146.399 788.843 148.292 781.846 148.292C774.845 148.292 769.172 146.399 769.172 144.061C769.172 141.722 774.845 139.83 781.846 139.83C788.843 139.826 794.516 141.722 794.516 144.061Z" fill="#E15D34"/>
<path d="M880.682 83.5509L840.024 71.141C839.485 70.9774 838.868 70.8993 838.251 70.9068C837.638 70.8993 837.017 70.9737 836.478 71.141L795.82 83.5509C793.902 84.1346 793.906 85.4693 795.82 86.0529L819.186 93.1836V110.263C819.186 111.609 820.759 112.676 823.257 113.479C830.474 115.788 845.452 115.836 852.903 113.598C855.602 112.787 857.312 111.68 857.312 110.263V93.1836L880.678 86.0529C882.597 85.4693 882.6 84.1346 880.682 83.5509Z" fill="#020203"/>
<path d="M845.627 144.202C845.627 148.005 842.322 151.087 838.247 151.087C834.172 151.087 830.867 148.005 830.867 144.202" fill="white"/>
<path d="M845.627 144.202C845.627 148.005 842.322 151.087 838.247 151.087C834.172 151.087 830.867 148.005 830.867 144.202" stroke="#22211D" stroke-width="3.34599" stroke-miterlimit="10" stroke-linecap="round"/>
<path d="M830.867 143.455H845.627" stroke="#22211D" stroke-width="3.34599" stroke-miterlimit="10" stroke-linecap="round"/>
<path d="M853.67 213.482L869.188 224.985L843.008 229.61" fill="white"/>
<path d="M853.67 213.482L869.188 224.985L843.008 229.61" stroke="#22211D" stroke-width="3.34599" stroke-miterlimit="10"/>
<path d="M878.695 199.525L879.873 211.556L858.262 218.341" fill="white"/>
<path d="M878.695 199.525L879.873 211.556L858.262 218.341" stroke="#22211D" stroke-width="3.34599" stroke-miterlimit="10"/>
<path d="M836.531 226.473L863.965 203.085" stroke="#22211D" stroke-width="3.34599" stroke-miterlimit="10"/>
<path d="M833.679 242.72C835.47 242.72 836.921 241.269 836.921 239.478C836.921 237.688 835.47 236.236 833.679 236.236C831.889 236.236 830.438 237.688 830.438 239.478C830.438 241.269 831.889 242.72 833.679 242.72Z" stroke="#22211D" stroke-width="3.34599" stroke-miterlimit="10"/>
<path d="M821.201 213.482L805.68 224.985L843.649 231.696" fill="white"/>
<path d="M821.201 213.482L805.68 224.985L843.649 231.696" stroke="#22211D" stroke-width="3.34599" stroke-miterlimit="10"/>
<path d="M814.121 205.695C814.121 205.695 822.512 207.29 835.387 207.432C848.496 207.573 858.199 205.84 858.199 205.84L836.811 224.303L814.121 205.695Z" fill="#F0AC06"/>
<path d="M794.296 199.527L793.121 211.558L814.729 218.343" fill="white"/>
<path d="M794.296 199.527L793.121 211.558L814.729 218.343" stroke="#22211D" stroke-width="3.34599" stroke-miterlimit="10"/>
<path d="M843.648 248.907V231.693C843.648 231.693 806.875 201.855 806.496 201.799" stroke="#22211D" stroke-width="3.34599" stroke-miterlimit="10"/>
<path d="M922.353 188.062L929.87 188.263C930.61 188.282 931.056 189.096 930.673 189.732L927.583 194.844C927.126 195.602 927.401 196.591 928.186 197.004L933.484 199.777C933.885 199.985 933.818 200.58 933.379 200.695L920.754 204.041" fill="#338862"/>
<path d="M922.353 188.062L929.87 188.263C930.61 188.282 931.056 189.096 930.673 189.732L927.583 194.844C927.126 195.602 927.401 196.591 928.186 197.004L933.484 199.777C933.885 199.985 933.818 200.58 933.379 200.695L920.754 204.041" stroke="#22211D" stroke-width="3.34599" stroke-miterlimit="10"/>
<path d="M930.691 188.449L923.3 188.266C922.53 188.248 921.939 187.582 922.006 186.82L922.538 181.013C922.608 180.229 921.679 179.771 921.095 180.299L912.105 188.835" fill="#338862"/>
<path d="M930.691 188.449L923.3 188.266C922.53 188.248 921.939 187.582 922.006 186.82L922.538 181.013C922.608 180.229 921.679 179.771 921.095 180.299L912.105 188.835" stroke="#22211D" stroke-width="3.34599" stroke-miterlimit="10"/>
<path d="M913.68 189.646L914.602 188.776L920.866 188.653C920.866 188.653 920.996 188.843 921.1 188.951C921.342 189.204 921.502 189.323 921.502 189.323C921.502 189.323 921.684 189.464 921.874 189.564C922.045 189.657 922.112 189.676 922.19 189.717L920.933 202.257L920.416 202.394L913.68 189.646Z" fill="#338862"/>
<path d="M779.749 224.362L780.217 197.568L759.345 187.649L747.281 210.971L779.083 225.05C779.306 224.82 779.529 224.593 779.749 224.362Z" fill="white" stroke="#22211D" stroke-width="3.34599" stroke-miterlimit="10"/>
<path d="M636.701 257.148L629.18 257.16C628.437 257.16 627.972 257.963 628.34 258.606L631.299 263.792C631.738 264.562 631.437 265.543 630.641 265.937L625.277 268.573C624.871 268.774 624.923 269.369 625.355 269.495L637.891 273.157" fill="#338862"/>
<path d="M636.701 257.148L629.18 257.16C628.437 257.16 627.972 257.963 628.34 258.606L631.299 263.792C631.738 264.562 631.437 265.543 630.641 265.937L625.277 268.573C624.871 268.774 624.923 269.369 625.355 269.495L637.891 273.157" stroke="#22211D" stroke-width="3.34599" stroke-miterlimit="10"/>
<path d="M628.355 257.323L635.746 257.331C636.516 257.331 637.122 256.684 637.074 255.918L636.687 250.1C636.639 249.315 637.579 248.876 638.144 249.423L646.915 258.182" fill="#338862"/>
<path d="M628.355 257.323L635.746 257.331C636.516 257.331 637.122 256.684 637.074 255.918L636.687 250.1C636.639 249.315 637.579 248.876 638.144 249.423L646.915 258.182" stroke="#22211D" stroke-width="3.34599" stroke-miterlimit="10"/>
<path d="M645.334 258.948L644.434 258.052L638.174 257.773C638.174 257.773 638.036 257.963 637.932 258.067C637.683 258.313 637.519 258.428 637.519 258.428C637.519 258.428 637.334 258.562 637.144 258.662C636.969 258.751 636.906 258.77 636.824 258.803L637.761 271.373L638.274 271.525L645.334 258.948Z" fill="#338862"/>
<path d="M778.614 265.25V318.905H668.223V263.057" fill="white"/>
<path d="M778.614 265.25V318.905H668.223V263.057" stroke="#22211D" stroke-width="3.34599" stroke-miterlimit="10"/>
<path d="M779.035 295.406L778.566 268.612L799.438 258.689L811.502 282.011L779.7 296.09C779.481 295.863 779.258 295.637 779.035 295.406Z" fill="white" stroke="#22211D" stroke-width="3.34599" stroke-miterlimit="10"/>
<path d="M782.754 191.907C780.033 197.573 774.266 201.48 767.589 201.48C758.299 201.48 750.763 193.9 750.763 184.546C750.763 183.144 750.934 181.784 751.253 180.479C746.242 179.475 741.007 178.75 735.613 178.326C727.91 177.891 724.534 177.891 714.961 178.215C709.715 178.568 704.621 179.211 699.721 180.111C700.279 181.787 700.576 183.583 700.576 185.449C700.576 194.803 693.041 202.384 683.75 202.384C676.4 202.384 670.154 197.647 667.86 191.033C651.654 199.934 641.523 212.604 641.523 226.665C641.523 240.703 651.617 253.354 667.778 262.258C668.031 262.396 668.288 262.534 668.54 262.671C673.489 265.329 678.98 267.638 684.917 269.534C696.688 273.3 710.183 275.434 724.534 275.434C736.791 275.434 748.432 273.873 758.905 271.073C765.232 269.378 771.132 267.233 776.49 264.701C776.873 264.523 777.248 264.344 777.624 264.162C795.911 255.21 807.548 241.736 807.548 226.661C807.544 213.057 798.056 200.752 782.754 191.907ZM669.671 217.853C662.64 217.853 656.945 215.946 656.945 213.589C656.945 211.232 662.64 209.325 669.671 209.325C676.697 209.325 682.393 211.232 682.393 213.589C682.393 215.946 676.701 217.853 669.671 217.853ZM780.319 217.853C773.289 217.853 767.593 215.946 767.593 213.589C767.593 211.232 773.289 209.325 780.319 209.325C787.345 209.325 793.045 211.232 793.045 213.589C793.045 215.946 787.345 217.853 780.319 217.853Z" fill="#338862" stroke="#22211D" stroke-width="4.08955" stroke-miterlimit="10"/>
<path d="M682.516 214.061C682.516 216.399 676.843 218.292 669.846 218.292C662.845 218.292 657.172 216.399 657.172 214.061C657.172 211.722 662.845 209.83 669.846 209.83C676.843 209.826 682.516 211.722 682.516 214.061Z" fill="white" stroke="#22211D" stroke-width="5.57665" stroke-miterlimit="10"/>
<path d="M780.014 218.292C787.013 218.292 792.688 216.398 792.688 214.061C792.688 211.724 787.013 209.83 780.014 209.83C773.014 209.83 767.34 211.724 767.34 214.061C767.34 216.398 773.014 218.292 780.014 218.292Z" fill="white" stroke="#22211D" stroke-width="5.57665" stroke-miterlimit="10"/>
<path d="M784.098 185.245C784.098 187.862 783.499 190.338 782.44 192.547C779.73 198.172 773.989 202.049 767.342 202.049C758.088 202.049 750.586 194.528 750.586 185.245C750.586 183.854 750.757 182.501 751.073 181.211C752.872 173.88 759.475 168.444 767.338 168.444C776.599 168.444 784.098 175.965 784.098 185.245Z" fill="white" stroke="#22211D" stroke-width="4.08955" stroke-miterlimit="10"/>
<path d="M699.77 180.842C697.558 174.158 691.271 169.336 683.865 169.336C674.612 169.336 667.109 176.857 667.109 186.137C667.109 188.077 667.44 189.944 668.043 191.68C670.325 198.242 676.545 202.941 683.865 202.941C693.115 202.941 700.621 195.42 700.621 186.137C700.621 184.289 700.324 182.508 699.77 180.842Z" fill="white" stroke="#22211D" stroke-width="4.08955" stroke-miterlimit="10"/>
<path d="M683.038 169.34C687.336 169.34 690.827 172.589 690.827 176.616C690.827 180.638 687.332 183.891 683.038 183.891C678.725 183.891 675.23 180.642 675.23 176.616C675.23 172.589 678.725 169.34 683.038 169.34Z" fill="#22211D" stroke="#22211D" stroke-width="3.34599" stroke-miterlimit="10"/>
<path d="M767.35 168.444C771.648 168.444 775.139 171.694 775.139 175.72C775.139 179.743 771.644 182.996 767.35 182.996C763.038 182.996 759.543 179.746 759.543 175.72C759.543 171.694 763.038 168.444 767.35 168.444Z" fill="#22211D" stroke="#22211D" stroke-width="3.34599" stroke-miterlimit="10"/>
<path d="M780.014 218.292C787.013 218.292 792.688 216.398 792.688 214.061C792.688 211.724 787.013 209.83 780.014 209.83C773.014 209.83 767.34 211.724 767.34 214.061C767.34 216.398 773.014 218.292 780.014 218.292Z" fill="#E15D34"/>
<path d="M682.516 214.061C682.516 216.399 676.843 218.292 669.846 218.292C662.845 218.292 657.172 216.399 657.172 214.061C657.172 211.722 662.845 209.83 669.846 209.83C676.843 209.826 682.516 211.722 682.516 214.061Z" fill="#E15D34"/>
<path d="M768.682 153.551L728.024 141.141C727.485 140.977 726.868 140.899 726.251 140.907C725.638 140.899 725.017 140.974 724.478 141.141L683.82 153.551C681.902 154.135 681.906 155.469 683.82 156.053L707.186 163.184V180.263C707.186 181.609 708.759 182.676 711.257 183.479C718.474 185.788 733.452 185.836 740.903 183.598C743.602 182.787 745.312 181.68 745.312 180.263V163.184L768.678 156.053C770.597 155.469 770.6 154.135 768.682 153.551Z" fill="#020203"/>
<path d="M733.627 214.202C733.627 218.005 730.322 221.087 726.247 221.087C722.172 221.087 718.867 218.005 718.867 214.202" fill="white"/>
<path d="M733.627 214.202C733.627 218.005 730.322 221.087 726.247 221.087C722.172 221.087 718.867 218.005 718.867 214.202" stroke="#22211D" stroke-width="3.34599" stroke-miterlimit="10" stroke-linecap="round"/>
<path d="M718.867 213.455H733.627" stroke="#22211D" stroke-width="3.34599" stroke-miterlimit="10" stroke-linecap="round"/>
<path d="M741.67 283.482L757.188 294.985L731.008 299.61" fill="white"/>
<path d="M741.67 283.482L757.188 294.985L731.008 299.61" stroke="#22211D" stroke-width="3.34599" stroke-miterlimit="10"/>
<path d="M766.695 269.525L767.873 281.556L746.262 288.341" fill="white"/>
<path d="M766.695 269.525L767.873 281.556L746.262 288.341" stroke="#22211D" stroke-width="3.34599" stroke-miterlimit="10"/>
<path d="M724.531 296.473L751.965 273.085" stroke="#22211D" stroke-width="3.34599" stroke-miterlimit="10"/>
<path d="M721.679 312.72C723.47 312.72 724.921 311.269 724.921 309.478C724.921 307.688 723.47 306.236 721.679 306.236C719.889 306.236 718.438 307.688 718.438 309.478C718.438 311.269 719.889 312.72 721.679 312.72Z" stroke="#22211D" stroke-width="3.34599" stroke-miterlimit="10"/>
<path d="M709.201 283.482L693.68 294.985L731.649 301.696" fill="white"/>
<path d="M709.201 283.482L693.68 294.985L731.649 301.696" stroke="#22211D" stroke-width="3.34599" stroke-miterlimit="10"/>
<path d="M702.121 275.695C702.121 275.695 710.512 277.29 723.387 277.432C736.496 277.573 746.199 275.84 746.199 275.84L724.811 294.303L702.121 275.695Z" fill="#F0AC06"/>
<path d="M682.296 269.527L681.121 281.558L702.729 288.343" fill="white"/>
<path d="M682.296 269.527L681.121 281.558L702.729 288.343" stroke="#22211D" stroke-width="3.34599" stroke-miterlimit="10"/>
<path d="M731.648 318.907V301.693C731.648 301.693 694.875 271.855 694.496 271.799" stroke="#22211D" stroke-width="3.34599" stroke-miterlimit="10"/>
<path d="M810.353 258.062L817.87 258.263C818.61 258.282 819.056 259.096 818.673 259.732L815.583 264.844C815.126 265.602 815.401 266.591 816.186 267.004L821.484 269.777C821.885 269.985 821.818 270.58 821.379 270.695L808.754 274.041" fill="#338862"/>
<path d="M810.353 258.062L817.87 258.263C818.61 258.282 819.056 259.096 818.673 259.732L815.583 264.844C815.126 265.602 815.401 266.591 816.186 267.004L821.484 269.777C821.885 269.985 821.818 270.58 821.379 270.695L808.754 274.041" stroke="#22211D" stroke-width="3.34599" stroke-miterlimit="10"/>
<path d="M818.691 258.449L811.3 258.266C810.53 258.248 809.939 257.582 810.006 256.82L810.538 251.013C810.608 250.229 809.679 249.771 809.095 250.299L800.105 258.835" fill="#338862"/>
<path d="M818.691 258.449L811.3 258.266C810.53 258.248 809.939 257.582 810.006 256.82L810.538 251.013C810.608 250.229 809.679 249.771 809.095 250.299L800.105 258.835" stroke="#22211D" stroke-width="3.34599" stroke-miterlimit="10"/>
<path d="M801.68 259.646L802.602 258.776L808.866 258.653C808.866 258.653 808.996 258.843 809.1 258.951C809.342 259.204 809.502 259.323 809.502 259.323C809.502 259.323 809.684 259.464 809.874 259.564C810.045 259.657 810.112 259.676 810.19 259.717L808.933 272.257L808.416 272.394L801.68 259.646Z" fill="#338862"/>
<path d="M667.749 294.362L668.217 267.568L647.345 257.649L635.281 280.971L667.083 295.05C667.306 294.82 667.529 294.593 667.749 294.362Z" fill="white" stroke="#22211D" stroke-width="3.34599" stroke-miterlimit="10"/>
<path fill-rule="evenodd" clip-rule="evenodd" d="M226 156H727V644.261C727 649.662 724.161 654.609 719.462 657.273C689.949 674.003 579.76 736.465 496.217 783.823C483.981 790.759 469.019 790.759 456.783 783.823C359.469 728.659 226 653 226 653V156Z" fill="url(#paint0_linear_79_624)"/>
<path fill-rule="evenodd" clip-rule="evenodd" d="M226 156H727V644.261C727 649.662 724.161 654.609 719.462 657.273C689.949 674.003 579.76 736.465 496.217 783.823C483.981 790.759 469.019 790.759 456.783 783.823C359.469 728.659 226 653 226 653V156Z" fill="url(#paint1_linear_79_624)"/>
<rect width="306.971" height="306.971" rx="30" transform="matrix(0.866041 -0.499972 0.866041 0.499972 210.652 155.383)" fill="url(#paint2_linear_79_624)"/>
<path d="M617.507 98.4796C604.438 90.9348 588.578 85.149 570.834 81.4523C553.089 77.7556 533.807 76.2205 514.088 76.9346C494.369 77.6487 474.599 80.5981 455.908 85.6143C437.216 90.6305 419.969 97.6154 405.151 106.17C390.333 114.725 378.234 124.682 369.545 135.472C360.856 146.263 355.747 157.676 354.51 169.06C353.273 180.444 355.932 191.576 362.335 201.82C368.739 212.064 378.761 221.22 391.83 228.765L504.668 163.622L617.507 98.4796Z" fill="#2B7454"/>
<ellipse cx="46.1451" cy="46.1451" rx="46.1451" ry="46.1451" transform="matrix(0.866041 -0.499972 0.866041 0.499972 271.938 139.646)" fill="#2B7454"/>
<circle cx="36.1923" cy="36.1923" r="36.1923" transform="matrix(0.866041 -0.499972 0.866041 0.499972 290.746 139.646)" fill="white"/>
<circle cx="25.3346" cy="25.3346" r="25.3346" transform="matrix(0.866041 -0.499972 0.866041 0.499972 309.551 139.646)" fill="#2B7454"/>
<path d="M355.002 178.551C355.002 174.208 347.688 172.519 344.031 172.218L350.3 169.504L362.838 171.313L362.054 176.289L355.002 178.551Z" fill="#2B7454"/>
<path d="M528.177 76.7659C520.655 76.7659 517.729 72.5437 517.207 70.4326L512.505 74.0516L515.64 81.2897L524.259 80.8373L528.177 76.7659Z" fill="#2B7454"/>
<ellipse cx="46.1451" cy="46.1451" rx="46.1451" ry="46.1451" transform="matrix(0.866041 -0.499972 0.866041 0.499972 381.641 76.3135)" fill="#2B7454"/>
<circle cx="36.1923" cy="36.1923" r="36.1923" transform="matrix(0.866041 -0.499972 0.866041 0.499972 400.449 76.3135)" fill="white"/>
<circle cx="25.3346" cy="25.3346" r="25.3346" transform="matrix(0.866041 -0.499972 0.866041 0.499972 419.254 76.3135)" fill="#2B7454"/>
<path d="M494.64 131.154C496.003 133.441 496.517 135.937 496.153 138.499C495.789 141.062 494.555 143.641 492.52 146.088C490.485 148.536 487.69 150.805 484.294 152.765C480.898 154.726 476.968 156.34 472.728 157.514C468.488 158.689 464.022 159.401 459.583 159.612C455.144 159.822 450.821 159.525 446.859 158.738" stroke="white" stroke-width="9.04893" stroke-linecap="round" stroke-linejoin="round"/>
<path d="M450.503 228.76C456.019 227.22 462.179 228.016 467.098 230.962C476.154 236.35 474.913 243.807 462.869 250.76C452.066 256.996 441.171 257.501 430.598 252.618C422.554 248.929 409.314 240.808 400.994 235.049C403.982 228.282 420.485 219.02 429.679 217.958C441.861 216.552 451.146 222.125 450.595 227.751C450.595 228.016 450.549 228.308 450.503 228.76ZM447.101 243.78C448.802 243.488 450.365 242.639 451.009 241.631C451.79 240.543 451.101 239.561 449.492 238.791C448.158 238.128 446.458 238.154 445.033 238.658C443.929 239.083 442.228 239.959 442.228 240.914C443.745 241.896 445.446 242.825 447.101 243.78ZM430.552 234.598C432.805 234.253 435.103 232.608 432.115 230.936C429.495 229.529 426.323 231.36 426.553 232.289C427.059 233.006 428.667 234.041 430.552 234.598ZM464.082 206.218C470.426 208.925 492.399 221.929 499.065 226.997C499.387 231.642 487.802 236.578 475.437 231.774C470.564 229.864 444.683 215.506 440.546 211.419C441.052 206.775 451.349 200.83 464.082 206.218ZM509.183 205.18C514.194 202.34 521.227 197.696 529.226 194.087C539.707 195.945 542.143 203.349 536.259 207.277C530.329 211.178 520.399 216.592 520.399 216.592C515.756 219.272 506.149 224.288 496.633 219.484C487.945 215.052 488.221 207.515 488.772 198.333C482.383 202.075 476.682 205.897 475.028 206.534C468.408 206.056 458.571 199.634 466.615 194.405C471.902 190.929 490.014 180.791 495.162 177.819C499.483 177.978 506.195 180.26 508.08 185.117C509.735 189.416 509.78 200.164 509.183 205.18ZM577.182 183.439C571.114 187.42 562.931 191.666 562.931 191.666C558.196 194.4 549.692 198.195 539.349 193.763C531.902 190.578 515.399 181.794 505.837 174.204C506.251 169.56 516.962 163.27 529.465 169.055C535.441 171.868 544.819 177.282 550.382 180.706C554.243 178.105 562.701 173.328 569.964 170.037C580.629 171.895 583.204 179.485 577.182 183.439ZM575.631 168.623C568.184 162.254 557.06 150.153 554.256 145.137C558.485 140.307 569.288 130.727 587.308 135.079C595.858 137.149 617.096 143.73 628.496 148.295C632.863 151.559 624.543 162.944 608.316 157.769C605.282 159.362 602.248 161.325 599.214 162.971C600.363 164.537 601.926 166.288 603.673 168.04C596.501 176.957 584.09 175.789 575.631 168.623ZM587.583 154.346C589.56 153.205 591.353 152.17 593.238 151.082C588.641 149.436 584.09 147.87 579.539 146.252C579.447 146.358 579.309 146.437 579.171 146.517C581.975 149.091 584.687 151.665 587.583 154.346ZM641.743 118.355C647.259 116.816 653.419 117.612 658.338 120.558C667.394 125.945 666.153 133.403 654.109 140.356C643.306 146.592 632.411 147.096 621.838 142.213C613.793 138.524 600.554 130.404 592.234 124.645C595.222 117.878 611.725 108.616 620.919 107.554C633.101 106.148 642.386 111.721 641.835 117.347C641.835 117.612 641.789 117.904 641.743 118.355ZM638.341 133.376C640.042 133.084 641.605 132.235 642.249 131.226C643.03 130.138 642.34 129.156 640.732 128.387C639.398 127.723 637.698 127.75 636.272 128.254C635.169 128.679 633.468 129.554 633.468 130.51C634.985 131.492 636.686 132.421 638.341 133.376ZM621.792 124.194C624.045 123.849 626.343 122.203 623.355 120.531C620.735 119.125 617.563 120.956 617.793 121.885C618.298 122.601 619.907 123.636 621.792 124.194Z" fill="#2B7454"/>
<rect width="199.765" height="183.867" rx="30" transform="matrix(0.866009 0.500028 3.18609e-05 1 252 313.93)" fill="url(#paint3_radial_79_624)"/>
<g clip-path="url(#clip0_79_624)">
<rect width="200" height="108.153" rx="30" transform="matrix(0.866041 0.499972 -0.866041 0.499972 338.664 430.93)" fill="#D9D9D9"/>
<rect width="200" height="108.153" rx="30" transform="matrix(0.866041 0.499972 -0.866041 0.499972 450.66 360.926)" fill="#D9D9D9"/>
</g>
<g clip-path="url(#clip1_79_624)">
<path d="M307.852 495.497L324.013 512.724" stroke="#22211D" stroke-width="3.16414" stroke-miterlimit="10"/>
<path d="M435.97 476.951V527.69H331.578V474.877C336.363 477.588 341.675 479.947 347.416 481.88C358.8 485.723 371.851 487.903 385.727 487.903C397.582 487.903 408.84 486.31 418.965 483.452C425.086 481.722 430.792 479.532 435.97 476.951Z" fill="white" stroke="#22211D" stroke-width="3.16414" stroke-miterlimit="10"/>
<path d="M365.484 488.251C365.484 488.251 372.674 489.59 383.777 489.71C395.08 489.833 403.229 488.676 403.229 488.676L385.004 504.255L365.484 488.251Z" fill="#F0AC06"/>
<path d="M399.556 494.193L414.23 505.071L389.473 509.445" fill="white"/>
<path d="M399.556 494.193L414.23 505.071L389.473 509.445" stroke="#22211D" stroke-width="3.16414" stroke-miterlimit="10"/>
<path d="M331.583 474.877V505.798L324.013 512.727L307.852 495.5L330.844 474.455C331.09 474.596 331.337 474.736 331.583 474.877Z" fill="white" stroke="#22211D" stroke-width="3.16414" stroke-miterlimit="10"/>
<path d="M384.836 506.424L408.813 485.98" stroke="#22211D" stroke-width="3.16414" stroke-miterlimit="10"/>
<path d="M370.339 494.193L355.664 505.071L391.57 511.413" fill="white"/>
<path d="M370.339 494.193L355.664 505.071L391.57 511.413" stroke="#22211D" stroke-width="3.16414" stroke-miterlimit="10"/>
<path d="M344.896 480.994L343.781 492.371L364.218 498.787" fill="white"/>
<path d="M344.896 480.994L343.781 492.371L364.218 498.787" stroke="#22211D" stroke-width="3.16414" stroke-miterlimit="10"/>
<path d="M391.57 527.69V511.413C391.57 511.413 359.366 485.21 359.008 485.157" stroke="#22211D" stroke-width="3.16414" stroke-miterlimit="10"/>
<path d="M424.705 480.994L425.816 492.371L405.383 498.787" fill="white"/>
<path d="M424.705 480.994L425.816 492.371L405.383 498.787" stroke="#22211D" stroke-width="3.16414" stroke-miterlimit="10"/>
<path d="M382.144 521.84C383.837 521.84 385.21 520.468 385.21 518.775C385.21 517.082 383.837 515.709 382.144 515.709C380.451 515.709 379.078 517.082 379.078 518.775C379.078 520.468 380.451 521.84 382.144 521.84Z" stroke="#22211D" stroke-width="3.16414" stroke-miterlimit="10"/>
<path d="M440.324 403.013C437.691 408.796 432.115 412.783 425.66 412.783C416.674 412.783 409.386 405.048 409.386 395.503C409.386 394.072 409.551 392.684 409.861 391.355C405.012 390.332 399.953 389.59 394.736 389.157C387.286 388.714 384.02 388.714 374.763 389.045C369.69 389.407 364.764 390.061 360.025 390.979C360.563 392.691 360.851 394.522 360.851 396.424C360.851 405.97 353.563 413.704 344.577 413.704C337.468 413.704 331.428 408.87 329.21 402.123C313.537 411.204 303.742 424.135 303.742 438.483C303.742 452.809 313.505 465.719 329.133 474.804C329.379 474.944 329.625 475.085 329.871 475.226C334.656 477.936 339.968 480.295 345.709 482.229C357.093 486.072 370.144 488.251 384.02 488.251C395.875 488.251 407.132 486.659 417.258 483.8C423.378 482.071 429.085 479.88 434.263 477.3C434.632 477.117 434.998 476.934 435.36 476.748C453.044 467.614 464.298 453.864 464.298 438.483C464.298 424.596 455.122 412.038 440.324 403.013ZM330.964 429.49C324.165 429.49 318.656 427.542 318.656 425.137C318.656 422.732 324.165 420.785 330.964 420.785C337.76 420.785 343.269 422.732 343.269 425.137C343.269 427.542 337.76 429.49 330.964 429.49ZM437.969 429.49C431.169 429.49 425.66 427.542 425.66 425.137C425.66 422.732 431.169 420.785 437.969 420.785C444.765 420.785 450.277 422.732 450.277 425.137C450.277 427.542 444.765 429.49 437.969 429.49Z" fill="#338862" stroke="#22211D" stroke-width="3.86729" stroke-miterlimit="10"/>
<path d="M343.27 425.134C343.27 427.538 337.761 429.486 330.965 429.486C324.165 429.486 318.656 427.538 318.656 425.134C318.656 422.729 324.165 420.781 330.965 420.781C337.761 420.781 343.27 422.729 343.27 425.134Z" fill="white" stroke="#22211D" stroke-width="5.27357" stroke-miterlimit="10"/>
<path d="M437.969 429.486C444.766 429.486 450.277 427.538 450.277 425.134C450.277 422.73 444.766 420.781 437.969 420.781C431.171 420.781 425.66 422.73 425.66 425.134C425.66 427.538 431.171 429.486 437.969 429.486Z" fill="white" stroke="#22211D" stroke-width="5.27357" stroke-miterlimit="10"/>
<path d="M441.931 395.503C441.931 398.192 441.351 400.741 440.321 403.012C437.688 408.796 432.112 412.783 425.657 412.783C416.671 412.783 409.383 405.048 409.383 395.503C409.383 394.072 409.548 392.683 409.857 391.354C411.605 383.817 418.017 378.227 425.657 378.227C434.647 378.227 441.931 385.961 441.931 395.503Z" fill="white" stroke="#22211D" stroke-width="3.86729" stroke-miterlimit="10"/>
<path d="M360.027 390.978C357.879 384.105 351.772 379.147 344.579 379.147C335.589 379.147 328.305 386.882 328.305 396.424C328.305 398.421 328.625 400.34 329.212 402.123C331.43 408.869 337.47 413.703 344.579 413.703C353.565 413.703 360.853 405.969 360.853 396.424C360.853 394.522 360.565 392.69 360.027 390.978Z" fill="white" stroke="#22211D" stroke-width="3.86729" stroke-miterlimit="10"/>
<path d="M344.583 392.91C348.757 392.91 352.149 396.254 352.149 400.392C352.149 404.53 348.757 407.873 344.583 407.873C340.393 407.873 337 404.53 337 400.392C337 396.25 340.393 392.91 344.583 392.91Z" fill="#22211D" stroke="#22211D" stroke-width="3.16414" stroke-miterlimit="10"/>
<path d="M425.583 392.91C429.757 392.91 433.149 396.254 433.149 400.392C433.149 404.53 429.757 407.873 425.583 407.873C421.393 407.873 418 404.53 418 400.392C418 396.254 421.393 392.91 425.583 392.91Z" fill="#22211D" stroke="#22211D" stroke-width="3.16414" stroke-miterlimit="10"/>
<path d="M392.607 427.861C392.607 423.952 389.397 420.781 385.438 420.781C381.479 420.781 378.27 423.952 378.27 427.861" stroke="#22211D" stroke-width="3.16414" stroke-miterlimit="10" stroke-linecap="round"/>
<path d="M343.27 425.134C343.27 427.538 337.761 429.486 330.965 429.486C324.165 429.486 318.656 427.538 318.656 425.134C318.656 422.729 324.165 420.781 330.965 420.781C337.761 420.781 343.27 422.729 343.27 425.134Z" fill="#E15D34"/>
<path d="M314.444 516.398L307.536 518.089C306.854 518.254 306.246 517.625 306.439 516.95L307.982 511.518C308.211 510.709 307.712 509.876 306.892 509.697L301.369 508.487C300.951 508.396 300.863 507.837 301.236 507.622L311.92 501.428" fill="#338862"/>
<path d="M314.444 516.398L307.536 518.089C306.854 518.254 306.246 517.625 306.439 516.95L307.982 511.518C308.211 510.709 307.712 509.876 306.892 509.697L301.369 508.487C300.951 508.396 300.863 507.837 301.236 507.622L311.92 501.428" stroke="#22211D" stroke-width="3.16414" stroke-miterlimit="10"/>
<path d="M306.738 518.125L313.524 516.448C314.23 516.272 314.933 516.733 315.063 517.446L316.023 522.878C316.153 523.609 317.117 523.799 317.514 523.17L323.589 513.146" fill="#338862"/>
<path d="M306.738 518.125L313.524 516.448C314.23 516.272 314.933 516.733 315.063 517.446L316.023 522.878C316.153 523.609 317.117 523.799 317.514 523.17L323.589 513.146" stroke="#22211D" stroke-width="3.16414" stroke-miterlimit="10"/>
<path d="M321.966 512.794L321.34 513.817L315.656 515.49C315.656 515.49 315.487 515.35 315.367 515.276C315.082 515.107 314.907 515.037 314.907 515.037C314.907 515.037 314.706 514.956 314.509 514.907C314.33 514.865 314.267 514.861 314.182 514.847L312.203 503.094L312.639 502.841L321.966 512.794Z" fill="#338862"/>
</g>
<g clip-path="url(#clip2_79_624)">
<path d="M435.97 476.928V527.667H331.578V474.854C336.363 477.564 341.675 479.923 347.416 481.857C358.8 485.699 371.851 487.879 385.727 487.879C397.582 487.879 408.84 486.287 418.965 483.428C425.086 481.699 430.792 479.508 435.97 476.928Z" fill="white" stroke="#22211D" stroke-width="3.16414" stroke-miterlimit="10"/>
<path d="M440.324 402.99C437.691 408.773 432.115 412.76 425.66 412.76C416.674 412.76 409.386 405.026 409.386 395.48C409.386 394.049 409.551 392.661 409.861 391.332C405.012 390.309 398.717 397.84 393.5 397.407L375 387.407C369.927 387.769 364.764 390.038 360.025 390.956C360.563 392.668 360.851 394.499 360.851 396.401C360.851 405.947 353.563 413.681 344.577 413.681C337.468 413.681 331.428 408.847 329.21 402.1C313.537 411.182 303.742 424.112 303.742 438.46C303.742 452.787 313.505 465.696 329.133 474.781C329.379 474.921 329.625 475.062 329.871 475.203C334.656 477.913 339.968 480.272 345.709 482.206C357.093 486.049 370.144 488.228 384.02 488.228C395.875 488.228 407.132 486.636 417.258 483.778C423.379 482.048 429.085 479.858 434.263 477.277C434.632 477.094 434.998 476.911 435.36 476.725C453.044 467.591 464.298 453.841 464.298 438.46C464.298 424.573 455.122 412.015 440.324 402.99ZM330.964 429.467C324.165 429.467 318.656 427.519 318.656 425.114C318.656 422.71 324.165 420.762 330.964 420.762C337.76 420.762 343.269 422.71 343.269 425.114C343.269 427.519 337.76 429.467 330.964 429.467ZM437.969 429.467C431.169 429.467 425.66 427.519 425.66 425.114C425.66 422.71 431.169 420.762 437.969 420.762C444.765 420.762 450.277 422.71 450.277 425.114C450.277 427.519 444.765 429.467 437.969 429.467Z" fill="#338862" stroke="#338862" stroke-width="3.86729" stroke-miterlimit="10"/>
<path d="M392.607 427.838C392.607 423.928 389.397 420.757 385.438 420.757C381.479 420.757 378.27 423.928 378.27 427.838" stroke="#22211D" stroke-width="3.16414" stroke-miterlimit="10" stroke-linecap="round"/>
</g>
<g clip-path="url(#clip3_79_624)">
<path d="M307.852 495.474L324.013 512.701" stroke="#22211D" stroke-width="3.16414" stroke-miterlimit="10"/>
<path d="M435.97 476.928V527.667H331.578V474.854C336.363 477.564 341.675 479.923 347.416 481.857C358.8 485.699 371.851 487.879 385.727 487.879C397.582 487.879 408.84 486.287 418.965 483.428C425.086 481.699 430.792 479.508 435.97 476.928Z" fill="white" stroke="#22211D" stroke-width="3.16414" stroke-miterlimit="10"/>
<path d="M365.484 488.228C365.484 488.228 372.674 489.567 383.777 489.687C395.08 489.81 403.229 488.653 403.229 488.653L385.004 504.231L365.484 488.228Z" fill="#F0AC06"/>
<path d="M331.583 474.854V505.774L324.013 512.704L307.852 495.477L330.844 474.432C331.09 474.572 331.337 474.713 331.583 474.854Z" fill="white" stroke="#22211D" stroke-width="3.16414" stroke-miterlimit="10"/>
<path d="M370.339 494.17L355.664 505.048L391.57 511.39" fill="white"/>
<path d="M370.339 494.17L355.664 505.048L391.57 511.39" stroke="#22211D" stroke-width="3.16414" stroke-miterlimit="10"/>
<path d="M344.896 480.971L343.781 492.348L364.218 498.764" fill="white"/>
<path d="M344.896 480.971L343.781 492.348L364.218 498.764" stroke="#22211D" stroke-width="3.16414" stroke-miterlimit="10"/>
<path d="M391.57 527.667V511.389C391.57 511.389 359.366 485.187 359.008 485.134" stroke="#22211D" stroke-width="3.16414" stroke-miterlimit="10"/>
<path d="M382.144 521.817C383.837 521.817 385.21 520.444 385.21 518.751C385.21 517.058 383.837 515.686 382.144 515.686C380.451 515.686 379.078 517.058 379.078 518.751C379.078 520.444 380.451 521.817 382.144 521.817Z" stroke="#22211D" stroke-width="3.16414" stroke-miterlimit="10"/>
<path d="M440.324 402.989C437.691 408.773 432.115 412.76 425.66 412.76C416.674 412.76 409.386 405.025 409.386 395.48C409.386 394.049 409.551 392.66 409.861 391.331C405.012 390.308 399.953 389.566 394.736 389.134C387.286 388.691 384.02 388.691 374.763 389.021C369.69 389.384 364.764 390.038 360.025 390.955C360.563 392.667 360.851 394.499 360.851 396.401C360.851 405.946 353.563 413.681 344.577 413.681C337.468 413.681 331.428 408.847 329.21 402.1C313.537 411.181 303.742 424.112 303.742 438.459C303.742 452.786 313.505 465.696 329.133 474.78C329.379 474.921 329.625 475.062 329.871 475.202C334.656 477.913 339.968 480.272 345.709 482.206C357.093 486.048 370.144 488.228 384.02 488.228C395.875 488.228 407.132 486.635 417.258 483.777C423.378 482.047 429.085 479.857 434.263 477.276C434.632 477.094 434.998 476.911 435.36 476.725C453.044 467.591 464.298 453.841 464.298 438.459C464.298 424.572 455.122 412.014 440.324 402.989ZM330.964 429.466C324.165 429.466 318.656 427.519 318.656 425.114C318.656 422.709 324.165 420.761 330.964 420.761C337.76 420.761 343.269 422.709 343.269 425.114C343.269 427.519 337.76 429.466 330.964 429.466ZM437.969 429.466C431.169 429.466 425.66 427.519 425.66 425.114C425.66 422.709 431.169 420.761 437.969 420.761C444.765 420.761 450.277 422.709 450.277 425.114C450.277 427.519 444.765 429.466 437.969 429.466Z" fill="#338862" stroke="#22211D" stroke-width="3.86729" stroke-miterlimit="10"/>
<path d="M343.27 425.11C343.27 427.515 337.761 429.463 330.965 429.463C324.165 429.463 318.656 427.515 318.656 425.11C318.656 422.706 324.165 420.758 330.965 420.758C337.761 420.758 343.27 422.706 343.27 425.11Z" fill="white" stroke="#22211D" stroke-width="5.27357" stroke-miterlimit="10"/>
<path d="M360.027 390.954C357.879 384.081 351.772 379.124 344.579 379.124C335.589 379.124 328.305 386.859 328.305 396.4C328.305 398.397 328.625 400.317 329.212 402.099C331.43 408.846 337.47 413.68 344.579 413.68C353.565 413.68 360.853 405.945 360.853 396.4C360.853 394.498 360.565 392.667 360.027 390.954Z" fill="white" stroke="#22211D" stroke-width="3.86729" stroke-miterlimit="10"/>
<path d="M344.583 392.888C348.757 392.888 352.149 396.231 352.149 400.369C352.149 404.507 348.757 407.851 344.583 407.851C340.393 407.851 337 404.507 337 400.369C337 396.228 340.393 392.888 344.583 392.888Z" fill="#22211D" stroke="#22211D" stroke-width="3.16414" stroke-miterlimit="10"/>
<path d="M392.607 427.838C392.607 423.928 389.397 420.757 385.438 420.757C381.479 420.757 378.27 423.928 378.27 427.838" stroke="#22211D" stroke-width="3.16414" stroke-miterlimit="10" stroke-linecap="round"/>
<path d="M343.27 425.11C343.27 427.515 337.761 429.463 330.965 429.463C324.165 429.463 318.656 427.515 318.656 425.11C318.656 422.706 324.165 420.758 330.965 420.758C337.761 420.758 343.27 422.706 343.27 425.11Z" fill="#E15D34"/>
<path d="M314.444 516.374L307.536 518.065C306.854 518.23 306.246 517.601 306.439 516.926L307.982 511.494C308.211 510.686 307.712 509.853 306.892 509.673L301.369 508.464C300.951 508.372 300.863 507.813 301.236 507.599L311.92 501.404" fill="#338862"/>
<path d="M314.444 516.374L307.536 518.065C306.854 518.23 306.246 517.601 306.439 516.926L307.982 511.494C308.211 510.686 307.712 509.853 306.892 509.673L301.369 508.464C300.951 508.372 300.863 507.813 301.236 507.599L311.92 501.404" stroke="#22211D" stroke-width="3.16414" stroke-miterlimit="10"/>
<path d="M306.738 518.101L313.524 516.424C314.23 516.249 314.933 516.709 315.063 517.423L316.023 522.855C316.153 523.586 317.117 523.776 317.514 523.146L323.589 513.123" fill="#338862"/>
<path d="M306.738 518.101L313.524 516.424C314.23 516.249 314.933 516.709 315.063 517.423L316.023 522.855C316.153 523.586 317.117 523.776 317.514 523.146L323.589 513.123" stroke="#22211D" stroke-width="3.16414" stroke-miterlimit="10"/>
<path d="M321.966 512.77L321.34 513.793L315.656 515.467C315.656 515.467 315.487 515.326 315.367 515.252C315.082 515.084 314.907 515.013 314.907 515.013C314.907 515.013 314.706 514.933 314.509 514.883C314.33 514.841 314.267 514.838 314.182 514.824L312.203 503.071L312.639 502.817L321.966 512.77Z" fill="#338862"/>
</g>
<rect width="200" height="108.153" rx="30" transform="matrix(0.866041 0.499972 -0.866041 0.499972 226.664 500.93)" fill="#D9D9D9"/>
<rect width="200" height="108.153" rx="30" transform="matrix(0.866041 0.499972 -0.866041 0.499972 114.66 570.926)" fill="#D9D9D9"/>
<rect width="200" height="108.153" rx="30" transform="matrix(0.866041 0.499972 -0.866041 0.499972 2.66016 640.926)" fill="#D9D9D9"/>
<path d="M195.848 565.492L212.009 582.719" stroke="#22211D" stroke-width="3.16414" stroke-miterlimit="10"/>
<path d="M347.05 566.632L331.844 582.843L323.973 575.639V547.067C324.342 546.884 324.707 546.701 325.07 546.515L347.05 566.632Z" fill="white" stroke="#22211D" stroke-width="3.16414" stroke-miterlimit="10"/>
<path d="M323.97 546.947V597.686H219.578V544.873C224.363 547.584 229.675 549.943 235.416 551.876C246.8 555.719 259.851 557.899 273.727 557.899C285.582 557.899 296.84 556.306 306.965 553.448C313.086 551.718 318.792 549.528 323.97 546.947Z" fill="white" stroke="#22211D" stroke-width="3.16414" stroke-miterlimit="10"/>
<path d="M253.484 558.246C253.484 558.246 260.674 559.586 271.777 559.705C283.08 559.828 291.229 558.672 291.229 558.672L273.004 574.25L253.484 558.246Z" fill="#F0AC06"/>
<path d="M287.556 564.188L302.23 575.065L277.473 579.439" fill="white"/>
<path d="M287.556 564.188L302.23 575.065L277.473 579.439" stroke="#22211D" stroke-width="3.16414" stroke-miterlimit="10"/>
<path d="M219.579 544.872V575.793L212.009 582.722L195.848 565.495L218.84 544.45C219.087 544.591 219.333 544.731 219.579 544.872Z" fill="white" stroke="#22211D" stroke-width="3.16414" stroke-miterlimit="10"/>
<path d="M272.836 576.419L296.813 555.976" stroke="#22211D" stroke-width="3.16414" stroke-miterlimit="10"/>
<path d="M258.335 564.188L243.66 575.065L279.566 581.407" fill="white"/>
<path d="M258.335 564.188L243.66 575.065L279.566 581.407" stroke="#22211D" stroke-width="3.16414" stroke-miterlimit="10"/>
<path d="M232.896 550.989L231.781 562.366L252.218 568.782" fill="white"/>
<path d="M232.896 550.989L231.781 562.366L252.218 568.782" stroke="#22211D" stroke-width="3.16414" stroke-miterlimit="10"/>
<path d="M279.566 597.685V581.408C279.566 581.408 247.363 555.205 247.004 555.152" stroke="#22211D" stroke-width="3.16414" stroke-miterlimit="10"/>
<path d="M312.705 550.989L313.816 562.366L293.383 568.782" fill="white"/>
<path d="M312.705 550.989L313.816 562.366L293.383 568.782" stroke="#22211D" stroke-width="3.16414" stroke-miterlimit="10"/>
<path d="M270.144 591.836C271.837 591.836 273.21 590.463 273.21 588.77C273.21 587.077 271.837 585.704 270.144 585.704C268.451 585.704 267.078 587.077 267.078 588.77C267.078 590.463 268.451 591.836 270.144 591.836Z" stroke="#22211D" stroke-width="3.16414" stroke-miterlimit="10"/>
<path d="M328.324 473.008C325.691 478.791 320.115 482.778 313.66 482.778C304.674 482.778 297.386 475.044 297.386 465.498C297.386 464.067 297.551 462.679 297.861 461.35C293.012 460.327 287.953 459.585 282.736 459.153C275.286 458.71 272.02 458.71 262.763 459.04C257.69 459.402 252.764 460.056 248.025 460.974C248.563 462.686 248.851 464.518 248.851 466.42C248.851 475.965 241.563 483.699 232.577 483.699C225.468 483.699 219.428 478.865 217.21 472.118C201.537 481.2 191.742 494.13 191.742 508.478C191.742 522.805 201.505 535.714 217.133 544.799C217.379 544.94 217.625 545.08 217.871 545.221C222.656 547.931 227.968 550.29 233.709 552.224C245.093 556.067 258.144 558.246 272.02 558.246C283.875 558.246 295.132 556.654 305.258 553.796C311.378 552.066 317.085 549.876 322.263 547.295C322.632 547.112 322.998 546.929 323.36 546.743C341.044 537.609 352.298 523.859 352.298 508.478C352.298 494.591 343.122 482.033 328.324 473.008ZM218.964 499.485C212.165 499.485 206.656 497.537 206.656 495.132C206.656 492.728 212.165 490.78 218.964 490.78C225.76 490.78 231.269 492.728 231.269 495.132C231.269 497.537 225.76 499.485 218.964 499.485ZM325.969 499.485C319.169 499.485 313.66 497.537 313.66 495.132C313.66 492.728 319.169 490.78 325.969 490.78C332.765 490.78 338.277 492.728 338.277 495.132C338.277 497.537 332.765 499.485 325.969 499.485Z" fill="#338862" stroke="#22211D" stroke-width="3.86729" stroke-miterlimit="10"/>
<path d="M231.27 495.128C231.27 497.533 225.761 499.48 218.965 499.48C212.165 499.48 206.656 497.533 206.656 495.128C206.656 492.723 212.165 490.775 218.965 490.775C225.761 490.775 231.27 492.723 231.27 495.128Z" fill="white" stroke="#22211D" stroke-width="5.27357" stroke-miterlimit="10"/>
<path d="M325.969 499.48C332.766 499.48 338.277 497.532 338.277 495.128C338.277 492.724 332.766 490.775 325.969 490.775C319.171 490.775 313.66 492.724 313.66 495.128C313.66 497.532 319.171 499.48 325.969 499.48Z" fill="white" stroke="#22211D" stroke-width="5.27357" stroke-miterlimit="10"/>
<path d="M329.935 465.498C329.935 468.187 329.355 470.736 328.325 473.007C325.692 478.791 320.116 482.778 313.661 482.778C304.675 482.778 297.387 475.043 297.387 465.498C297.387 464.067 297.552 462.678 297.861 461.349C299.609 453.812 306.021 448.222 313.661 448.222C322.651 448.222 329.935 455.956 329.935 465.498Z" fill="white" stroke="#22211D" stroke-width="3.86729" stroke-miterlimit="10"/>
<path d="M248.027 460.973C245.879 454.1 239.772 449.143 232.579 449.143C223.589 449.143 216.305 456.877 216.305 466.419C216.305 468.416 216.625 470.335 217.212 472.118C219.43 478.864 225.47 483.699 232.579 483.699C241.565 483.699 248.853 475.964 248.853 466.419C248.853 464.517 248.565 462.685 248.027 460.973Z" fill="white" stroke="#22211D" stroke-width="3.86729" stroke-miterlimit="10"/>
<path d="M232.583 462.906C236.757 462.906 240.149 466.25 240.149 470.388C240.149 474.526 236.757 477.869 232.583 477.869C228.393 477.869 225 474.526 225 470.388C225 466.246 228.393 462.906 232.583 462.906Z" fill="#22211D" stroke="#22211D" stroke-width="3.16414" stroke-miterlimit="10"/>
<path d="M313.583 462.906C317.757 462.906 321.149 466.25 321.149 470.388C321.149 474.526 317.757 477.869 313.583 477.869C309.393 477.869 306 474.526 306 470.388C306 466.25 309.393 462.906 313.583 462.906Z" fill="#22211D" stroke="#22211D" stroke-width="3.16414" stroke-miterlimit="10"/>
<path d="M280.607 497.856C280.607 493.947 277.397 490.776 273.438 490.776C269.479 490.776 266.27 493.947 266.27 497.856" stroke="#22211D" stroke-width="3.16414" stroke-miterlimit="10" stroke-linecap="round"/>
<path d="M325.969 499.48C332.766 499.48 338.277 497.532 338.277 495.128C338.277 492.724 332.766 490.775 325.969 490.775C319.171 490.775 313.66 492.724 313.66 495.128C313.66 497.532 319.171 499.48 325.969 499.48Z" fill="#E15D34"/>
<path d="M231.27 495.128C231.27 497.533 225.761 499.48 218.965 499.48C212.165 499.48 206.656 497.533 206.656 495.128C206.656 492.723 212.165 490.775 218.965 490.775C225.761 490.775 231.27 492.723 231.27 495.128Z" fill="#E15D34"/>
<path d="M348.091 565.521L331.93 582.748" stroke="#22211D" stroke-width="3.16414" stroke-miterlimit="10"/>
<path d="M341.598 586.248L348.506 587.939C349.188 588.105 349.796 587.475 349.603 586.8L348.06 581.368C347.831 580.56 348.33 579.727 349.149 579.547L354.673 578.338C355.091 578.246 355.179 577.687 354.806 577.473L344.122 571.278" fill="#338862"/>
<path d="M341.598 586.248L348.506 587.939C349.188 588.105 349.796 587.475 349.603 586.8L348.06 581.368C347.831 580.56 348.33 579.727 349.149 579.547L354.673 578.338C355.091 578.246 355.179 577.687 354.806 577.473L344.122 571.278" stroke="#22211D" stroke-width="3.16414" stroke-miterlimit="10"/>
<path d="M349.304 587.971L342.519 586.294C341.812 586.119 341.109 586.579 340.979 587.293L340.019 592.725C339.889 593.456 338.926 593.646 338.528 593.016L332.453 582.993" fill="#338862"/>
<path d="M349.304 587.971L342.519 586.294C341.812 586.119 341.109 586.579 340.979 587.293L340.019 592.725C339.889 593.456 338.926 593.646 338.528 593.016L332.453 582.993" stroke="#22211D" stroke-width="3.16414" stroke-miterlimit="10"/>
<path d="M334.078 582.644L334.704 583.667L340.389 585.341C340.389 585.341 340.558 585.2 340.677 585.126C340.962 584.958 341.138 584.887 341.138 584.887C341.138 584.887 341.338 584.807 341.535 584.757C341.714 584.715 341.778 584.712 341.862 584.698L343.841 572.945L343.405 572.691L334.078 582.644Z" fill="#338862"/>
<path d="M202.444 586.393L195.536 588.084C194.854 588.249 194.246 587.62 194.439 586.945L195.982 581.513C196.211 580.704 195.712 579.871 194.892 579.692L189.369 578.482C188.951 578.391 188.863 577.832 189.236 577.618L199.92 571.423" fill="#338862"/>
<path d="M202.444 586.393L195.536 588.084C194.854 588.249 194.246 587.62 194.439 586.945L195.982 581.513C196.211 580.704 195.712 579.871 194.892 579.692L189.369 578.482C188.951 578.391 188.863 577.832 189.236 577.618L199.92 571.423" stroke="#22211D" stroke-width="3.16414" stroke-miterlimit="10"/>
<path d="M194.738 588.119L201.524 586.442C202.23 586.266 202.933 586.727 203.063 587.44L204.023 592.872C204.153 593.603 205.117 593.793 205.514 593.164L211.589 583.141" fill="#338862"/>
<path d="M194.738 588.119L201.524 586.442C202.23 586.266 202.933 586.727 203.063 587.44L204.023 592.872C204.153 593.603 205.117 593.793 205.514 593.164L211.589 583.141" stroke="#22211D" stroke-width="3.16414" stroke-miterlimit="10"/>
<path d="M209.962 582.789L209.337 583.812L203.652 585.485C203.652 585.485 203.483 585.345 203.363 585.271C203.079 585.102 202.903 585.032 202.903 585.032C202.903 585.032 202.702 584.951 202.506 584.902C202.326 584.86 202.263 584.856 202.179 584.842L200.199 573.089L200.635 572.836L209.962 582.789Z" fill="#338862"/>
<path d="M83.8516 635.496L100.013 652.723" stroke="#22211D" stroke-width="3.16414" stroke-miterlimit="10"/>
<path d="M235.05 636.635L219.844 652.845L211.973 645.642V617.07C212.342 616.887 212.707 616.704 213.07 616.518L235.05 636.635Z" fill="white" stroke="#22211D" stroke-width="3.16414" stroke-miterlimit="10"/>
<path d="M211.97 616.951V667.69H107.578V614.877C112.363 617.588 117.675 619.947 123.416 621.88C134.8 625.723 147.851 627.903 161.727 627.903C173.582 627.903 184.84 626.31 194.965 623.452C201.086 621.722 206.792 619.532 211.97 616.951Z" fill="white" stroke="#22211D" stroke-width="3.16414" stroke-miterlimit="10"/>
<path d="M141.484 628.25C141.484 628.25 148.674 629.589 159.777 629.709C171.08 629.832 179.229 628.675 179.229 628.675L161.004 644.254L141.484 628.25Z" fill="#F0AC06"/>
<path d="M175.556 634.191L190.23 645.069L165.473 649.443" fill="white"/>
<path d="M175.556 634.191L190.23 645.069L165.473 649.443" stroke="#22211D" stroke-width="3.16414" stroke-miterlimit="10"/>
<path d="M107.583 614.877V645.798L100.013 652.727L83.8516 635.5L106.844 614.455C107.09 614.596 107.337 614.736 107.583 614.877Z" fill="white" stroke="#22211D" stroke-width="3.16414" stroke-miterlimit="10"/>
<path d="M160.836 646.422L184.813 625.979" stroke="#22211D" stroke-width="3.16414" stroke-miterlimit="10"/>
<path d="M146.339 634.192L131.664 645.07L167.57 651.412" fill="white"/>
<path d="M146.339 634.192L131.664 645.07L167.57 651.412" stroke="#22211D" stroke-width="3.16414" stroke-miterlimit="10"/>
<path d="M120.896 620.994L119.781 632.371L140.218 638.787" fill="white"/>
<path d="M120.896 620.994L119.781 632.371L140.218 638.787" stroke="#22211D" stroke-width="3.16414" stroke-miterlimit="10"/>
<path d="M167.57 667.689V651.412C167.57 651.412 135.366 625.209 135.008 625.156" stroke="#22211D" stroke-width="3.16414" stroke-miterlimit="10"/>
<path d="M200.705 620.994L201.816 632.371L181.383 638.787" fill="white"/>
<path d="M200.705 620.994L201.816 632.371L181.383 638.787" stroke="#22211D" stroke-width="3.16414" stroke-miterlimit="10"/>
<path d="M158.144 661.839C159.837 661.839 161.21 660.467 161.21 658.774C161.21 657.081 159.837 655.708 158.144 655.708C156.451 655.708 155.078 657.081 155.078 658.774C155.078 660.467 156.451 661.839 158.144 661.839Z" stroke="#22211D" stroke-width="3.16414" stroke-miterlimit="10"/>
<path d="M216.324 543.012C213.691 548.795 208.115 552.782 201.66 552.782C192.674 552.782 185.386 545.047 185.386 535.502C185.386 534.071 185.551 532.683 185.861 531.354C181.012 530.331 175.953 529.589 170.736 529.156C163.286 528.713 160.02 528.713 150.763 529.044C145.69 529.406 140.764 530.06 136.025 530.978C136.563 532.69 136.851 534.521 136.851 536.423C136.851 545.969 129.563 553.703 120.577 553.703C113.468 553.703 107.428 548.869 105.21 542.122C89.537 551.203 79.7422 564.134 79.7422 578.482C79.7422 592.808 89.5053 605.718 105.133 614.803C105.379 614.943 105.625 615.084 105.871 615.225C110.656 617.935 115.968 620.294 121.709 622.228C133.093 626.071 146.144 628.25 160.02 628.25C171.875 628.25 183.132 626.658 193.258 623.8C199.378 622.07 205.085 619.879 210.263 617.299C210.632 617.116 210.998 616.933 211.36 616.747C229.044 607.613 240.298 593.863 240.298 578.482C240.298 564.595 231.122 552.037 216.324 543.012ZM106.964 569.489C100.165 569.489 94.6559 567.541 94.6559 565.136C94.6559 562.732 100.165 560.784 106.964 560.784C113.76 560.784 119.269 562.732 119.269 565.136C119.269 567.541 113.76 569.489 106.964 569.489ZM213.969 569.489C207.169 569.489 201.66 567.541 201.66 565.136C201.66 562.732 207.169 560.784 213.969 560.784C220.765 560.784 226.277 562.732 226.277 565.136C226.277 567.541 220.765 569.489 213.969 569.489Z" fill="#338862" stroke="#22211D" stroke-width="3.86729" stroke-miterlimit="10"/>
<path d="M119.27 565.132C119.27 567.537 113.761 569.484 106.965 569.484C100.165 569.484 94.6562 567.537 94.6562 565.132C94.6562 562.727 100.165 560.779 106.965 560.779C113.761 560.779 119.27 562.727 119.27 565.132Z" fill="white" stroke="#22211D" stroke-width="5.27357" stroke-miterlimit="10"/>
<path d="M213.969 569.484C220.766 569.484 226.277 567.536 226.277 565.132C226.277 562.728 220.766 560.779 213.969 560.779C207.171 560.779 201.66 562.728 201.66 565.132C201.66 567.536 207.171 569.484 213.969 569.484Z" fill="white" stroke="#22211D" stroke-width="5.27357" stroke-miterlimit="10"/>
<path d="M217.931 535.502C217.931 538.191 217.351 540.74 216.321 543.011C213.688 548.795 208.112 552.782 201.657 552.782C192.671 552.782 185.383 545.047 185.383 535.502C185.383 534.071 185.548 532.682 185.857 531.353C187.605 523.816 194.017 518.226 201.657 518.226C210.647 518.226 217.931 525.96 217.931 535.502Z" fill="white" stroke="#22211D" stroke-width="3.86729" stroke-miterlimit="10"/>
<path d="M136.027 530.977C133.879 524.104 127.772 519.146 120.579 519.146C111.589 519.146 104.305 526.881 104.305 536.423C104.305 538.42 104.625 540.339 105.212 542.122C107.43 548.868 113.47 553.702 120.579 553.702C129.565 553.702 136.853 545.968 136.853 536.423C136.853 534.521 136.565 532.689 136.027 530.977Z" fill="white" stroke="#22211D" stroke-width="3.86729" stroke-miterlimit="10"/>
<path d="M120.583 532.91C124.757 532.91 128.149 536.254 128.149 540.392C128.149 544.53 124.757 547.873 120.583 547.873C116.393 547.873 113 544.53 113 540.392C113 536.25 116.393 532.91 120.583 532.91Z" fill="#22211D" stroke="#22211D" stroke-width="3.16414" stroke-miterlimit="10"/>
<path d="M201.583 532.91C205.757 532.91 209.149 536.254 209.149 540.392C209.149 544.53 205.757 547.873 201.583 547.873C197.393 547.873 194 544.53 194 540.392C194 536.254 197.393 532.91 201.583 532.91Z" fill="#22211D" stroke="#22211D" stroke-width="3.16414" stroke-miterlimit="10"/>
<path d="M168.607 567.86C168.607 563.951 165.397 560.78 161.438 560.78C157.479 560.78 154.27 563.951 154.27 567.86" stroke="#22211D" stroke-width="3.16414" stroke-miterlimit="10" stroke-linecap="round"/>
<path d="M213.969 569.484C220.766 569.484 226.277 567.536 226.277 565.132C226.277 562.728 220.766 560.779 213.969 560.779C207.171 560.779 201.66 562.728 201.66 565.132C201.66 567.536 207.171 569.484 213.969 569.484Z" fill="#E15D34"/>
<path d="M119.27 565.132C119.27 567.537 113.761 569.484 106.965 569.484C100.165 569.484 94.6562 567.537 94.6562 565.132C94.6562 562.727 100.165 560.779 106.965 560.779C113.761 560.779 119.27 562.727 119.27 565.132Z" fill="#E15D34"/>
<path d="M236.091 635.523L219.93 652.75" stroke="#22211D" stroke-width="3.16414" stroke-miterlimit="10"/>
<path d="M229.598 656.252L236.506 657.943C237.188 658.108 237.796 657.479 237.603 656.804L236.06 651.372C235.831 650.564 236.33 649.73 237.149 649.551L242.673 648.342C243.091 648.25 243.179 647.691 242.806 647.477L232.122 641.282" fill="#338862"/>
<path d="M229.598 656.252L236.506 657.943C237.188 658.108 237.796 657.479 237.603 656.804L236.06 651.372C235.831 650.564 236.33 649.73 237.149 649.551L242.673 648.342C243.091 648.25 243.179 647.691 242.806 647.477L232.122 641.282" stroke="#22211D" stroke-width="3.16414" stroke-miterlimit="10"/>
<path d="M237.304 657.975L230.519 656.298C229.812 656.123 229.109 656.583 228.979 657.297L228.019 662.729C227.889 663.46 226.926 663.65 226.528 663.02L220.453 652.997" fill="#338862"/>
<path d="M237.304 657.975L230.519 656.298C229.812 656.123 229.109 656.583 228.979 657.297L228.019 662.729C227.889 663.46 226.926 663.65 226.528 663.02L220.453 652.997" stroke="#22211D" stroke-width="3.16414" stroke-miterlimit="10"/>
<path d="M222.078 652.649L222.704 653.672L228.389 655.346C228.389 655.346 228.558 655.205 228.677 655.131C228.962 654.963 229.138 654.892 229.138 654.892C229.138 654.892 229.338 654.811 229.535 654.762C229.714 654.72 229.778 654.717 229.862 654.702L231.841 642.949L231.405 642.696L222.078 652.649Z" fill="#338862"/>
<path d="M90.4442 656.397L83.5358 658.088C82.8537 658.253 82.2455 657.624 82.4389 656.949L83.9823 651.517C84.2108 650.708 83.7116 649.875 82.8924 649.696L77.3692 648.486C76.9508 648.395 76.8629 647.836 77.2356 647.621L87.9199 641.427" fill="#338862"/>
<path d="M90.4442 656.397L83.5358 658.088C82.8537 658.253 82.2455 657.624 82.4389 656.949L83.9823 651.517C84.2108 650.708 83.7116 649.875 82.8924 649.696L77.3692 648.486C76.9508 648.395 76.8629 647.836 77.2356 647.621L87.9199 641.427" stroke="#22211D" stroke-width="3.16414" stroke-miterlimit="10"/>
<path d="M82.7383 658.124L89.5236 656.447C90.2303 656.271 90.9334 656.732 91.0635 657.445L92.0233 662.877C92.1534 663.608 93.1167 663.798 93.514 663.169L99.5891 653.146" fill="#338862"/>
<path d="M82.7383 658.124L89.5236 656.447C90.2303 656.271 90.9334 656.732 91.0635 657.445L92.0233 662.877C92.1534 663.608 93.1167 663.798 93.514 663.169L99.5891 653.146" stroke="#22211D" stroke-width="3.16414" stroke-miterlimit="10"/>
<path d="M97.9663 652.793L97.3405 653.816L91.6556 655.489C91.6556 655.489 91.4868 655.349 91.3673 655.275C91.0825 655.106 90.9067 655.036 90.9067 655.036C90.9067 655.036 90.7063 654.955 90.5094 654.906C90.3301 654.864 90.2668 654.86 90.1825 654.846L88.2031 643.093L88.6391 642.84L97.9663 652.793Z" fill="#338862"/>
<path d="M123.05 706.635L107.844 722.845L99.9727 715.642V687.07C100.342 686.887 100.707 686.704 101.07 686.518L123.05 706.635Z" fill="white" stroke="#22211D" stroke-width="3.16414" stroke-miterlimit="10"/>
<path d="M99.9703 686.951V737.69H-4.42188V684.877C0.363015 687.588 5.67526 689.947 11.4164 691.88C22.8003 695.723 35.8507 697.903 49.7272 697.903C61.5822 697.903 72.8395 696.31 82.9648 693.452C89.0856 691.722 94.7916 689.532 99.9703 686.951Z" fill="white" stroke="#22211D" stroke-width="3.16414" stroke-miterlimit="10"/>
<path d="M29.4844 698.25C29.4844 698.25 36.674 699.589 47.7767 699.709C59.0797 699.832 67.2291 698.675 67.2291 698.675L49.0036 714.254L29.4844 698.25Z" fill="#F0AC06"/>
<path d="M63.5557 704.191L78.2303 715.069L53.4727 719.443" fill="white"/>
<path d="M63.5557 704.191L78.2303 715.069L53.4727 719.443" stroke="#22211D" stroke-width="3.16414" stroke-miterlimit="10"/>
<path d="M48.8359 716.422L72.8131 695.979" stroke="#22211D" stroke-width="3.16414" stroke-miterlimit="10"/>
<path d="M34.3387 704.192L19.6641 715.07L55.5701 721.412" fill="white"/>
<path d="M34.3387 704.192L19.6641 715.07L55.5701 721.412" stroke="#22211D" stroke-width="3.16414" stroke-miterlimit="10"/>
<path d="M8.89573 690.994L7.78125 702.371L28.2181 708.787" fill="white"/>
<path d="M8.89573 690.994L7.78125 702.371L28.2181 708.787" stroke="#22211D" stroke-width="3.16414" stroke-miterlimit="10"/>
<path d="M55.5704 737.689V721.412C55.5704 721.412 23.3664 695.209 23.0078 695.156" stroke="#22211D" stroke-width="3.16414" stroke-miterlimit="10"/>
<path d="M88.7052 690.994L89.8162 702.371L69.3828 708.787" fill="white"/>
<path d="M88.7052 690.994L89.8162 702.371L69.3828 708.787" stroke="#22211D" stroke-width="3.16414" stroke-miterlimit="10"/>
<path d="M46.1438 731.839C47.837 731.839 49.2095 730.467 49.2095 728.774C49.2095 727.081 47.837 725.708 46.1438 725.708C44.4507 725.708 43.0781 727.081 43.0781 728.774C43.0781 730.467 44.4507 731.839 46.1438 731.839Z" stroke="#22211D" stroke-width="3.16414" stroke-miterlimit="10"/>
<path d="M104.324 613.012C101.691 618.795 96.115 622.782 89.6602 622.782C80.674 622.782 73.3859 615.047 73.3859 605.502C73.3859 604.071 73.5512 602.683 73.8606 601.354C69.0124 600.331 63.9533 599.589 58.736 599.156C51.2862 598.713 48.0201 598.713 38.7632 599.044C33.69 599.406 28.7645 600.06 24.0253 600.978C24.5632 602.69 24.8515 604.521 24.8515 606.423C24.8515 615.969 17.5634 623.703 8.57723 623.703C1.46845 623.703 -4.57155 618.869 -6.78996 612.122C-22.463 621.203 -32.2578 634.134 -32.2578 648.482C-32.2578 662.808 -22.4947 675.718 -6.86731 684.803C-6.62121 684.943 -6.37511 685.084 -6.12901 685.225C-1.34412 687.935 3.96812 690.294 9.70929 692.228C21.0932 696.071 34.1435 698.25 48.0201 698.25C59.8751 698.25 71.1324 696.658 81.2576 693.8C87.3785 692.07 93.0845 689.879 98.2632 687.299C98.6323 687.116 98.9979 686.933 99.36 686.747C117.044 677.613 128.298 663.863 128.298 648.482C128.298 634.595 119.122 622.037 104.324 613.012ZM-5.03563 639.489C-11.835 639.489 -17.3441 637.541 -17.3441 635.136C-17.3441 632.732 -11.835 630.784 -5.03563 630.784C1.76025 630.784 7.26938 632.732 7.26938 635.136C7.26938 637.541 1.76025 639.489 -5.03563 639.489ZM101.969 639.489C95.1693 639.489 89.6602 637.541 89.6602 635.136C89.6602 632.732 95.1693 630.784 101.969 630.784C108.765 630.784 114.277 632.732 114.277 635.136C114.277 637.541 108.765 639.489 101.969 639.489Z" fill="#338862" stroke="#22211D" stroke-width="3.86729" stroke-miterlimit="10"/>
<path d="M7.26978 635.132C7.26978 637.537 1.76065 639.484 -5.03523 639.484C-11.8346 639.484 -17.3438 637.537 -17.3438 635.132C-17.3438 632.727 -11.8346 630.779 -5.03523 630.779C1.76065 630.779 7.26978 632.727 7.26978 635.132Z" fill="white" stroke="#22211D" stroke-width="5.27357" stroke-miterlimit="10"/>
<path d="M101.969 639.484C108.766 639.484 114.277 637.536 114.277 635.132C114.277 632.728 108.766 630.779 101.969 630.779C95.1709 630.779 89.6602 632.728 89.6602 635.132C89.6602 637.536 95.1709 639.484 101.969 639.484Z" fill="white" stroke="#22211D" stroke-width="5.27357" stroke-miterlimit="10"/>
<path d="M105.931 605.502C105.931 608.191 105.351 610.74 104.321 613.011C101.688 618.795 96.1119 622.782 89.6571 622.782C80.6709 622.782 73.3828 615.047 73.3828 605.502C73.3828 604.071 73.5481 602.682 73.8574 601.353C75.6047 593.816 82.0174 588.226 89.6571 588.226C98.6467 588.226 105.931 595.96 105.931 605.502Z" fill="white" stroke="#22211D" stroke-width="3.86729" stroke-miterlimit="10"/>
<path d="M24.027 600.977C21.8789 594.104 15.7721 589.146 8.57894 589.146C-0.41075 589.146 -7.69531 596.881 -7.69531 606.423C-7.69531 608.42 -7.37538 610.339 -6.78826 612.122C-4.56984 618.868 1.47016 623.702 8.57894 623.702C17.5651 623.702 24.8532 615.968 24.8532 606.423C24.8532 604.521 24.5649 602.689 24.027 600.977Z" fill="white" stroke="#22211D" stroke-width="3.86729" stroke-miterlimit="10"/>
<path d="M8.5834 602.91C12.7566 602.91 16.1492 606.254 16.1492 610.392C16.1492 614.53 12.7566 617.873 8.5834 617.873C4.39266 617.873 1 614.53 1 610.392C1 606.25 4.39266 602.91 8.5834 602.91Z" fill="#22211D" stroke="#22211D" stroke-width="3.16414" stroke-miterlimit="10"/>
<path d="M89.5834 602.91C93.7565 602.91 97.1492 606.254 97.1492 610.392C97.1492 614.53 93.7565 617.873 89.5834 617.873C85.3927 617.873 82 614.53 82 610.392C82 606.254 85.3927 602.91 89.5834 602.91Z" fill="#22211D" stroke="#22211D" stroke-width="3.16414" stroke-miterlimit="10"/>
<path d="M56.6066 637.86C56.6066 633.951 53.3968 630.78 49.4381 630.78C45.4794 630.78 42.2695 633.951 42.2695 637.86" stroke="#22211D" stroke-width="3.16414" stroke-miterlimit="10" stroke-linecap="round"/>
<path d="M101.969 639.484C108.766 639.484 114.277 637.536 114.277 635.132C114.277 632.728 108.766 630.779 101.969 630.779C95.1709 630.779 89.6602 632.728 89.6602 635.132C89.6602 637.536 95.1709 639.484 101.969 639.484Z" fill="#E15D34"/>
<path d="M7.26978 635.132C7.26978 637.537 1.76065 639.484 -5.03523 639.484C-11.8346 639.484 -17.3438 637.537 -17.3438 635.132C-17.3438 632.727 -11.8346 630.779 -5.03523 630.779C1.76065 630.779 7.26978 632.727 7.26978 635.132Z" fill="#E15D34"/>
<path d="M124.091 705.523L107.93 722.75" stroke="#22211D" stroke-width="3.16414" stroke-miterlimit="10"/>
<path d="M117.598 726.252L124.506 727.943C125.188 728.108 125.796 727.479 125.603 726.804L124.06 721.372C123.831 720.564 124.33 719.73 125.149 719.551L130.673 718.342C131.091 718.25 131.179 717.691 130.806 717.477L120.122 711.282" fill="#338862"/>
<path d="M117.598 726.252L124.506 727.943C125.188 728.108 125.796 727.479 125.603 726.804L124.06 721.372C123.831 720.564 124.33 719.73 125.149 719.551L130.673 718.342C131.091 718.25 131.179 717.691 130.806 717.477L120.122 711.282" stroke="#22211D" stroke-width="3.16414" stroke-miterlimit="10"/>
<path d="M125.304 727.975L118.519 726.298C117.812 726.123 117.109 726.583 116.979 727.297L116.019 732.729C115.889 733.46 114.926 733.65 114.528 733.02L108.453 722.997" fill="#338862"/>
<path d="M125.304 727.975L118.519 726.298C117.812 726.123 117.109 726.583 116.979 727.297L116.019 732.729C115.889 733.46 114.926 733.65 114.528 733.02L108.453 722.997" stroke="#22211D" stroke-width="3.16414" stroke-miterlimit="10"/>
<path d="M110.078 722.649L110.704 723.672L116.389 725.346C116.389 725.346 116.558 725.205 116.677 725.131C116.962 724.963 117.138 724.892 117.138 724.892C117.138 724.892 117.338 724.811 117.535 724.762C117.714 724.72 117.778 724.717 117.862 724.702L119.841 712.949L119.405 712.696L110.078 722.649Z" fill="#338862"/>
<defs>
<linearGradient id="paint0_linear_79_624" x1="509.5" y1="342.653" x2="448" y2="342.653" gradientUnits="userSpaceOnUse">
<stop stop-color="#898989"/>
<stop offset="1" stop-color="#EEEEEE"/>
</linearGradient>
<linearGradient id="paint1_linear_79_624" x1="446.5" y1="391" x2="509.486" y2="391.145" gradientUnits="userSpaceOnUse">
<stop stop-color="#56E6F6"/>
<stop offset="1" stop-color="#3C93A7"/>
</linearGradient>
<linearGradient id="paint2_linear_79_624" x1="9.53279" y1="8.76616" x2="181.513" y2="352.746" gradientUnits="userSpaceOnUse">
<stop stop-color="#56E6F7"/>
<stop offset="1" stop-color="#43A1B6"/>
</linearGradient>
<radialGradient id="paint3_radial_79_624" cx="0" cy="0" r="1" gradientUnits="userSpaceOnUse" gradientTransform="translate(99.8827 91.9335) rotate(89.8185) scale(179.339 195.464)">
<stop stop-color="#A7A7A7"/>
<stop offset="1" stop-color="#4E4E4E"/>
</radialGradient>
<clipPath id="clip0_79_624">
<path d="M252 389.93H370C400.376 389.93 425 414.554 425 444.93V580.93H252V389.93Z" fill="white"/>
</clipPath>
<clipPath id="clip1_79_624">
<path d="M252 389.93H370C400.376 389.93 425 414.554 425 444.93V580.93H252V389.93Z" fill="white"/>
</clipPath>
<clipPath id="clip2_79_624">
<rect width="14" height="94" fill="white" transform="translate(378 386.906)"/>
</clipPath>
<clipPath id="clip3_79_624">
<rect width="176" height="217" fill="white" transform="translate(202 363.906)"/>
</clipPath>
</defs>
</svg>
