<svg width="587" height="168" viewBox="0 0 587 168" fill="none" xmlns="http://www.w3.org/2000/svg">
<path d="M86.5724 0.0429177C86.513 0.0863137 78.5025 0.151392 68.7514 0.17309C59.0003 0.194788 50.9304 0.281565 50.7919 0.368357C50.5744 0.520213 50.0206 2.21246 46.2427 14.4704C45.234 17.7464 43.3748 23.7127 42.1485 27.7046C40.9024 31.6966 39.3003 36.8167 38.608 39.0947C37.9157 41.3511 37.263 43.4121 37.1641 43.6508C37.0652 43.8894 36.7488 44.8223 36.4719 45.7118C35.8983 47.5777 34.2962 52.611 32.8127 57.2104C32.2391 58.9461 31.448 61.4194 31.0128 62.7428C30.5975 64.0445 29.5294 67.3639 28.6393 70.1192C27.7493 72.8529 26.5427 76.6279 25.9494 78.472C23.0221 87.4973 22.4287 89.3848 21.7166 91.5977C21.3013 92.8995 20.5497 95.2426 20.0354 96.8046C18.6113 101.165 16.673 107.218 15.1895 111.883C14.4577 114.204 11.8666 122.318 9.45358 129.89C4.11322 146.661 3.77697 147.702 3.32205 149.199C3.12426 149.85 2.49133 151.803 1.93752 153.538C0.315629 158.55 -0.0997329 160.025 0.0189418 160.329C0.0980582 160.546 1.77928 160.698 7.29766 161.001C11.2535 161.218 15.0313 161.414 15.684 161.479C16.851 161.566 23.0023 161.913 27.057 162.108C28.2042 162.173 30.0239 162.26 31.1117 162.325C32.1996 162.39 35.1862 162.477 37.7377 162.542C40.2892 162.607 43.7704 162.694 45.4516 162.759C49.803 162.911 54.55 163.063 59.5936 163.193C66.1999 163.366 78.0476 163.713 81.1529 163.844C82.6759 163.887 86.157 163.995 88.8667 164.082C91.5963 164.147 94.484 164.256 95.295 164.299C96.8773 164.386 125.063 164.516 182.026 164.733C201.39 164.798 218.084 164.885 219.112 164.928C220.141 164.972 226.074 165.059 232.265 165.124C250.067 165.341 261.202 165.492 262.923 165.579C264.842 165.666 309.364 165.861 366.566 166.035C389.846 166.1 410.989 166.187 413.541 166.23C416.092 166.273 428.672 166.36 441.469 166.447C454.266 166.512 464.868 166.599 465.006 166.642C465.145 166.707 469.991 166.794 475.746 166.881C481.522 166.946 486.763 167.055 487.416 167.098C488.069 167.141 493.449 167.25 499.382 167.315C505.316 167.38 510.834 167.488 511.645 167.532C512.456 167.575 517.5 167.684 522.821 167.749C528.161 167.836 533.086 167.922 533.798 167.966C535.756 168.074 535.835 168.009 536.31 166.49C536.547 165.753 537.358 163.149 538.149 160.698C538.921 158.246 539.85 155.274 540.226 154.081C540.602 152.887 541.472 150.089 542.184 147.854C542.896 145.641 543.826 142.647 544.261 141.237C544.696 139.827 545.685 136.681 546.476 134.229C547.248 131.778 548.83 126.701 550.017 122.948C552.311 115.636 553.597 111.536 556.168 103.422C557.058 100.623 558.344 96.5226 559.016 94.3097C559.709 92.0967 560.994 87.9963 561.884 85.1976C562.774 82.3989 564.06 78.2984 564.752 76.0855C565.86 72.484 567.838 66.1924 570.587 57.5359C573.989 46.8183 574.978 43.6291 576.758 38.01C577.846 34.5387 579.409 29.5704 580.22 26.9453C581.05 24.3201 582.019 21.2394 582.376 20.1112C582.732 18.983 583.661 16.0542 584.433 13.6026C586.588 6.89868 587.103 5.16305 586.984 5.05458C586.885 4.94609 568.926 4.75083 542.105 4.59896C531.603 4.53388 518.746 4.44709 513.524 4.38201C508.303 4.31692 498.651 4.23014 492.064 4.16505C471.612 3.9698 461.189 3.83962 459.033 3.73115C457.886 3.66606 454.642 3.57928 451.814 3.51419C444.119 3.34063 439.491 3.21046 427.189 2.81994C415.143 2.42942 391.329 2.34263 352.325 2.5379C333.574 2.62467 327.442 2.58129 316.92 2.21246C315.397 2.16908 311.481 2.0606 308.217 1.99551C304.954 1.93043 299.435 1.77856 295.954 1.67008C288.319 1.40974 280.744 1.27957 265.494 1.1277C254.853 1.01922 250.146 0.975825 228.112 0.693781C223.661 0.650385 215.592 0.541911 210.212 0.476832C204.832 0.411738 196.722 0.303263 192.213 0.238184C181.987 0.108012 86.6713 -0.087255 86.5724 0.0429177Z" fill="#3840A9"/>
<path d="M91.0174 43.9189H105.988V68.4822L129.476 43.9189H147.674L117.912 75.2954L147.674 106.672H129.476L105.988 82.1086V106.672H91.0174V43.9189ZM148.315 94.3902H150.736C153.007 94.3902 154.62 93.6133 155.577 92.0594C156.593 90.5055 157.399 88.593 157.997 86.322L168.486 43.9189H209.544V106.672H194.573V57.366H179.781L170.727 94.2109C169.771 97.9761 168.067 100.994 165.617 103.265C163.167 105.536 159.491 106.672 154.591 106.672H148.315V94.3902ZM221.198 43.9189H236.169V83.4533L264.856 43.9189H279.738V106.672H264.856V67.1375L236.169 106.672H221.198V43.9189ZM291.41 43.9189H306.381V68.4822L329.869 43.9189H348.067L318.304 75.2954L348.067 106.672H329.869L306.381 82.1086V106.672H291.41V43.9189ZM390.591 96.5418H364.324L360.2 106.672H344.781L369.792 43.9189H385.122L410.134 106.672H394.714L390.591 96.5418ZM385.839 84.2601L377.502 63.7309L369.075 84.2601H385.839ZM414.937 43.9189H429.909V83.4533L458.596 43.9189H473.477V106.672H458.596V67.1375L429.909 106.672H414.937V43.9189ZM464.064 29.4857C463.168 30.8006 462.092 32.0556 460.837 33.2509C459.641 34.4462 458.207 35.522 456.534 36.4782C454.92 37.3747 453.067 38.0919 450.976 38.6297C448.944 39.1676 446.673 39.4366 444.162 39.4366C441.652 39.4366 439.351 39.1676 437.26 38.6297C435.228 38.0919 433.405 37.3747 431.791 36.4782C430.177 35.522 428.743 34.4462 427.488 33.2509C426.293 32.0556 425.247 30.8006 424.35 29.4857L430.805 24.1069C432.598 25.6608 434.69 26.8561 437.08 27.6928C439.531 28.4697 441.891 28.8582 444.162 28.8582C446.433 28.8582 448.764 28.4697 451.155 27.6928C453.605 26.8561 455.757 25.6608 457.609 24.1069L464.064 29.4857ZM491.156 107.568C488.885 107.568 486.972 106.791 485.418 105.238C483.864 103.684 483.087 101.771 483.087 99.5001C483.087 98.3646 483.297 97.3187 483.715 96.3625C484.133 95.3465 484.701 94.4799 485.418 93.7627C486.135 93.0455 486.972 92.4778 487.928 92.0594C488.944 91.6411 490.02 91.4319 491.156 91.4319C492.291 91.4319 493.337 91.6411 494.293 92.0594C495.309 92.4778 496.176 93.0455 496.893 93.7627C497.61 94.4799 498.178 95.3465 498.596 96.3625C499.015 97.3187 499.224 98.3646 499.224 99.5001C499.224 101.771 498.447 103.684 496.893 105.238C495.339 106.791 493.427 107.568 491.156 107.568ZM482.729 43.9189H499.493L496.624 87.846H485.598L482.729 43.9189Z" fill="white"/>
</svg>
