<svg width="781" height="812" viewBox="0 0 781 812" fill="none" xmlns="http://www.w3.org/2000/svg">
<path d="M773.034 7.21388C772.429 6.62225 766.346 1.94866 765.591 2.28225L758.728 0.213879C758.728 0.213879 747.62 0.44872 746.561 2.27609C746.56 2.27815 746.559 2.28022 746.558 2.28225C746.553 2.29015 746.548 2.29804 746.543 2.30586C746.22 2.71659 741.478 4.45923 740.042 6.73511C738.56 9.02195 737.282 11.0898 737.146 11.3648C737.045 11.6239 736.437 12.5801 735.868 13.4327C735.279 14.3371 734.477 14.8602 732.53 18.0397C730.303 21.5577 728.224 24.9245 727.895 25.5422C727.55 26.1239 726.557 27.7655 725.628 29.1638C724.715 30.5981 722.848 33.5704 721.474 35.8096C718.513 40.6825 715.313 45.7903 713.081 49.3961C708.126 57.3407 706.48 60.1299 700.877 70.2075C698.488 74.527 697.334 76.5832 696.108 78.6711C695.667 79.4242 694.068 82.3212 692.545 85.0986C691.002 87.9279 689.387 90.789 688.983 91.5262C687.528 93.9727 682.31 103.365 681.152 105.509C680.515 106.692 668.428 128.354 667.719 129.569C667.354 130.202 665.374 133.697 663.371 137.331C661.347 141.017 658.229 146.604 656.457 149.792C654.686 152.98 652.971 156.1 652.626 156.682C652.297 157.299 651.163 159.304 650.121 161.224C649.063 163.109 646.558 167.652 644.519 171.302C642.479 174.952 640.495 178.534 640.09 179.272C639.67 179.973 639.169 180.881 638.992 181.26C638.764 181.619 636.047 186.556 632.873 192.21C629.699 197.865 627.062 202.595 627.017 202.786C626.957 202.941 626.476 203.798 625.939 204.723C625.418 205.683 624.937 206.54 624.877 206.695C624.817 206.851 624.336 207.707 623.815 208.668C623.278 209.592 622.757 210.552 622.605 210.791C621.366 213.143 617.723 219.777 614.974 224.643C613.111 227.914 611.436 230.931 611.259 231.309C611.067 231.652 610.602 232.545 610.197 233.282C609.828 234.003 609.191 235.187 608.786 235.924C608.417 236.645 607.223 238.805 606.181 240.726C604.177 244.36 602.902 246.727 600.389 251.445C599.523 252.987 598.365 255.131 597.736 256.139C597.123 257.183 596.562 258.247 596.457 258.594C596.373 258.889 595.691 260.264 594.978 261.567C593.611 264.018 590.682 269.35 589.387 271.768C588.962 272.557 588.193 273.928 587.708 274.873C587.171 275.797 586.453 277.188 586.064 277.961C585.711 278.718 585.018 279.97 584.557 280.774C584.096 281.579 582.685 284.221 581.406 286.676C580.092 289.147 578.833 291.55 578.529 292.028C578.224 292.506 577.146 294.443 576.16 296.296C574.02 300.205 573.499 301.165 570.761 306.154C569.699 308.127 568.637 310.1 568.461 310.478C568.164 311.168 566.581 314.101 564.132 318.576C563.499 319.671 562.801 321.01 562.508 321.612C561.827 322.987 558.705 328.662 557.463 330.714C556.906 331.69 556.416 332.722 556.384 333.037C556.351 333.352 556.051 333.743 555.799 333.854C555.512 333.981 555.323 334.236 555.387 334.379C555.466 334.559 554.604 336.4 553.45 338.457C552.276 340.565 550.712 343.446 549.903 344.92C549.145 346.414 547.794 348.901 546.929 350.443C546.079 352.021 544.84 354.372 544.195 355.731C543.549 357.091 542.085 360.099 540.955 362.403C539.84 364.742 538.725 367.082 538.488 367.616C538.267 368.186 537.614 369.334 537.045 370.186C536.477 371.039 535.163 373.123 534.149 374.816C533.12 376.473 532.034 378.199 531.734 378.589C531.45 379.015 529.876 381.386 528.242 383.911C526.623 386.473 524.922 388.943 524.458 389.449C523.993 389.955 523.581 390.48 523.521 390.636C523.477 390.827 522.64 391.755 521.66 392.746C520.68 393.738 519.068 395.438 518.12 396.501C517.151 397.616 515.835 399.014 515.207 399.635C514.543 400.272 513.247 401.618 512.283 402.645C511.043 403.923 510.423 404.368 510.224 404.113C509.433 403.002 503.946 394.474 499.645 387.656C496.961 383.429 494.305 379.363 493.776 378.652C493.211 377.957 491.032 374.581 488.909 371.138C486.786 367.695 484.687 364.499 484.237 363.968C483.768 363.488 481.505 360.021 479.147 356.338C476.826 352.639 473.792 348.01 472.428 345.992C471.08 344.011 468.858 340.44 467.439 338.103C464.068 332.42 463.332 331.242 462.867 330.674C462.668 330.418 460.513 326.903 458.137 322.885C455.76 318.867 453.001 314.374 452.015 312.92C451.029 311.466 448.238 306.9 445.829 302.81C443.421 298.721 441.282 295.242 441.111 295.145C440.617 294.805 436.177 287.189 432.343 280.164C428.013 272.113 427.834 271.805 426.494 269.648C425.957 268.726 423.16 263.562 420.32 258.203C417.479 252.843 414.587 247.464 413.907 246.218C413.192 244.988 412.37 243.418 411.996 242.767C411.658 242.1 409.874 238.937 408.094 235.686C406.294 232.487 402.933 226.241 400.593 221.82C396.302 213.666 395.802 212.727 392.666 207.283C390.409 203.341 387.672 198.022 379.855 182.664C377.134 177.38 374.166 171.733 373.24 170.124C372.314 168.514 367.881 160.036 363.408 151.275C358.936 142.513 354.538 134.019 353.576 132.425C352.614 130.832 348.36 122.661 344.062 114.295C339.8 105.913 334.655 96.1164 332.701 92.4703C330.762 88.8601 328.191 84.1116 327.043 81.999C324.735 77.65 324.109 77.1101 321.687 77.3646C320.697 77.4583 320.157 77.6966 319.709 78.2382C319.201 78.9353 314.399 87.714 312.395 91.7351C311.95 92.576 310.847 94.6522 309.921 96.3498C309.016 97.9955 307.453 100.877 306.466 102.73C305.496 104.619 304.125 107.157 303.432 108.408C302.775 109.644 300.787 113.314 299.083 116.558C297.38 119.801 295.391 123.472 294.734 124.707C294.041 125.958 292.846 128.118 292.129 129.509C291.375 130.915 290.181 133.075 289.524 134.311C288.83 135.562 288.189 136.833 288.017 137.124C287.78 137.658 283.487 145.74 281.888 148.637C280.385 151.362 274.26 162.787 272.344 166.425C271.747 167.505 269.795 171.16 267.995 174.575C264.634 180.823 263.942 182.121 260.565 188.453L259.357 190.718C257.598 194.029 255.59 197.751 254.932 198.987C252.023 204.267 248.604 210.631 248.15 211.647C247.918 212.093 247.088 213.62 246.319 214.99C245.185 216.995 241.433 224.064 239.729 227.308C239.593 227.583 238.631 229.296 237.609 231.165C235.557 234.791 234.978 235.848 232.594 240.207L232.158 241.004C229.649 245.634 228.84 247.109 228.483 247.954C228.154 248.571 226.915 250.923 224.33 255.673C223.693 256.856 222.458 259.12 221.609 260.698C220.759 262.276 219.272 265.037 218.29 266.802C217.324 268.604 216.418 270.249 216.266 270.488C216.166 270.748 214.891 273.115 213.428 275.737C210.378 281.379 208.679 284.535 208.306 285.344C208.185 285.655 207.38 287.042 206.59 288.465C205.749 289.867 204.318 292.561 203.364 294.486C202.394 296.375 201.436 298.001 201.256 298.08C201.041 298.175 200.888 298.414 200.88 298.59C200.883 298.889 198.362 303.783 195.917 308.17C195.284 309.266 194.354 311.051 193.829 312.099L193.698 312.347C193.104 313.475 192.06 315.456 191.223 316.901C190.338 318.495 188.967 321.033 188.173 322.544C187.359 324.106 185.913 326.764 184.951 328.477C184.025 330.175 182.422 333.16 181.38 335.08C180.389 337.021 179.508 338.527 179.46 338.42C179.397 338.276 178.623 339.734 177.953 341.233C177.833 341.544 177.292 342.556 176.755 343.48C176.234 344.441 175.753 345.298 175.692 345.453C175.632 345.608 175.207 346.397 174.731 347.166C174.254 347.935 173.485 349.306 173.035 350.235C172.622 351.147 171.985 352.331 171.68 352.809C171.34 353.303 170.875 354.196 170.582 354.798C170.29 355.399 169.805 356.344 169.496 356.91C167.993 359.635 165.768 363.84 164.706 365.812C164.085 367.032 162.341 370.379 160.834 373.192C158.529 377.604 156.745 381.055 155.598 383.323C154.901 384.662 154.628 385.212 153.065 388.093C152.159 389.738 151.417 391.269 151.425 391.48C151.416 391.656 151.192 391.927 150.905 392.054C150.617 392.181 150.465 392.42 150.528 392.564C150.719 392.995 147.276 399.111 143.415 405.155C141.473 408.247 139.646 411.116 139.378 411.578C136.681 416.076 135.219 418.311 134.932 418.438C134.716 418.534 134.524 418.876 134.491 419.192C134.458 419.507 133.725 420.862 132.872 422.14C132.035 423.455 131.229 424.842 131.053 425.22C130.892 425.635 129.767 427.464 128.569 429.324C127.356 431.149 125.021 434.715 123.407 437.189C121.793 439.663 120.046 442.324 119.554 443.057C119.061 443.79 117.756 445.699 116.695 447.284C110.495 456.595 108.749 459.256 108.08 460.367C106.914 462.3 104.095 466.423 103.879 466.518C103.771 466.566 103.599 466.857 103.427 467.148L103.427 467.148C102.685 468.678 101.251 471.073 99.8734 473.013C99.0246 474.204 96.9539 477.395 95.2754 480.113C93.5451 482.81 92.0114 485.077 91.8316 485.156C91.6878 485.22 91.3274 485.765 91.0706 486.351C90.8138 486.937 89.8964 488.459 89.0074 489.754C88.1026 491.013 86.9652 492.718 86.4325 493.555C85.9357 494.375 84.9865 495.826 84.3777 496.782C83.7689 497.738 81.4699 501.288 79.283 504.702C77.132 508.101 75.2537 510.949 75.1099 511.013C74.8942 511.108 71.8234 515.342 69.869 518.311C69.3764 519.044 68.4356 520.318 67.8151 521.151C67.1946 521.983 65.3247 524.656 63.6271 527.038C60.0194 532.197 58.2097 534.715 57.6336 535.356C57.3936 535.591 56.8968 536.412 56.5639 537.117C56.1951 537.838 55.7067 538.484 55.491 538.579C55.2393 538.69 54.603 539.487 54.0502 540.375C53.5333 541.248 52.9613 541.801 52.7942 541.617C52.627 541.434 51.4877 540.605 50.2965 539.757C49.1053 538.909 47.6116 537.765 46.9705 537.189C46.3093 536.666 45.664 536.178 45.4725 536.133C45.2811 536.089 44.1259 535.225 42.8712 534.233C36.7258 529.174 33.3554 526.798 29.2543 524.615C26.8869 523.342 21.0296 519.616 20.8709 519.257C20.8074 519.113 16.7375 515.542 12.0541 511.556C10.7517 510.456 9.67263 509.472 9.625 509.365C9.57737 509.257 7.39907 507.342 4.77859 505.106C-1.44204 499.78 -5.71503 496.041 -5.79442 495.862C-5.84205 495.754 -7.31151 494.47 -9.06769 492.927C-14.4917 488.236 -16.8213 486.173 -22.8663 480.855C-24.2004 479.684 -26.3946 477.733 -27.7646 476.577C-33.543 471.571 -36.1593 469.248 -37.3019 468.12C-37.9748 467.473 -38.6159 466.897 -38.8073 466.853C-38.9628 466.793 -39.8589 466.029 -40.8026 465.157C-41.7103 464.27 -43.7532 462.466 -45.2904 461.127C-52.6938 454.777 -56.9985 450.967 -57.1255 450.679C-57.1891 450.535 -58.539 449.328 -60.0762 447.988C-61.6652 446.629 -63.6763 444.897 -64.5523 444.082C-65.4484 443.318 -67.6266 441.403 -69.4188 439.875C-71.1908 438.296 -73.1819 436.513 -73.8347 435.813C-74.4716 435.15 -75.1963 434.482 -75.4713 434.346C-75.7463 434.21 -76.7101 433.39 -77.6179 432.502C-79.1625 430.951 -81.1536 429.168 -85.4784 425.41C-86.5776 424.478 -89.2616 422.099 -91.4716 420.112C-93.6817 418.124 -96.2144 415.893 -97.1263 415.094C-98.0224 414.33 -100.113 412.419 -101.765 410.915C-103.418 409.412 -105.815 407.293 -107.082 406.177C-108.296 405.082 -109.813 403.691 -110.367 403.119C-110.956 402.563 -111.565 402.059 -111.757 402.015C-111.948 401.971 -112.98 401.095 -114.09 400.04C-115.201 398.984 -117.63 396.793 -119.558 395.154C-121.449 393.498 -123.914 391.323 -124.989 390.252C-126.064 389.181 -127.279 388.085 -127.705 387.801C-128.131 387.517 -129.195 386.569 -130.102 385.682C-131.01 384.794 -132.304 383.519 -133.013 382.887C-133.738 382.22 -135.318 380.685 -136.508 379.45C-137.735 378.23 -140.099 375.796 -141.775 374.045C-143.487 372.311 -146.019 369.693 -147.496 368.198C-148.921 366.723 -151.572 364.029 -153.332 362.186C-155.111 360.395 -157.846 357.609 -159.355 356.042C-163.312 351.949 -166.902 348.296 -170.645 344.494C-172.388 342.688 -174.904 340.106 -176.178 338.779L-176.41 338.539C-178.868 336.002 -182.668 332.081 -187.922 326.787C-189.701 324.996 -192.217 322.414 -193.455 321.071C-194.729 319.744 -197.177 317.218 -198.905 315.447C-200.684 313.656 -203.503 310.778 -205.266 309.024C-207.01 307.217 -209.458 304.691 -210.696 303.348C-214.111 299.703 -217.19 297.111 -218.084 297.034C-218.574 296.993 -219.548 297.123 -220.279 297.317C-221.545 297.661 -221.697 297.9 -222.874 301.169C-223.581 303.07 -224.586 306.048 -225.108 307.783C-225.647 309.481 -226.391 311.785 -226.756 312.806C-227.106 313.862 -227.616 315.333 -227.866 316.131C-229.43 321.246 -233.036 332.245 -233.373 333.038C-233.625 333.536 -233.714 333.919 -233.57 333.856C-233.426 333.792 -233.515 334.175 -233.752 334.709C-234.004 335.207 -234.889 337.874 -235.777 340.629C-238.069 347.985 -238.221 348.4 -238.728 349.781L-238.752 349.846C-239.033 350.572 -239.877 353.135 -240.605 355.475C-242.032 359.928 -242.277 363.945 -241.183 365.352C-240.701 365.955 -238.882 369.489 -232.209 382.647C-231.312 384.484 -229.524 387.946 -228.285 390.363C-227.045 392.779 -226.021 394.903 -226.013 395.114C-225.97 395.31 -225.144 396.792 -224.218 398.401C-223.256 399.995 -219.164 407.894 -215.149 415.912C-211.133 423.931 -207.165 431.842 -206.311 433.483C-205.457 435.125 -204.107 437.792 -203.253 439.433C-202.398 441.075 -201.286 443.203 -200.786 444.142C-200.233 445.1 -198.203 449.014 -196.277 452.887C-194.315 456.745 -192.063 461.162 -191.256 462.695C-190.486 464.245 -188.702 467.795 -187.324 470.622C-185.91 473.433 -184.449 476.352 -184.028 477.111C-183.606 477.87 -181.918 481.204 -180.298 484.483C-178.698 487.813 -177.264 490.573 -177.092 490.669C-176.957 490.781 -176.019 492.514 -175.058 494.495C-174.045 496.495 -172.806 498.911 -172.269 499.834C-171.753 500.808 -169.906 504.502 -168.179 508.12C-166.451 511.738 -164.244 516.346 -163.215 518.382C-162.186 520.419 -159.645 525.782 -157.536 530.262C-155.412 534.778 -152.629 540.592 -151.382 543.22C-147.422 551.306 -144.249 557.807 -143.236 559.808C-142.733 560.768 -140.914 564.545 -139.022 568.471L-138.511 569.531C-136.482 573.832 -133.936 579.107 -132.876 581.215C-131.799 583.36 -128.766 589.836 -126.086 595.61C-123.406 601.384 -119.579 609.658 -117.55 613.958C-115.521 618.259 -111.868 626.137 -109.41 631.408C-106.937 636.715 -103.185 644.721 -101.041 649.185C-98.9163 653.701 -96.4544 658.884 -95.5928 660.737C-94.7313 662.59 -91.2967 669.877 -87.9733 676.913C-84.6499 683.949 -79.4296 695.472 -76.3335 702.48C-73.2735 709.503 -64.2277 730.074 -56.2775 748.166L-41.77 781.099L-39.7799 783.269C-38.6933 784.464 -37.3793 785.687 -36.8853 786.027C-36.3912 786.368 -35.2804 787.423 -34.4805 788.358C-33.6447 789.277 -32.6015 790.277 -32.1752 790.561C-31.7489 790.845 -30.2878 792.304 -28.8627 793.779C-27.4576 795.306 -26.1319 796.653 -25.8728 796.753C-25.6337 796.905 -24.4075 798.124 -23.1697 799.467C-21.8958 800.794 -20.6696 802.013 -20.4105 802.114C-20.1714 802.266 -18.9928 803.377 -17.8385 804.628C-15.677 806.894 -13.8097 808.689 -11.7627 810.405C-11.0697 811.001 -9.88929 811.338 -8.38112 811.445L-6.08292 811.589L-3.84599 808.969C-2.63344 807.531 -1.63664 806.189 -1.64412 805.977C-1.63573 805.802 -1.51946 805.579 -1.37564 805.515C-1.12398 805.404 3.10238 800.186 11.4197 789.64C13.0127 787.604 15.0699 785.063 16.0023 783.964C16.9347 782.865 17.7074 781.793 17.7676 781.638C17.812 781.446 18.7327 780.224 19.7972 778.937C20.8977 777.635 23.3872 774.516 25.3365 772.023C28.6188 767.781 30.9603 764.814 34.8346 759.967C38.4025 755.531 42.8387 749.913 45.78 746.188L46.706 745.015C48.4312 742.792 50.3562 740.438 50.9524 739.746C51.5645 739.089 52.1491 738.272 52.3213 737.981C52.4778 737.654 53.8467 735.89 55.3795 734.01C56.9124 732.13 58.7855 729.756 59.5181 728.788C60.2866 727.805 62.368 725.124 64.2011 722.854C66.0183 720.548 68.2636 717.752 69.1642 716.581C76.565 707.169 83.0049 699.084 84.9099 696.782C85.8423 695.683 86.6309 694.647 86.6911 694.491C86.7513 694.336 87.4279 693.436 88.1922 692.54C88.9924 691.628 91.8223 688.015 94.5401 684.538C97.242 681.025 100.912 676.397 102.653 674.21C109.241 665.974 112.555 661.804 115.185 658.322C116.671 656.335 118.544 653.961 119.308 653.065C120.108 652.153 120.749 651.268 120.793 651.077C120.838 650.886 121.61 649.814 122.527 648.679C123.443 647.544 125.133 645.337 126.298 643.792C129.152 640.04 131.798 636.594 133.315 634.678C134.007 633.814 135.828 631.42 137.39 629.313C138.967 627.242 140.748 624.952 141.328 624.223C141.961 623.514 142.585 622.594 142.746 622.179C142.87 621.78 143.135 621.406 143.279 621.342C143.53 621.231 152.736 609.39 153.442 608.262C153.65 607.955 154.382 606.987 155.075 606.123C155.767 605.259 156.856 603.833 157.532 602.933C159.038 600.893 161.475 597.755 163.745 594.819C164.718 593.616 166.315 591.493 167.276 590.167C168.969 587.872 173.436 582.033 177.091 577.369C177.951 576.302 179.773 573.908 181.09 572.123C182.459 570.359 184.524 567.642 185.725 566.081C186.942 564.555 188.051 563.078 188.167 562.854C188.476 562.289 194.872 554.008 196.365 552.232C196.981 551.487 197.51 550.738 197.554 550.546C197.614 550.391 198.327 549.475 199.127 548.563C199.963 547.635 200.604 546.751 200.524 546.571C200.461 546.427 200.541 546.22 200.721 546.141C200.901 546.061 201.833 544.962 202.774 543.687C203.679 542.429 205.312 540.29 206.325 538.983C208.194 536.62 208.42 536.317 211.345 532.388L211.921 531.614C213.162 529.949 214.267 528.559 214.41 528.496C214.518 528.448 215.027 527.751 215.519 527.018C216.3 525.771 218.462 522.883 221.18 519.406C221.688 518.709 223.041 516.908 224.118 515.359C225.211 513.845 226.544 512.096 227.085 511.471C227.605 510.898 228.485 509.779 228.998 508.994C229.527 508.245 230.808 506.476 231.84 505.118C232.909 503.744 234.39 501.844 235.123 500.876C236.812 498.669 239.314 495.287 239.827 494.503C240.035 494.196 240.655 493.363 241.18 492.702C241.704 492.041 243.617 489.564 245.435 487.257C248.753 483 253.423 477.328 253.783 477.169C253.891 477.122 255.191 475.688 256.7 473.948C258.188 472.259 259.764 470.575 260.204 470.209C260.66 469.879 260.996 469.473 260.932 469.329C260.869 469.185 261.581 468.269 262.541 467.33C263.45 466.37 265.138 464.55 266.218 463.3C269.796 459.142 272.64 455.953 272.856 455.857C272.964 455.81 274.152 454.511 275.513 452.922C281.139 446.399 282.011 445.456 282.763 444.823C283.203 444.457 284.095 443.461 284.803 442.633C285.496 441.769 287.656 439.268 289.645 437.058C294.759 431.319 296.675 429.141 298.968 426.453C300.069 425.151 301.089 424.056 301.233 423.992C301.376 423.929 302.453 422.766 303.625 421.432C304.797 420.098 305.91 418.919 306.125 418.824C306.305 418.745 307.101 417.92 307.849 416.988C308.598 416.056 310.118 414.44 311.226 413.349C312.334 412.258 313.374 411.111 313.511 410.836C313.647 410.561 314.299 409.801 314.963 409.164C315.607 408.579 316.719 407.4 317.443 406.608C318.784 405.071 324.269 399.297 325.076 398.597C325.408 398.278 326.121 398.822 327.94 400.896C329.277 402.367 330.818 404.006 331.36 404.454C332.287 405.289 334.465 407.592 339.898 413.567C341.267 415.109 342.843 416.732 343.349 417.196C343.906 417.68 345.196 419.043 346.231 420.217C347.282 421.428 348.607 422.775 349.113 423.239C349.634 423.739 352.501 426.725 355.41 429.906C362.989 438.111 366.372 441.685 367.137 442.249C367.512 442.513 368.634 443.692 369.637 444.795C370.62 445.95 371.643 447.001 371.866 447.117C372.105 447.269 373.602 448.712 375.195 450.371C376.751 452.046 379.518 454.904 381.297 456.695C383.093 458.521 385.421 460.971 386.528 462.115C387.615 463.31 388.721 464.453 388.956 464.693C389.227 464.916 389.478 465.192 389.525 465.3C389.609 465.392 389.999 465.692 390.39 465.992C390.78 466.292 392.137 467.711 393.423 469.162C394.708 470.612 395.93 471.919 396.19 472.02C396.429 472.172 397.671 473.427 398.956 474.877C400.242 476.328 401.5 477.619 401.723 477.735C401.962 477.887 403.204 479.143 404.49 480.593C405.775 482.044 407.033 483.335 407.256 483.451C407.495 483.603 408.92 485.078 410.441 486.769C411.961 488.459 413.402 489.97 413.625 490.086C413.864 490.238 414.903 491.326 415.974 492.485C417.025 493.696 418.35 495.043 418.856 495.506C419.414 495.99 420.906 497.521 422.228 498.956C423.549 500.391 426.133 503.029 427.913 504.82C429.708 506.646 432.24 509.264 433.525 510.715C434.847 512.15 436.204 513.569 436.595 513.869C437.694 514.801 442.371 519.649 450.81 528.634C452.251 530.145 453.676 531.62 454.066 531.92C454.421 532.236 456.029 533.93 457.669 535.697C464.758 543.474 465.645 544.414 466.056 544.662C466.315 544.762 467.401 545.957 468.52 547.224C469.602 548.507 470.939 549.977 471.481 550.425C472.409 551.261 473.631 552.568 480.286 559.85C481.973 561.724 483.649 563.475 484.004 563.791C484.394 564.091 485.835 565.602 487.188 567.108C488.557 568.651 491.169 571.449 492.96 573.363C494.787 575.262 497.414 578.096 498.767 579.602C500.136 581.145 501.713 582.768 502.218 583.232C502.776 583.715 504.03 585.094 505.064 586.269C506.115 587.48 507.289 588.679 507.664 588.943C508.309 589.431 509.698 590.922 516.29 598.06C517.695 599.587 519.224 601.102 519.734 601.478C520.208 601.87 521.314 603.013 522.198 604.04C523.045 605.083 524.387 606.466 525.127 607.17C525.904 607.857 527.584 609.52 528.874 610.883C532.806 615.116 535.453 617.898 535.923 618.377C536.158 618.617 536.389 618.945 536.468 619.124C536.496 619.284 536.651 619.344 536.831 619.265C536.975 619.201 538.034 620.237 539.184 621.575C540.282 622.894 541.958 624.645 542.834 625.46C543.746 626.26 545.306 627.847 546.305 629.038C547.34 630.213 548.363 631.264 548.638 631.4C548.913 631.536 549.168 631.724 549.216 631.832C549.227 631.956 549.916 632.639 550.709 633.363C551.939 634.494 552.493 634.679 554.098 634.615C555.81 634.502 556.041 634.443 556.81 633.459C557.278 632.866 557.719 632.113 557.767 631.833C557.8 631.518 558.579 629.585 559.434 627.532C562.166 621.171 564.727 615.101 566.729 610.393C567.745 607.926 569.354 604.079 570.285 601.907C574.205 592.788 575.437 589.838 577.544 584.784C578.74 581.85 580.799 577.075 582.047 574.162C583.331 571.232 585.273 566.68 586.384 564.041C587.46 561.419 589.92 555.607 591.842 551.107C593.728 546.623 595.59 542.278 595.932 541.398C596.289 540.553 597.657 537.328 598.965 534.259C600.309 531.174 601.718 527.846 602.135 526.845L602.166 526.771C602.631 525.658 604.282 521.7 605.944 517.861C609.194 510.24 613.424 500.168 614.392 497.593C614.749 496.748 617.061 491.087 619.569 484.997C622.058 478.958 624.43 473.143 624.847 472.142C625.265 471.142 627.641 465.238 630.19 459.044C632.739 452.85 635.512 445.998 636.371 443.857C637.23 441.717 639.98 435.005 642.488 428.914C647.042 417.887 651.585 406.749 653.566 401.892L653.883 401.116C654.461 399.701 656.235 395.352 657.793 391.485C665.909 371.535 692.037 305.015 693.074 301.722C693.392 300.594 694.019 298.512 694.458 297.073C695.13 294.801 697.78 286.113 699.614 280.149C699.907 279.16 700.495 277.183 700.933 275.744C701.356 274.268 702.606 270.194 703.692 266.622C704.778 263.049 705.969 259.13 706.307 257.95C706.645 256.77 707.163 255.124 707.417 254.238C711.056 242.537 713.268 235.289 713.9 233.12C715.103 228.938 715.457 227.794 717.616 220.913C718.718 217.376 720.013 213.11 720.495 211.48C721.634 207.541 722.302 205.356 722.752 204.04C722.957 203.434 723.419 201.856 723.781 200.536C724.144 199.216 724.795 196.995 725.266 195.628C725.72 194.225 726.488 191.781 726.95 190.202C727.449 188.607 727.976 186.785 728.181 186.179C728.386 185.573 728.885 183.979 729.247 182.659C730.655 177.871 737.478 156.258 738.189 154.269C738.595 153.145 739.72 149.856 740.669 146.946C741.617 144.036 742.638 141.094 742.919 140.368C743.381 139.176 744.256 136.685 748.179 124.944C748.834 123.023 749.445 121.293 749.505 121.137C749.601 120.966 750.561 118.179 751.651 114.906C752.74 111.633 753.785 108.552 753.949 108.049C754.13 107.583 754.99 105.055 755.854 102.44C756.734 99.8609 757.715 97.0226 758.004 96.1216C758.755 94.0287 761.85 84.8875 763.228 80.7135C763.807 78.9115 764.498 76.9742 764.719 76.4041C764.96 75.7823 765.916 73.0834 766.804 70.3287L767.248 68.9974C768.093 66.4618 769.059 63.5613 769.593 62.0525C770.208 60.2346 771.164 57.5358 771.659 56.0289C772.189 54.506 772.864 52.5327 773.154 51.6317C773.188 51.5336 773.221 51.4384 773.252 51.3462C773.146 51.663 773.07 51.8885 773.034 52.0005C772.744 52.9755 775.526 44.7678 773.252 51.3462C774.055 48.9672 776.634 41.4309 777.84 37.9799C778.06 37.4098 778.776 35.3329 779.467 33.3955C779.688 32.8254 779.152 33.3683 781 28.2139C781 28.2139 780.741 24.0737 781 22.7139L781 15.0914C781 15.0914 773.941 8.10133 773.034 7.21388Z" fill="#E25D35"/>
</svg>
